*
*
G04 PADS VX.2.7 Build Number: 15549477 generated Gerber (RS-274-X) file*
G04 PC Version=2.1*
*
%IN "TMC5240-SA-DEV_V10.pcb"*%
*
%MOIN*%
*
%FSLAX35Y35*%
*
*
*
*
G04 PC Standard Apertures*
*
*
G04 Thermal Relief Aperture macro.*
%AMTER*
1,1,$1,0,0*
1,0,$1-$2,0,0*
21,0,$3,$4,0,0,45*
21,0,$3,$4,0,0,135*
%
*
*
G04 Annular Aperture macro.*
%AMANN*
1,1,$1,0,0*
1,0,$2,0,0*
%
*
*
G04 Odd Aperture macro.*
%AMODD*
1,1,$1,0,0*
1,0,$1-0.005,0,0*
%
*
*
G04 PC Custom Aperture Macros*
*
*
*
*
*
*
G04 PC Aperture Table*
*
%ADD017C,0.00394*%
%ADD031C,0.006*%
%ADD042C,0.001*%
%ADD053C,0.005*%
%ADD054C,0.002*%
*
*
*
*
G04 PC Circuitry*
G04 Layer Name TMC5240-SA-DEV_V10.pcb - circuitry*
%LPD*%
*
*
G04 PC Custom Flashes*
G04 Layer Name TMC5240-SA-DEV_V10.pcb - flashes*
%LPD*%
*
*
G04 PC Circuitry*
G04 Layer Name TMC5240-SA-DEV_V10.pcb - circuitry*
%LPD*%
*
G54D17*
G01X477973Y663992D02*
X482567D01*
X473947Y662755D02*
X475416D01*
X473958Y662578D02*
X475362D01*
X503722Y662755D02*
X502374D01*
X514232Y663639D02*
X512091D01*
X488883Y661695D02*
X487511D01*
X502504D02*
X503852D01*
X499368Y662402D02*
X500951D01*
X496681D02*
X495331D01*
X464188Y663815D02*
X464414D01*
X498784Y664345D02*
X496989D01*
X503765Y662402D02*
X502417D01*
X479089Y662578D02*
X477554D01*
X493343Y661871D02*
X494698D01*
X474125Y663815D02*
X477730D01*
X525950Y662932D02*
X527796D01*
X473370Y662225D02*
X472022D01*
X471806Y664699D02*
X472947D01*
X496746Y661871D02*
X495396D01*
X499366Y664345D02*
X500713D01*
X475942Y663462D02*
X474025D01*
X526270Y661871D02*
X528153D01*
X524347Y662932D02*
X522433D01*
X490865Y661871D02*
X489513D01*
X499601D02*
X501016D01*
X503548Y664169D02*
X502200D01*
X463319Y663992D02*
X463104D01*
X499235Y663815D02*
X497157D01*
X463544Y664522D02*
X463104D01*
X494482Y663639D02*
X489537D01*
X495179D02*
X496529D01*
X499385D02*
X497213D01*
X531484Y664522D02*
X536963D01*
X509161Y663992D02*
X511325D01*
X499432Y663815D02*
X500778D01*
X499442Y663639D02*
X500799D01*
X527261Y664522D02*
X525469D01*
X514435Y664169D02*
X512173D01*
X469959Y664345D02*
X466750D01*
X539527Y664699D02*
X541620D01*
X520490Y664522D02*
X518348D01*
X511325D02*
X509161D01*
X502157D02*
X503505D01*
X523032D02*
X524895D01*
X541620D02*
X539527D01*
X525523Y664345D02*
X527320D01*
X500691Y664522D02*
X499343D01*
X473088D02*
X471740D01*
X465150Y664345D02*
X465367D01*
X487877Y664169D02*
X484887D01*
X509161D02*
X511325D01*
X539527D02*
X541620D01*
X496789Y661518D02*
X495439D01*
X503917Y661165D02*
X502569D01*
X509161D02*
X511325D01*
X489620Y660988D02*
X490972D01*
X521633Y660811D02*
X528510D01*
X487539Y661518D02*
X488915D01*
X511325Y663462D02*
X509161D01*
X495223Y663285D02*
X496573D01*
X477198D02*
X479313D01*
X500821Y663462D02*
X497269D01*
X494503D02*
X492489D01*
X495201D02*
X496551D01*
X512063D02*
X514165D01*
X482654Y663285D02*
X480925D01*
X503613Y663639D02*
X502265D01*
X509161D02*
X511325D01*
X502287Y663462D02*
X503635D01*
X483364Y663285D02*
X485154D01*
X489485D02*
X491078D01*
X483299Y663815D02*
X488166D01*
X531484Y663462D02*
X535078D01*
X497619Y663285D02*
X497434D01*
X465150Y664169D02*
X465367D01*
X496974Y664522D02*
X498606D01*
X494416Y664169D02*
X493071D01*
X536334D02*
X531484D01*
X498934D02*
X497045D01*
X463319Y663815D02*
X463104D01*
X518348D02*
X520490D01*
X524651D02*
X522766D01*
X518348Y664169D02*
X520490D01*
X464414Y663992D02*
X464188D01*
X465150D02*
X465367D01*
X539527D02*
X541620D01*
X495114Y664169D02*
X496464D01*
X471805Y663992D02*
X473153D01*
X503591Y663815D02*
X502244D01*
X499388Y664169D02*
X500734D01*
X539527Y664345D02*
X541620D01*
X471762D02*
X473110D01*
X518348Y663639D02*
X520490D01*
X522632Y663462D02*
X524529D01*
X527618D02*
X525790D01*
X470217Y664169D02*
X466540D01*
X478245Y664345D02*
X480826D01*
X524590Y663639D02*
X522699D01*
X541620Y663462D02*
X539527D01*
X488478Y663285D02*
X486887D01*
X494460Y663815D02*
X489621D01*
X495158D02*
X496508D01*
X464188Y663639D02*
X464414D01*
X465367D02*
X465150D01*
X466272Y663815D02*
X470554D01*
X473197Y663639D02*
X471849D01*
X463319D02*
X463104D01*
X520490Y663462D02*
X518348D01*
X498326Y663285D02*
X500843D01*
X474049Y663639D02*
X482610D01*
X489511Y663462D02*
X491453D01*
X494525Y663285D02*
X492749D01*
X466047D02*
X467609D01*
X466138Y663639D02*
X470722D01*
X524834Y664345D02*
X522966D01*
X503657Y663285D02*
X502309D01*
X483256Y664169D02*
X484600D01*
X525576D02*
X527380D01*
X525843Y663285D02*
X527677D01*
X489828Y664169D02*
X492933D01*
X477107Y664345D02*
X474451D01*
X467532Y663108D02*
X466007D01*
X494438Y663992D02*
X489725D01*
X514107Y663108D02*
X512009D01*
X539527Y662225D02*
X541620D01*
X471448Y661341D02*
X470089D01*
X539527Y661518D02*
X541620D01*
X518348Y662932D02*
X520490D01*
X524407Y663108D02*
X522499D01*
X472131Y661341D02*
X473479D01*
X490950Y661165D02*
X489599D01*
X489018Y660811D02*
X487634D01*
X489642D02*
X490993D01*
X518348Y663108D02*
X520490D01*
X471318Y662048D02*
X469970D01*
X509161Y663108D02*
X511325D01*
X521167Y659574D02*
X523191D01*
X474429Y658691D02*
X475763D01*
X493738D02*
X495089D01*
X529223D02*
X527232D01*
X541620D02*
X539527D01*
X483196Y658867D02*
X481861D01*
X483906D02*
X485662D01*
X471438Y658514D02*
X469317D01*
X495743Y659044D02*
X497092D01*
X471543D02*
X470039D01*
X479490Y658691D02*
X478157D01*
X531484D02*
X539461D01*
X520490Y659044D02*
X518348D01*
X473175Y663815D02*
X471827D01*
X490826Y662225D02*
X489470D01*
X539527Y663815D02*
X541620D01*
X467377Y662755D02*
X465942D01*
X493291Y662225D02*
X494655D01*
X477519Y663992D02*
X474224D01*
X514367D02*
X512146D01*
X518348D02*
X520490D01*
X484621D02*
X483277D01*
X499410D02*
X500756D01*
X465367Y663815D02*
X465150D01*
X469705Y662755D02*
X471162D01*
X534764Y663285D02*
X531484D01*
X464414Y664169D02*
X464188D01*
X484737Y663992D02*
X488021D01*
X525683Y663815D02*
X527499D01*
X473305Y662755D02*
X471957D01*
X470385Y663992D02*
X466406D01*
X514044Y662578D02*
X511927D01*
X535706Y663815D02*
X531484D01*
X514023Y662402D02*
X511899D01*
X518348Y662755D02*
X520490D01*
X539527Y663285D02*
X541620D01*
X509161Y662578D02*
X511325D01*
X518348Y662402D02*
X520490D01*
X482589Y663815D02*
X477837D01*
X509161Y661871D02*
X511325D01*
X496703Y662225D02*
X495353D01*
X499038Y662932D02*
X500886D01*
X481124D02*
X482697D01*
X469496Y663108D02*
X471002D01*
X503744Y662578D02*
X502396D01*
X490817Y662402D02*
X489450D01*
X509161D02*
X511325D01*
X473988Y662225D02*
X475329D01*
X487205Y662755D02*
X488688D01*
X482806Y662048D02*
X481469D01*
X488820D02*
X487456D01*
X489491D02*
X490844D01*
X470000Y661871D02*
X471350D01*
X490964Y662932D02*
X489433D01*
X503700D02*
X502352D01*
X509161D02*
X511325D01*
X493151Y662755D02*
X494590D01*
X481280Y662578D02*
X482740D01*
X479055Y662225D02*
X477710D01*
X518348Y661871D02*
X520490D01*
X467454Y662932D02*
X465968D01*
X467176Y662225D02*
X466102D01*
X514086Y662932D02*
X511981D01*
X487401Y662402D02*
X488757D01*
X482849Y661695D02*
X481512D01*
X479201Y662932D02*
X477398D01*
X503678Y663108D02*
X502331D01*
X493033Y662932D02*
X494568D01*
X499213Y662755D02*
X500908D01*
X490850Y662578D02*
X489439D01*
X496659D02*
X495309D01*
X484927D02*
X483451D01*
X493247Y662402D02*
X494633D01*
X531484Y662048D02*
X533751D01*
X487428Y662225D02*
X488788D01*
X486993Y663108D02*
X488548D01*
X541620Y662048D02*
X539527D01*
X496616Y662932D02*
X495266D01*
X481202Y662755D02*
X482719D01*
X473414Y661871D02*
X472066D01*
X474032D02*
X475368D01*
X479095D02*
X477764D01*
X473976Y663108D02*
X475523D01*
X539527D02*
X541620D01*
X490907Y662755D02*
X489428D01*
X496638D02*
X495288D01*
X484984D02*
X483429D01*
X493204Y662578D02*
X494612D01*
X499291D02*
X500930D01*
X469940Y662225D02*
X471285D01*
X483516Y662048D02*
X484916D01*
X475697Y659221D02*
X474363D01*
X483885Y659044D02*
X485561D01*
X522947Y658867D02*
X520900D01*
X470645Y657630D02*
X467796D01*
X472391Y659221D02*
X473739D01*
X531484Y657807D02*
X541620D01*
X472304Y659928D02*
X473652D01*
X475610D02*
X474274D01*
X489068Y659044D02*
X487525D01*
X501428Y658514D02*
X500077D01*
X526164Y662225D02*
X528034D01*
X518348D02*
X520490D01*
X469810Y662578D02*
X471220D01*
X472044Y662048D02*
X473392D01*
X533822Y662755D02*
X531484D01*
X533508Y662578D02*
X531484D01*
X539527D02*
X541620D01*
X539527Y662755D02*
X541620D01*
X467291Y662402D02*
X465942D01*
X473968D02*
X475320D01*
X524103Y662225D02*
X522166D01*
X473327Y662578D02*
X471979D01*
X473348Y662402D02*
X472001D01*
X484890D02*
X483473D01*
X524286Y662755D02*
X522366D01*
X526003D02*
X527855D01*
X479046Y662402D02*
X477632D01*
X467300Y662578D02*
X465942D01*
X526057D02*
X527915D01*
X481359Y662402D02*
X482762D01*
X481437Y662225D02*
X482784D01*
X484903D02*
X483494D01*
X509161D02*
X511325D01*
X469911Y662402D02*
X471253D01*
X524225Y662578D02*
X522299D01*
X514029Y662225D02*
X511887D01*
X499446D02*
X500973D01*
X481578Y661165D02*
X482914D01*
X539527Y660634D02*
X541620D01*
X478091Y659221D02*
X479424D01*
X513482Y658337D02*
X520490D01*
X509161Y658160D02*
X511325D01*
X502591Y660988D02*
X503939D01*
X514109Y661165D02*
X512041D01*
X472543Y657984D02*
X473891D01*
X474539Y657807D02*
X475873D01*
X489095Y659751D02*
X487731D01*
X536756Y660281D02*
X531484D01*
X491356Y657807D02*
X490008D01*
X511325Y658337D02*
X509161D01*
X497136Y658691D02*
X495786D01*
X493848Y657807D02*
X495197D01*
X501385Y658867D02*
X500033D01*
X489082Y659928D02*
X487715D01*
X481927Y658337D02*
X483261D01*
X503874Y661518D02*
X502526D01*
X489771Y659751D02*
X491121D01*
X495548Y660634D02*
X496898D01*
X531484Y659397D02*
X538259D01*
X511325Y660988D02*
X509161D01*
X494980Y659574D02*
X493628D01*
X521034Y659221D02*
X523069D01*
X466443D02*
X467832D01*
X483152D02*
X481818D01*
X536155Y660634D02*
X531484D01*
X477742Y662048D02*
X479073D01*
X529045Y659221D02*
X527073D01*
X477961Y660281D02*
X479292D01*
X541620Y659397D02*
X539527D01*
X474120Y661165D02*
X475456D01*
X499747D02*
X501103D01*
X502635Y660634D02*
X503982D01*
X512963Y658867D02*
X520490D01*
X527179D02*
X529164D01*
X469773Y658691D02*
X471473D01*
X479182Y661165D02*
X477851D01*
X514075Y661518D02*
X511989D01*
X473457D02*
X472109D01*
X501146Y660811D02*
X499791D01*
X521433Y660281D02*
X528688D01*
X500055Y658691D02*
X501407D01*
X475785Y658514D02*
X474451D01*
X513279D02*
X520490D01*
X491313Y658160D02*
X489965D01*
X474495D02*
X475829D01*
X509161Y661518D02*
X511325D01*
X466932Y658337D02*
X471320D01*
X504286Y658160D02*
X502939D01*
X489044Y660458D02*
X487666D01*
X494959Y659751D02*
X493606D01*
X477939Y660458D02*
X479270D01*
X483711D02*
X485083D01*
X533451Y662225D02*
X531484D01*
X512067Y660988D02*
X514166D01*
X495570Y660458D02*
X496919D01*
X500995Y662048D02*
X499524D01*
X489577Y661341D02*
X490929D01*
X494872Y660458D02*
X493519D01*
X472261Y660281D02*
X473609D01*
X475588Y660104D02*
X474252D01*
X489749Y659928D02*
X491100D01*
X501190Y660458D02*
X499835D01*
X536456D02*
X531484D01*
X512562Y659574D02*
X514955D01*
X512092Y660811D02*
X514223D01*
X475566Y660281D02*
X474230D01*
X539527Y660458D02*
X541620D01*
X502461Y662048D02*
X503809D01*
X494763Y661341D02*
X493409D01*
X483001Y660458D02*
X481665D01*
X489685D02*
X491036D01*
X539527Y660281D02*
X541620D01*
X483755Y660104D02*
X485142D01*
X495656Y659751D02*
X497006D01*
X489663Y660634D02*
X491014D01*
X502656Y660458D02*
X504004D01*
X511325Y660104D02*
X509161D01*
X466526Y659044D02*
X467963D01*
X511912Y662048D02*
X514040D01*
X511325Y661341D02*
X509161D01*
X475346Y662048D02*
X474010D01*
X489706Y660281D02*
X491057D01*
X520490Y662048D02*
X518348D01*
X520490Y660104D02*
X518348D01*
X483690Y660634D02*
X485054D01*
X528093Y662048D02*
X526217D01*
X483798Y659751D02*
X485200D01*
X523981Y661871D02*
X522033D01*
X471605Y659574D02*
X470222D01*
X487484Y661871D02*
X488852D01*
X472196Y660811D02*
X473544D01*
X471518D02*
X470157D01*
X502613D02*
X503961D01*
X483733Y660281D02*
X485113D01*
X539527Y661871D02*
X541620D01*
X534052D02*
X531484D01*
X494894Y660281D02*
X493541D01*
X477982Y660104D02*
X479314D01*
X539527Y659751D02*
X541620D01*
X539527Y660988D02*
X541620D01*
X502700Y660104D02*
X504048D01*
X512015Y661341D02*
X514086D01*
X520490D02*
X518348D01*
X495700Y659397D02*
X497049D01*
X494850Y660634D02*
X493497D01*
X511325Y659397D02*
X509161D01*
X495591Y660281D02*
X496941D01*
X522099Y662048D02*
X524042D01*
X494720Y661695D02*
X493365D01*
X484928Y661871D02*
X483538D01*
X484954Y661518D02*
X483581D01*
X471383Y661695D02*
X470030D01*
X501081Y661341D02*
X499725D01*
X511325Y662048D02*
X509161D01*
X502548Y661341D02*
X503896D01*
X489031Y660634D02*
X487650D01*
X483044Y660104D02*
X481709D01*
X483087Y659751D02*
X481752D01*
X537658D02*
X531484D01*
X472348Y659574D02*
X473695D01*
X495002Y659397D02*
X493650D01*
X512663D02*
X515124D01*
X489057Y660281D02*
X487682D01*
X501342Y659221D02*
X499989D01*
X481491Y661871D02*
X482827D01*
X511325Y660811D02*
X509161D01*
X475741Y658867D02*
X474407D01*
X488993Y658514D02*
X486777D01*
X539527Y661165D02*
X541620D01*
X489922Y658514D02*
X491270D01*
X471505Y660988D02*
X470144D01*
X471578Y659221D02*
X470100D01*
X499703Y661518D02*
X501060D01*
X501168Y660634D02*
X499813D01*
X541620Y659221D02*
X539527D01*
X501233Y660104D02*
X499879D01*
X502830Y659044D02*
X504178D01*
X495067Y658867D02*
X493716D01*
X495110Y658514D02*
X493760D01*
X495808D02*
X497157D01*
X502917Y658337D02*
X504265D01*
X514004Y657984D02*
X520490D01*
X472174Y660988D02*
X473522D01*
X494915Y660104D02*
X493562D01*
X514052Y661871D02*
X511938D01*
X511325Y659574D02*
X509161D01*
X495374Y662048D02*
X496724D01*
X495613Y660104D02*
X496963D01*
X495765Y658867D02*
X497114D01*
X472478Y658514D02*
X473826D01*
X501038Y661695D02*
X499679D01*
X535254Y661165D02*
X531484D01*
X539527Y660811D02*
X541620D01*
X472283Y660104D02*
X473630D01*
X539527D02*
X541620D01*
X471580Y659928D02*
X470220D01*
X535855Y660811D02*
X531484D01*
X471530Y660634D02*
X470170D01*
X470059Y661518D02*
X471415D01*
X477830Y661341D02*
X479160D01*
X482979Y660634D02*
X481643D01*
X512118D02*
X514281D01*
X531484Y661341D02*
X534953D01*
X526350Y661518D02*
X528272D01*
X488947Y661341D02*
X487567D01*
X512144Y660458D02*
X514338D01*
X475478Y660988D02*
X474142D01*
X475522Y660634D02*
X474186D01*
X473500Y661165D02*
X472152D01*
X520490Y661695D02*
X518348D01*
X475500Y660811D02*
X474164D01*
X472218Y660634D02*
X473565D01*
X475434Y661341D02*
X474098D01*
X528331D02*
X526376D01*
X477873Y660988D02*
X479204D01*
X520490Y660458D02*
X518348D01*
X512169Y660281D02*
X514395D01*
X520490D02*
X518348D01*
X484979Y661165D02*
X483624D01*
X541620Y661341D02*
X539527D01*
X534653Y661518D02*
X531484D01*
X470119Y661165D02*
X471480D01*
X526401D02*
X528391D01*
X501125Y660988D02*
X499769D01*
X489006D02*
X487618D01*
X523894Y661518D02*
X521900D01*
X521700Y660988D02*
X528450D01*
X494807D02*
X493453D01*
X518348Y661518D02*
X520490D01*
X487594Y661165D02*
X488978D01*
X477895Y660811D02*
X479226D01*
X482957D02*
X481621D01*
X483603Y661341D02*
X484966D01*
X495461D02*
X496811D01*
X493431Y661165D02*
X494785D01*
X518348D02*
X520490D01*
X523844D02*
X521766D01*
X495418Y661695D02*
X496768D01*
X474076Y661518D02*
X475412D01*
X483559Y661695D02*
X484941D01*
X521833Y661341D02*
X523869D01*
X496833Y661165D02*
X495483D01*
X479139Y661518D02*
X477808D01*
X483646Y660988D02*
X484996D01*
X495505D02*
X496854D01*
X520490D02*
X518348D01*
X483668Y660811D02*
X485025D01*
X535554Y660988D02*
X531484D01*
X482936D02*
X481600D01*
X494829Y660811D02*
X493475D01*
X495526D02*
X496876D01*
X482892Y661341D02*
X481556D01*
X511325Y660634D02*
X509161D01*
X520490D02*
X518348D01*
X521567D02*
X528569D01*
X475544Y660458D02*
X474208D01*
X511325D02*
X509161D01*
X471555Y660281D02*
X470195D01*
X483022D02*
X481687D01*
X501212D02*
X499857D01*
X502678D02*
X504026D01*
X511325D02*
X509161D01*
X537057Y660104D02*
X531484D01*
X501277Y659751D02*
X499923D01*
X489792Y659574D02*
X491142D01*
X475675Y659397D02*
X474341D01*
X511325Y659221D02*
X509161D01*
X521367Y660104D02*
X528747D01*
X511325Y659751D02*
X509161D01*
X531484Y659221D02*
X538559D01*
X472326Y659751D02*
X473674D01*
X489069Y660104D02*
X487698D01*
X471593Y659751D02*
X470233D01*
X502808Y659221D02*
X504156D01*
X489728Y660104D02*
X491078D01*
X512262D02*
X514453D01*
X521100Y659397D02*
X523130D01*
X512763Y659221D02*
X515445D01*
X501363Y659044D02*
X500011D01*
X539527Y659928D02*
X541620D01*
X511325D02*
X509161D01*
X502743Y659751D02*
X504091D01*
X512362Y659928D02*
X514618D01*
X501298Y659574D02*
X499945D01*
X495024Y659221D02*
X493672D01*
X520490D02*
X518348D01*
X489115Y659397D02*
X487652D01*
X471568Y660104D02*
X470208D01*
X512863Y659044D02*
X516188D01*
X521233Y659751D02*
X528866D01*
X528926Y659574D02*
X526967D01*
X512462Y659751D02*
X514786D01*
X541620Y659044D02*
X539527D01*
X483131Y659397D02*
X481796D01*
X478004Y659928D02*
X479336D01*
X520490D02*
X518348D01*
X495678Y659574D02*
X497028D01*
X475632Y659751D02*
X474296D01*
X478026D02*
X479358D01*
X520490D02*
X518348D01*
X478070Y659397D02*
X479402D01*
X520490D02*
X518348D01*
X528985D02*
X527020D01*
X495721Y659221D02*
X497071D01*
X502787Y659397D02*
X504134D01*
X502765Y659574D02*
X504113D01*
X471543Y660458D02*
X470182D01*
X471613Y659397D02*
X470161D01*
X529401Y658160D02*
X527392D01*
X471074Y657984D02*
X467266D01*
X504330Y657807D02*
X502982D01*
X473804Y658691D02*
X472456D01*
X490029Y657630D02*
X491377D01*
X531484Y657454D02*
X541620D01*
X481534Y661518D02*
X482871D01*
X511325Y661695D02*
X509161D01*
X537357Y659928D02*
X531484D01*
X489814Y659397D02*
X491164D01*
X485408Y658160D02*
X488795D01*
X471508Y658867D02*
X469978D01*
X495219Y657630D02*
X493870D01*
X521300Y659928D02*
X528807D01*
X490908Y661518D02*
X489556D01*
X483820Y659574D02*
X485258D01*
X489108D02*
X487715D01*
X483841Y659397D02*
X485359D01*
X511325Y658867D02*
X509161D01*
X531484Y658160D02*
X541620D01*
X483304Y657984D02*
X481970D01*
X500166Y657807D02*
X501515D01*
X472434Y658867D02*
X473782D01*
X504221Y658691D02*
X502874D01*
X502895Y658514D02*
X504243D01*
X511325D02*
X509161D01*
X483109Y659574D02*
X481774D01*
X501320Y659397D02*
X499967D01*
X509161Y658691D02*
X511325D01*
X489836Y659221D02*
X491185D01*
X531484Y659044D02*
X538860D01*
X485356Y658160D02*
X483993D01*
X493387Y661518D02*
X494742D01*
X500122Y658160D02*
X501472D01*
X521500Y660458D02*
X528628D01*
X472586Y657630D02*
X473934D01*
X495917D02*
X497266D01*
X472239Y660458D02*
X473587D01*
X466467Y659397D02*
X467621D01*
X483863Y659221D02*
X485460D01*
X489091D02*
X487589D01*
X520490Y660811D02*
X518348D01*
X509161Y667526D02*
X511325D01*
X520490D02*
X516544D01*
X526309Y667350D02*
X524098D01*
X505548Y667173D02*
X499375D01*
X511325Y666289D02*
X509161D01*
X520490Y666113D02*
X513234D01*
X512985Y665759D02*
X516444D01*
X526666Y666289D02*
X523698D01*
X511325Y664876D02*
X509161D01*
X523165D02*
X525016D01*
X541620D02*
X539527D01*
X524165Y667526D02*
X526250D01*
X496216Y666289D02*
X494855D01*
X499599D02*
X505523D01*
X512497Y664876D02*
X514895D01*
X513420Y666289D02*
X520490D01*
X541620Y667526D02*
X531484D01*
X541620Y666113D02*
X531484D01*
X520490Y665759D02*
X518348D01*
X520490Y664876D02*
X518348D01*
X511325Y665759D02*
X509161D01*
X527142Y664876D02*
X525362D01*
X502005Y665759D02*
X503353D01*
X463104Y664699D02*
X463415D01*
X531484Y666643D02*
X541620D01*
X496173D02*
X494812D01*
X471480D02*
X472845D01*
X499353Y667350D02*
X505525D01*
X511325D02*
X509161D01*
X515290D02*
X520490D01*
X509161Y667173D02*
X511325D01*
X471523Y666289D02*
X472888D01*
X472867Y666466D02*
X471501D01*
X511325Y665936D02*
X509161D01*
X541620Y666466D02*
X531484D01*
X526785Y665936D02*
X523565D01*
X531484D02*
X539475D01*
X541620D02*
X539527D01*
X471622Y665759D02*
X472937D01*
X541620Y665229D02*
X539527D01*
X494677Y662048D02*
X493321D01*
X498817Y663108D02*
X500864D01*
X487099Y662932D02*
X488618D01*
X485041D02*
X483408D01*
X525416Y664699D02*
X527201D01*
X465367Y664522D02*
X465150D01*
X496421D02*
X495071D01*
X511325Y665229D02*
X509161D01*
X541620Y665052D02*
X539527D01*
X512594D02*
X515058D01*
X520490D02*
X518348D01*
X483266Y664699D02*
X484425D01*
X490505D02*
X492009D01*
X541620Y665406D02*
X539527D01*
X523632Y666113D02*
X526726D01*
X502070Y665229D02*
X503418D01*
X512692D02*
X515221D01*
X520490D02*
X518348D01*
X524031Y667173D02*
X526369D01*
X513082Y665936D02*
X520490D01*
X509161Y665582D02*
X511325D01*
X464414Y664699D02*
X464104D01*
X487059D02*
X485594D01*
X523765Y666466D02*
X526607D01*
X515746Y665582D02*
X512887D01*
X464634Y664699D02*
X465866D01*
X495137D02*
X496280D01*
X498037D02*
X497287D01*
X531484Y667350D02*
X541620D01*
X476308Y664699D02*
X474970D01*
X475577Y663285D02*
X474000D01*
X485097Y663108D02*
X483386D01*
X496594D02*
X495244D01*
X499379Y664699D02*
X500560D01*
X481046Y663108D02*
X482675D01*
X503483Y664699D02*
X502135D01*
X514732D02*
X512399D01*
X495496Y666996D02*
X494794D01*
X499397D02*
X505570D01*
X511325D02*
X509161D01*
X524955Y664699D02*
X523099D01*
X482524Y664345D02*
X481184D01*
X483234D02*
X484580D01*
X463721Y663992D02*
X463787D01*
X526547Y666643D02*
X523832D01*
X509161Y664699D02*
X511325D01*
X509161Y663285D02*
X511325D01*
X471462Y666996D02*
X472169D01*
X502113Y664876D02*
X503461D01*
X518348Y664699D02*
X520490D01*
X514128Y663285D02*
X512036D01*
X514382Y666996D02*
X520490D01*
X513793Y666643D02*
X520490D01*
X477786Y661695D02*
X479117D01*
X539527Y662402D02*
X541620D01*
X511964Y661695D02*
X514063D01*
X521966D02*
X523920D01*
X533194Y662402D02*
X531484D01*
X503787Y662225D02*
X502439D01*
X472087Y661695D02*
X473435D01*
X489534D02*
X490886D01*
X528212D02*
X526324D01*
X541620D02*
X539527D01*
X531484D02*
X534352D01*
X475390D02*
X474054D01*
X503830Y661871D02*
X502483D01*
X531484Y666289D02*
X541620D01*
X509161Y666113D02*
X511325D01*
X496260Y665936D02*
X494899D01*
X503309Y666113D02*
X501961D01*
X520490Y665406D02*
X518348D01*
X501983Y665936D02*
X503331D01*
X471566D02*
X472932D01*
X518348Y665582D02*
X520490D01*
X494833Y666466D02*
X496194D01*
X523365Y665406D02*
X525199D01*
X494877Y666113D02*
X496238D01*
X509161Y666466D02*
X511325D01*
X472910Y666113D02*
X471544D01*
X537277Y664699D02*
X531484D01*
X512790Y665406D02*
X515384D01*
X502048D02*
X503396D01*
X525736Y663639D02*
X527558D01*
X534450Y663108D02*
X531484D01*
X525896D02*
X527736D01*
X524164Y662402D02*
X522233D01*
X511325Y665406D02*
X509161D01*
X526110Y662402D02*
X527974D01*
X527082Y665052D02*
X525309D01*
X505636Y666466D02*
X499464D01*
X520490D02*
X513606D01*
X531484Y665052D02*
X537905D01*
X531484Y664876D02*
X537591D01*
X531484Y666996D02*
X541620D01*
X496265Y665759D02*
X494954D01*
X503374Y665582D02*
X502027D01*
X494790Y666819D02*
X496035D01*
X509161D02*
X511325D01*
X541620D02*
X531484D01*
X526904Y665582D02*
X523432D01*
X541620D02*
X539527D01*
X541620Y667173D02*
X531484D01*
X526428Y666996D02*
X523965D01*
X505592Y666819D02*
X499420D01*
X523299Y665229D02*
X525138D01*
X527023D02*
X525256D01*
X478920Y664699D02*
X480174D01*
X463976Y664522D02*
X464414D01*
X467059D02*
X469618D01*
X494395Y664345D02*
X493048D01*
X495092D02*
X496443D01*
X536649D02*
X531484D01*
X472707Y666819D02*
X471458D01*
X520490Y667173D02*
X514750D01*
X531484Y665582D02*
X538847D01*
X482369Y664699D02*
X481252D01*
X469264D02*
X467395D01*
X511325Y666643D02*
X509161D01*
X499442D02*
X505614D01*
X463566Y664169D02*
X463941D01*
X536020Y663992D02*
X531484D01*
X535392Y663639D02*
X531484D01*
X470842Y663462D02*
X468920D01*
X469601Y662932D02*
X471082D01*
X463672Y664345D02*
X463437D01*
X473283Y662932D02*
X471936D01*
X525629Y663992D02*
X527439D01*
X523898Y666819D02*
X526488D01*
X512302Y664522D02*
X514570D01*
X465367Y663462D02*
X465150D01*
X476938D02*
X479677D01*
X539161Y665759D02*
X531484D01*
X534136Y662932D02*
X531484D01*
X484560Y664522D02*
X483212D01*
X539527Y662932D02*
X541620D01*
X487666Y664345D02*
X485037D01*
X463104D02*
X463319D01*
X520490Y666819D02*
X514087D01*
X481167Y664522D02*
X482502D01*
X503526Y664345D02*
X502179D01*
X463319Y664169D02*
X463104D01*
X539527Y665759D02*
X541620D01*
X489967Y664345D02*
X492689D01*
X494237Y664699D02*
X493112D01*
X485187Y664522D02*
X487363D01*
X463849Y664345D02*
X464070D01*
X509161D02*
X511325D01*
X482545Y664169D02*
X481202D01*
X524712Y663992D02*
X522832D01*
X466087Y663462D02*
X468006D01*
X471871D02*
X473218D01*
X523499Y665759D02*
X526845D01*
X482632Y663462D02*
X480665D01*
X491021Y663108D02*
X489459D01*
X492915D02*
X494547D01*
X473952Y662932D02*
X475470D01*
X518348Y663285D02*
X520490D01*
X509161Y662755D02*
X511325D01*
X480575Y664522D02*
X478381D01*
X492445D02*
X490235D01*
X478109Y664169D02*
X481078D01*
X524468Y663285D02*
X522566D01*
X485949Y663639D02*
X483321D01*
X531484Y665229D02*
X538219D01*
X474710Y664522D02*
X476901D01*
X514502Y664345D02*
X512204D01*
X518348D02*
X520490D01*
X514065Y662755D02*
X511954D01*
X485971Y663639D02*
X488310D01*
X464414Y664345D02*
X464188D01*
X514300Y663815D02*
X512118D01*
X523232Y665052D02*
X525077D01*
X479257Y663108D02*
X477320D01*
X471784Y664169D02*
X473132D01*
X479145Y662755D02*
X477476D01*
X477313Y664169D02*
X474323D01*
X487311Y662578D02*
X488725D01*
X518348D02*
X520490D01*
X531484Y665406D02*
X538533D01*
X470922Y663285D02*
X469392D01*
X471892D02*
X473240D01*
X511325Y665052D02*
X509161D01*
X503570Y663992D02*
X502222D01*
X524773Y664169D02*
X522899D01*
X463319Y663462D02*
X463104D01*
X499084Y663992D02*
X497101D01*
X493026Y664522D02*
X494373D01*
X495136Y663992D02*
X496486D01*
X526963Y665406D02*
X525202D01*
X509161Y663815D02*
X511325D01*
X502092Y665052D02*
X503439D01*
X539527Y663639D02*
X541620D01*
X464188Y663462D02*
X464414D01*
X483343D02*
X485527D01*
X488409D02*
X486454D01*
X473262Y663108D02*
X471914D01*
X486975Y657277D02*
X487407D01*
X481883Y658691D02*
X483218D01*
X489879Y658867D02*
X491228D01*
X522765Y658337D02*
X520700D01*
X520834Y658691D02*
X522887D01*
X541620Y657984D02*
X531484D01*
X539160Y658867D02*
X531484D01*
X475851Y657984D02*
X474517D01*
X502960D02*
X504308D01*
X478244D02*
X479577D01*
X485392Y657454D02*
X484118D01*
X511325Y657984D02*
X509161D01*
X495873D02*
X497222D01*
X541620Y658337D02*
X531484D01*
X520490Y658691D02*
X513076D01*
X493804Y658160D02*
X495154D01*
X520501Y657807D02*
X522583D01*
X522826Y658514D02*
X520767D01*
X520490Y657807D02*
X514339D01*
X527339Y658337D02*
X529342D01*
X491249Y658691D02*
X489900D01*
X489044Y658867D02*
X487462D01*
X485949Y658691D02*
X483928D01*
X527286Y658514D02*
X529283D01*
X467099Y658160D02*
X471197D01*
X478135Y658867D02*
X479468D01*
X479555Y658160D02*
X478222D01*
X503004Y657630D02*
X504352D01*
X493930Y657454D02*
X495228D01*
X466609Y658867D02*
X468093D01*
X467467Y657807D02*
X470944D01*
X520634Y658160D02*
X522704D01*
X501493Y657984D02*
X500144D01*
X527445D02*
X529461D01*
X473912Y657807D02*
X472565D01*
X509161D02*
X511325D01*
X501537Y657630D02*
X500188D01*
X491363Y657454D02*
X490089D01*
X495132Y658337D02*
X493782D01*
X489943D02*
X491292D01*
X488335Y657630D02*
X485996D01*
X520490Y657454D02*
X522461D01*
X478179Y658514D02*
X479511D01*
X495830Y658337D02*
X497179D01*
X473869Y658160D02*
X472521D01*
X515001Y657630D02*
X520434D01*
X520490Y658160D02*
X513684D01*
X497255Y657454D02*
X495972D01*
X497201Y658160D02*
X495852D01*
X483950Y658514D02*
X486407D01*
X495176Y657984D02*
X493826D01*
X479599Y657807D02*
X478266D01*
X511325Y657630D02*
X509161D01*
X527551D02*
X529580D01*
X522643Y657984D02*
X520567D01*
X500253Y657454D02*
X501544D01*
X495045Y659044D02*
X493694D01*
X477917Y660634D02*
X479248D01*
X501255Y659928D02*
X499901D01*
X520490Y659574D02*
X518348D01*
X472369Y659397D02*
X473717D01*
X478048Y659574D02*
X479380D01*
X531484D02*
X537958D01*
X475654D02*
X474319D01*
X494937Y659928D02*
X493584D01*
X483776D02*
X485171D01*
X478113Y659044D02*
X479446D01*
X502852Y658867D02*
X504200D01*
X511325Y659044D02*
X509161D01*
X539527Y658867D02*
X541620D01*
X468358Y658691D02*
X466692D01*
X489857Y659044D02*
X491206D01*
X487218Y658691D02*
X489020D01*
X479533Y658337D02*
X478200D01*
X488894D02*
X483971D01*
X466775Y658514D02*
X468856D01*
X522522Y657630D02*
X520490D01*
X483066Y659928D02*
X481730D01*
X495635D02*
X496984D01*
X541620Y659574D02*
X539527D01*
X502721Y659928D02*
X504069D01*
X475719Y659044D02*
X474385D01*
X529104D02*
X527126D01*
X484015Y657984D02*
X485369D01*
X474473Y658337D02*
X475807D01*
X488697Y657984D02*
X485604D01*
X478288Y657630D02*
X479621D01*
X486243Y657454D02*
X488088D01*
X473924D02*
X472642D01*
X469573Y657277D02*
X468923D01*
X484058Y657630D02*
X485408D01*
X485800Y657807D02*
X488582D01*
X501450Y658337D02*
X500099D01*
X520967Y659044D02*
X523008D01*
X541620Y658514D02*
X531484D01*
X472413Y659044D02*
X473761D01*
X483239Y658514D02*
X481905D01*
X475895Y657630D02*
X474561D01*
X483174Y659044D02*
X481839D01*
X481948Y658160D02*
X483283D01*
X473847Y658337D02*
X472500D01*
X481992Y657807D02*
X483326D01*
X485389D02*
X484037D01*
X489986Y657984D02*
X491334D01*
X483348Y657630D02*
X482014D01*
X468126Y657454D02*
X470346D01*
X520367D02*
X516028D01*
X529639D02*
X527604D01*
X504338D02*
X503064D01*
X474595D02*
X475904D01*
X479630D02*
X478349D01*
X529520Y657807D02*
X527498D01*
X482076Y657454D02*
X483355D01*
X509161D02*
X511325D01*
X497244Y657807D02*
X495895D01*
X541620Y657630D02*
X531484D01*
G54D31*
X546616Y565484D02*
X548205Y560143D01*
X546616Y565484D02*
X545027Y560143D01*
X547609Y561923D02*
X545623D01*
X543239Y565484D02*
Y560143D01*
Y565484D02*
X541452D01*
X540856Y565230*
X540657Y564976*
X540458Y564467*
Y563958*
X540657Y563449*
X540856Y563195*
X541452Y562941*
X543239D02*
X541452D01*
X540856Y562686*
X540657Y562432*
X540458Y561923*
Y561160*
X540657Y560651*
X540856Y560397*
X541452Y560143*
X543239*
X538671Y565484D02*
Y560143D01*
Y565484D02*
X535890Y560143D01*
Y565484D02*
Y560143D01*
X529533Y565484D02*
Y560143D01*
Y565484D02*
X526951D01*
X529533Y562941D02*
X527944D01*
X529533Y560143D02*
X526951D01*
X525163Y563704D02*
Y560143D01*
Y562686D02*
X524567Y563449D01*
X524170Y563704*
X523574*
X523177Y563449*
X522978Y562686*
Y560143*
X518807Y562941D02*
X519204Y563449D01*
X519602Y563704*
X520197*
X520595Y563449*
X520992Y562941*
X521191Y562178*
Y561669*
X520992Y560906*
X520595Y560397*
X520197Y560143*
X519602*
X519204Y560397*
X518807Y560906*
X516026Y563704D02*
X516423Y563449D01*
X516821Y562941*
X517019Y562178*
Y561669*
X516821Y560906*
X516423Y560397*
X516026Y560143*
X515430*
X515033Y560397*
X514636Y560906*
X514437Y561669*
Y562178*
X514636Y562941*
X515033Y563449*
X515430Y563704*
X516026*
X510266Y565484D02*
Y560143D01*
Y562941D02*
X510663Y563449D01*
X511060Y563704*
X511656*
X512053Y563449*
X512451Y562941*
X512649Y562178*
Y561669*
X512451Y560906*
X512053Y560397*
X511656Y560143*
X511060*
X510663Y560397*
X510266Y560906*
X508478Y562178D02*
X506094D01*
Y562686*
X506293Y563195*
X506492Y563449*
X506889Y563704*
X507485*
X507882Y563449*
X508279Y562941*
X508478Y562178*
Y561669*
X508279Y560906*
X507882Y560397*
X507485Y560143*
X506889*
X506492Y560397*
X506094Y560906*
X504307Y563704D02*
Y560143D01*
Y562178D02*
X504108Y562941D01*
X503711Y563449*
X503313Y563704*
X502717*
X500532Y560397D02*
X500731Y560143D01*
X500930Y560397*
X500731Y560651*
X500532Y560397*
Y559888*
X500731Y559379*
X500930Y559125*
X494176Y565484D02*
Y560143D01*
Y565484D02*
X492388D01*
X491792Y565230*
X491594Y564976*
X491395Y564467*
Y563958*
X491594Y563449*
X491792Y563195*
X492388Y562941*
X494176*
X492786D02*
X491395Y560143D01*
X489607Y562178D02*
X487224D01*
Y562686*
X487422Y563195*
X487621Y563449*
X488018Y563704*
X488614*
X489012Y563449*
X489409Y562941*
X489607Y562178*
Y561669*
X489409Y560906*
X489012Y560397*
X488614Y560143*
X488018*
X487621Y560397*
X487224Y560906*
X483847Y565484D02*
X484244D01*
X484642Y565230*
X484840Y564467*
Y560143*
X485436Y563704D02*
X484046D01*
X477491Y565484D02*
Y560143D01*
X475107*
X469744Y566502D02*
X473319Y558362D01*
X467956Y565484D02*
Y560143D01*
Y565484D02*
X466168D01*
X465572Y565230*
X465374Y564976*
X465175Y564467*
Y563958*
X465374Y563449*
X465572Y563195*
X466168Y562941*
X467956*
X466566D02*
X465175Y560143D01*
X546815Y605031D02*
Y599689D01*
X548205Y605031D02*
X545424D01*
X543637D02*
Y599689D01*
Y605031D02*
X542047Y599689D01*
X540458Y605031D02*
X542047Y599689D01*
X540458Y605031D02*
Y599689D01*
X535691Y603759D02*
X535890Y604268D01*
X536287Y604777*
X536684Y605031*
X537479*
X537876Y604777*
X538273Y604268*
X538472Y603759*
X538671Y602996*
Y601724*
X538472Y600961*
X538273Y600452*
X537876Y599944*
X537479Y599689*
X536684*
X536287Y599944*
X535890Y600452*
X535691Y600961*
X531321Y605031D02*
X533307D01*
X533506Y602742*
X533307Y602996*
X532712Y603251*
X532116*
X531520Y602996*
X531122Y602487*
X530924Y601724*
X531122Y601216*
X531321Y600452*
X531718Y599944*
X532314Y599689*
X532910*
X533506Y599944*
X533705Y600198*
X533903Y600707*
X528937Y603759D02*
Y604014D01*
X528739Y604522*
X528540Y604777*
X528143Y605031*
X527348*
X526951Y604777*
X526752Y604522*
X526554Y604014*
Y603505*
X526752Y602996*
X527150Y602233*
X529136Y599689*
X526355*
X522581Y605031D02*
X524567Y601470D01*
X521588*
X522581Y605031D02*
Y599689D01*
X518608Y605031D02*
X519204Y604777D01*
X519602Y604014*
X519800Y602742*
Y601979*
X519602Y600707*
X519204Y599944*
X518608Y599689*
X518211*
X517615Y599944*
X517218Y600707*
X517019Y601979*
Y602742*
X517218Y604014*
X517615Y604777*
X518211Y605031*
X518608*
X550567Y490352D02*
X549508Y485516D01*
X548449Y490352D02*
X549508Y485516D01*
X548449Y490352D02*
X547389Y485516D01*
X546330Y490352D02*
X547389Y485516D01*
X543946Y490352D02*
X542887Y485516D01*
X541827Y490352D02*
X542887Y485516D01*
X541827Y490352D02*
X540768Y485516D01*
X539708Y490352D02*
X540768Y485516D01*
X537325Y490352D02*
X536265Y485516D01*
X535206Y490352D02*
X536265Y485516D01*
X535206Y490352D02*
X534146Y485516D01*
X533087Y490352D02*
X534146Y485516D01*
X530439Y486207D02*
X530703Y485862D01*
X530439Y485516*
X530174Y485862*
X530439Y486207*
X525936Y492770D02*
Y485516D01*
X527790Y492770D02*
X524082D01*
X521698D02*
Y485516D01*
Y492770D02*
X519315D01*
X518520Y492425*
X518255Y492079*
X517990Y491388*
Y490697*
X518255Y490007*
X518520Y489661*
X519315Y489316*
X521698*
X519844D02*
X517990Y485516D01*
X515607Y492770D02*
Y485516D01*
X513223Y492770D02*
Y485516D01*
Y492770D02*
X509515Y485516D01*
Y492770D02*
Y485516D01*
X505013Y492770D02*
X507131Y485516D01*
X505013Y492770D02*
X502894Y485516D01*
X506337Y487934D02*
X503688D01*
X500510Y492770D02*
Y485516D01*
Y492770D02*
X498391Y485516D01*
X496272Y492770D02*
X498391Y485516D01*
X496272Y492770D02*
Y485516D01*
X493889Y492770D02*
Y485516D01*
X487532Y491043D02*
X487797Y491734D01*
X488327Y492425*
X488857Y492770*
X489916*
X490446Y492425*
X490975Y491734*
X491240Y491043*
X491505Y490007*
Y488280*
X491240Y487243*
X490975Y486552*
X490446Y485862*
X489916Y485516*
X488857*
X488327Y485862*
X487797Y486552*
X487532Y487243*
X484884Y486207D02*
X485149Y485862D01*
X484884Y485516*
X484619Y485862*
X484884Y486207*
X479057Y489316D02*
X479587Y490007D01*
X480116Y490352*
X480911*
X481441Y490007*
X481970Y489316*
X482235Y488280*
Y487589*
X481970Y486552*
X481441Y485862*
X480911Y485516*
X480116*
X479587Y485862*
X479057Y486552*
X475349Y490352D02*
X475879Y490007D01*
X476408Y489316*
X476673Y488280*
Y487589*
X476408Y486552*
X475879Y485862*
X475349Y485516*
X474555*
X474025Y485862*
X473495Y486552*
X473230Y487589*
Y488280*
X473495Y489316*
X474025Y490007*
X474555Y490352*
X475349*
X470847D02*
Y485516D01*
Y488970D02*
X470052Y490007D01*
X469522Y490352*
X468728*
X468198Y490007*
X467933Y488970*
Y485516*
Y488970D02*
X467139Y490007D01*
X466609Y490352*
X465814*
X465285Y490007*
X465020Y488970*
Y485516*
X548007Y509271D02*
Y509526D01*
X547808Y510034*
X547609Y510289*
X547212Y510543*
X546417*
X546020Y510289*
X545822Y510034*
X545623Y509526*
Y509017*
X545822Y508508*
X546219Y507745*
X548205Y505201*
X545424*
X543438Y505710D02*
X543637Y505456D01*
X543438Y505201*
X543239Y505456*
X543438Y505710*
X540260Y510543D02*
X540856Y510289D01*
X541253Y509526*
X541452Y508254*
Y507491*
X541253Y506219*
X540856Y505456*
X540260Y505201*
X539862*
X539267Y505456*
X538869Y506219*
X538671Y507491*
Y508254*
X538869Y509526*
X539267Y510289*
X539862Y510543*
X540260*
X535294D02*
X536883Y505201D01*
X535294Y510543D02*
X533705Y505201D01*
X536287Y506982D02*
X534301D01*
X525958Y511561D02*
X526355Y511052D01*
X526752Y510289*
X527150Y509271*
X527348Y507999*
Y506982*
X527150Y505710*
X526752Y504692*
X526355Y503929*
X525958Y503421*
X524170Y508762D02*
Y505201D01*
Y507236D02*
X523972Y507999D01*
X523574Y508508*
X523177Y508762*
X522581*
X520793D02*
Y505201D01*
Y507745D02*
X520197Y508508D01*
X519800Y508762*
X519204*
X518807Y508508*
X518608Y507745*
Y505201*
Y507745D02*
X518012Y508508D01*
X517615Y508762*
X517019*
X516622Y508508*
X516423Y507745*
Y505201*
X512451Y507999D02*
X512649Y508508D01*
X513245Y508762*
X513841*
X514437Y508508*
X514636Y507999*
X514437Y507491*
X514040Y507236*
X513047Y506982*
X512649Y506727*
X512451Y506219*
Y505964*
X512649Y505456*
X513245Y505201*
X513841*
X514437Y505456*
X514636Y505964*
X510663Y511561D02*
X510266Y511052D01*
X509868Y510289*
X509471Y509271*
X509272Y507999*
Y506982*
X509471Y505710*
X509868Y504692*
X510266Y503929*
X510663Y503421*
X546219Y538102D02*
X548205Y534541D01*
X545226*
X546219Y538102D02*
Y532760D01*
X543239Y533269D02*
X543438Y533015D01*
X543239Y532760*
X543041Y533015*
X543239Y533269*
X538671Y538102D02*
X540657D01*
X540856Y535813*
X540657Y536067*
X540061Y536321*
X539465*
X538869Y536067*
X538472Y535558*
X538273Y534795*
X538472Y534286*
X538671Y533523*
X539068Y533015*
X539664Y532760*
X540260*
X540856Y533015*
X541054Y533269*
X541253Y533778*
X536287Y533269D02*
X536486Y533015D01*
X536287Y532760*
X536088Y533015*
X536287Y533269*
X534102D02*
X534301Y533015D01*
X534102Y532760*
X533903Y533015*
X534102Y533269*
X531917D02*
X532116Y533015D01*
X531917Y532760*
X531718Y533015*
X531917Y533269*
X529533Y538102D02*
X527348D01*
X528540Y536067*
X527944*
X527547Y535813*
X527348Y535558*
X527150Y534795*
Y534286*
X527348Y533523*
X527746Y533015*
X528342Y532760*
X528937*
X529533Y533015*
X529732Y533269*
X529931Y533778*
X522978Y537339D02*
X523177Y537848D01*
X523773Y538102*
X524170*
X524766Y537848*
X525163Y537085*
X525362Y535813*
Y534541*
X525163Y533523*
X524766Y533015*
X524170Y532760*
X523972*
X523376Y533015*
X522978Y533523*
X522780Y534286*
Y534541*
X522978Y535304*
X523376Y535813*
X523972Y536067*
X524170*
X524766Y535813*
X525163Y535304*
X525362Y534541*
X520992Y538102D02*
X519403Y532760D01*
X517814Y538102D02*
X519403Y532760D01*
X545424Y576709D02*
X545822Y577218D01*
X546417Y577472*
X547212*
X547808Y577218*
X548205Y576709*
Y576200*
X548007Y575692*
X547808Y575437*
X547411Y575183*
X546219Y574674*
X545822Y574420*
X545623Y574165*
X545424Y573657*
Y572893*
X545822Y572385*
X546417Y572130*
X547212*
X547808Y572385*
X548205Y572893*
X543637Y577472D02*
Y572130D01*
Y577472D02*
X541849D01*
X541253Y577218*
X541054Y576963*
X540856Y576455*
Y575692*
X541054Y575183*
X541253Y574928*
X541849Y574674*
X543637*
X539068Y577472D02*
Y572130D01*
X536883Y572385D02*
X537082Y572130D01*
X537280Y572385*
X537082Y572639*
X536883Y572385*
Y571876*
X537082Y571367*
X537280Y571113*
X530527Y577472D02*
Y573657D01*
X530328Y572893*
X529931Y572385*
X529335Y572130*
X528937*
X528342Y572385*
X527944Y572893*
X527746Y573657*
Y577472*
X524369D02*
X525958Y572130D01*
X524369Y577472D02*
X522780Y572130D01*
X525362Y573911D02*
X523376D01*
X520992Y577472D02*
Y572130D01*
Y577472D02*
X519204D01*
X518608Y577218*
X518410Y576963*
X518211Y576455*
Y575946*
X518410Y575437*
X518608Y575183*
X519204Y574928*
X520992*
X519602D02*
X518211Y572130D01*
X515033Y577472D02*
Y572130D01*
X516423Y577472D02*
X513642D01*
X511457Y572385D02*
X511656Y572130D01*
X511855Y572385*
X511656Y572639*
X511457Y572385*
Y571876*
X511656Y571367*
X511855Y571113*
X548239Y440479D02*
X546650Y435643D01*
X545061Y440479D02*
X546650Y435643D01*
X542677Y441515D02*
X542147Y441860D01*
X541353Y442897*
Y435643*
X538704Y436334D02*
X538969Y435988D01*
X538704Y435643*
X538440Y435988*
X538704Y436334*
X534467Y442897D02*
X535261Y442551D01*
X535791Y441515*
X536056Y439788*
Y438752*
X535791Y437025*
X535261Y435988*
X534467Y435643*
X533937*
X533142Y435988*
X532613Y437025*
X532348Y438752*
Y439788*
X532613Y441515*
X533142Y442551*
X533937Y442897*
X534467*
G54D42*
G54D53*
X552192Y521233D02*
Y516962D01*
Y521233D02*
X550918Y516962D01*
X549644Y521233D02*
X550918Y516962D01*
X549644Y521233D02*
Y516962D01*
X547414Y519809D02*
X547733Y519606D01*
X548051Y519199*
X548210Y518589*
Y518182*
X548051Y517572*
X547733Y517166*
X547414Y516962*
X546936*
X546618Y517166*
X546299Y517572*
X546140Y518182*
Y518589*
X546299Y519199*
X546618Y519606*
X546936Y519809*
X547414*
X544229Y521233D02*
Y517776D01*
X544069Y517166*
X543751Y516962*
X543432*
X544706Y519809D02*
X543591D01*
X541202D02*
X541521Y519606D01*
X541839Y519199*
X541999Y518589*
Y518182*
X541839Y517572*
X541521Y517166*
X541202Y516962*
X540725*
X540406Y517166*
X540087Y517572*
X539928Y518182*
Y518589*
X540087Y519199*
X540406Y519606*
X540725Y519809*
X541202*
X538495D02*
Y516962D01*
Y518589D02*
X538335Y519199D01*
X538335D02*
X538017Y519606D01*
X537698Y519809*
X537221*
X529735Y520216D02*
X529894Y520623D01*
X530213Y521030*
X530531Y521233*
X531168*
X531487Y521030*
X531805Y520623*
X531965Y520216*
X532124Y519606*
Y518589*
X531965Y517979*
X531805Y517572*
X531487Y517166*
X531168Y516962*
X530531*
X530213Y517166*
X529894Y517572*
X529735Y517979*
X528301Y519809D02*
Y517776D01*
X528142Y517166*
X527824Y516962*
X527346*
X527027Y517166*
X526549Y517776*
Y519809D02*
Y516962D01*
X525116Y519809D02*
Y516962D01*
Y518589D02*
X524957Y519199D01*
X524638Y519606*
X524320Y519809*
X523842*
X522408D02*
Y516962D01*
Y518589D02*
X522249Y519199D01*
X521930Y519606*
X521612Y519809*
X521134*
X519701Y518589D02*
X517789D01*
Y518996*
X517949Y519403*
X518108Y519606*
X518426Y519809*
X518904*
X519223Y519606*
X519541Y519199*
X519701Y518589*
Y518182*
X519541Y517572*
X519223Y517166*
X518904Y516962*
X518426*
X518108Y517166*
X517789Y517572*
X516356Y519809D02*
Y516962D01*
Y518996D02*
X515878Y519606D01*
X515560Y519809*
X515082*
X514763Y519606*
X514604Y518996*
Y516962*
X512693Y521233D02*
Y517776D01*
X512533Y517166*
X512215Y516962*
X511896*
X513170Y519809D02*
X512056D01*
X506800Y521233D02*
Y516962D01*
Y521233D02*
X505366D01*
X504888Y521030*
X504729Y520826*
X504570Y520420*
Y520013*
X504729Y519606*
X504888Y519403*
X505366Y519199*
X506800*
X505685D02*
X504570Y516962D01*
X501225Y519809D02*
Y516962D01*
Y519199D02*
X501544Y519606D01*
X501862Y519809*
X502340*
X502658Y519606*
X502977Y519199*
X503136Y518589*
Y518182*
X502977Y517572*
X502658Y517166*
X502340Y516962*
X501862*
X501544Y517166*
X501225Y517572*
X499314Y521233D02*
Y517776D01*
X499154Y517166*
X498836Y516962*
X498517*
X499792Y519809D02*
X498677D01*
X497084Y521233D02*
X496925Y521030D01*
X496765Y521233*
X496925Y521436*
X497084Y521233*
X496925Y519809D02*
Y516962D01*
X495332Y519809D02*
Y516962D01*
Y518996D02*
X494854Y519606D01*
X494536Y519809*
X494058*
X493739Y519606*
X493580Y518996*
Y516962*
X490235Y519809D02*
Y516555D01*
X490394Y515945*
X490554Y515742*
X490872Y515539*
X491350*
X491669Y515742*
X490235Y519199D02*
X490554Y519606D01*
X490872Y519809*
X491350*
X491669Y519606*
X491987Y519199*
X492146Y518589*
Y518182*
X491987Y517572*
X491669Y517166*
X491350Y516962*
X490872*
X490554Y517166*
X490235Y517572*
X488642Y519809D02*
X488802Y519606D01*
X488642Y519403*
X488483Y519606*
X488642Y519809*
Y517369D02*
X488802Y517166D01*
X488642Y516962*
X488483Y517166*
X488642Y517369*
X552192Y548792D02*
X550918Y544521D01*
X549644Y548792D02*
X550918Y544521D01*
X547414Y547369D02*
X547733Y547165D01*
X548051Y546758*
X548210Y546148*
Y545742*
X548051Y545131*
X547733Y544725*
X547414Y544521*
X546936*
X546618Y544725*
X546299Y545131*
X546140Y545742*
Y546148*
X546299Y546758*
X546618Y547165*
X546936Y547369*
X547414*
X544706Y548792D02*
Y544521D01*
X542795Y548792D02*
Y545335D01*
X542636Y544725*
X542317Y544521*
X541999*
X543273Y547369D02*
X542158D01*
X538654D02*
Y544521D01*
Y546758D02*
X538973Y547165D01*
X539291Y547369*
X539769*
X540087Y547165*
X540406Y546758*
X540565Y546148*
Y545742*
X540406Y545131*
X540087Y544725*
X539769Y544521*
X539291*
X538973Y544725*
X538654Y545131*
X535309Y547369D02*
Y544115D01*
X535469Y543504*
X535628Y543301*
X535946Y543098*
X536424*
X536743Y543301*
X535309Y546758D02*
X535628Y547165D01*
X535946Y547369*
X536424*
X536743Y547165*
X537061Y546758*
X537221Y546148*
Y545742*
X537061Y545131*
X536743Y544725*
X536424Y544521*
X535946*
X535628Y544725*
X535309Y545131*
X533876Y546148D02*
X531965D01*
Y546555*
X532124Y546962*
X532283Y547165*
X532602Y547369*
X533080*
X533398Y547165*
X533717Y546758*
X533876Y546148*
Y545742*
X533717Y545131*
X533398Y544725*
X533080Y544521*
X532602*
X532283Y544725*
X531965Y545131*
X530372Y547369D02*
X530531Y547165D01*
X530372Y546962*
X530213Y547165*
X530372Y547369*
Y544928D02*
X530531Y544725D01*
X530372Y544521*
X530213Y544725*
X530372Y544928*
X552192Y615721D02*
Y611450D01*
Y615721D02*
X550122D01*
X552192Y613688D02*
X550918D01*
X552192Y611450D02*
X550122D01*
X548688Y614298D02*
X547733Y611450D01*
X546777Y614298D02*
X547733Y611450D01*
X543432Y614298D02*
Y611450D01*
Y613688D02*
X543751Y614094D01*
X544069Y614298*
X544547*
X544866Y614094*
X545184Y613688*
X545343Y613077*
Y612671*
X545184Y612061*
X544866Y611654*
X544547Y611450*
X544069*
X543751Y611654*
X543432Y612061*
X541999Y615721D02*
Y611450D01*
X540565Y614298D02*
Y612264D01*
X540406Y611654*
X540087Y611450*
X539610*
X539291Y611654*
X538813Y612264*
Y614298D02*
Y611450D01*
X535469Y614298D02*
Y611450D01*
Y613688D02*
X535787Y614094D01*
X536106Y614298*
X536583*
X536902Y614094*
X537221Y613688*
X537380Y613077*
Y612671*
X537221Y612061*
X536902Y611654*
X536583Y611450*
X536106*
X535787Y611654*
X535469Y612061*
X533557Y615721D02*
Y612264D01*
X533398Y611654*
X533079Y611450*
X532761*
X534035Y614298D02*
X532920D01*
X531327Y615721D02*
X531168Y615518D01*
X531009Y615721*
X531168Y615925*
X531327Y615721*
X531168Y614298D02*
Y611450D01*
X528779Y614298D02*
X529098Y614094D01*
X529416Y613688*
X529575Y613077*
Y612671*
X529416Y612061*
X529098Y611654*
X528779Y611450*
X528301*
X527983Y611654*
X527664Y612061*
X527505Y612671*
Y613077*
X527664Y613688*
X527983Y614094*
X528301Y614298*
X528779*
X526071D02*
Y611450D01*
Y613484D02*
X525594Y614094D01*
X525275Y614298*
X524797*
X524479Y614094*
X524319Y613484*
Y611450*
X519223Y615721D02*
Y611450D01*
Y615721D02*
X517789D01*
X517311Y615518*
X517152Y615315*
X516993Y614908*
Y614501*
X517152Y614094*
X517311Y613891*
X517789Y613688*
X519223D02*
X517789D01*
X517311Y613484*
X517152Y613281*
X516993Y612874*
Y612264*
X517152Y611857*
X517311Y611654*
X517789Y611450*
X519223*
X514763Y614298D02*
X515082Y614094D01*
X515400Y613688*
X515559Y613077*
Y612671*
X515400Y612061*
X515082Y611654*
X514763Y611450*
X514285*
X513967Y611654*
X513648Y612061*
X513489Y612671*
Y613077*
X513648Y613688*
X513967Y614094*
X514285Y614298*
X514763*
X510144D02*
Y611450D01*
Y613688D02*
X510463Y614094D01*
X510781Y614298*
X511259*
X511578Y614094*
X511896Y613688*
X512055Y613077*
Y612671*
X511896Y612061*
X511578Y611654*
X511259Y611450*
X510781*
X510463Y611654*
X510144Y612061*
X508711Y614298D02*
Y611450D01*
Y613077D02*
X508551Y613688D01*
X508233Y614094*
X507914Y614298*
X507437*
X504092Y615721D02*
Y611450D01*
Y613688D02*
X504410Y614094D01*
X504729Y614298*
X505207*
X505525Y614094*
X505844Y613688*
X506003Y613077*
Y612671*
X505844Y612061*
X505525Y611654*
X505207Y611450*
X504729*
X504410Y611654*
X504092Y612061*
X498995Y615721D02*
Y611450D01*
Y615721D02*
X497562D01*
X497084Y615518*
X496925Y615315*
X496765Y614908*
Y614298*
X496925Y613891*
X497084Y613688*
X497562Y613484*
X498995*
X495332Y615721D02*
Y611450D01*
X491987Y614298D02*
Y611450D01*
Y613688D02*
X492306Y614094D01*
X492624Y614298*
X493102*
X493421Y614094*
X493739Y613688*
X493898Y613077*
Y612671*
X493739Y612061*
X493421Y611654*
X493102Y611450*
X492624*
X492306Y611654*
X491987Y612061*
X490076Y615721D02*
Y612264D01*
X489917Y611654*
X489598Y611450*
X489279*
X490554Y614298D02*
X489439D01*
X486572Y615721D02*
X486890D01*
X487209Y615518*
X487368Y614908*
Y611450*
X487846Y614298D02*
X486731D01*
X484342D02*
X484661Y614094D01*
X484979Y613688*
X485138Y613077*
Y612671*
X484979Y612061*
X484661Y611654*
X484342Y611450*
X483864*
X483546Y611654*
X483227Y612061*
X483068Y612671*
Y613077*
X483227Y613688*
X483546Y614094*
X483864Y614298*
X484342*
X481634D02*
Y611450D01*
Y613077D02*
X481475Y613688D01*
X481157Y614094*
X480838Y614298*
X480360*
X478927D02*
Y611450D01*
Y613484D02*
X478449Y614094D01*
X478130Y614298*
X477653*
X477334Y614094*
X477175Y613484*
Y611450*
Y613484D02*
X476697Y614094D01*
X476378Y614298*
X475901*
X475582Y614094*
X475423Y613484*
Y611450*
X473830Y614298D02*
X473989Y614094D01*
X473830Y613891*
X473671Y614094*
X473830Y614298*
Y611857D02*
X473989Y611654D01*
X473830Y611450*
X473671Y611654*
X473830Y611857*
X552192Y588162D02*
Y583891D01*
X550759Y586739D02*
Y583891D01*
Y585925D02*
X550281Y586535D01*
X549962Y586739*
X549485*
X549166Y586535*
X549007Y585925*
Y583891*
X547095Y588162D02*
Y584705D01*
X546936Y584095*
X546618Y583891*
X546299*
X547573Y586739D02*
X546458D01*
X544866Y585518D02*
X542954D01*
Y585925*
X543114Y586332*
X543273Y586535*
X543591Y586739*
X544069*
X544388Y586535*
X544706Y586128*
X544866Y585518*
Y585112*
X544706Y584501*
X544388Y584095*
X544069Y583891*
X543591*
X543273Y584095*
X542954Y584501*
X541521Y586739D02*
Y583891D01*
Y585518D02*
X541362Y586128D01*
X541043Y586535*
X540725Y586739*
X540247*
X537539Y588162D02*
X537858D01*
X538176Y587959*
X538335Y587349*
Y583891*
X538813Y586739D02*
X537698D01*
X534194D02*
Y583891D01*
Y586128D02*
X534513Y586535D01*
X534831Y586739*
X535309*
X535628Y586535*
X535946Y586128*
X536106Y585518*
Y585112*
X535946Y584501*
X535628Y584095*
X535309Y583891*
X534831*
X534513Y584095*
X534194Y584501*
X530850Y586128D02*
X531168Y586535D01*
X531487Y586739*
X531965*
X532283Y586535*
X532602Y586128*
X532761Y585518*
Y585112*
X532602Y584501*
X532283Y584095*
X531965Y583891*
X531487*
X531168Y584095*
X530850Y584501*
X529416Y585518D02*
X527505D01*
Y585925*
X527664Y586332*
X527823Y586535*
X528142Y586739*
X528620*
X528938Y586535*
X529257Y586128*
X529416Y585518*
Y585112*
X529257Y584501*
X528938Y584095*
X528620Y583891*
X528142*
X527823Y584095*
X527505Y584501*
X524319Y586128D02*
X524479Y586535D01*
X524957Y586739*
X525434*
X525912Y586535*
X526071Y586128*
X525912Y585722*
X525594Y585518*
X524797Y585315*
X524479Y585112*
X524319Y584705*
Y584501*
X524479Y584095*
X524957Y583891*
X525434*
X525912Y584095*
X526071Y584501*
X522727Y586739D02*
X522886Y586535D01*
X522727Y586332*
X522567Y586535*
X522727Y586739*
Y584298D02*
X522886Y584095D01*
X522727Y583891*
X522567Y584095*
X522727Y584298*
G54D54*
X561647Y670576D02*
X560559D01*
X561647Y670743D02*
X560559D01*
X444165D02*
X443078D01*
X561647Y670910D02*
X560559D01*
X444165D02*
X443078D01*
X561647Y671078D02*
X560559D01*
X444165D02*
X443078D01*
X561647Y671245D02*
X560559D01*
X444165D02*
X443078D01*
X561647Y671412D02*
X560559D01*
X444165D02*
X443078D01*
X561647Y671580D02*
X560559D01*
X444165D02*
X443078D01*
X561647Y671747D02*
X560559D01*
X444165D02*
X443078D01*
X561647Y671914D02*
X560559D01*
X444165D02*
X443078D01*
X561647Y672082D02*
X560559D01*
X444165D02*
X443078D01*
X561647Y672249D02*
X560559D01*
X444165D02*
X443078D01*
X561647Y672416D02*
X560559D01*
X444165D02*
X443078D01*
X561647Y672584D02*
X560559D01*
X444165D02*
X443078D01*
X561647Y672751D02*
X560559D01*
X444165D02*
X443078D01*
X561647Y672918D02*
X560559D01*
X444165D02*
X443078D01*
X561647Y673086D02*
X560559D01*
X444165D02*
X443078D01*
X561647Y673253D02*
X560559D01*
X444165D02*
X443078D01*
X561647Y673421D02*
X560559D01*
X444165D02*
X443078D01*
X561647Y673588D02*
X560559D01*
X444165D02*
X443078D01*
X561647Y673755D02*
X560559D01*
X444165D02*
X443078D01*
X561647Y673923D02*
X560559D01*
X444165D02*
X443078D01*
X561647Y674090D02*
X560559D01*
X444165D02*
X443078D01*
X561647Y674257D02*
X560559D01*
X444165D02*
X443078D01*
X561647Y674425D02*
X560559D01*
X444165D02*
X443078D01*
X561647Y674592D02*
X560559D01*
X444165D02*
X443078D01*
X561647Y674759D02*
X560559D01*
X444165D02*
X443078D01*
X561647Y674927D02*
X560559D01*
X444165D02*
X443078D01*
X561647Y675094D02*
X560559D01*
X444165D02*
X443078D01*
X561647Y675261D02*
X560559D01*
X444165D02*
X443078D01*
X561647Y675429D02*
X560559D01*
X444165D02*
X443078D01*
X561647Y675596D02*
X560559D01*
X444165D02*
X443078D01*
X561647Y675763D02*
X560559D01*
X444165D02*
X443078D01*
X561647Y675931D02*
X560559D01*
X444165D02*
X443078D01*
X561647Y676098D02*
X560559D01*
X444165D02*
X443078D01*
X561647Y676266D02*
X560559D01*
X444165D02*
X443078D01*
X561647Y676433D02*
X560559D01*
X444165D02*
X443078D01*
X561647Y676600D02*
X560559D01*
X444165D02*
X443078D01*
X561647Y676768D02*
X560559D01*
X444165D02*
X443078D01*
X561647Y676935D02*
X560559D01*
X444165D02*
X443078D01*
X561647Y677102D02*
X560559D01*
X444165D02*
X443078D01*
X561647Y677270D02*
X560559D01*
X444165D02*
X443078D01*
X561647Y677437D02*
X560559D01*
X444165D02*
X443078D01*
X561647Y677604D02*
X560559D01*
X444165D02*
X443078D01*
X561647Y677772D02*
X560559D01*
X444165D02*
X443078D01*
X561647Y677939D02*
X560559D01*
X444165D02*
X443078D01*
X561647Y678106D02*
X560559D01*
X444165D02*
X443078D01*
X561647Y678274D02*
X560559D01*
X444165D02*
X443078D01*
X561647Y678441D02*
X560559D01*
X444165D02*
X443078D01*
X561647Y678608D02*
X560559D01*
X444165D02*
X443078D01*
X561647Y678776D02*
X560559D01*
X444165D02*
X443078D01*
X561647Y678943D02*
X560559D01*
X444165D02*
X443078D01*
X561647Y679111D02*
X560559D01*
X444165D02*
X443078D01*
X561647Y679278D02*
X560559D01*
X444165D02*
X443078D01*
X561647Y679445D02*
X560559D01*
X444165D02*
X443078D01*
X561647Y679613D02*
X560559D01*
X444165D02*
X443078D01*
X561647Y679780D02*
X560559D01*
X444165D02*
X443078D01*
X561647Y679947D02*
X560559D01*
X444165D02*
X443078D01*
X561647Y680115D02*
X560559D01*
X444165D02*
X443078D01*
X561647Y680282D02*
X560559D01*
X444165D02*
X443078D01*
X561647Y680449D02*
X560559D01*
X444165D02*
X443078D01*
X561647Y680617D02*
X560559D01*
X444165D02*
X443078D01*
X561647Y680784D02*
X560559D01*
X444333D02*
X443078D01*
X561647Y680951D02*
X560559D01*
X444333D02*
X443078D01*
X561647Y681119D02*
X560559D01*
X444333D02*
X443245D01*
X561647Y681286D02*
X560559D01*
X444333D02*
X443245D01*
X561647Y681453D02*
X560559D01*
X444333D02*
X443245D01*
X561647Y681621D02*
X560559D01*
X444333D02*
X443245D01*
X561647Y681788D02*
X560559D01*
X444333D02*
X443245D01*
X561647Y681956D02*
X560392D01*
X444333D02*
X443245D01*
X561479Y682123D02*
X560392D01*
X444333D02*
X443245D01*
X561479Y682290D02*
X560392D01*
X444333D02*
X443245D01*
X561479Y682458D02*
X560392D01*
X444333D02*
X443245D01*
X561479Y682625D02*
X560392D01*
X444500D02*
X443245D01*
X561479Y682792D02*
X560392D01*
X444500D02*
X443412D01*
X561479Y682960D02*
X560224D01*
X444500D02*
X443412D01*
X561479Y683127D02*
X560224D01*
X444500D02*
X443412D01*
X561312Y683294D02*
X560224D01*
X444500D02*
X443412D01*
X561312Y683462D02*
X560224D01*
X444500D02*
X443412D01*
X561312Y683629D02*
X560224D01*
X444668D02*
X443412D01*
X561312Y683796D02*
X560224D01*
X444668D02*
X443580D01*
X561312Y683964D02*
X560057D01*
X444668D02*
X443580D01*
X561145Y684131D02*
X560057D01*
X444668D02*
X443580D01*
X561145Y684298D02*
X560057D01*
X444835D02*
X443580D01*
X561145Y684466D02*
X559890D01*
X444835D02*
X443747D01*
X561145Y684633D02*
X559890D01*
X444835D02*
X443747D01*
X560977Y684801D02*
X559890D01*
X444835D02*
X443747D01*
X560977Y684968D02*
X559890D01*
X445002D02*
X443747D01*
X560977Y685135D02*
X559722D01*
X445002D02*
X443914D01*
X560977Y685303D02*
X559722D01*
X445002D02*
X443914D01*
X560810Y685470D02*
X559722D01*
X445170D02*
X443914D01*
X560810Y685637D02*
X559555D01*
X445170D02*
X444082D01*
X560810Y685805D02*
X559555D01*
X445170D02*
X444082D01*
X560643Y685972D02*
X559555D01*
X445337D02*
X444082D01*
X560643Y686139D02*
X559388D01*
X445337D02*
X444249D01*
X560475Y686307D02*
X559388D01*
X445504D02*
X444249D01*
X560475Y686474D02*
X559388D01*
X445504D02*
X444249D01*
X560475Y686641D02*
X559220D01*
X445504D02*
X444416D01*
X560308Y686809D02*
X559220D01*
X445672D02*
X444416D01*
X560308Y686976D02*
X559053D01*
X445672D02*
X444416D01*
X560308Y687143D02*
X559053D01*
X445839D02*
X444584D01*
X560141Y687311D02*
X558885D01*
X445839D02*
X444584D01*
X560141Y687478D02*
X558885D01*
X446006D02*
X444751D01*
X559973Y687645D02*
X558718D01*
X446006D02*
X444751D01*
X559973Y687813D02*
X558718D01*
X446174D02*
X444919D01*
X559806Y687980D02*
X558551D01*
X446174D02*
X444919D01*
X559806Y688148D02*
X558551D01*
X446174D02*
X445086D01*
X559639Y688315D02*
X558383D01*
X446341D02*
X445086D01*
X559639Y688482D02*
X558383D01*
X446508D02*
X445253D01*
X559471Y688650D02*
X558216D01*
X446508D02*
X445253D01*
X559471Y688817D02*
X558216D01*
X446676D02*
X445421D01*
X559304Y688984D02*
X558049D01*
X446676D02*
X445421D01*
X559304Y689152D02*
X557881D01*
X446843D02*
X445588D01*
X559136Y689319D02*
X557881D01*
X447010D02*
X445588D01*
X558969Y689486D02*
X557714D01*
X447010D02*
X445755D01*
X558969Y689654D02*
X557714D01*
X447178D02*
X445923D01*
X558802Y689821D02*
X557547D01*
X447345D02*
X445923D01*
X558802Y689988D02*
X557379D01*
X447345D02*
X446090D01*
X558634Y690156D02*
X557212D01*
X447512D02*
X446090D01*
X558467Y690323D02*
X557212D01*
X447680D02*
X446257D01*
X558467Y690490D02*
X557045D01*
X447847D02*
X446425D01*
X558300Y690658D02*
X556877D01*
X447847D02*
X446592D01*
X558132Y690825D02*
X556710D01*
X448015D02*
X446592D01*
X557965Y690993D02*
X556710D01*
X448182D02*
X446759D01*
X557965Y691160D02*
X556543D01*
X448349D02*
X446927D01*
X557798Y691327D02*
X556375D01*
X448517D02*
X447094D01*
X557630Y691495D02*
X556208D01*
X448684D02*
X447094D01*
X557463Y691662D02*
X556040D01*
X448851D02*
X447261D01*
X557463Y691829D02*
X555873D01*
X448851D02*
X447429D01*
X557296Y691997D02*
X555706D01*
X449019D02*
X447596D01*
X557128Y692164D02*
X555538D01*
X449186D02*
X447764D01*
X556961Y692331D02*
X555371D01*
X449353D02*
X447931D01*
X556794Y692499D02*
X555204D01*
X449521D02*
X447931D01*
X556626Y692666D02*
X555036D01*
X449688D02*
X448098D01*
X556459Y692833D02*
X554869D01*
X450023D02*
X448266D01*
X556291Y693001D02*
X554702D01*
X450190D02*
X448433D01*
X556124Y693168D02*
X554534D01*
X450357D02*
X448600D01*
X555957Y693335D02*
X554200D01*
X450525D02*
X448768D01*
X555789Y693503D02*
X554032D01*
X450692D02*
X448935D01*
X555622Y693670D02*
X553865D01*
X451027D02*
X449270D01*
X555455Y693838D02*
X553530D01*
X451194D02*
X449437D01*
X555287Y694005D02*
X553363D01*
X451362D02*
X449604D01*
X555120Y694172D02*
X553195D01*
X451696D02*
X449772D01*
X554785Y694340D02*
X552861D01*
X451864D02*
X449939D01*
X554618Y694507D02*
X552693D01*
X452198D02*
X450106D01*
X554451Y694674D02*
X552359D01*
X452366D02*
X450441D01*
X554116Y694842D02*
X552024D01*
X452700D02*
X450609D01*
X553949Y695009D02*
X551857D01*
X453035D02*
X450776D01*
X553781Y695176D02*
X551522D01*
X453202D02*
X451111D01*
X553446Y695344D02*
X551187D01*
X453537D02*
X451278D01*
X553279Y695511D02*
X550853D01*
X453872D02*
X451613D01*
X552944Y695678D02*
X550518D01*
X454374D02*
X451947D01*
X552610Y695846D02*
X550183D01*
X454709D02*
X452115D01*
X552442Y696013D02*
X549681D01*
X455043D02*
X452449D01*
X552108Y696180D02*
X549179D01*
X455545D02*
X452617D01*
X551773Y696348D02*
X548844D01*
X456047D02*
X453119D01*
X551438Y696515D02*
X548175D01*
X456550D02*
X453453D01*
X551104Y696683D02*
X547673D01*
X457219D02*
X453788D01*
X550769Y696850D02*
X547003D01*
X457888D02*
X454123D01*
X550267Y697017D02*
X545832D01*
X458892D02*
X454458D01*
X549932Y697185D02*
X544158D01*
X460733D02*
X454960D01*
X549430Y697352D02*
X455462D01*
X548928Y697519D02*
X455796D01*
X548426Y697687D02*
X456466D01*
X547757Y697854D02*
X457135D01*
X547087Y698021D02*
X457637D01*
X546083Y698189D02*
X458809D01*
X544242Y698356D02*
X460482D01*
X549597Y422727D02*
X455127D01*
X550099Y422894D02*
X545330D01*
X550434Y423062D02*
X546334D01*
X550936Y423229D02*
X547171D01*
X551271Y423396D02*
X547840D01*
X551606Y423564D02*
X548510D01*
X551940Y423731D02*
X549012D01*
X552275Y423898D02*
X549514D01*
X552442Y424066D02*
X549848D01*
X552777Y424233D02*
X550350D01*
X553112Y424400D02*
X550685D01*
X553279Y424568D02*
X551020D01*
X553614Y424735D02*
X551355D01*
X553781Y424902D02*
X551689D01*
X554116Y425070D02*
X552024D01*
X554283Y425237D02*
X552191D01*
X554451Y425404D02*
X552526D01*
X554785Y425572D02*
X552693D01*
X554953Y425739D02*
X553028D01*
X555120Y425907D02*
X553195D01*
X555287Y426074D02*
X553530D01*
X555455Y426241D02*
X553698D01*
X555622Y426409D02*
X553865D01*
X555789Y426576D02*
X554200D01*
X555957Y426743D02*
X554367D01*
X556291Y426911D02*
X554534D01*
X556459Y427078D02*
X554702D01*
X556459Y427245D02*
X554869D01*
X556626Y427413D02*
X555036D01*
X556794Y427580D02*
X555204D01*
X556961Y427747D02*
X555538D01*
X557128Y427915D02*
X555706D01*
X557296Y428082D02*
X555706D01*
X557463Y428249D02*
X555873D01*
X557630Y428417D02*
X556040D01*
X557630Y428584D02*
X556208D01*
X557798Y428751D02*
X556375D01*
X557965Y428919D02*
X556543D01*
X558132Y429086D02*
X556710D01*
X558132Y429254D02*
X556877D01*
X558300Y429421D02*
X556877D01*
X558467Y429588D02*
X557045D01*
X558634Y429756D02*
X557212D01*
X558634Y429923D02*
X557379D01*
X558802Y430090D02*
X557379D01*
X558802Y430258D02*
X557547D01*
X558969Y430425D02*
X557714D01*
X559136Y430592D02*
X557714D01*
X559136Y430760D02*
X557881D01*
X559304Y430927D02*
X558049D01*
X559304Y431094D02*
X558049D01*
X559471Y431262D02*
X558216D01*
X559639Y431429D02*
X558216D01*
X559639Y431596D02*
X558383D01*
X559639Y431764D02*
X558551D01*
X559806Y431931D02*
X558551D01*
X559806Y432099D02*
X558718D01*
X559973Y432266D02*
X558718D01*
X559973Y432433D02*
X558885D01*
X560141Y432601D02*
X558885D01*
X560141Y432768D02*
X558885D01*
X560308Y432935D02*
X559053D01*
X560308Y433103D02*
X559053D01*
X560475Y433270D02*
X559220D01*
X560475Y433437D02*
X559220D01*
X560475Y433605D02*
X559388D01*
X560643Y433772D02*
X559388D01*
X560643Y433939D02*
X559388D01*
X560643Y434107D02*
X559555D01*
X560810Y434274D02*
X559555D01*
X560810Y434441D02*
X559555D01*
X560810Y434609D02*
X559722D01*
X560977Y434776D02*
X559722D01*
X560977Y434944D02*
X559890D01*
X560977Y435111D02*
X559890D01*
X560977Y435278D02*
X559890D01*
X561145Y435446D02*
X559890D01*
X561145Y435613D02*
X560057D01*
X561145Y435780D02*
X560057D01*
X561145Y435948D02*
X560057D01*
X561312Y436115D02*
X560057D01*
X561312Y436282D02*
X560224D01*
X561312Y436450D02*
X560224D01*
X561312Y436617D02*
X560224D01*
X561312Y436784D02*
X560224D01*
X561479Y436952D02*
X560224D01*
X561479Y437119D02*
X560392D01*
X561479Y437286D02*
X560392D01*
X561479Y437454D02*
X560392D01*
X561479Y437621D02*
X560392D01*
X561479Y437789D02*
X560392D01*
X561479Y437956D02*
X560392D01*
X561647Y438123D02*
X560392D01*
X561647Y438291D02*
X560559D01*
X561647Y438458D02*
X560559D01*
X561647Y438625D02*
X560559D01*
X561647Y438793D02*
X560559D01*
X561647Y438960D02*
X560559D01*
X561647Y439127D02*
X560559D01*
X561647Y439295D02*
X560559D01*
X561647Y439462D02*
X560559D01*
X561647Y439629D02*
X560559D01*
X561647Y439797D02*
X560559D01*
X561647Y439964D02*
X560559D01*
X561647Y440131D02*
X560559D01*
X561647Y440299D02*
X560559D01*
X561647Y440466D02*
X560559D01*
X561647Y440634D02*
X560559D01*
X561647Y440801D02*
X560559D01*
X561647Y440968D02*
X560559D01*
X561647Y441136D02*
X560559D01*
X561647Y441303D02*
X560559D01*
X561647Y441470D02*
X560559D01*
X561647Y441638D02*
X560559D01*
X561647Y441805D02*
X560559D01*
X561647Y441972D02*
X560559D01*
X561647Y442140D02*
X560559D01*
X561647Y442307D02*
X560559D01*
X561647Y442474D02*
X560559D01*
X561647Y442642D02*
X560559D01*
X561647Y442809D02*
X560559D01*
X561647Y442976D02*
X560559D01*
X561647Y443144D02*
X560559D01*
X561647Y443311D02*
X560559D01*
X561647Y443478D02*
X560559D01*
X561647Y443646D02*
X560559D01*
X561647Y443813D02*
X560559D01*
X561647Y443981D02*
X560559D01*
X561647Y444148D02*
X560559D01*
X561647Y444315D02*
X560559D01*
X561647Y444483D02*
X560559D01*
X561647Y444650D02*
X560559D01*
X561647Y444817D02*
X560559D01*
X561647Y444985D02*
X560559D01*
X561647Y445152D02*
X560559D01*
X561647Y445319D02*
X560559D01*
X561647Y445487D02*
X560559D01*
X561647Y445654D02*
X560559D01*
X561647Y445821D02*
X560559D01*
X561647Y445989D02*
X560559D01*
X561647Y446156D02*
X560559D01*
X561647Y446323D02*
X560559D01*
X561647Y446491D02*
X560559D01*
X561647Y446658D02*
X560559D01*
X561647Y446826D02*
X560559D01*
X561647Y446993D02*
X560559D01*
X561647Y447160D02*
X560559D01*
X561647Y447328D02*
X560559D01*
X561647Y447495D02*
X560559D01*
X561647Y447662D02*
X560559D01*
X561647Y447830D02*
X560559D01*
X561647Y447997D02*
X560559D01*
X561647Y448164D02*
X560559D01*
X561647Y448332D02*
X560559D01*
X561647Y448499D02*
X560559D01*
X561647Y448666D02*
X560559D01*
X561647Y448834D02*
X560559D01*
X561647Y449001D02*
X560559D01*
X561647Y449168D02*
X560559D01*
X561647Y449336D02*
X560559D01*
X561647Y449503D02*
X560559D01*
X561647Y449671D02*
X560559D01*
X561647Y449838D02*
X560559D01*
X561647Y450005D02*
X560559D01*
X561647Y450173D02*
X560559D01*
X561647Y450340D02*
X560559D01*
X561647Y450507D02*
X560559D01*
X561647Y450675D02*
X560559D01*
X561647Y450842D02*
X560559D01*
X561647Y451009D02*
X560559D01*
X561647Y451177D02*
X560559D01*
X561647Y451344D02*
X560559D01*
X561647Y451511D02*
X560559D01*
X561647Y451679D02*
X560559D01*
X561647Y451846D02*
X560559D01*
X561647Y452013D02*
X560559D01*
X561647Y452181D02*
X560559D01*
X561647Y452348D02*
X560559D01*
X561647Y452516D02*
X560559D01*
X561647Y452683D02*
X560559D01*
X561647Y452850D02*
X560559D01*
X561647Y453018D02*
X560559D01*
X561647Y453185D02*
X560559D01*
X561647Y453352D02*
X560559D01*
X561647Y453520D02*
X560559D01*
X561647Y453687D02*
X560559D01*
X561647Y453854D02*
X560559D01*
X561647Y454022D02*
X560559D01*
X561647Y454189D02*
X560559D01*
X561647Y454356D02*
X560559D01*
X561647Y454524D02*
X560559D01*
X561647Y454691D02*
X560559D01*
X561647Y454858D02*
X560559D01*
X561647Y455026D02*
X560559D01*
X561647Y455193D02*
X560559D01*
X561647Y455361D02*
X560559D01*
X561647Y455528D02*
X560559D01*
X561647Y455695D02*
X560559D01*
X561647Y455863D02*
X560559D01*
X561647Y456030D02*
X560559D01*
X561647Y456197D02*
X560559D01*
X561647Y456365D02*
X560559D01*
X561647Y456532D02*
X560559D01*
X561647Y456699D02*
X560559D01*
X561647Y456867D02*
X560559D01*
X561647Y457034D02*
X560559D01*
X561647Y457201D02*
X560559D01*
X561647Y457369D02*
X560559D01*
X561647Y457536D02*
X560559D01*
X561647Y457703D02*
X560559D01*
X561647Y457871D02*
X560559D01*
X561647Y458038D02*
X560559D01*
X561647Y458205D02*
X560559D01*
X561647Y458373D02*
X560559D01*
X561647Y458540D02*
X560559D01*
X561647Y458708D02*
X560559D01*
X561647Y458875D02*
X560559D01*
X561647Y459042D02*
X560559D01*
X561647Y459210D02*
X560559D01*
X561647Y459377D02*
X560559D01*
X561647Y459544D02*
X560559D01*
X561647Y459712D02*
X560559D01*
X561647Y459879D02*
X560559D01*
X561647Y460046D02*
X560559D01*
X561647Y460214D02*
X560559D01*
X561647Y460381D02*
X560559D01*
X561647Y460548D02*
X560559D01*
X561647Y460716D02*
X560559D01*
X561647Y460883D02*
X560559D01*
X561647Y461050D02*
X560559D01*
X561647Y461218D02*
X560559D01*
X561647Y461385D02*
X560559D01*
X561647Y461553D02*
X560559D01*
X561647Y461720D02*
X560559D01*
X561647Y461887D02*
X560559D01*
X561647Y462055D02*
X560559D01*
X561647Y462222D02*
X560559D01*
X561647Y462389D02*
X560559D01*
X561647Y462557D02*
X560559D01*
X561647Y462724D02*
X560559D01*
X561647Y462891D02*
X560559D01*
X561647Y463059D02*
X560559D01*
X561647Y463226D02*
X560559D01*
X561647Y463393D02*
X560559D01*
X561647Y463561D02*
X560559D01*
X561647Y463728D02*
X560559D01*
X561647Y463895D02*
X560559D01*
X561647Y464063D02*
X560559D01*
X561647Y464230D02*
X560559D01*
X561647Y464398D02*
X560559D01*
X561647Y464565D02*
X560559D01*
X561647Y464732D02*
X560559D01*
X561647Y464900D02*
X560559D01*
X561647Y465067D02*
X560559D01*
X561647Y465234D02*
X560559D01*
X561647Y465402D02*
X560559D01*
X561647Y465569D02*
X560559D01*
X561647Y465736D02*
X560559D01*
X561647Y465904D02*
X560559D01*
X561647Y466071D02*
X560559D01*
X561647Y466238D02*
X560559D01*
X561647Y466406D02*
X560559D01*
X561647Y466573D02*
X560559D01*
X561647Y466740D02*
X560559D01*
X561647Y466908D02*
X560559D01*
X561647Y467075D02*
X560559D01*
X561647Y467243D02*
X560559D01*
X561647Y467410D02*
X560559D01*
X561647Y467577D02*
X560559D01*
X561647Y467745D02*
X560559D01*
X561647Y467912D02*
X560559D01*
X561647Y468079D02*
X560559D01*
X561647Y468247D02*
X560559D01*
X561647Y468414D02*
X560559D01*
X561647Y468581D02*
X560559D01*
X561647Y468749D02*
X560559D01*
X561647Y468916D02*
X560559D01*
X561647Y469083D02*
X560559D01*
X561647Y469251D02*
X560559D01*
X561647Y469418D02*
X560559D01*
X561647Y469585D02*
X560559D01*
X561647Y469753D02*
X560559D01*
X561647Y469920D02*
X560559D01*
X561647Y470088D02*
X560559D01*
X561647Y470255D02*
X560559D01*
X561647Y470422D02*
X560559D01*
X561647Y470590D02*
X560559D01*
X561647Y470757D02*
X560559D01*
X561647Y470924D02*
X560559D01*
X561647Y471092D02*
X560559D01*
X561647Y471259D02*
X560559D01*
X561647Y471426D02*
X560559D01*
X561647Y471594D02*
X560559D01*
X561647Y471761D02*
X560559D01*
X561647Y471928D02*
X560559D01*
X561647Y472096D02*
X560559D01*
X561647Y472263D02*
X560559D01*
X561647Y472430D02*
X560559D01*
X561647Y472598D02*
X560559D01*
X561647Y472765D02*
X560559D01*
X561647Y472933D02*
X560559D01*
X561647Y473100D02*
X560559D01*
X561647Y473267D02*
X560559D01*
X561647Y473435D02*
X560559D01*
X561647Y473602D02*
X560559D01*
X561647Y473769D02*
X560559D01*
X561647Y473937D02*
X560559D01*
X561647Y474104D02*
X560559D01*
X561647Y474271D02*
X560559D01*
X561647Y474439D02*
X560559D01*
X561647Y474606D02*
X560559D01*
X561647Y474773D02*
X560559D01*
X561647Y474941D02*
X560559D01*
X561647Y475108D02*
X560559D01*
X561647Y475275D02*
X560559D01*
X561647Y475443D02*
X560559D01*
X561647Y475610D02*
X560559D01*
X561647Y475777D02*
X560559D01*
X561647Y475945D02*
X560559D01*
X561647Y476112D02*
X560559D01*
X561647Y476280D02*
X560559D01*
X561647Y476447D02*
X560559D01*
X561647Y476614D02*
X560559D01*
X561647Y476782D02*
X560559D01*
X561647Y476949D02*
X560559D01*
X561647Y477116D02*
X560559D01*
X561647Y477284D02*
X560559D01*
X561647Y477451D02*
X560559D01*
X561647Y477618D02*
X560559D01*
X561647Y477786D02*
X560559D01*
X561647Y477953D02*
X560559D01*
X561647Y478120D02*
X560559D01*
X561647Y478288D02*
X560559D01*
X561647Y478455D02*
X560559D01*
X561647Y478622D02*
X560559D01*
X561647Y478790D02*
X560559D01*
X561647Y478957D02*
X560559D01*
X561647Y479125D02*
X560559D01*
X561647Y479292D02*
X560559D01*
X561647Y479459D02*
X560559D01*
X561647Y479627D02*
X560559D01*
X561647Y479794D02*
X560559D01*
X561647Y479961D02*
X560559D01*
X561647Y480129D02*
X560559D01*
X561647Y480296D02*
X560559D01*
X561647Y480463D02*
X560559D01*
X561647Y480631D02*
X560559D01*
X561647Y480798D02*
X560559D01*
X561647Y480965D02*
X560559D01*
X561647Y481133D02*
X560559D01*
X561647Y481300D02*
X560559D01*
X561647Y481467D02*
X560559D01*
X561647Y481635D02*
X560559D01*
X561647Y481802D02*
X560559D01*
X561647Y481970D02*
X560559D01*
X561647Y482137D02*
X560559D01*
X561647Y482304D02*
X560559D01*
X561647Y482472D02*
X560559D01*
X561647Y482639D02*
X560559D01*
X561647Y482806D02*
X560559D01*
X561647Y482974D02*
X560559D01*
X561647Y483141D02*
X560559D01*
X561647Y483308D02*
X560559D01*
X561647Y483476D02*
X560559D01*
X561647Y483643D02*
X560559D01*
X561647Y483810D02*
X560559D01*
X561647Y483978D02*
X560559D01*
X561647Y484145D02*
X560559D01*
X561647Y484312D02*
X560559D01*
X561647Y484480D02*
X560559D01*
X561647Y484647D02*
X560559D01*
X561647Y484815D02*
X560559D01*
X561647Y484982D02*
X560559D01*
X561647Y485149D02*
X560559D01*
X561647Y485317D02*
X560559D01*
X561647Y485484D02*
X560559D01*
X561647Y485651D02*
X560559D01*
X561647Y485819D02*
X560559D01*
X561647Y485986D02*
X560559D01*
X561647Y486153D02*
X560559D01*
X561647Y486321D02*
X560559D01*
X561647Y486488D02*
X560559D01*
X561647Y486655D02*
X560559D01*
X561647Y486823D02*
X560559D01*
X561647Y486990D02*
X560559D01*
X561647Y487157D02*
X560559D01*
X561647Y487325D02*
X560559D01*
X561647Y487492D02*
X560559D01*
X561647Y487660D02*
X560559D01*
X561647Y487827D02*
X560559D01*
X561647Y487994D02*
X560559D01*
X561647Y488162D02*
X560559D01*
X561647Y488329D02*
X560559D01*
X561647Y488496D02*
X560559D01*
X561647Y488664D02*
X560559D01*
X561647Y488831D02*
X560559D01*
X561647Y488998D02*
X560559D01*
X561647Y489166D02*
X560559D01*
X561647Y489333D02*
X560559D01*
X561647Y489500D02*
X560559D01*
X561647Y489668D02*
X560559D01*
X561647Y489835D02*
X560559D01*
X561647Y490002D02*
X560559D01*
X561647Y490170D02*
X560559D01*
X561647Y490337D02*
X560559D01*
X561647Y490504D02*
X560559D01*
X561647Y490672D02*
X560559D01*
X561647Y490839D02*
X560559D01*
X561647Y491007D02*
X560559D01*
X561647Y491174D02*
X560559D01*
X561647Y491341D02*
X560559D01*
X561647Y491509D02*
X560559D01*
X561647Y491676D02*
X560559D01*
X561647Y491843D02*
X560559D01*
X561647Y492011D02*
X560559D01*
X561647Y492178D02*
X560559D01*
X561647Y492345D02*
X560559D01*
X561647Y492513D02*
X560559D01*
X561647Y492680D02*
X560559D01*
X561647Y492847D02*
X560559D01*
X561647Y493015D02*
X560559D01*
X561647Y493182D02*
X560559D01*
X561647Y493349D02*
X560559D01*
X561647Y493517D02*
X560559D01*
X561647Y493684D02*
X560559D01*
X561647Y493852D02*
X560559D01*
X561647Y494019D02*
X560559D01*
X561647Y494186D02*
X560559D01*
X561647Y494354D02*
X560559D01*
X561647Y494521D02*
X560559D01*
X561647Y494688D02*
X560559D01*
X561647Y494856D02*
X560559D01*
X561647Y495023D02*
X560559D01*
X561647Y495190D02*
X560559D01*
X561647Y495358D02*
X560559D01*
X561647Y495525D02*
X560559D01*
X561647Y495692D02*
X560559D01*
X561647Y495860D02*
X560559D01*
X561647Y496027D02*
X560559D01*
X561647Y496194D02*
X560559D01*
X561647Y496362D02*
X560559D01*
X561647Y496529D02*
X560559D01*
X561647Y496697D02*
X560559D01*
X561647Y496864D02*
X560559D01*
X561647Y497031D02*
X560559D01*
X561647Y497199D02*
X560559D01*
X561647Y497366D02*
X560559D01*
X561647Y497533D02*
X560559D01*
X561647Y497701D02*
X560559D01*
X561647Y497868D02*
X560559D01*
X561647Y498035D02*
X560559D01*
X561647Y498203D02*
X560559D01*
X561647Y498370D02*
X560559D01*
X561647Y498537D02*
X560559D01*
X561647Y498705D02*
X560559D01*
X561647Y498872D02*
X560559D01*
X561647Y499039D02*
X560559D01*
X561647Y499207D02*
X560559D01*
X561647Y499374D02*
X560559D01*
X561647Y499542D02*
X560559D01*
X561647Y499709D02*
X560559D01*
X561647Y499876D02*
X560559D01*
X561647Y500044D02*
X560559D01*
X561647Y500211D02*
X560559D01*
X561647Y500378D02*
X560559D01*
X561647Y500546D02*
X560559D01*
X561647Y500713D02*
X560559D01*
X561647Y500880D02*
X560559D01*
X561647Y501048D02*
X560559D01*
X561647Y501215D02*
X560559D01*
X561647Y501382D02*
X560559D01*
X561647Y501550D02*
X560559D01*
X561647Y501717D02*
X560559D01*
X561647Y501884D02*
X560559D01*
X561647Y502052D02*
X560559D01*
X561647Y502219D02*
X560559D01*
X561647Y502387D02*
X560559D01*
X561647Y502554D02*
X560559D01*
X561647Y502721D02*
X560559D01*
X561647Y502889D02*
X560559D01*
X561647Y503056D02*
X560559D01*
X561647Y503223D02*
X560559D01*
X561647Y503391D02*
X560559D01*
X561647Y503558D02*
X560559D01*
X561647Y503725D02*
X560559D01*
X561647Y503893D02*
X560559D01*
X561647Y504060D02*
X560559D01*
X561647Y504227D02*
X560559D01*
X561647Y504395D02*
X560559D01*
X561647Y504562D02*
X560559D01*
X561647Y504729D02*
X560559D01*
X561647Y504897D02*
X560559D01*
X561647Y505064D02*
X560559D01*
X561647Y505231D02*
X560559D01*
X561647Y505399D02*
X560559D01*
X561647Y505566D02*
X560559D01*
X561647Y505734D02*
X560559D01*
X561647Y505901D02*
X560559D01*
X561647Y506068D02*
X560559D01*
X561647Y506236D02*
X560559D01*
X561647Y506403D02*
X560559D01*
X561647Y506570D02*
X560559D01*
X561647Y506738D02*
X560559D01*
X561647Y506905D02*
X560559D01*
X561647Y507072D02*
X560559D01*
X561647Y507240D02*
X560559D01*
X561647Y507407D02*
X560559D01*
X561647Y507574D02*
X560559D01*
X561647Y507742D02*
X560559D01*
X561647Y507909D02*
X560559D01*
X561647Y508076D02*
X560559D01*
X561647Y508244D02*
X560559D01*
X561647Y508411D02*
X560559D01*
X561647Y508579D02*
X560559D01*
X561647Y508746D02*
X560559D01*
X561647Y508913D02*
X560559D01*
X561647Y509081D02*
X560559D01*
X561647Y509248D02*
X560559D01*
X561647Y509415D02*
X560559D01*
X561647Y509583D02*
X560559D01*
X561647Y509750D02*
X560559D01*
X561647Y509917D02*
X560559D01*
X561647Y510085D02*
X560559D01*
X561647Y510252D02*
X560559D01*
X561647Y510419D02*
X560559D01*
X561647Y510587D02*
X560559D01*
X561647Y510754D02*
X560559D01*
X561647Y510921D02*
X560559D01*
X561647Y511089D02*
X560559D01*
X561647Y511256D02*
X560559D01*
X561647Y511424D02*
X560559D01*
X561647Y511591D02*
X560559D01*
X561647Y511758D02*
X560559D01*
X561647Y511926D02*
X560559D01*
X561647Y512093D02*
X560559D01*
X561647Y512260D02*
X560559D01*
X561647Y512428D02*
X560559D01*
X561647Y512595D02*
X560559D01*
X561647Y512762D02*
X560559D01*
X561647Y512930D02*
X560559D01*
X561647Y513097D02*
X560559D01*
X561647Y513264D02*
X560559D01*
X561647Y513432D02*
X560559D01*
X561647Y513599D02*
X560559D01*
X561647Y513766D02*
X560559D01*
X561647Y513934D02*
X560559D01*
X561647Y514101D02*
X560559D01*
X561647Y514269D02*
X560559D01*
X561647Y514436D02*
X560559D01*
X561647Y514603D02*
X560559D01*
X561647Y514771D02*
X560559D01*
X561647Y514938D02*
X560559D01*
X561647Y515105D02*
X560559D01*
X561647Y515273D02*
X560559D01*
X561647Y515440D02*
X560559D01*
X561647Y515607D02*
X560559D01*
X561647Y515775D02*
X560559D01*
X561647Y515942D02*
X560559D01*
X561647Y516109D02*
X560559D01*
X561647Y516277D02*
X560559D01*
X561647Y516444D02*
X560559D01*
X561647Y516611D02*
X560559D01*
X561647Y516779D02*
X560559D01*
X561647Y516946D02*
X560559D01*
X561647Y517114D02*
X560559D01*
X561647Y517281D02*
X560559D01*
X561647Y517448D02*
X560559D01*
X561647Y517616D02*
X560559D01*
X561647Y517783D02*
X560559D01*
X561647Y517950D02*
X560559D01*
X561647Y518118D02*
X560559D01*
X561647Y518285D02*
X560559D01*
X561647Y518452D02*
X560559D01*
X561647Y518620D02*
X560559D01*
X561647Y518787D02*
X560559D01*
X561647Y518954D02*
X560559D01*
X561647Y519122D02*
X560559D01*
X561647Y519289D02*
X560559D01*
X561647Y519456D02*
X560559D01*
X561647Y519624D02*
X560559D01*
X561647Y519791D02*
X560559D01*
X561647Y519958D02*
X560559D01*
X561647Y520126D02*
X560559D01*
X561647Y520293D02*
X560559D01*
X561647Y520461D02*
X560559D01*
X561647Y520628D02*
X560559D01*
X561647Y520795D02*
X560559D01*
X561647Y520963D02*
X560559D01*
X561647Y521130D02*
X560559D01*
X561647Y521297D02*
X560559D01*
X561647Y521465D02*
X560559D01*
X561647Y521632D02*
X560559D01*
X561647Y521799D02*
X560559D01*
X561647Y521967D02*
X560559D01*
X561647Y522134D02*
X560559D01*
X561647Y522301D02*
X560559D01*
X561647Y522469D02*
X560559D01*
X561647Y522636D02*
X560559D01*
X561647Y522803D02*
X560559D01*
X561647Y522971D02*
X560559D01*
X561647Y523138D02*
X560559D01*
X561647Y523306D02*
X560559D01*
X561647Y523473D02*
X560559D01*
X561647Y523640D02*
X560559D01*
X561647Y523808D02*
X560559D01*
X561647Y523975D02*
X560559D01*
X561647Y524142D02*
X560559D01*
X561647Y524310D02*
X560559D01*
X561647Y524477D02*
X560559D01*
X561647Y524644D02*
X560559D01*
X561647Y524812D02*
X560559D01*
X561647Y524979D02*
X560559D01*
X561647Y525146D02*
X560559D01*
X561647Y525314D02*
X560559D01*
X561647Y525481D02*
X560559D01*
X561647Y525648D02*
X560559D01*
X561647Y525816D02*
X560559D01*
X561647Y525983D02*
X560559D01*
X561647Y526151D02*
X560559D01*
X561647Y526318D02*
X560559D01*
X561647Y526485D02*
X560559D01*
X561647Y526653D02*
X560559D01*
X561647Y526820D02*
X560559D01*
X561647Y526987D02*
X560559D01*
X561647Y527155D02*
X560559D01*
X561647Y527322D02*
X560559D01*
X561647Y527489D02*
X560559D01*
X561647Y527657D02*
X560559D01*
X561647Y527824D02*
X560559D01*
X561647Y527991D02*
X560559D01*
X561647Y528159D02*
X560559D01*
X561647Y528326D02*
X560559D01*
X561647Y528493D02*
X560559D01*
X561647Y528661D02*
X560559D01*
X561647Y528828D02*
X560559D01*
X561647Y528996D02*
X560559D01*
X561647Y529163D02*
X560559D01*
X561647Y529330D02*
X560559D01*
X561647Y529498D02*
X560559D01*
X561647Y529665D02*
X560559D01*
X561647Y529832D02*
X560559D01*
X561647Y530000D02*
X560559D01*
X561647Y530167D02*
X560559D01*
X561647Y530334D02*
X560559D01*
X561647Y530502D02*
X560559D01*
X561647Y530669D02*
X560559D01*
X561647Y530836D02*
X560559D01*
X561647Y531004D02*
X560559D01*
X561647Y531171D02*
X560559D01*
X561647Y531338D02*
X560559D01*
X561647Y531506D02*
X560559D01*
X561647Y531673D02*
X560559D01*
X561647Y531841D02*
X560559D01*
X561647Y532008D02*
X560559D01*
X561647Y532175D02*
X560559D01*
X561647Y532343D02*
X560559D01*
X561647Y532510D02*
X560559D01*
X561647Y532677D02*
X560559D01*
X561647Y532845D02*
X560559D01*
X561647Y533012D02*
X560559D01*
X561647Y533179D02*
X560559D01*
X561647Y533347D02*
X560559D01*
X561647Y533514D02*
X560559D01*
X561647Y533681D02*
X560559D01*
X561647Y533849D02*
X560559D01*
X561647Y534016D02*
X560559D01*
X561647Y534183D02*
X560559D01*
X561647Y534351D02*
X560559D01*
X561647Y534518D02*
X560559D01*
X561647Y534685D02*
X560559D01*
X561647Y534853D02*
X560559D01*
X561647Y535020D02*
X560559D01*
X561647Y535188D02*
X560559D01*
X561647Y535355D02*
X560559D01*
X561647Y535522D02*
X560559D01*
X561647Y535690D02*
X560559D01*
X561647Y535857D02*
X560559D01*
X561647Y536024D02*
X560559D01*
X561647Y536192D02*
X560559D01*
X561647Y536359D02*
X560559D01*
X561647Y536526D02*
X560559D01*
X561647Y536694D02*
X560559D01*
X561647Y536861D02*
X560559D01*
X561647Y537028D02*
X560559D01*
X561647Y537196D02*
X560559D01*
X561647Y537363D02*
X560559D01*
X561647Y537530D02*
X560559D01*
X561647Y537698D02*
X560559D01*
X561647Y537865D02*
X560559D01*
X561647Y538033D02*
X560559D01*
X561647Y538200D02*
X560559D01*
X561647Y538367D02*
X560559D01*
X561647Y538535D02*
X560559D01*
X561647Y538702D02*
X560559D01*
X561647Y538869D02*
X560559D01*
X561647Y539037D02*
X560559D01*
X561647Y539204D02*
X560559D01*
X561647Y539371D02*
X560559D01*
X561647Y539539D02*
X560559D01*
X561647Y539706D02*
X560559D01*
X561647Y539873D02*
X560559D01*
X561647Y540041D02*
X560559D01*
X561647Y540208D02*
X560559D01*
X561647Y540375D02*
X560559D01*
X561647Y540543D02*
X560559D01*
X561647Y540710D02*
X560559D01*
X561647Y540878D02*
X560559D01*
X561647Y541045D02*
X560559D01*
X561647Y541212D02*
X560559D01*
X561647Y541380D02*
X560559D01*
X561647Y541547D02*
X560559D01*
X561647Y541714D02*
X560559D01*
X561647Y541882D02*
X560559D01*
X561647Y542049D02*
X560559D01*
X561647Y542216D02*
X560559D01*
X561647Y542384D02*
X560559D01*
X561647Y542551D02*
X560559D01*
X561647Y542718D02*
X560559D01*
X561647Y542886D02*
X560559D01*
X561647Y543053D02*
X560559D01*
X561647Y543220D02*
X560559D01*
X561647Y543388D02*
X560559D01*
X561647Y543555D02*
X560559D01*
X561647Y543723D02*
X560559D01*
X561647Y543890D02*
X560559D01*
X561647Y544057D02*
X560559D01*
X561647Y544225D02*
X560559D01*
X561647Y544392D02*
X560559D01*
X561647Y544559D02*
X560559D01*
X561647Y544727D02*
X560559D01*
X561647Y544894D02*
X560559D01*
X561647Y545061D02*
X560559D01*
X561647Y545229D02*
X560559D01*
X561647Y545396D02*
X560559D01*
X561647Y545563D02*
X560559D01*
X561647Y545731D02*
X560559D01*
X561647Y545898D02*
X560559D01*
X561647Y546065D02*
X560559D01*
X561647Y546233D02*
X560559D01*
X561647Y546400D02*
X560559D01*
X561647Y546568D02*
X560559D01*
X561647Y546735D02*
X560559D01*
X561647Y546902D02*
X560559D01*
X561647Y547070D02*
X560559D01*
X561647Y547237D02*
X560559D01*
X561647Y547404D02*
X560559D01*
X561647Y547572D02*
X560559D01*
X561647Y547739D02*
X560559D01*
X561647Y547906D02*
X560559D01*
X561647Y548074D02*
X560559D01*
X561647Y548241D02*
X560559D01*
X561647Y548408D02*
X560559D01*
X561647Y548576D02*
X560559D01*
X561647Y548743D02*
X560559D01*
X561647Y548910D02*
X560559D01*
X561647Y549078D02*
X560559D01*
X561647Y549245D02*
X560559D01*
X561647Y549412D02*
X560559D01*
X561647Y549580D02*
X560559D01*
X561647Y549747D02*
X560559D01*
X561647Y549915D02*
X560559D01*
X561647Y550082D02*
X560559D01*
X561647Y550249D02*
X560559D01*
X561647Y550417D02*
X560559D01*
X561647Y550584D02*
X560559D01*
X561647Y550751D02*
X560559D01*
X561647Y550919D02*
X560559D01*
X561647Y551086D02*
X560559D01*
X561647Y551253D02*
X560559D01*
X561647Y551421D02*
X560559D01*
X561647Y551588D02*
X560559D01*
X561647Y551755D02*
X560559D01*
X561647Y551923D02*
X560559D01*
X561647Y552090D02*
X560559D01*
X561647Y552257D02*
X560559D01*
X561647Y552425D02*
X560559D01*
X561647Y552592D02*
X560559D01*
X561647Y552760D02*
X560559D01*
X561647Y552927D02*
X560559D01*
X561647Y553094D02*
X560559D01*
X561647Y553262D02*
X560559D01*
X561647Y553429D02*
X560559D01*
X561647Y553596D02*
X560559D01*
X561647Y553764D02*
X560559D01*
X561647Y553931D02*
X560559D01*
X561647Y554098D02*
X560559D01*
X561647Y554266D02*
X560559D01*
X561647Y554433D02*
X560559D01*
X561647Y554600D02*
X560559D01*
X561647Y554768D02*
X560559D01*
X561647Y554935D02*
X560559D01*
X561647Y555102D02*
X560559D01*
X561647Y555270D02*
X560559D01*
X561647Y555437D02*
X560559D01*
X561647Y555605D02*
X560559D01*
X561647Y555772D02*
X560559D01*
X561647Y555939D02*
X560559D01*
X561647Y556107D02*
X560559D01*
X561647Y556274D02*
X560559D01*
X561647Y556441D02*
X560559D01*
X561647Y556609D02*
X560559D01*
X561647Y556776D02*
X560559D01*
X561647Y556943D02*
X560559D01*
X561647Y557111D02*
X560559D01*
X561647Y557278D02*
X560559D01*
X561647Y557445D02*
X560559D01*
X561647Y557613D02*
X560559D01*
X561647Y557780D02*
X560559D01*
X561647Y557947D02*
X560559D01*
X561647Y558115D02*
X560559D01*
X561647Y558282D02*
X560559D01*
X561647Y558450D02*
X560559D01*
X561647Y558617D02*
X560559D01*
X561647Y558784D02*
X560559D01*
X561647Y558952D02*
X560559D01*
X561647Y559119D02*
X560559D01*
X561647Y559286D02*
X560559D01*
X561647Y559454D02*
X560559D01*
X561647Y559621D02*
X560559D01*
X561647Y559788D02*
X560559D01*
X561647Y559956D02*
X560559D01*
X561647Y560123D02*
X560559D01*
X561647Y560290D02*
X560559D01*
X561647Y560458D02*
X560559D01*
X561647Y560625D02*
X560559D01*
X561647Y560792D02*
X560559D01*
X561647Y560960D02*
X560559D01*
X561647Y561127D02*
X560559D01*
X561647Y561295D02*
X560559D01*
X561647Y561462D02*
X560559D01*
X561647Y561629D02*
X560559D01*
X561647Y561797D02*
X560559D01*
X561647Y561964D02*
X560559D01*
X561647Y562131D02*
X560559D01*
X561647Y562299D02*
X560559D01*
X561647Y562466D02*
X560559D01*
X561647Y562633D02*
X560559D01*
X561647Y562801D02*
X560559D01*
X561647Y562968D02*
X560559D01*
X561647Y563135D02*
X560559D01*
X561647Y563303D02*
X560559D01*
X561647Y563470D02*
X560559D01*
X561647Y563637D02*
X560559D01*
X561647Y563805D02*
X560559D01*
X561647Y563972D02*
X560559D01*
X561647Y564140D02*
X560559D01*
X561647Y564307D02*
X560559D01*
X561647Y564474D02*
X560559D01*
X561647Y564642D02*
X560559D01*
X561647Y564809D02*
X560559D01*
X561647Y564976D02*
X560559D01*
X561647Y565144D02*
X560559D01*
X561647Y565311D02*
X560559D01*
X561647Y565478D02*
X560559D01*
X561647Y565646D02*
X560559D01*
X561647Y565813D02*
X560559D01*
X561647Y565980D02*
X560559D01*
X561647Y566148D02*
X560559D01*
X561647Y566315D02*
X560559D01*
X561647Y566482D02*
X560559D01*
X561647Y566650D02*
X560559D01*
X561647Y566817D02*
X560559D01*
X561647Y566984D02*
X560559D01*
X561647Y567152D02*
X560559D01*
X561647Y567319D02*
X560559D01*
X561647Y567487D02*
X560559D01*
X561647Y567654D02*
X560559D01*
X561647Y567821D02*
X560559D01*
X561647Y567989D02*
X560559D01*
X561647Y568156D02*
X560559D01*
X561647Y568323D02*
X560559D01*
X561647Y568491D02*
X560559D01*
X561647Y568658D02*
X560559D01*
X561647Y568825D02*
X560559D01*
X561647Y568993D02*
X560559D01*
X561647Y569160D02*
X560559D01*
X561647Y569327D02*
X560559D01*
X561647Y569495D02*
X560559D01*
X561647Y569662D02*
X560559D01*
X561647Y569829D02*
X560559D01*
X561647Y569997D02*
X560559D01*
X561647Y570164D02*
X560559D01*
X561647Y570332D02*
X560559D01*
X561647Y570499D02*
X560559D01*
X561647Y570666D02*
X560559D01*
X561647Y570834D02*
X560559D01*
X561647Y571001D02*
X560559D01*
X561647Y571168D02*
X560559D01*
X561647Y571336D02*
X560559D01*
X561647Y571503D02*
X560559D01*
X561647Y571670D02*
X560559D01*
X561647Y571838D02*
X560559D01*
X561647Y572005D02*
X560559D01*
X561647Y572172D02*
X560559D01*
X561647Y572340D02*
X560559D01*
X561647Y572507D02*
X560559D01*
X561647Y572674D02*
X560559D01*
X561647Y572842D02*
X560559D01*
X561647Y573009D02*
X560559D01*
X561647Y573177D02*
X560559D01*
X561647Y573344D02*
X560559D01*
X561647Y573511D02*
X560559D01*
X561647Y573679D02*
X560559D01*
X561647Y573846D02*
X560559D01*
X561647Y574013D02*
X560559D01*
X561647Y574181D02*
X560559D01*
X561647Y574348D02*
X560559D01*
X561647Y574515D02*
X560559D01*
X561647Y574683D02*
X560559D01*
X561647Y574850D02*
X560559D01*
X561647Y575017D02*
X560559D01*
X561647Y575185D02*
X560559D01*
X561647Y575352D02*
X560559D01*
X561647Y575519D02*
X560559D01*
X561647Y575687D02*
X560559D01*
X561647Y575854D02*
X560559D01*
X561647Y576022D02*
X560559D01*
X561647Y576189D02*
X560559D01*
X561647Y576356D02*
X560559D01*
X561647Y576524D02*
X560559D01*
X561647Y576691D02*
X560559D01*
X561647Y576858D02*
X560559D01*
X561647Y577026D02*
X560559D01*
X561647Y577193D02*
X560559D01*
X561647Y577360D02*
X560559D01*
X561647Y577528D02*
X560559D01*
X561647Y577695D02*
X560559D01*
X561647Y577862D02*
X560559D01*
X561647Y578030D02*
X560559D01*
X561647Y578197D02*
X560559D01*
X561647Y578364D02*
X560559D01*
X561647Y578532D02*
X560559D01*
X561647Y578699D02*
X560559D01*
X561647Y578867D02*
X560559D01*
X561647Y579034D02*
X560559D01*
X561647Y579201D02*
X560559D01*
X561647Y579369D02*
X560559D01*
X561647Y579536D02*
X560559D01*
X561647Y579703D02*
X560559D01*
X561647Y579871D02*
X560559D01*
X561647Y580038D02*
X560559D01*
X561647Y580205D02*
X560559D01*
X561647Y580373D02*
X560559D01*
X561647Y580540D02*
X560559D01*
X561647Y580707D02*
X560559D01*
X561647Y580875D02*
X560559D01*
X561647Y581042D02*
X560559D01*
X561647Y581209D02*
X560559D01*
X561647Y581377D02*
X560559D01*
X561647Y581544D02*
X560559D01*
X561647Y581711D02*
X560559D01*
X561647Y581879D02*
X560559D01*
X561647Y582046D02*
X560559D01*
X561647Y582214D02*
X560559D01*
X561647Y582381D02*
X560559D01*
X561647Y582548D02*
X560559D01*
X561647Y582716D02*
X560559D01*
X561647Y582883D02*
X560559D01*
X561647Y583050D02*
X560559D01*
X561647Y583218D02*
X560559D01*
X561647Y583385D02*
X560559D01*
X561647Y583552D02*
X560559D01*
X561647Y583720D02*
X560559D01*
X561647Y583887D02*
X560559D01*
X561647Y584054D02*
X560559D01*
X561647Y584222D02*
X560559D01*
X561647Y584389D02*
X560559D01*
X561647Y584556D02*
X560559D01*
X561647Y584724D02*
X560559D01*
X561647Y584891D02*
X560559D01*
X561647Y585059D02*
X560559D01*
X561647Y585226D02*
X560559D01*
X561647Y585393D02*
X560559D01*
X561647Y585561D02*
X560559D01*
X561647Y585728D02*
X560559D01*
X561647Y585895D02*
X560559D01*
X561647Y586063D02*
X560559D01*
X561647Y586230D02*
X560559D01*
X561647Y586397D02*
X560559D01*
X561647Y586565D02*
X560559D01*
X561647Y586732D02*
X560559D01*
X561647Y586899D02*
X560559D01*
X561647Y587067D02*
X560559D01*
X561647Y587234D02*
X560559D01*
X561647Y587401D02*
X560559D01*
X561647Y587569D02*
X560559D01*
X561647Y587736D02*
X560559D01*
X561647Y587904D02*
X560559D01*
X561647Y588071D02*
X560559D01*
X561647Y588238D02*
X560559D01*
X561647Y588406D02*
X560559D01*
X561647Y588573D02*
X560559D01*
X561647Y588740D02*
X560559D01*
X561647Y588908D02*
X560559D01*
X561647Y589075D02*
X560559D01*
X561647Y589242D02*
X560559D01*
X561647Y589410D02*
X560559D01*
X561647Y589577D02*
X560559D01*
X561647Y589744D02*
X560559D01*
X561647Y589912D02*
X560559D01*
X561647Y590079D02*
X560559D01*
X561647Y590246D02*
X560559D01*
X561647Y590414D02*
X560559D01*
X561647Y590581D02*
X560559D01*
X561647Y590749D02*
X560559D01*
X561647Y590916D02*
X560559D01*
X561647Y591083D02*
X560559D01*
X561647Y591251D02*
X560559D01*
X561647Y591418D02*
X560559D01*
X561647Y591585D02*
X560559D01*
X561647Y591753D02*
X560559D01*
X561647Y591920D02*
X560559D01*
X561647Y592087D02*
X560559D01*
X561647Y592255D02*
X560559D01*
X561647Y592422D02*
X560559D01*
X561647Y592589D02*
X560559D01*
X561647Y592757D02*
X560559D01*
X561647Y592924D02*
X560559D01*
X561647Y593091D02*
X560559D01*
X561647Y593259D02*
X560559D01*
X561647Y593426D02*
X560559D01*
X561647Y593594D02*
X560559D01*
X561647Y593761D02*
X560559D01*
X561647Y593928D02*
X560559D01*
X561647Y594096D02*
X560559D01*
X561647Y594263D02*
X560559D01*
X561647Y594430D02*
X560559D01*
X561647Y594598D02*
X560559D01*
X561647Y594765D02*
X560559D01*
X561647Y594932D02*
X560559D01*
X561647Y595100D02*
X560559D01*
X561647Y595267D02*
X560559D01*
X561647Y595434D02*
X560559D01*
X561647Y595602D02*
X560559D01*
X561647Y595769D02*
X560559D01*
X561647Y595936D02*
X560559D01*
X561647Y596104D02*
X560559D01*
X561647Y596271D02*
X560559D01*
X561647Y596438D02*
X560559D01*
X561647Y596606D02*
X560559D01*
X561647Y596773D02*
X560559D01*
X561647Y596941D02*
X560559D01*
X561647Y597108D02*
X560559D01*
X561647Y597275D02*
X560559D01*
X561647Y597443D02*
X560559D01*
X561647Y597610D02*
X560559D01*
X561647Y597777D02*
X560559D01*
X561647Y597945D02*
X560559D01*
X561647Y598112D02*
X560559D01*
X561647Y598279D02*
X560559D01*
X561647Y598447D02*
X560559D01*
X561647Y598614D02*
X560559D01*
X561647Y598781D02*
X560559D01*
X561647Y598949D02*
X560559D01*
X561647Y599116D02*
X560559D01*
X561647Y599283D02*
X560559D01*
X561647Y599451D02*
X560559D01*
X561647Y599618D02*
X560559D01*
X561647Y599786D02*
X560559D01*
X561647Y599953D02*
X560559D01*
X561647Y600120D02*
X560559D01*
X561647Y600288D02*
X560559D01*
X561647Y600455D02*
X560559D01*
X561647Y600622D02*
X560559D01*
X561647Y600790D02*
X560559D01*
X561647Y600957D02*
X560559D01*
X561647Y601124D02*
X560559D01*
X561647Y601292D02*
X560559D01*
X561647Y601459D02*
X560559D01*
X561647Y601626D02*
X560559D01*
X561647Y601794D02*
X560559D01*
X561647Y601961D02*
X560559D01*
X561647Y602128D02*
X560559D01*
X561647Y602296D02*
X560559D01*
X561647Y602463D02*
X560559D01*
X561647Y602631D02*
X560559D01*
X561647Y602798D02*
X560559D01*
X561647Y602965D02*
X560559D01*
X561647Y603133D02*
X560559D01*
X561647Y603300D02*
X560559D01*
X561647Y603467D02*
X560559D01*
X561647Y603635D02*
X560559D01*
X561647Y603802D02*
X560559D01*
X561647Y603969D02*
X560559D01*
X561647Y604137D02*
X560559D01*
X561647Y604304D02*
X560559D01*
X561647Y604471D02*
X560559D01*
X561647Y604639D02*
X560559D01*
X561647Y604806D02*
X560559D01*
X561647Y604973D02*
X560559D01*
X561647Y605141D02*
X560559D01*
X561647Y605308D02*
X560559D01*
X561647Y605476D02*
X560559D01*
X561647Y605643D02*
X560559D01*
X561647Y605810D02*
X560559D01*
X561647Y605978D02*
X560559D01*
X561647Y606145D02*
X560559D01*
X561647Y606312D02*
X560559D01*
X561647Y606480D02*
X560559D01*
X561647Y606647D02*
X560559D01*
X561647Y606814D02*
X560559D01*
X561647Y606982D02*
X560559D01*
X561647Y607149D02*
X560559D01*
X561647Y607316D02*
X560559D01*
X561647Y607484D02*
X560559D01*
X561647Y607651D02*
X560559D01*
X561647Y607818D02*
X560559D01*
X561647Y607986D02*
X560559D01*
X561647Y608153D02*
X560559D01*
X561647Y608321D02*
X560559D01*
X561647Y608488D02*
X560559D01*
X561647Y608655D02*
X560559D01*
X561647Y608823D02*
X560559D01*
X561647Y608990D02*
X560559D01*
X561647Y609157D02*
X560559D01*
X561647Y609325D02*
X560559D01*
X561647Y609492D02*
X560559D01*
X561647Y609659D02*
X560559D01*
X561647Y609827D02*
X560559D01*
X561647Y609994D02*
X560559D01*
X561647Y610161D02*
X560559D01*
X561647Y610329D02*
X560559D01*
X561647Y610496D02*
X560559D01*
X561647Y610663D02*
X560559D01*
X561647Y610831D02*
X560559D01*
X561647Y610998D02*
X560559D01*
X561647Y611165D02*
X560559D01*
X561647Y611333D02*
X560559D01*
X561647Y611500D02*
X560559D01*
X561647Y611668D02*
X560559D01*
X561647Y611835D02*
X560559D01*
X561647Y612002D02*
X560559D01*
X561647Y612170D02*
X560559D01*
X561647Y612337D02*
X560559D01*
X561647Y612504D02*
X560559D01*
X561647Y612672D02*
X560559D01*
X561647Y612839D02*
X560559D01*
X561647Y613006D02*
X560559D01*
X561647Y613174D02*
X560559D01*
X561647Y613341D02*
X560559D01*
X561647Y613508D02*
X560559D01*
X561647Y613676D02*
X560559D01*
X561647Y613843D02*
X560559D01*
X561647Y614010D02*
X560559D01*
X561647Y614178D02*
X560559D01*
X561647Y614345D02*
X560559D01*
X561647Y614513D02*
X560559D01*
X561647Y614680D02*
X560559D01*
X561647Y614847D02*
X560559D01*
X561647Y615015D02*
X560559D01*
X561647Y615182D02*
X560559D01*
X561647Y615349D02*
X560559D01*
X561647Y615517D02*
X560559D01*
X561647Y615684D02*
X560559D01*
X561647Y615851D02*
X560559D01*
X561647Y616019D02*
X560559D01*
X561647Y616186D02*
X560559D01*
X561647Y616353D02*
X560559D01*
X561647Y616521D02*
X560559D01*
X561647Y616688D02*
X560559D01*
X561647Y616855D02*
X560559D01*
X561647Y617023D02*
X560559D01*
X561647Y617190D02*
X560559D01*
X561647Y617358D02*
X560559D01*
X561647Y617525D02*
X560559D01*
X561647Y617692D02*
X560559D01*
X561647Y617860D02*
X560559D01*
X561647Y618027D02*
X560559D01*
X561647Y618194D02*
X560559D01*
X561647Y618362D02*
X560559D01*
X561647Y618529D02*
X560559D01*
X561647Y618696D02*
X560559D01*
X561647Y618864D02*
X560559D01*
X561647Y619031D02*
X560559D01*
X561647Y619198D02*
X560559D01*
X561647Y619366D02*
X560559D01*
X561647Y619533D02*
X560559D01*
X561647Y619700D02*
X560559D01*
X561647Y619868D02*
X560559D01*
X561647Y620035D02*
X560559D01*
X561647Y620203D02*
X560559D01*
X561647Y620370D02*
X560559D01*
X561647Y620537D02*
X560559D01*
X561647Y620705D02*
X560559D01*
X561647Y620872D02*
X560559D01*
X561647Y621039D02*
X560559D01*
X561647Y621207D02*
X560559D01*
X561647Y621374D02*
X560559D01*
X561647Y621541D02*
X560559D01*
X561647Y621709D02*
X560559D01*
X561647Y621876D02*
X560559D01*
X561647Y622043D02*
X560559D01*
X561647Y622211D02*
X560559D01*
X561647Y622378D02*
X560559D01*
X561647Y622545D02*
X560559D01*
X561647Y622713D02*
X560559D01*
X561647Y622880D02*
X560559D01*
X561647Y623048D02*
X560559D01*
X561647Y623215D02*
X560559D01*
X561647Y623382D02*
X560559D01*
X561647Y623550D02*
X560559D01*
X561647Y623717D02*
X560559D01*
X561647Y623884D02*
X560559D01*
X561647Y624052D02*
X560559D01*
X561647Y624219D02*
X560559D01*
X561647Y624386D02*
X560559D01*
X561647Y624554D02*
X560559D01*
X561647Y624721D02*
X560559D01*
X561647Y624888D02*
X560559D01*
X561647Y625056D02*
X560559D01*
X561647Y625223D02*
X560559D01*
X561647Y625390D02*
X560559D01*
X561647Y625558D02*
X560559D01*
X561647Y625725D02*
X560559D01*
X561647Y625892D02*
X560559D01*
X561647Y626060D02*
X560559D01*
X561647Y626227D02*
X560559D01*
X561647Y626395D02*
X560559D01*
X561647Y626562D02*
X560559D01*
X561647Y626729D02*
X443078D01*
X561647Y626897D02*
X443078D01*
X561647Y627064D02*
X443078D01*
X561647Y627231D02*
X443078D01*
X561647Y627399D02*
X443078D01*
X561647Y627566D02*
X443078D01*
X561647Y627733D02*
X443078D01*
X561647Y627901D02*
X443078D01*
X561647Y628068D02*
X560559D01*
X561647Y628235D02*
X560559D01*
X561647Y628403D02*
X560559D01*
X561647Y628570D02*
X560559D01*
X561647Y628737D02*
X560559D01*
X561647Y628905D02*
X560559D01*
X561647Y629072D02*
X560559D01*
X561647Y629240D02*
X560559D01*
X561647Y629407D02*
X560559D01*
X561647Y629574D02*
X560559D01*
X561647Y629742D02*
X560559D01*
X561647Y629909D02*
X560559D01*
X561647Y630076D02*
X560559D01*
X561647Y630244D02*
X560559D01*
X561647Y630411D02*
X560559D01*
X561647Y630578D02*
X560559D01*
X561647Y630746D02*
X560559D01*
X561647Y630913D02*
X560559D01*
X561647Y631080D02*
X560559D01*
X561647Y631248D02*
X560559D01*
X561647Y631415D02*
X560559D01*
X561647Y631582D02*
X560559D01*
X561647Y631750D02*
X560559D01*
X561647Y631917D02*
X560559D01*
X561647Y632085D02*
X560559D01*
X561647Y632252D02*
X560559D01*
X561647Y632419D02*
X560559D01*
X561647Y632587D02*
X560559D01*
X561647Y632754D02*
X560559D01*
X561647Y632921D02*
X560559D01*
X561647Y633089D02*
X560559D01*
X561647Y633256D02*
X560559D01*
X561647Y633423D02*
X560559D01*
X561647Y633591D02*
X560559D01*
X561647Y633758D02*
X560559D01*
X561647Y633925D02*
X560559D01*
X561647Y634093D02*
X560559D01*
X561647Y634260D02*
X560559D01*
X561647Y634427D02*
X560559D01*
X561647Y634595D02*
X560559D01*
X561647Y634762D02*
X560559D01*
X561647Y634930D02*
X560559D01*
X561647Y635097D02*
X560559D01*
X561647Y635264D02*
X560559D01*
X561647Y635432D02*
X560559D01*
X561647Y635599D02*
X560559D01*
X561647Y635766D02*
X560559D01*
X561647Y635934D02*
X560559D01*
X561647Y636101D02*
X560559D01*
X561647Y636268D02*
X560559D01*
X561647Y636436D02*
X560559D01*
X561647Y636603D02*
X560559D01*
X561647Y636770D02*
X560559D01*
X561647Y636938D02*
X560559D01*
X561647Y637105D02*
X560559D01*
X561647Y637272D02*
X560559D01*
X561647Y637440D02*
X560559D01*
X561647Y637607D02*
X560559D01*
X561647Y637775D02*
X560559D01*
X561647Y637942D02*
X560559D01*
X561647Y638109D02*
X560559D01*
X561647Y638277D02*
X560559D01*
X561647Y638444D02*
X560559D01*
X561647Y638611D02*
X560559D01*
X561647Y638779D02*
X560559D01*
X561647Y638946D02*
X560559D01*
X561647Y639113D02*
X560559D01*
X561647Y639281D02*
X560559D01*
X561647Y639448D02*
X560559D01*
X561647Y639615D02*
X560559D01*
X561647Y639783D02*
X560559D01*
X561647Y639950D02*
X560559D01*
X561647Y640117D02*
X560559D01*
X561647Y640285D02*
X560559D01*
X561647Y640452D02*
X560559D01*
X561647Y640619D02*
X560559D01*
X561647Y640787D02*
X560559D01*
X561647Y640954D02*
X560559D01*
X561647Y641122D02*
X560559D01*
X561647Y641289D02*
X560559D01*
X561647Y641456D02*
X560559D01*
X561647Y641624D02*
X560559D01*
X561647Y641791D02*
X560559D01*
X561647Y641958D02*
X560559D01*
X561647Y642126D02*
X560559D01*
X561647Y642293D02*
X560559D01*
X561647Y642460D02*
X560559D01*
X561647Y642628D02*
X560559D01*
X561647Y642795D02*
X560559D01*
X561647Y642962D02*
X560559D01*
X561647Y643130D02*
X560559D01*
X561647Y643297D02*
X560559D01*
X561647Y643464D02*
X560559D01*
X561647Y643632D02*
X560559D01*
X561647Y643799D02*
X560559D01*
X561647Y643967D02*
X560559D01*
X561647Y644134D02*
X560559D01*
X561647Y644301D02*
X560559D01*
X561647Y644469D02*
X560559D01*
X561647Y644636D02*
X560559D01*
X561647Y644803D02*
X560559D01*
X561647Y644971D02*
X560559D01*
X561647Y645138D02*
X560559D01*
X561647Y645305D02*
X560559D01*
X561647Y645473D02*
X560559D01*
X561647Y645640D02*
X560559D01*
X561647Y645807D02*
X560559D01*
X561647Y645975D02*
X560559D01*
X561647Y646142D02*
X560559D01*
X561647Y646309D02*
X560559D01*
X561647Y646477D02*
X560559D01*
X561647Y646644D02*
X560559D01*
X561647Y646812D02*
X560559D01*
X561647Y646979D02*
X560559D01*
X561647Y647146D02*
X560559D01*
X561647Y647314D02*
X560559D01*
X561647Y647481D02*
X560559D01*
X561647Y647648D02*
X560559D01*
X561647Y647816D02*
X560559D01*
X561647Y647983D02*
X560559D01*
X561647Y648150D02*
X560559D01*
X561647Y648318D02*
X560559D01*
X561647Y648485D02*
X560559D01*
X561647Y648652D02*
X560559D01*
X561647Y648820D02*
X560559D01*
X561647Y648987D02*
X560559D01*
X561647Y649154D02*
X560559D01*
X561647Y649322D02*
X560559D01*
X561647Y649489D02*
X560559D01*
X561647Y649657D02*
X560559D01*
X561647Y649824D02*
X560559D01*
X561647Y649991D02*
X560559D01*
X561647Y650159D02*
X560559D01*
X561647Y650326D02*
X560559D01*
X561647Y650493D02*
X560559D01*
X561647Y650661D02*
X560559D01*
X561647Y650828D02*
X560559D01*
X561647Y650995D02*
X560559D01*
X561647Y651163D02*
X560559D01*
X561647Y651330D02*
X560559D01*
X561647Y651497D02*
X560559D01*
X561647Y651665D02*
X560559D01*
X561647Y651832D02*
X560559D01*
X561647Y651999D02*
X560559D01*
X561647Y652167D02*
X560559D01*
X561647Y652334D02*
X560559D01*
X561647Y652502D02*
X560559D01*
X561647Y652669D02*
X560559D01*
X561647Y652836D02*
X560559D01*
X561647Y653004D02*
X560559D01*
X561647Y653171D02*
X560559D01*
X561647Y653338D02*
X560559D01*
X561647Y653506D02*
X560559D01*
X561647Y653673D02*
X560559D01*
X561647Y653840D02*
X560559D01*
X561647Y654008D02*
X560559D01*
X561647Y654175D02*
X560559D01*
X561647Y654342D02*
X560559D01*
X561647Y654510D02*
X560559D01*
X561647Y654677D02*
X560559D01*
X561647Y654844D02*
X560559D01*
X561647Y655012D02*
X560559D01*
X561647Y655179D02*
X560559D01*
X561647Y655346D02*
X560559D01*
X561647Y655514D02*
X560559D01*
X561647Y655681D02*
X560559D01*
X561647Y655849D02*
X560559D01*
X561647Y656016D02*
X560559D01*
X561647Y656183D02*
X560559D01*
X561647Y656351D02*
X560559D01*
X561647Y656518D02*
X560559D01*
X561647Y656685D02*
X560559D01*
X561647Y656853D02*
X560559D01*
X561647Y657020D02*
X560559D01*
X561647Y657187D02*
X560559D01*
X561647Y657355D02*
X560559D01*
X561647Y657522D02*
X560559D01*
X561647Y657689D02*
X560559D01*
X561647Y657857D02*
X560559D01*
X561647Y658024D02*
X560559D01*
X561647Y658191D02*
X560559D01*
X561647Y658359D02*
X560559D01*
X561647Y658526D02*
X560559D01*
X561647Y658694D02*
X560559D01*
X561647Y658861D02*
X560559D01*
X561647Y659028D02*
X560559D01*
X561647Y659196D02*
X560559D01*
X561647Y659363D02*
X560559D01*
X561647Y659530D02*
X560559D01*
X561647Y659698D02*
X560559D01*
X561647Y659865D02*
X560559D01*
X561647Y660032D02*
X560559D01*
X561647Y660200D02*
X560559D01*
X561647Y660367D02*
X560559D01*
X561647Y660534D02*
X560559D01*
X561647Y660702D02*
X560559D01*
X561647Y660869D02*
X560559D01*
X561647Y661036D02*
X560559D01*
X561647Y661204D02*
X560559D01*
X561647Y661371D02*
X560559D01*
X561647Y661539D02*
X560559D01*
X561647Y661706D02*
X560559D01*
X561647Y661873D02*
X560559D01*
X561647Y662041D02*
X560559D01*
X561647Y662208D02*
X560559D01*
X561647Y662375D02*
X560559D01*
X561647Y662543D02*
X560559D01*
X561647Y662710D02*
X560559D01*
X561647Y662877D02*
X560559D01*
X561647Y663045D02*
X560559D01*
X561647Y663212D02*
X560559D01*
X561647Y663379D02*
X560559D01*
X561647Y663547D02*
X560559D01*
X561647Y663714D02*
X560559D01*
X561647Y663881D02*
X560559D01*
X561647Y664049D02*
X560559D01*
X561647Y664216D02*
X560559D01*
X561647Y664384D02*
X560559D01*
X561647Y664551D02*
X560559D01*
X561647Y664718D02*
X560559D01*
X561647Y664886D02*
X560559D01*
X561647Y665053D02*
X560559D01*
X561647Y665220D02*
X560559D01*
X561647Y665388D02*
X560559D01*
X561647Y665555D02*
X560559D01*
X561647Y665722D02*
X560559D01*
X561647Y665890D02*
X560559D01*
X561647Y666057D02*
X560559D01*
X561647Y666224D02*
X560559D01*
X561647Y666392D02*
X560559D01*
X561647Y666559D02*
X560559D01*
X561647Y666726D02*
X560559D01*
X561647Y666894D02*
X560559D01*
X561647Y667061D02*
X560559D01*
X561647Y667229D02*
X560559D01*
X561647Y667396D02*
X560559D01*
X561647Y667563D02*
X560559D01*
X561647Y667731D02*
X560559D01*
X561647Y667898D02*
X560559D01*
X561647Y668065D02*
X560559D01*
X561647Y668233D02*
X560559D01*
X561647Y668400D02*
X560559D01*
X561647Y668567D02*
X560559D01*
X561647Y668735D02*
X560559D01*
X561647Y668902D02*
X560559D01*
X561647Y669069D02*
X560559D01*
X561647Y669237D02*
X560559D01*
X561647Y669404D02*
X560559D01*
X561647Y669571D02*
X560559D01*
X561647Y669739D02*
X560559D01*
X561647Y669906D02*
X560559D01*
X561647Y670073D02*
X560559D01*
X561647Y670241D02*
X560559D01*
X561647Y670408D02*
X560559D01*
X525666Y423564D02*
X453286D01*
X525666Y423731D02*
X452951D01*
X525666Y423898D02*
X452617D01*
X525499Y424066D02*
X452282D01*
X524327Y424233D02*
X452115D01*
X524327Y424400D02*
X451780D01*
X524160Y424568D02*
X451445D01*
X523992Y424735D02*
X451278D01*
X523992Y424902D02*
X450943D01*
X463746Y425070D02*
X450776D01*
X462909Y425237D02*
X450609D01*
X462742Y425404D02*
X450274D01*
X462407Y425572D02*
X450106D01*
X462239Y425739D02*
X449939D01*
X462072Y425907D02*
X449604D01*
X461905Y426074D02*
X449437D01*
X461905Y426241D02*
X449270D01*
X462072Y426409D02*
X449102D01*
X462239Y426576D02*
X448935D01*
X462407Y426743D02*
X448768D01*
X462574Y426911D02*
X448600D01*
X461905Y427078D02*
X448433D01*
X461905Y427245D02*
X448266D01*
X461905Y427413D02*
X448098D01*
X461905Y427580D02*
X447931D01*
X461905Y427747D02*
X447764D01*
X461905Y427915D02*
X447596D01*
X461905Y428082D02*
X447429D01*
X461905Y428249D02*
X447429D01*
X461905Y428417D02*
X447261D01*
X461905Y428584D02*
X447094D01*
X462072Y428751D02*
X446927D01*
X462072Y428919D02*
X446759D01*
X462072Y429086D02*
X446759D01*
X462239Y429254D02*
X446592D01*
X462407Y429421D02*
X446425D01*
X462574Y429588D02*
X446425D01*
X462742Y429756D02*
X446257D01*
X463076Y429923D02*
X446090D01*
X463411Y430090D02*
X446090D01*
X479477Y430258D02*
X445923D01*
X479477Y430425D02*
X445755D01*
X479477Y430592D02*
X445755D01*
X479477Y430760D02*
X445588D01*
X479477Y430927D02*
X445588D01*
X479477Y431094D02*
X445421D01*
X479477Y431262D02*
X445253D01*
X479477Y431429D02*
X445253D01*
X479477Y431596D02*
X445086D01*
X479477Y431764D02*
X445086D01*
X458892Y431931D02*
X444919D01*
X458223Y432099D02*
X444919D01*
X457888Y432266D02*
X444919D01*
X457721Y432433D02*
X444751D01*
X457554Y432601D02*
X444751D01*
X457386Y432768D02*
X444584D01*
X457219Y432935D02*
X444584D01*
X457219Y433103D02*
X444416D01*
X457554Y433270D02*
X444416D01*
X457721Y433437D02*
X444416D01*
X457888Y433605D02*
X444249D01*
X457219Y433772D02*
X444249D01*
X457219Y433939D02*
X444082D01*
X457219Y434107D02*
X444082D01*
X457219Y434274D02*
X444082D01*
X457219Y434441D02*
X443914D01*
X457219Y434609D02*
X443914D01*
X457219Y434776D02*
X443914D01*
X457219Y434944D02*
X443914D01*
X457219Y435111D02*
X443747D01*
X457219Y435278D02*
X443747D01*
X457386Y435446D02*
X443747D01*
X457386Y435613D02*
X443747D01*
X457386Y435780D02*
X443580D01*
X457386Y435948D02*
X443580D01*
X457554Y436115D02*
X443580D01*
X457554Y436282D02*
X443580D01*
X457721Y436450D02*
X443412D01*
X457888Y436617D02*
X443412D01*
X458056Y436784D02*
X443412D01*
X458558Y436952D02*
X443412D01*
X515290Y437119D02*
X443412D01*
X515123Y437286D02*
X443412D01*
X514955Y437454D02*
X443245D01*
X514955Y437621D02*
X443245D01*
X514788Y437789D02*
X443245D01*
X514621Y437956D02*
X443245D01*
X514453Y438123D02*
X443245D01*
X514453Y438291D02*
X443245D01*
X514286Y438458D02*
X443245D01*
X514119Y438625D02*
X443245D01*
X514119Y438793D02*
X443245D01*
X513951Y438960D02*
X443245D01*
X513784Y439127D02*
X443078D01*
X513617Y439295D02*
X443078D01*
X513617Y439462D02*
X443078D01*
X513449Y439629D02*
X443078D01*
X513282Y439797D02*
X443078D01*
X513115Y439964D02*
X443078D01*
X468264Y440131D02*
X443078D01*
X468097Y440299D02*
X443078D01*
X467929Y440466D02*
X443078D01*
X467762Y440634D02*
X443078D01*
X467595Y440801D02*
X443078D01*
X467427Y440968D02*
X443078D01*
X467260Y441136D02*
X443078D01*
X467093Y441303D02*
X443078D01*
X466925Y441470D02*
X443078D01*
X466758Y441638D02*
X443078D01*
X466591Y441805D02*
X443078D01*
X466423Y441972D02*
X443078D01*
X466256Y442140D02*
X443078D01*
X466089Y442307D02*
X443078D01*
X465921Y442474D02*
X443078D01*
X465754Y442642D02*
X443078D01*
X465587Y442809D02*
X443078D01*
X465419Y442976D02*
X443078D01*
X465419Y443144D02*
X443078D01*
X465587Y443311D02*
X443078D01*
X465587Y443478D02*
X443078D01*
X465754Y443646D02*
X443078D01*
X465921Y443813D02*
X443078D01*
X465921Y443981D02*
X443078D01*
X466089Y444148D02*
X443078D01*
X466256Y444315D02*
X443078D01*
X466256Y444483D02*
X443078D01*
X466423Y444650D02*
X443078D01*
X466591Y444817D02*
X443078D01*
X466591Y444985D02*
X443078D01*
X466758Y445152D02*
X443078D01*
X466925Y445319D02*
X443078D01*
X467093Y445487D02*
X443078D01*
X467093Y445654D02*
X443078D01*
X467260Y445821D02*
X443078D01*
X467427Y445989D02*
X443078D01*
X467427Y446156D02*
X443078D01*
X467595Y446323D02*
X443078D01*
X467595Y446491D02*
X443078D01*
X467762Y446658D02*
X443078D01*
X467595Y446826D02*
X443078D01*
X467595Y446993D02*
X443078D01*
X467427Y447160D02*
X443078D01*
X467427Y447328D02*
X443078D01*
X467427Y447495D02*
X443078D01*
X467260Y447662D02*
X443078D01*
X467260Y447830D02*
X443078D01*
X467093Y447997D02*
X443078D01*
X467093Y448164D02*
X443078D01*
X466925Y448332D02*
X443078D01*
X466925Y448499D02*
X443078D01*
X466925Y448666D02*
X443078D01*
X466758Y448834D02*
X443078D01*
X466758Y449001D02*
X443078D01*
X466591Y449168D02*
X443078D01*
X466591Y449336D02*
X443078D01*
X466423Y449503D02*
X443078D01*
X466423Y449671D02*
X443078D01*
X466256Y449838D02*
X443078D01*
X465754Y450005D02*
X443078D01*
X464917Y450173D02*
X443078D01*
X463913Y450340D02*
X443078D01*
X463076Y450507D02*
X443078D01*
X462407Y450675D02*
X443078D01*
X462239Y450842D02*
X443078D01*
X462239Y451009D02*
X443078D01*
X462239Y451177D02*
X443078D01*
X462239Y451344D02*
X443078D01*
X462239Y451511D02*
X443078D01*
X462239Y451679D02*
X443078D01*
X462239Y451846D02*
X443078D01*
X462239Y452013D02*
X443078D01*
X462239Y452181D02*
X443078D01*
X462239Y452348D02*
X443078D01*
X462239Y452516D02*
X443078D01*
X462239Y452683D02*
X443078D01*
X462239Y452850D02*
X443078D01*
X462239Y453018D02*
X443078D01*
X462239Y453185D02*
X443078D01*
X462239Y453352D02*
X443078D01*
X462239Y453520D02*
X443078D01*
X462239Y453687D02*
X443078D01*
X462239Y453854D02*
X443078D01*
X462239Y454022D02*
X443078D01*
X462239Y454189D02*
X443078D01*
X462239Y454356D02*
X443078D01*
X462239Y454524D02*
X443078D01*
X462239Y454691D02*
X443078D01*
X462239Y454858D02*
X443078D01*
X462239Y455026D02*
X443078D01*
X462742Y455193D02*
X443078D01*
X463746Y455361D02*
X443078D01*
X464582Y455528D02*
X443078D01*
X465419Y455695D02*
X443078D01*
X466256Y455863D02*
X443078D01*
X466591Y456030D02*
X443078D01*
X466591Y456197D02*
X443078D01*
X466758Y456365D02*
X443078D01*
X466758Y456532D02*
X443078D01*
X466758Y456699D02*
X443078D01*
X466925Y456867D02*
X443078D01*
X466925Y457034D02*
X443078D01*
X467093Y457201D02*
X443078D01*
X467093Y457369D02*
X443078D01*
X467260Y457536D02*
X443078D01*
X467260Y457703D02*
X443078D01*
X467260Y457871D02*
X443078D01*
X467427Y458038D02*
X443078D01*
X467427Y458205D02*
X443078D01*
X467595Y458373D02*
X443078D01*
X467595Y458540D02*
X443078D01*
X467762Y458708D02*
X443078D01*
X467762Y458875D02*
X443078D01*
X467762Y459042D02*
X443078D01*
X467762Y459210D02*
X443078D01*
X467595Y459377D02*
X443078D01*
X467427Y459544D02*
X443078D01*
X467427Y459712D02*
X443078D01*
X467260Y459879D02*
X443078D01*
X467093Y460046D02*
X443078D01*
X467093Y460214D02*
X443078D01*
X466925Y460381D02*
X443078D01*
X466758Y460548D02*
X443078D01*
X466591Y460716D02*
X443078D01*
X466591Y460883D02*
X443078D01*
X466423Y461050D02*
X443078D01*
X466256Y461218D02*
X443078D01*
X466256Y461385D02*
X443078D01*
X466089Y461553D02*
X443078D01*
X465921Y461720D02*
X443078D01*
X465921Y461887D02*
X443078D01*
X465754Y462055D02*
X443078D01*
X465587Y462222D02*
X443078D01*
X465587Y462389D02*
X443078D01*
X465419Y462557D02*
X443078D01*
X465419Y462724D02*
X443078D01*
X465587Y462891D02*
X443078D01*
X465754Y463059D02*
X443078D01*
X465921Y463226D02*
X443078D01*
X466089Y463393D02*
X443078D01*
X466256Y463561D02*
X443078D01*
X466423Y463728D02*
X443078D01*
X466591Y463895D02*
X443078D01*
X466758Y464063D02*
X443078D01*
X466925Y464230D02*
X443078D01*
X467093Y464398D02*
X443078D01*
X467260Y464565D02*
X443078D01*
X467427Y464732D02*
X443078D01*
X467595Y464900D02*
X443078D01*
X467762Y465067D02*
X443078D01*
X467929Y465234D02*
X443078D01*
X468097Y465402D02*
X443078D01*
X468264Y465569D02*
X443078D01*
X475460Y465736D02*
X443078D01*
X475460Y465904D02*
X443078D01*
X475460Y466071D02*
X443078D01*
X475628Y466238D02*
X443078D01*
X475628Y466406D02*
X443078D01*
X475628Y466573D02*
X443078D01*
X475628Y466740D02*
X443078D01*
X475628Y466908D02*
X443078D01*
X475628Y467075D02*
X443078D01*
X475795Y467243D02*
X443078D01*
X475795Y467410D02*
X443078D01*
X475795Y467577D02*
X443078D01*
X475795Y467745D02*
X443078D01*
X475795Y467912D02*
X443078D01*
X475962Y468079D02*
X443078D01*
X475962Y468247D02*
X443078D01*
X475962Y468414D02*
X443078D01*
X475962Y468581D02*
X443078D01*
X475962Y468749D02*
X443078D01*
X476297Y468916D02*
X443078D01*
X484832Y469083D02*
X443078D01*
X484497Y469251D02*
X443078D01*
X484163Y469418D02*
X443078D01*
X483995Y469585D02*
X443078D01*
X483661Y469753D02*
X443078D01*
X483326Y469920D02*
X443078D01*
X482991Y470088D02*
X443078D01*
X482824Y470255D02*
X443078D01*
X482489Y470422D02*
X443078D01*
X482154Y470590D02*
X443078D01*
X481987Y470757D02*
X443078D01*
X481652Y470924D02*
X443078D01*
X481318Y471092D02*
X443078D01*
X480983Y471259D02*
X443078D01*
X480648Y471426D02*
X443078D01*
X480314Y471594D02*
X443078D01*
X479979Y471761D02*
X443078D01*
X479644Y471928D02*
X443078D01*
X479309Y472096D02*
X443078D01*
X478975Y472263D02*
X443078D01*
X478640Y472430D02*
X443078D01*
X478473Y472598D02*
X443078D01*
X478138Y472765D02*
X443078D01*
X477636Y472933D02*
X443078D01*
X477301Y473100D02*
X443078D01*
X476966Y473267D02*
X443078D01*
X476632Y473435D02*
X443078D01*
X476297Y473602D02*
X443078D01*
X475962Y473769D02*
X443078D01*
X475628Y473937D02*
X443078D01*
X475293Y474104D02*
X443078D01*
X474958Y474271D02*
X443078D01*
X474456Y474439D02*
X443078D01*
X474122Y474606D02*
X443078D01*
X473787Y474773D02*
X443078D01*
X473285Y474941D02*
X443078D01*
X472950Y475108D02*
X443078D01*
X472615Y475275D02*
X443078D01*
X472113Y475443D02*
X443078D01*
X471779Y475610D02*
X443078D01*
X471444Y475777D02*
X443078D01*
X470942Y475945D02*
X443078D01*
X470607Y476112D02*
X443078D01*
X470272Y476280D02*
X443078D01*
X469770Y476447D02*
X443078D01*
X469436Y476614D02*
X443078D01*
X468934Y476782D02*
X443078D01*
X468599Y476949D02*
X443078D01*
X468097Y477116D02*
X443078D01*
X467595Y477284D02*
X443078D01*
X467260Y477451D02*
X443078D01*
X466758Y477618D02*
X443078D01*
X466423Y477786D02*
X443078D01*
X465921Y477953D02*
X443078D01*
X465419Y478120D02*
X443078D01*
X464917Y478288D02*
X443078D01*
X464582Y478455D02*
X443078D01*
X464080Y478622D02*
X443078D01*
X463578Y478790D02*
X443078D01*
X463076Y478957D02*
X443078D01*
X462574Y479125D02*
X443078D01*
X462239Y479292D02*
X443078D01*
X461737Y479459D02*
X443078D01*
X461235Y479627D02*
X443078D01*
X460733Y479794D02*
X443078D01*
X460399Y479961D02*
X443078D01*
X459897Y480129D02*
X443078D01*
X459395Y480296D02*
X443078D01*
X458892Y480463D02*
X443078D01*
X458390Y480631D02*
X443078D01*
X457888Y480798D02*
X443078D01*
X457386Y480965D02*
X443078D01*
X456884Y481133D02*
X443078D01*
X456382Y481300D02*
X443078D01*
X455880Y481467D02*
X443078D01*
X455378Y481635D02*
X443078D01*
X454876Y481802D02*
X443078D01*
X454374Y481970D02*
X443078D01*
X454039Y482137D02*
X443078D01*
X453537Y482304D02*
X443078D01*
X453035Y482472D02*
X443078D01*
X452533Y482639D02*
X443078D01*
X452031Y482806D02*
X443078D01*
X451529Y482974D02*
X443078D01*
X451027Y483141D02*
X443078D01*
X450525Y483308D02*
X443078D01*
X450023Y483476D02*
X443078D01*
X449521Y483643D02*
X443078D01*
X449019Y483810D02*
X443078D01*
X448517Y483978D02*
X443078D01*
X459060Y484145D02*
X452784D01*
X448015D02*
X443078D01*
X458223Y484312D02*
X451780D01*
X447512D02*
X443078D01*
X457219Y484480D02*
X450609D01*
X447010D02*
X443078D01*
X456382Y484647D02*
X449437D01*
X446508D02*
X443078D01*
X455378Y484815D02*
X448266D01*
X446006D02*
X443078D01*
X454541Y484982D02*
X447094D01*
X445504D02*
X443078D01*
X453537Y485149D02*
X445588D01*
X445170D02*
X443078D01*
X452700Y485317D02*
X443078D01*
X451529Y485484D02*
X443078D01*
X450357Y485651D02*
X443078D01*
X449353Y485819D02*
X443078D01*
X448182Y485986D02*
X443078D01*
X447010Y486153D02*
X443078D01*
X445504Y486321D02*
X443078D01*
X444333Y486488D02*
X443078D01*
X444165Y486655D02*
X443078D01*
X444165Y486823D02*
X443078D01*
X444165Y486990D02*
X443078D01*
X444165Y487157D02*
X443078D01*
X444165Y487325D02*
X443078D01*
X444165Y487492D02*
X443078D01*
X444165Y487660D02*
X443078D01*
X444165Y487827D02*
X443078D01*
X444165Y487994D02*
X443078D01*
X444165Y488162D02*
X443078D01*
X444165Y488329D02*
X443078D01*
X444165Y488496D02*
X443078D01*
X444165Y488664D02*
X443078D01*
X444165Y488831D02*
X443078D01*
X444165Y488998D02*
X443078D01*
X444165Y489166D02*
X443078D01*
X444165Y489333D02*
X443078D01*
X444165Y489500D02*
X443078D01*
X444165Y489668D02*
X443078D01*
X444165Y489835D02*
X443078D01*
X444165Y490002D02*
X443078D01*
X444165Y490170D02*
X443078D01*
X444165Y490337D02*
X443078D01*
X444165Y490504D02*
X443078D01*
X444165Y490672D02*
X443078D01*
X444165Y490839D02*
X443078D01*
X444165Y491007D02*
X443078D01*
X444165Y491174D02*
X443078D01*
X444165Y491341D02*
X443078D01*
X444165Y491509D02*
X443078D01*
X444165Y491676D02*
X443078D01*
X444165Y491843D02*
X443078D01*
X444165Y492011D02*
X443078D01*
X444165Y492178D02*
X443078D01*
X444165Y492345D02*
X443078D01*
X444165Y492513D02*
X443078D01*
X444165Y492680D02*
X443078D01*
X444165Y492847D02*
X443078D01*
X444165Y493015D02*
X443078D01*
X444165Y493182D02*
X443078D01*
X444165Y493349D02*
X443078D01*
X444165Y493517D02*
X443078D01*
X444165Y493684D02*
X443078D01*
X444165Y493852D02*
X443078D01*
X444165Y494019D02*
X443078D01*
X444165Y494186D02*
X443078D01*
X444165Y494354D02*
X443078D01*
X444165Y494521D02*
X443078D01*
X444165Y494688D02*
X443078D01*
X444165Y494856D02*
X443078D01*
X444165Y495023D02*
X443078D01*
X444165Y495190D02*
X443078D01*
X444165Y495358D02*
X443078D01*
X444165Y495525D02*
X443078D01*
X444165Y495692D02*
X443078D01*
X444165Y495860D02*
X443078D01*
X444165Y496027D02*
X443078D01*
X444165Y496194D02*
X443078D01*
X444165Y496362D02*
X443078D01*
X444165Y496529D02*
X443078D01*
X444165Y496697D02*
X443078D01*
X444165Y496864D02*
X443078D01*
X444165Y497031D02*
X443078D01*
X444165Y497199D02*
X443078D01*
X444165Y497366D02*
X443078D01*
X444165Y497533D02*
X443078D01*
X444165Y497701D02*
X443078D01*
X444165Y497868D02*
X443078D01*
X444165Y498035D02*
X443078D01*
X444165Y498203D02*
X443078D01*
X444165Y498370D02*
X443078D01*
X444165Y498537D02*
X443078D01*
X444165Y498705D02*
X443078D01*
X444165Y498872D02*
X443078D01*
X444165Y499039D02*
X443078D01*
X444165Y499207D02*
X443078D01*
X444165Y499374D02*
X443078D01*
X444165Y499542D02*
X443078D01*
X444165Y499709D02*
X443078D01*
X444165Y499876D02*
X443078D01*
X444165Y500044D02*
X443078D01*
X444165Y500211D02*
X443078D01*
X444165Y500378D02*
X443078D01*
X444165Y500546D02*
X443078D01*
X444165Y500713D02*
X443078D01*
X444165Y500880D02*
X443078D01*
X444165Y501048D02*
X443078D01*
X444165Y501215D02*
X443078D01*
X444165Y501382D02*
X443078D01*
X444165Y501550D02*
X443078D01*
X444165Y501717D02*
X443078D01*
X444165Y501884D02*
X443078D01*
X444165Y502052D02*
X443078D01*
X444165Y502219D02*
X443078D01*
X444165Y502387D02*
X443078D01*
X444165Y502554D02*
X443078D01*
X444165Y502721D02*
X443078D01*
X444165Y502889D02*
X443078D01*
X444165Y503056D02*
X443078D01*
X444165Y503223D02*
X443078D01*
X444165Y503391D02*
X443078D01*
X444165Y503558D02*
X443078D01*
X444165Y503725D02*
X443078D01*
X444165Y503893D02*
X443078D01*
X444165Y504060D02*
X443078D01*
X444165Y504227D02*
X443078D01*
X444165Y504395D02*
X443078D01*
X444165Y504562D02*
X443078D01*
X444165Y504729D02*
X443078D01*
X444165Y504897D02*
X443078D01*
X444165Y505064D02*
X443078D01*
X444165Y505231D02*
X443078D01*
X444165Y505399D02*
X443078D01*
X444165Y505566D02*
X443078D01*
X444165Y505734D02*
X443078D01*
X444165Y505901D02*
X443078D01*
X444165Y506068D02*
X443078D01*
X444165Y506236D02*
X443078D01*
X444165Y506403D02*
X443078D01*
X444165Y506570D02*
X443078D01*
X444165Y506738D02*
X443078D01*
X444165Y506905D02*
X443078D01*
X444165Y507072D02*
X443078D01*
X444165Y507240D02*
X443078D01*
X444165Y507407D02*
X443078D01*
X444165Y507574D02*
X443078D01*
X444165Y507742D02*
X443078D01*
X444165Y507909D02*
X443078D01*
X444165Y508076D02*
X443078D01*
X444165Y508244D02*
X443078D01*
X444165Y508411D02*
X443078D01*
X444165Y508579D02*
X443078D01*
X444165Y508746D02*
X443078D01*
X444165Y508913D02*
X443078D01*
X444165Y509081D02*
X443078D01*
X444165Y509248D02*
X443078D01*
X444165Y509415D02*
X443078D01*
X444165Y509583D02*
X443078D01*
X444165Y509750D02*
X443078D01*
X444165Y509917D02*
X443078D01*
X444165Y510085D02*
X443078D01*
X444165Y510252D02*
X443078D01*
X444165Y510419D02*
X443078D01*
X444165Y510587D02*
X443078D01*
X444165Y510754D02*
X443078D01*
X444165Y510921D02*
X443078D01*
X444165Y511089D02*
X443078D01*
X444165Y511256D02*
X443078D01*
X444165Y511424D02*
X443078D01*
X444165Y511591D02*
X443078D01*
X444165Y511758D02*
X443078D01*
X444165Y511926D02*
X443078D01*
X444165Y512093D02*
X443078D01*
X444165Y512260D02*
X443078D01*
X444165Y512428D02*
X443078D01*
X444165Y512595D02*
X443078D01*
X444165Y512762D02*
X443078D01*
X444165Y512930D02*
X443078D01*
X444165Y513097D02*
X443078D01*
X444165Y513264D02*
X443078D01*
X444165Y513432D02*
X443078D01*
X444165Y513599D02*
X443078D01*
X444165Y513766D02*
X443078D01*
X444165Y513934D02*
X443078D01*
X444165Y514101D02*
X443078D01*
X444165Y514269D02*
X443078D01*
X444165Y514436D02*
X443078D01*
X444165Y514603D02*
X443078D01*
X444165Y514771D02*
X443078D01*
X444165Y514938D02*
X443078D01*
X444165Y515105D02*
X443078D01*
X444165Y515273D02*
X443078D01*
X444165Y515440D02*
X443078D01*
X444165Y515607D02*
X443078D01*
X444165Y515775D02*
X443078D01*
X444165Y515942D02*
X443078D01*
X444165Y516109D02*
X443078D01*
X444165Y516277D02*
X443078D01*
X444165Y516444D02*
X443078D01*
X444165Y516611D02*
X443078D01*
X444165Y516779D02*
X443078D01*
X444165Y516946D02*
X443078D01*
X444165Y517114D02*
X443078D01*
X444165Y517281D02*
X443078D01*
X444165Y517448D02*
X443078D01*
X444165Y517616D02*
X443078D01*
X444165Y517783D02*
X443078D01*
X444165Y517950D02*
X443078D01*
X444165Y518118D02*
X443078D01*
X444165Y518285D02*
X443078D01*
X444165Y518452D02*
X443078D01*
X444165Y518620D02*
X443078D01*
X444165Y518787D02*
X443078D01*
X444165Y518954D02*
X443078D01*
X444165Y519122D02*
X443078D01*
X444165Y519289D02*
X443078D01*
X444165Y519456D02*
X443078D01*
X444165Y519624D02*
X443078D01*
X444165Y519791D02*
X443078D01*
X444165Y519958D02*
X443078D01*
X444165Y520126D02*
X443078D01*
X444165Y520293D02*
X443078D01*
X444165Y520461D02*
X443078D01*
X444165Y520628D02*
X443078D01*
X444165Y520795D02*
X443078D01*
X444165Y520963D02*
X443078D01*
X444165Y521130D02*
X443078D01*
X444165Y521297D02*
X443078D01*
X444165Y521465D02*
X443078D01*
X444165Y521632D02*
X443078D01*
X444165Y521799D02*
X443078D01*
X444165Y521967D02*
X443078D01*
X444165Y522134D02*
X443078D01*
X444165Y522301D02*
X443078D01*
X444165Y522469D02*
X443078D01*
X444165Y522636D02*
X443078D01*
X444165Y522803D02*
X443078D01*
X444165Y522971D02*
X443078D01*
X444165Y523138D02*
X443078D01*
X444165Y523306D02*
X443078D01*
X444165Y523473D02*
X443078D01*
X444165Y523640D02*
X443078D01*
X444165Y523808D02*
X443078D01*
X444165Y523975D02*
X443078D01*
X444165Y524142D02*
X443078D01*
X444165Y524310D02*
X443078D01*
X444165Y524477D02*
X443078D01*
X444165Y524644D02*
X443078D01*
X444165Y524812D02*
X443078D01*
X444165Y524979D02*
X443078D01*
X444165Y525146D02*
X443078D01*
X444165Y525314D02*
X443078D01*
X444165Y525481D02*
X443078D01*
X444165Y525648D02*
X443078D01*
X444165Y525816D02*
X443078D01*
X444165Y525983D02*
X443078D01*
X444165Y526151D02*
X443078D01*
X444165Y526318D02*
X443078D01*
X444165Y526485D02*
X443078D01*
X444165Y526653D02*
X443078D01*
X444165Y526820D02*
X443078D01*
X444165Y526987D02*
X443078D01*
X444165Y527155D02*
X443078D01*
X444165Y527322D02*
X443078D01*
X444165Y527489D02*
X443078D01*
X444165Y527657D02*
X443078D01*
X444165Y527824D02*
X443078D01*
X444165Y527991D02*
X443078D01*
X444165Y528159D02*
X443078D01*
X444165Y528326D02*
X443078D01*
X444165Y528493D02*
X443078D01*
X444165Y528661D02*
X443078D01*
X444165Y528828D02*
X443078D01*
X444165Y528996D02*
X443078D01*
X444165Y529163D02*
X443078D01*
X444165Y529330D02*
X443078D01*
X444165Y529498D02*
X443078D01*
X444165Y529665D02*
X443078D01*
X444165Y529832D02*
X443078D01*
X444165Y530000D02*
X443078D01*
X444165Y530167D02*
X443078D01*
X444165Y530334D02*
X443078D01*
X444165Y530502D02*
X443078D01*
X444165Y530669D02*
X443078D01*
X444165Y530836D02*
X443078D01*
X444165Y531004D02*
X443078D01*
X444165Y531171D02*
X443078D01*
X444165Y531338D02*
X443078D01*
X444165Y531506D02*
X443078D01*
X444165Y531673D02*
X443078D01*
X444165Y531841D02*
X443078D01*
X444165Y532008D02*
X443078D01*
X444165Y532175D02*
X443078D01*
X444165Y532343D02*
X443078D01*
X444165Y532510D02*
X443078D01*
X444165Y532677D02*
X443078D01*
X444165Y532845D02*
X443078D01*
X444165Y533012D02*
X443078D01*
X444165Y533179D02*
X443078D01*
X444165Y533347D02*
X443078D01*
X444165Y533514D02*
X443078D01*
X444165Y533681D02*
X443078D01*
X444165Y533849D02*
X443078D01*
X444165Y534016D02*
X443078D01*
X444165Y534183D02*
X443078D01*
X444165Y534351D02*
X443078D01*
X444165Y534518D02*
X443078D01*
X444165Y534685D02*
X443078D01*
X444165Y534853D02*
X443078D01*
X444165Y535020D02*
X443078D01*
X444165Y535188D02*
X443078D01*
X444165Y535355D02*
X443078D01*
X444165Y535522D02*
X443078D01*
X444165Y535690D02*
X443078D01*
X444165Y535857D02*
X443078D01*
X444165Y536024D02*
X443078D01*
X444165Y536192D02*
X443078D01*
X444165Y536359D02*
X443078D01*
X444165Y536526D02*
X443078D01*
X444165Y536694D02*
X443078D01*
X444165Y536861D02*
X443078D01*
X444165Y537028D02*
X443078D01*
X444165Y537196D02*
X443078D01*
X444165Y537363D02*
X443078D01*
X444165Y537530D02*
X443078D01*
X444165Y537698D02*
X443078D01*
X444165Y537865D02*
X443078D01*
X444165Y538033D02*
X443078D01*
X444165Y538200D02*
X443078D01*
X444165Y538367D02*
X443078D01*
X444165Y538535D02*
X443078D01*
X444165Y538702D02*
X443078D01*
X444165Y538869D02*
X443078D01*
X444165Y539037D02*
X443078D01*
X444165Y539204D02*
X443078D01*
X444165Y539371D02*
X443078D01*
X444165Y539539D02*
X443078D01*
X444165Y539706D02*
X443078D01*
X444165Y539873D02*
X443078D01*
X444165Y540041D02*
X443078D01*
X444165Y540208D02*
X443078D01*
X444165Y540375D02*
X443078D01*
X444165Y540543D02*
X443078D01*
X444165Y540710D02*
X443078D01*
X444165Y540878D02*
X443078D01*
X444165Y541045D02*
X443078D01*
X444165Y541212D02*
X443078D01*
X444165Y541380D02*
X443078D01*
X444165Y541547D02*
X443078D01*
X444165Y541714D02*
X443078D01*
X444165Y541882D02*
X443078D01*
X444165Y542049D02*
X443078D01*
X444165Y542216D02*
X443078D01*
X444165Y542384D02*
X443078D01*
X444165Y542551D02*
X443078D01*
X444165Y542718D02*
X443078D01*
X444165Y542886D02*
X443078D01*
X444165Y543053D02*
X443078D01*
X444165Y543220D02*
X443078D01*
X444165Y543388D02*
X443078D01*
X444165Y543555D02*
X443078D01*
X444165Y543723D02*
X443078D01*
X444165Y543890D02*
X443078D01*
X444165Y544057D02*
X443078D01*
X444165Y544225D02*
X443078D01*
X444165Y544392D02*
X443078D01*
X444165Y544559D02*
X443078D01*
X444165Y544727D02*
X443078D01*
X444165Y544894D02*
X443078D01*
X444165Y545061D02*
X443078D01*
X444165Y545229D02*
X443078D01*
X444165Y545396D02*
X443078D01*
X444165Y545563D02*
X443078D01*
X444165Y545731D02*
X443078D01*
X444165Y545898D02*
X443078D01*
X444165Y546065D02*
X443078D01*
X444165Y546233D02*
X443078D01*
X444165Y546400D02*
X443078D01*
X444165Y546568D02*
X443078D01*
X444165Y546735D02*
X443078D01*
X444165Y546902D02*
X443078D01*
X444165Y547070D02*
X443078D01*
X444165Y547237D02*
X443078D01*
X444165Y547404D02*
X443078D01*
X444165Y547572D02*
X443078D01*
X444165Y547739D02*
X443078D01*
X444165Y547906D02*
X443078D01*
X444165Y548074D02*
X443078D01*
X444165Y548241D02*
X443078D01*
X444165Y548408D02*
X443078D01*
X444165Y548576D02*
X443078D01*
X444165Y548743D02*
X443078D01*
X444165Y548910D02*
X443078D01*
X444165Y549078D02*
X443078D01*
X444165Y549245D02*
X443078D01*
X444165Y549412D02*
X443078D01*
X444165Y549580D02*
X443078D01*
X444165Y549747D02*
X443078D01*
X444165Y549915D02*
X443078D01*
X444165Y550082D02*
X443078D01*
X444165Y550249D02*
X443078D01*
X444165Y550417D02*
X443078D01*
X444165Y550584D02*
X443078D01*
X444165Y550751D02*
X443078D01*
X444165Y550919D02*
X443078D01*
X444165Y551086D02*
X443078D01*
X444165Y551253D02*
X443078D01*
X444165Y551421D02*
X443078D01*
X444165Y551588D02*
X443078D01*
X444165Y551755D02*
X443078D01*
X444165Y551923D02*
X443078D01*
X444165Y552090D02*
X443078D01*
X444165Y552257D02*
X443078D01*
X444165Y552425D02*
X443078D01*
X444165Y552592D02*
X443078D01*
X444165Y552760D02*
X443078D01*
X444165Y552927D02*
X443078D01*
X444165Y553094D02*
X443078D01*
X444165Y553262D02*
X443078D01*
X444165Y553429D02*
X443078D01*
X444165Y553596D02*
X443078D01*
X444165Y553764D02*
X443078D01*
X444165Y553931D02*
X443078D01*
X444165Y554098D02*
X443078D01*
X444165Y554266D02*
X443078D01*
X444165Y554433D02*
X443078D01*
X444165Y554600D02*
X443078D01*
X444165Y554768D02*
X443078D01*
X444165Y554935D02*
X443078D01*
X444165Y555102D02*
X443078D01*
X444165Y555270D02*
X443078D01*
X444165Y555437D02*
X443078D01*
X444165Y555605D02*
X443078D01*
X444165Y555772D02*
X443078D01*
X444165Y555939D02*
X443078D01*
X444165Y556107D02*
X443078D01*
X444165Y556274D02*
X443078D01*
X444165Y556441D02*
X443078D01*
X444165Y556609D02*
X443078D01*
X444165Y556776D02*
X443078D01*
X444165Y556943D02*
X443078D01*
X444165Y557111D02*
X443078D01*
X444165Y557278D02*
X443078D01*
X444165Y557445D02*
X443078D01*
X444165Y557613D02*
X443078D01*
X444165Y557780D02*
X443078D01*
X444165Y557947D02*
X443078D01*
X444165Y558115D02*
X443078D01*
X444165Y558282D02*
X443078D01*
X444165Y558450D02*
X443078D01*
X444165Y558617D02*
X443078D01*
X444165Y558784D02*
X443078D01*
X444165Y558952D02*
X443078D01*
X444165Y559119D02*
X443078D01*
X444165Y559286D02*
X443078D01*
X444165Y559454D02*
X443078D01*
X444165Y559621D02*
X443078D01*
X444165Y559788D02*
X443078D01*
X444165Y559956D02*
X443078D01*
X444165Y560123D02*
X443078D01*
X444165Y560290D02*
X443078D01*
X444165Y560458D02*
X443078D01*
X444165Y560625D02*
X443078D01*
X444165Y560792D02*
X443078D01*
X444165Y560960D02*
X443078D01*
X444165Y561127D02*
X443078D01*
X444165Y561295D02*
X443078D01*
X444165Y561462D02*
X443078D01*
X444165Y561629D02*
X443078D01*
X444165Y561797D02*
X443078D01*
X444165Y561964D02*
X443078D01*
X444165Y562131D02*
X443078D01*
X444165Y562299D02*
X443078D01*
X444165Y562466D02*
X443078D01*
X444165Y562633D02*
X443078D01*
X444165Y562801D02*
X443078D01*
X444165Y562968D02*
X443078D01*
X444165Y563135D02*
X443078D01*
X444165Y563303D02*
X443078D01*
X444165Y563470D02*
X443078D01*
X444165Y563637D02*
X443078D01*
X444165Y563805D02*
X443078D01*
X444165Y563972D02*
X443078D01*
X444165Y564140D02*
X443078D01*
X444165Y564307D02*
X443078D01*
X444165Y564474D02*
X443078D01*
X444165Y564642D02*
X443078D01*
X444165Y564809D02*
X443078D01*
X444165Y564976D02*
X443078D01*
X444165Y565144D02*
X443078D01*
X444165Y565311D02*
X443078D01*
X444165Y565478D02*
X443078D01*
X444165Y565646D02*
X443078D01*
X444165Y565813D02*
X443078D01*
X444165Y565980D02*
X443078D01*
X444165Y566148D02*
X443078D01*
X444165Y566315D02*
X443078D01*
X444165Y566482D02*
X443078D01*
X444165Y566650D02*
X443078D01*
X444165Y566817D02*
X443078D01*
X444165Y566984D02*
X443078D01*
X444165Y567152D02*
X443078D01*
X444165Y567319D02*
X443078D01*
X444165Y567487D02*
X443078D01*
X444165Y567654D02*
X443078D01*
X444165Y567821D02*
X443078D01*
X444165Y567989D02*
X443078D01*
X444165Y568156D02*
X443078D01*
X444165Y568323D02*
X443078D01*
X444165Y568491D02*
X443078D01*
X444165Y568658D02*
X443078D01*
X444165Y568825D02*
X443078D01*
X444165Y568993D02*
X443078D01*
X444165Y569160D02*
X443078D01*
X444165Y569327D02*
X443078D01*
X444165Y569495D02*
X443078D01*
X444165Y569662D02*
X443078D01*
X444165Y569829D02*
X443078D01*
X444165Y569997D02*
X443078D01*
X444165Y570164D02*
X443078D01*
X444165Y570332D02*
X443078D01*
X444165Y570499D02*
X443078D01*
X444165Y570666D02*
X443078D01*
X444165Y570834D02*
X443078D01*
X444165Y571001D02*
X443078D01*
X444165Y571168D02*
X443078D01*
X444165Y571336D02*
X443078D01*
X444165Y571503D02*
X443078D01*
X444165Y571670D02*
X443078D01*
X444165Y571838D02*
X443078D01*
X444165Y572005D02*
X443078D01*
X444165Y572172D02*
X443078D01*
X444165Y572340D02*
X443078D01*
X444165Y572507D02*
X443078D01*
X444165Y572674D02*
X443078D01*
X444165Y572842D02*
X443078D01*
X444165Y573009D02*
X443078D01*
X444165Y573177D02*
X443078D01*
X444165Y573344D02*
X443078D01*
X444165Y573511D02*
X443078D01*
X444165Y573679D02*
X443078D01*
X444165Y573846D02*
X443078D01*
X444165Y574013D02*
X443078D01*
X444165Y574181D02*
X443078D01*
X444165Y574348D02*
X443078D01*
X444165Y574515D02*
X443078D01*
X444165Y574683D02*
X443078D01*
X444165Y574850D02*
X443078D01*
X444165Y575017D02*
X443078D01*
X444165Y575185D02*
X443078D01*
X444165Y575352D02*
X443078D01*
X444165Y575519D02*
X443078D01*
X444165Y575687D02*
X443078D01*
X444165Y575854D02*
X443078D01*
X444165Y576022D02*
X443078D01*
X444165Y576189D02*
X443078D01*
X444165Y576356D02*
X443078D01*
X444165Y576524D02*
X443078D01*
X444165Y576691D02*
X443078D01*
X444165Y576858D02*
X443078D01*
X444165Y577026D02*
X443078D01*
X444165Y577193D02*
X443078D01*
X444165Y577360D02*
X443078D01*
X444165Y577528D02*
X443078D01*
X444165Y577695D02*
X443078D01*
X444165Y577862D02*
X443078D01*
X444165Y578030D02*
X443078D01*
X444165Y578197D02*
X443078D01*
X444165Y578364D02*
X443078D01*
X444165Y578532D02*
X443078D01*
X444165Y578699D02*
X443078D01*
X444165Y578867D02*
X443078D01*
X444165Y579034D02*
X443078D01*
X444165Y579201D02*
X443078D01*
X444165Y579369D02*
X443078D01*
X444165Y579536D02*
X443078D01*
X444165Y579703D02*
X443078D01*
X444165Y579871D02*
X443078D01*
X444165Y580038D02*
X443078D01*
X444165Y580205D02*
X443078D01*
X444165Y580373D02*
X443078D01*
X444165Y580540D02*
X443078D01*
X444165Y580707D02*
X443078D01*
X444165Y580875D02*
X443078D01*
X444165Y581042D02*
X443078D01*
X444165Y581209D02*
X443078D01*
X444165Y581377D02*
X443078D01*
X444165Y581544D02*
X443078D01*
X444165Y581711D02*
X443078D01*
X444165Y581879D02*
X443078D01*
X444165Y582046D02*
X443078D01*
X444165Y582214D02*
X443078D01*
X444165Y582381D02*
X443078D01*
X444165Y582548D02*
X443078D01*
X444165Y582716D02*
X443078D01*
X444165Y582883D02*
X443078D01*
X444165Y583050D02*
X443078D01*
X444165Y583218D02*
X443078D01*
X444165Y583385D02*
X443078D01*
X444165Y583552D02*
X443078D01*
X444165Y583720D02*
X443078D01*
X444165Y583887D02*
X443078D01*
X444165Y584054D02*
X443078D01*
X444165Y584222D02*
X443078D01*
X444165Y584389D02*
X443078D01*
X444165Y584556D02*
X443078D01*
X444165Y584724D02*
X443078D01*
X444165Y584891D02*
X443078D01*
X444165Y585059D02*
X443078D01*
X444165Y585226D02*
X443078D01*
X444165Y585393D02*
X443078D01*
X444165Y585561D02*
X443078D01*
X444165Y585728D02*
X443078D01*
X444165Y585895D02*
X443078D01*
X444165Y586063D02*
X443078D01*
X444165Y586230D02*
X443078D01*
X444165Y586397D02*
X443078D01*
X444165Y586565D02*
X443078D01*
X444165Y586732D02*
X443078D01*
X444165Y586899D02*
X443078D01*
X444165Y587067D02*
X443078D01*
X444165Y587234D02*
X443078D01*
X444165Y587401D02*
X443078D01*
X444165Y587569D02*
X443078D01*
X444165Y587736D02*
X443078D01*
X444165Y587904D02*
X443078D01*
X444165Y588071D02*
X443078D01*
X444165Y588238D02*
X443078D01*
X444165Y588406D02*
X443078D01*
X444165Y588573D02*
X443078D01*
X444165Y588740D02*
X443078D01*
X444165Y588908D02*
X443078D01*
X444165Y589075D02*
X443078D01*
X444165Y589242D02*
X443078D01*
X444165Y589410D02*
X443078D01*
X444165Y589577D02*
X443078D01*
X444165Y589744D02*
X443078D01*
X444165Y589912D02*
X443078D01*
X444165Y590079D02*
X443078D01*
X444165Y590246D02*
X443078D01*
X444165Y590414D02*
X443078D01*
X444165Y590581D02*
X443078D01*
X444165Y590749D02*
X443078D01*
X444165Y590916D02*
X443078D01*
X444165Y591083D02*
X443078D01*
X444165Y591251D02*
X443078D01*
X444165Y591418D02*
X443078D01*
X444165Y591585D02*
X443078D01*
X444165Y591753D02*
X443078D01*
X444165Y591920D02*
X443078D01*
X444165Y592087D02*
X443078D01*
X444165Y592255D02*
X443078D01*
X444165Y592422D02*
X443078D01*
X444165Y592589D02*
X443078D01*
X444165Y592757D02*
X443078D01*
X444165Y592924D02*
X443078D01*
X444165Y593091D02*
X443078D01*
X444165Y593259D02*
X443078D01*
X444165Y593426D02*
X443078D01*
X444165Y593594D02*
X443078D01*
X444165Y593761D02*
X443078D01*
X444165Y593928D02*
X443078D01*
X444165Y594096D02*
X443078D01*
X444165Y594263D02*
X443078D01*
X444165Y594430D02*
X443078D01*
X444165Y594598D02*
X443078D01*
X444165Y594765D02*
X443078D01*
X444165Y594932D02*
X443078D01*
X444165Y595100D02*
X443078D01*
X444165Y595267D02*
X443078D01*
X444165Y595434D02*
X443078D01*
X444165Y595602D02*
X443078D01*
X444165Y595769D02*
X443078D01*
X444165Y595936D02*
X443078D01*
X444165Y596104D02*
X443078D01*
X444165Y596271D02*
X443078D01*
X444165Y596438D02*
X443078D01*
X444165Y596606D02*
X443078D01*
X444165Y596773D02*
X443078D01*
X444165Y596941D02*
X443078D01*
X444165Y597108D02*
X443078D01*
X444165Y597275D02*
X443078D01*
X444165Y597443D02*
X443078D01*
X444165Y597610D02*
X443078D01*
X444165Y597777D02*
X443078D01*
X444165Y597945D02*
X443078D01*
X444165Y598112D02*
X443078D01*
X444165Y598279D02*
X443078D01*
X444165Y598447D02*
X443078D01*
X444165Y598614D02*
X443078D01*
X444165Y598781D02*
X443078D01*
X444165Y598949D02*
X443078D01*
X444165Y599116D02*
X443078D01*
X444165Y599283D02*
X443078D01*
X444165Y599451D02*
X443078D01*
X444165Y599618D02*
X443078D01*
X444165Y599786D02*
X443078D01*
X444165Y599953D02*
X443078D01*
X444165Y600120D02*
X443078D01*
X444165Y600288D02*
X443078D01*
X444165Y600455D02*
X443078D01*
X444165Y600622D02*
X443078D01*
X444165Y600790D02*
X443078D01*
X444165Y600957D02*
X443078D01*
X444165Y601124D02*
X443078D01*
X444165Y601292D02*
X443078D01*
X444165Y601459D02*
X443078D01*
X444165Y601626D02*
X443078D01*
X444165Y601794D02*
X443078D01*
X444165Y601961D02*
X443078D01*
X444165Y602128D02*
X443078D01*
X444165Y602296D02*
X443078D01*
X444165Y602463D02*
X443078D01*
X444165Y602631D02*
X443078D01*
X444165Y602798D02*
X443078D01*
X444165Y602965D02*
X443078D01*
X444165Y603133D02*
X443078D01*
X444165Y603300D02*
X443078D01*
X444165Y603467D02*
X443078D01*
X444165Y603635D02*
X443078D01*
X444165Y603802D02*
X443078D01*
X444165Y603969D02*
X443078D01*
X444165Y604137D02*
X443078D01*
X444165Y604304D02*
X443078D01*
X444165Y604471D02*
X443078D01*
X444165Y604639D02*
X443078D01*
X444165Y604806D02*
X443078D01*
X444165Y604973D02*
X443078D01*
X444165Y605141D02*
X443078D01*
X444165Y605308D02*
X443078D01*
X444165Y605476D02*
X443078D01*
X444165Y605643D02*
X443078D01*
X444165Y605810D02*
X443078D01*
X444165Y605978D02*
X443078D01*
X444165Y606145D02*
X443078D01*
X444165Y606312D02*
X443078D01*
X444165Y606480D02*
X443078D01*
X444165Y606647D02*
X443078D01*
X444165Y606814D02*
X443078D01*
X444165Y606982D02*
X443078D01*
X444165Y607149D02*
X443078D01*
X444165Y607316D02*
X443078D01*
X444165Y607484D02*
X443078D01*
X444165Y607651D02*
X443078D01*
X444165Y607818D02*
X443078D01*
X444165Y607986D02*
X443078D01*
X444165Y608153D02*
X443078D01*
X444165Y608321D02*
X443078D01*
X444165Y608488D02*
X443078D01*
X444165Y608655D02*
X443078D01*
X444165Y608823D02*
X443078D01*
X444165Y608990D02*
X443078D01*
X444165Y609157D02*
X443078D01*
X444165Y609325D02*
X443078D01*
X444165Y609492D02*
X443078D01*
X444165Y609659D02*
X443078D01*
X444165Y609827D02*
X443078D01*
X444165Y609994D02*
X443078D01*
X444165Y610161D02*
X443078D01*
X444165Y610329D02*
X443078D01*
X444165Y610496D02*
X443078D01*
X444165Y610663D02*
X443078D01*
X444165Y610831D02*
X443078D01*
X444165Y610998D02*
X443078D01*
X444165Y611165D02*
X443078D01*
X444165Y611333D02*
X443078D01*
X444165Y611500D02*
X443078D01*
X444165Y611668D02*
X443078D01*
X444165Y611835D02*
X443078D01*
X444165Y612002D02*
X443078D01*
X444165Y612170D02*
X443078D01*
X444165Y612337D02*
X443078D01*
X444165Y612504D02*
X443078D01*
X444165Y612672D02*
X443078D01*
X444165Y612839D02*
X443078D01*
X444165Y613006D02*
X443078D01*
X444165Y613174D02*
X443078D01*
X444165Y613341D02*
X443078D01*
X444165Y613508D02*
X443078D01*
X444165Y613676D02*
X443078D01*
X444165Y613843D02*
X443078D01*
X444165Y614010D02*
X443078D01*
X444165Y614178D02*
X443078D01*
X444165Y614345D02*
X443078D01*
X444165Y614513D02*
X443078D01*
X444165Y614680D02*
X443078D01*
X444165Y614847D02*
X443078D01*
X444165Y615015D02*
X443078D01*
X444165Y615182D02*
X443078D01*
X444165Y615349D02*
X443078D01*
X444165Y615517D02*
X443078D01*
X444165Y615684D02*
X443078D01*
X444165Y615851D02*
X443078D01*
X444165Y616019D02*
X443078D01*
X444165Y616186D02*
X443078D01*
X444165Y616353D02*
X443078D01*
X444165Y616521D02*
X443078D01*
X444165Y616688D02*
X443078D01*
X444165Y616855D02*
X443078D01*
X444165Y617023D02*
X443078D01*
X444165Y617190D02*
X443078D01*
X444165Y617358D02*
X443078D01*
X444165Y617525D02*
X443078D01*
X444165Y617692D02*
X443078D01*
X444165Y617860D02*
X443078D01*
X444165Y618027D02*
X443078D01*
X444165Y618194D02*
X443078D01*
X444165Y618362D02*
X443078D01*
X444165Y618529D02*
X443078D01*
X444165Y618696D02*
X443078D01*
X444165Y618864D02*
X443078D01*
X444165Y619031D02*
X443078D01*
X444165Y619198D02*
X443078D01*
X444165Y619366D02*
X443078D01*
X444165Y619533D02*
X443078D01*
X444165Y619700D02*
X443078D01*
X444165Y619868D02*
X443078D01*
X444165Y620035D02*
X443078D01*
X444165Y620203D02*
X443078D01*
X444165Y620370D02*
X443078D01*
X444165Y620537D02*
X443078D01*
X444165Y620705D02*
X443078D01*
X444165Y620872D02*
X443078D01*
X444165Y621039D02*
X443078D01*
X444165Y621207D02*
X443078D01*
X444165Y621374D02*
X443078D01*
X444165Y621541D02*
X443078D01*
X444165Y621709D02*
X443078D01*
X444165Y621876D02*
X443078D01*
X444165Y622043D02*
X443078D01*
X444165Y622211D02*
X443078D01*
X444165Y622378D02*
X443078D01*
X444165Y622545D02*
X443078D01*
X444165Y622713D02*
X443078D01*
X444165Y622880D02*
X443078D01*
X444165Y623048D02*
X443078D01*
X444165Y623215D02*
X443078D01*
X444165Y623382D02*
X443078D01*
X444165Y623550D02*
X443078D01*
X444165Y623717D02*
X443078D01*
X444165Y623884D02*
X443078D01*
X444165Y624052D02*
X443078D01*
X444165Y624219D02*
X443078D01*
X444165Y624386D02*
X443078D01*
X444165Y624554D02*
X443078D01*
X444165Y624721D02*
X443078D01*
X444165Y624888D02*
X443078D01*
X444165Y625056D02*
X443078D01*
X444165Y625223D02*
X443078D01*
X444165Y625390D02*
X443078D01*
X444165Y625558D02*
X443078D01*
X444165Y625725D02*
X443078D01*
X444165Y625892D02*
X443078D01*
X444165Y626060D02*
X443078D01*
X444165Y626227D02*
X443078D01*
X444165Y626395D02*
X443078D01*
X444165Y626562D02*
X443078D01*
X444165Y628068D02*
X443078D01*
X444165Y628235D02*
X443078D01*
X444165Y628403D02*
X443078D01*
X444165Y628570D02*
X443078D01*
X444165Y628737D02*
X443078D01*
X444165Y628905D02*
X443078D01*
X444165Y629072D02*
X443078D01*
X444165Y629240D02*
X443078D01*
X444165Y629407D02*
X443078D01*
X444165Y629574D02*
X443078D01*
X444165Y629742D02*
X443078D01*
X444165Y629909D02*
X443078D01*
X444165Y630076D02*
X443078D01*
X444165Y630244D02*
X443078D01*
X444165Y630411D02*
X443078D01*
X444165Y630578D02*
X443078D01*
X444165Y630746D02*
X443078D01*
X444165Y630913D02*
X443078D01*
X444165Y631080D02*
X443078D01*
X444165Y631248D02*
X443078D01*
X444165Y631415D02*
X443078D01*
X444165Y631582D02*
X443078D01*
X444165Y631750D02*
X443078D01*
X444165Y631917D02*
X443078D01*
X444165Y632085D02*
X443078D01*
X444165Y632252D02*
X443078D01*
X444165Y632419D02*
X443078D01*
X444165Y632587D02*
X443078D01*
X444165Y632754D02*
X443078D01*
X444165Y632921D02*
X443078D01*
X444165Y633089D02*
X443078D01*
X444165Y633256D02*
X443078D01*
X444165Y633423D02*
X443078D01*
X444165Y633591D02*
X443078D01*
X444165Y633758D02*
X443078D01*
X444165Y633925D02*
X443078D01*
X444165Y634093D02*
X443078D01*
X444165Y634260D02*
X443078D01*
X444165Y634427D02*
X443078D01*
X444165Y634595D02*
X443078D01*
X444165Y634762D02*
X443078D01*
X444165Y634930D02*
X443078D01*
X444165Y635097D02*
X443078D01*
X444165Y635264D02*
X443078D01*
X444165Y635432D02*
X443078D01*
X444165Y635599D02*
X443078D01*
X444165Y635766D02*
X443078D01*
X444165Y635934D02*
X443078D01*
X444165Y636101D02*
X443078D01*
X444165Y636268D02*
X443078D01*
X444165Y636436D02*
X443078D01*
X444165Y636603D02*
X443078D01*
X444165Y636770D02*
X443078D01*
X444165Y636938D02*
X443078D01*
X444165Y637105D02*
X443078D01*
X444165Y637272D02*
X443078D01*
X444165Y637440D02*
X443078D01*
X444165Y637607D02*
X443078D01*
X444165Y637775D02*
X443078D01*
X444165Y637942D02*
X443078D01*
X444165Y638109D02*
X443078D01*
X444165Y638277D02*
X443078D01*
X444165Y638444D02*
X443078D01*
X444165Y638611D02*
X443078D01*
X444165Y638779D02*
X443078D01*
X444165Y638946D02*
X443078D01*
X444165Y639113D02*
X443078D01*
X444165Y639281D02*
X443078D01*
X444165Y639448D02*
X443078D01*
X444165Y639615D02*
X443078D01*
X444165Y639783D02*
X443078D01*
X444165Y639950D02*
X443078D01*
X444165Y640117D02*
X443078D01*
X444165Y640285D02*
X443078D01*
X444165Y640452D02*
X443078D01*
X444165Y640619D02*
X443078D01*
X444165Y640787D02*
X443078D01*
X444165Y640954D02*
X443078D01*
X444165Y641122D02*
X443078D01*
X444165Y641289D02*
X443078D01*
X444165Y641456D02*
X443078D01*
X444165Y641624D02*
X443078D01*
X444165Y641791D02*
X443078D01*
X444165Y641958D02*
X443078D01*
X444165Y642126D02*
X443078D01*
X444165Y642293D02*
X443078D01*
X444165Y642460D02*
X443078D01*
X444165Y642628D02*
X443078D01*
X444165Y642795D02*
X443078D01*
X444165Y642962D02*
X443078D01*
X444165Y643130D02*
X443078D01*
X444165Y643297D02*
X443078D01*
X444165Y643464D02*
X443078D01*
X444165Y643632D02*
X443078D01*
X444165Y643799D02*
X443078D01*
X444165Y643967D02*
X443078D01*
X444165Y644134D02*
X443078D01*
X444165Y644301D02*
X443078D01*
X444165Y644469D02*
X443078D01*
X444165Y644636D02*
X443078D01*
X444165Y644803D02*
X443078D01*
X444165Y644971D02*
X443078D01*
X444165Y645138D02*
X443078D01*
X444165Y645305D02*
X443078D01*
X444165Y645473D02*
X443078D01*
X444165Y645640D02*
X443078D01*
X444165Y645807D02*
X443078D01*
X444165Y645975D02*
X443078D01*
X444165Y646142D02*
X443078D01*
X444165Y646309D02*
X443078D01*
X444165Y646477D02*
X443078D01*
X444165Y646644D02*
X443078D01*
X444165Y646812D02*
X443078D01*
X444165Y646979D02*
X443078D01*
X444165Y647146D02*
X443078D01*
X444165Y647314D02*
X443078D01*
X444165Y647481D02*
X443078D01*
X444165Y647648D02*
X443078D01*
X444165Y647816D02*
X443078D01*
X444165Y647983D02*
X443078D01*
X444165Y648150D02*
X443078D01*
X444165Y648318D02*
X443078D01*
X444165Y648485D02*
X443078D01*
X444165Y648652D02*
X443078D01*
X444165Y648820D02*
X443078D01*
X444165Y648987D02*
X443078D01*
X444165Y649154D02*
X443078D01*
X444165Y649322D02*
X443078D01*
X444165Y649489D02*
X443078D01*
X444165Y649657D02*
X443078D01*
X444165Y649824D02*
X443078D01*
X444165Y649991D02*
X443078D01*
X444165Y650159D02*
X443078D01*
X444165Y650326D02*
X443078D01*
X444165Y650493D02*
X443078D01*
X444165Y650661D02*
X443078D01*
X444165Y650828D02*
X443078D01*
X444165Y650995D02*
X443078D01*
X444165Y651163D02*
X443078D01*
X444165Y651330D02*
X443078D01*
X444165Y651497D02*
X443078D01*
X444165Y651665D02*
X443078D01*
X444165Y651832D02*
X443078D01*
X444165Y651999D02*
X443078D01*
X444165Y652167D02*
X443078D01*
X444165Y652334D02*
X443078D01*
X444165Y652502D02*
X443078D01*
X444165Y652669D02*
X443078D01*
X444165Y652836D02*
X443078D01*
X444165Y653004D02*
X443078D01*
X444165Y653171D02*
X443078D01*
X444165Y653338D02*
X443078D01*
X444165Y653506D02*
X443078D01*
X444165Y653673D02*
X443078D01*
X444165Y653840D02*
X443078D01*
X444165Y654008D02*
X443078D01*
X444165Y654175D02*
X443078D01*
X444165Y654342D02*
X443078D01*
X444165Y654510D02*
X443078D01*
X444165Y654677D02*
X443078D01*
X444165Y654844D02*
X443078D01*
X444165Y655012D02*
X443078D01*
X444165Y655179D02*
X443078D01*
X444165Y655346D02*
X443078D01*
X444165Y655514D02*
X443078D01*
X444165Y655681D02*
X443078D01*
X444165Y655849D02*
X443078D01*
X444165Y656016D02*
X443078D01*
X444165Y656183D02*
X443078D01*
X444165Y656351D02*
X443078D01*
X444165Y656518D02*
X443078D01*
X444165Y656685D02*
X443078D01*
X444165Y656853D02*
X443078D01*
X444165Y657020D02*
X443078D01*
X444165Y657187D02*
X443078D01*
X444165Y657355D02*
X443078D01*
X444165Y657522D02*
X443078D01*
X444165Y657689D02*
X443078D01*
X444165Y657857D02*
X443078D01*
X444165Y658024D02*
X443078D01*
X444165Y658191D02*
X443078D01*
X444165Y658359D02*
X443078D01*
X444165Y658526D02*
X443078D01*
X444165Y658694D02*
X443078D01*
X444165Y658861D02*
X443078D01*
X444165Y659028D02*
X443078D01*
X444165Y659196D02*
X443078D01*
X444165Y659363D02*
X443078D01*
X444165Y659530D02*
X443078D01*
X444165Y659698D02*
X443078D01*
X444165Y659865D02*
X443078D01*
X444165Y660032D02*
X443078D01*
X444165Y660200D02*
X443078D01*
X444165Y660367D02*
X443078D01*
X444165Y660534D02*
X443078D01*
X444165Y660702D02*
X443078D01*
X444165Y660869D02*
X443078D01*
X444165Y661036D02*
X443078D01*
X444165Y661204D02*
X443078D01*
X444165Y661371D02*
X443078D01*
X444165Y661539D02*
X443078D01*
X444165Y661706D02*
X443078D01*
X444165Y661873D02*
X443078D01*
X444165Y662041D02*
X443078D01*
X444165Y662208D02*
X443078D01*
X444165Y662375D02*
X443078D01*
X444165Y662543D02*
X443078D01*
X444165Y662710D02*
X443078D01*
X444165Y662877D02*
X443078D01*
X444165Y663045D02*
X443078D01*
X444165Y663212D02*
X443078D01*
X444165Y663379D02*
X443078D01*
X444165Y663547D02*
X443078D01*
X444165Y663714D02*
X443078D01*
X444165Y663881D02*
X443078D01*
X444165Y664049D02*
X443078D01*
X444165Y664216D02*
X443078D01*
X444165Y664384D02*
X443078D01*
X444165Y664551D02*
X443078D01*
X444165Y664718D02*
X443078D01*
X444165Y664886D02*
X443078D01*
X444165Y665053D02*
X443078D01*
X444165Y665220D02*
X443078D01*
X444165Y665388D02*
X443078D01*
X444165Y665555D02*
X443078D01*
X444165Y665722D02*
X443078D01*
X444165Y665890D02*
X443078D01*
X444165Y666057D02*
X443078D01*
X444165Y666224D02*
X443078D01*
X444165Y666392D02*
X443078D01*
X444165Y666559D02*
X443078D01*
X444165Y666726D02*
X443078D01*
X444165Y666894D02*
X443078D01*
X444165Y667061D02*
X443078D01*
X444165Y667229D02*
X443078D01*
X444165Y667396D02*
X443078D01*
X444165Y667563D02*
X443078D01*
X444165Y667731D02*
X443078D01*
X444165Y667898D02*
X443078D01*
X444165Y668065D02*
X443078D01*
X444165Y668233D02*
X443078D01*
X444165Y668400D02*
X443078D01*
X444165Y668567D02*
X443078D01*
X444165Y668735D02*
X443078D01*
X444165Y668902D02*
X443078D01*
X444165Y669069D02*
X443078D01*
X444165Y669237D02*
X443078D01*
X444165Y669404D02*
X443078D01*
X444165Y669571D02*
X443078D01*
X444165Y669739D02*
X443078D01*
X444165Y669906D02*
X443078D01*
X444165Y670073D02*
X443078D01*
X444165Y670241D02*
X443078D01*
X444165Y670408D02*
X443078D01*
X444165Y670576D02*
X443078D01*
X545414Y421723D02*
X459478D01*
X546418Y421890D02*
X458307D01*
X547422Y422057D02*
X457470D01*
X547924Y422225D02*
X456801D01*
X548593Y422392D02*
X456131D01*
X549095Y422559D02*
X455629D01*
X525833Y422894D02*
X454792D01*
X525833Y423062D02*
X454290D01*
X525833Y423229D02*
X453956D01*
X525666Y423396D02*
X453621D01*
X525499Y424233D02*
X524578D01*
X525499Y424400D02*
X524578D01*
X525331Y424568D02*
X524578D01*
X525331Y424735D02*
X524411D01*
X525331Y424902D02*
X524411D01*
X525331Y425070D02*
X524411D01*
X523825D02*
X489434D01*
X488849D02*
X482071D01*
X481652D02*
X472030D01*
X471444D02*
X464164D01*
X525164Y425237D02*
X524411D01*
X523658D02*
X495124D01*
X493367D02*
X492447D01*
X490857D02*
X489936D01*
X486840D02*
X486589D01*
X484832D02*
X482573D01*
X481150D02*
X481067D01*
X479477D02*
X478222D01*
X476966D02*
X475711D01*
X474289D02*
X472532D01*
X469268D02*
X469185D01*
X467595D02*
X464833D01*
X525164Y425404D02*
X524244D01*
X523658D02*
X495124D01*
X493367D02*
X492447D01*
X490857D02*
X490271D01*
X486840D02*
X486589D01*
X484832D02*
X482907D01*
X479477D02*
X478389D01*
X476799D02*
X475711D01*
X474289D02*
X472866D01*
X469268D02*
X469185D01*
X467595D02*
X465168D01*
X525164Y425572D02*
X524244D01*
X523490D02*
X495124D01*
X493367D02*
X492447D01*
X490857D02*
X490438D01*
X486840D02*
X486589D01*
X484832D02*
X483075D01*
X479477D02*
X478389D01*
X476799D02*
X475879D01*
X474289D02*
X473034D01*
X469268D02*
X469185D01*
X467595D02*
X465503D01*
X525164Y425739D02*
X524244D01*
X523323D02*
X495124D01*
X493367D02*
X492447D01*
X490857D02*
X490606D01*
X486840D02*
X486589D01*
X484832D02*
X483242D01*
X479477D02*
X478389D01*
X476799D02*
X475879D01*
X474122D02*
X473201D01*
X469268D02*
X469185D01*
X467595D02*
X465670D01*
X524997Y425907D02*
X524244D01*
X523323D02*
X495124D01*
X493367D02*
X492447D01*
X490857D02*
X490773D01*
X486840D02*
X486589D01*
X484832D02*
X483410D01*
X479477D02*
X478556D01*
X476632D02*
X475879D01*
X474122D02*
X473368D01*
X469268D02*
X469185D01*
X467595D02*
X465670D01*
X524997Y426074D02*
X524076D01*
X523156D02*
X495124D01*
X493367D02*
X492447D01*
X490857D02*
X490773D01*
X486840D02*
X486589D01*
X484832D02*
X483410D01*
X479477D02*
X478556D01*
X476632D02*
X476046D01*
X474122D02*
X473368D01*
X469268D02*
X469185D01*
X467595D02*
X465838D01*
X524997Y426241D02*
X524076D01*
X522988D02*
X495124D01*
X493367D02*
X492447D01*
X486840D02*
X486589D01*
X484832D02*
X483577D01*
X479477D02*
X478556D01*
X476632D02*
X476046D01*
X473954D02*
X473536D01*
X469268D02*
X469185D01*
X467595D02*
X466005D01*
X524997Y426409D02*
X524076D01*
X522988D02*
X495124D01*
X493367D02*
X492447D01*
X486840D02*
X486589D01*
X484832D02*
X483577D01*
X479477D02*
X478724D01*
X476632D02*
X476046D01*
X473954D02*
X473536D01*
X469268D02*
X469185D01*
X467595D02*
X466005D01*
X524829Y426576D02*
X524076D01*
X522821D02*
X495124D01*
X493367D02*
X492447D01*
X486840D02*
X486589D01*
X484832D02*
X483577D01*
X479477D02*
X478724D01*
X476464D02*
X476213D01*
X473954D02*
X473536D01*
X469268D02*
X469185D01*
X467595D02*
X466005D01*
X524829Y426743D02*
X523909D01*
X522654D02*
X495124D01*
X493367D02*
X492447D01*
X489351D02*
X488430D01*
X486840D02*
X486589D01*
X484832D02*
X483577D01*
X481820D02*
X481234D01*
X479477D02*
X478724D01*
X476464D02*
X476213D01*
X473787D02*
X473536D01*
X471946D02*
X471025D01*
X469268D02*
X469185D01*
X467595D02*
X466172D01*
X464248D02*
X463662D01*
X524829Y426911D02*
X523909D01*
X522486D02*
X495124D01*
X493367D02*
X492447D01*
X489351D02*
X488430D01*
X486840D02*
X486589D01*
X484832D02*
X483577D01*
X481987D02*
X481234D01*
X479477D02*
X478891D01*
X476464D02*
X476213D01*
X473787D02*
X473536D01*
X471779D02*
X471025D01*
X469268D02*
X469185D01*
X467595D02*
X466172D01*
X464415D02*
X463327D01*
X524829Y427078D02*
X523909D01*
X522486D02*
X495124D01*
X493367D02*
X492447D01*
X486840D02*
X486589D01*
X484832D02*
X483577D01*
X481987D02*
X481067D01*
X479477D02*
X478891D01*
X473787D02*
X473536D01*
X469268D02*
X469185D01*
X467595D02*
X466172D01*
X524829Y427245D02*
X523909D01*
X522319D02*
X495124D01*
X493367D02*
X492447D01*
X486840D02*
X486589D01*
X484832D02*
X483577D01*
X481987D02*
X481067D01*
X479477D02*
X478891D01*
X473619D02*
X473536D01*
X469268D02*
X469185D01*
X467595D02*
X466172D01*
X524662Y427413D02*
X523741D01*
X522152D02*
X495124D01*
X493367D02*
X492447D01*
X490857D02*
X490773D01*
X486840D02*
X486589D01*
X484832D02*
X483744D01*
X481987D02*
X481067D01*
X479477D02*
X479058D01*
X473619D02*
X473368D01*
X469268D02*
X469185D01*
X467595D02*
X466172D01*
X524662Y427580D02*
X523741D01*
X522152D02*
X495124D01*
X493367D02*
X492447D01*
X490857D02*
X490773D01*
X486840D02*
X486589D01*
X484832D02*
X483744D01*
X481987D02*
X481067D01*
X479477D02*
X479058D01*
X473619D02*
X473368D01*
X469268D02*
X469185D01*
X467595D02*
X466172D01*
X524662Y427747D02*
X523741D01*
X521984D02*
X495124D01*
X493367D02*
X492447D01*
X490857D02*
X490606D01*
X486840D02*
X486589D01*
X484832D02*
X483744D01*
X481987D02*
X481067D01*
X479477D02*
X479058D01*
X473619D02*
X473201D01*
X469268D02*
X469185D01*
X467595D02*
X466172D01*
X524662Y427915D02*
X523741D01*
X521817D02*
X495124D01*
X493367D02*
X492447D01*
X490857D02*
X490438D01*
X486840D02*
X486589D01*
X484832D02*
X483744D01*
X481987D02*
X481067D01*
X479477D02*
X479226D01*
X473452D02*
X473034D01*
X469268D02*
X469185D01*
X467595D02*
X466172D01*
X524495Y428082D02*
X523741D01*
X521650D02*
X495124D01*
X493367D02*
X492447D01*
X490857D02*
X490271D01*
X486840D02*
X486589D01*
X484832D02*
X483577D01*
X481987D02*
X481067D01*
X479477D02*
X479226D01*
X473452D02*
X472866D01*
X469268D02*
X469185D01*
X467595D02*
X466172D01*
X524495Y428249D02*
X523574D01*
X521650D02*
X495124D01*
X493534D02*
X492447D01*
X490857D02*
X489769D01*
X486840D02*
X486589D01*
X484999D02*
X483577D01*
X481987D02*
X481067D01*
X479477D02*
X479226D01*
X477636D02*
X477552D01*
X475126D02*
X475042D01*
X473452D02*
X472364D01*
X469268D02*
X469185D01*
X467595D02*
X466172D01*
X524495Y428417D02*
X523574D01*
X521482D02*
X495124D01*
X493367D02*
X492614D01*
X490857D02*
X489936D01*
X489518D02*
X488430D01*
X486840D02*
X486589D01*
X484832D02*
X484079D01*
X483661D02*
X483577D01*
X481987D02*
X481234D01*
X479477D02*
X479393D01*
X477636D02*
X477552D01*
X475126D02*
X474875D01*
X473285D02*
X472532D01*
X471946D02*
X471025D01*
X469268D02*
X469185D01*
X467427D02*
X466674D01*
X466423D02*
X466172D01*
X464415D02*
X463829D01*
X524495Y428584D02*
X523574D01*
X521315D02*
X495124D01*
X493200D02*
X492781D01*
X490857D02*
X490271D01*
X489351D02*
X488430D01*
X486840D02*
X486589D01*
X484497D02*
X484414D01*
X481652D02*
X481401D01*
X479477D02*
X479393D01*
X477803D02*
X477385D01*
X475126D02*
X474875D01*
X473285D02*
X472866D01*
X471779D02*
X471025D01*
X469436D02*
X469185D01*
X467093D02*
X466842D01*
X466256D02*
X466005D01*
X464248D02*
X463829D01*
X524495Y428751D02*
X523574D01*
X521315D02*
X495124D01*
X490857D02*
X490438D01*
X486840D02*
X486589D01*
X479477D02*
X479393D01*
X477803D02*
X477385D01*
X475293D02*
X474875D01*
X473285D02*
X473034D01*
X469436D02*
X469185D01*
X466089D02*
X466005D01*
X524327Y428919D02*
X523407D01*
X521148D02*
X495124D01*
X490857D02*
X490606D01*
X486840D02*
X486589D01*
X477803D02*
X477385D01*
X475293D02*
X474875D01*
X469603D02*
X469185D01*
X465921D02*
X465838D01*
X524327Y429086D02*
X523407D01*
X520980D02*
X495124D01*
X491024D02*
X490773D01*
X486840D02*
X486589D01*
X477803D02*
X477218D01*
X475293D02*
X474707D01*
X469603D02*
X469185D01*
X524327Y429254D02*
X523407D01*
X520980D02*
X495124D01*
X491024D02*
X490940D01*
X487008D02*
X486589D01*
X477971D02*
X477218D01*
X475460D02*
X474707D01*
X469603D02*
X469185D01*
X524327Y429421D02*
X523407D01*
X520813D02*
X495124D01*
X491191D02*
X490773D01*
X487008D02*
X486589D01*
X477971D02*
X477218D01*
X475460D02*
X474707D01*
X469603D02*
X469185D01*
X524327Y429588D02*
X523407D01*
X520645D02*
X495124D01*
X491359D02*
X490606D01*
X487175D02*
X486589D01*
X477971D02*
X477050D01*
X475460D02*
X474540D01*
X469770D02*
X469185D01*
X524160Y429756D02*
X523239D01*
X520478D02*
X495124D01*
X491526D02*
X490438D01*
X487342D02*
X486589D01*
X482991D02*
X482740D01*
X478138D02*
X477050D01*
X475628D02*
X474540D01*
X472950D02*
X472699D01*
X469770D02*
X469185D01*
X465587D02*
X465336D01*
X524160Y429923D02*
X523239D01*
X520478D02*
X495124D01*
X491693D02*
X490271D01*
X487510D02*
X486589D01*
X483159D02*
X482573D01*
X478138D02*
X477050D01*
X475628D02*
X474540D01*
X472783D02*
X472532D01*
X470105D02*
X469185D01*
X465754D02*
X465001D01*
X524160Y430090D02*
X523239D01*
X520311D02*
X495124D01*
X493367D02*
X493116D01*
X492028D02*
X489769D01*
X488012D02*
X486589D01*
X484832D02*
X484581D01*
X483493D02*
X482238D01*
X481318D02*
X481067D01*
X478138D02*
X476883D01*
X475628D02*
X474540D01*
X472783D02*
X472197D01*
X470440D02*
X469185D01*
X467595D02*
X467176D01*
X466089D02*
X464666D01*
X524160Y430258D02*
X523239D01*
X520143D02*
X495124D01*
X493367D02*
X481067D01*
X524160Y430425D02*
X523239D01*
X520143D02*
X495124D01*
X493367D02*
X481067D01*
X523992Y430592D02*
X523072D01*
X519976D02*
X495124D01*
X493367D02*
X481067D01*
X523992Y430760D02*
X523072D01*
X519809D02*
X495124D01*
X493367D02*
X481067D01*
X523992Y430927D02*
X523072D01*
X519809D02*
X495124D01*
X493367D02*
X481067D01*
X523992Y431094D02*
X523072D01*
X519641D02*
X495124D01*
X493367D02*
X481067D01*
X523992Y431262D02*
X523072D01*
X519474D02*
X495124D01*
X493367D02*
X481067D01*
X523992Y431429D02*
X522905D01*
X519307D02*
X495124D01*
X493367D02*
X481067D01*
X523992Y431596D02*
X522905D01*
X519307D02*
X495124D01*
X493367D02*
X481067D01*
X523825Y431764D02*
X522905D01*
X519139D02*
X495124D01*
X493367D02*
X481067D01*
X523825Y431931D02*
X522905D01*
X518972D02*
X497467D01*
X496881D02*
X495124D01*
X493367D02*
X492781D01*
X492363D02*
X488932D01*
X488346D02*
X479058D01*
X478305D02*
X474875D01*
X474289D02*
X470858D01*
X470440D02*
X463160D01*
X462574D02*
X459478D01*
X523825Y432099D02*
X522905D01*
X518805D02*
X498137D01*
X496212D02*
X495124D01*
X493367D02*
X493283D01*
X491861D02*
X489769D01*
X487677D02*
X486757D01*
X484999D02*
X484246D01*
X482489D02*
X479728D01*
X477636D02*
X475544D01*
X473619D02*
X471360D01*
X470105D02*
X469854D01*
X468264D02*
X468013D01*
X466423D02*
X463829D01*
X462072D02*
X460315D01*
X523825Y432266D02*
X522905D01*
X518805D02*
X498471D01*
X496045D02*
X495124D01*
X491526D02*
X490104D01*
X487510D02*
X486757D01*
X484999D02*
X484246D01*
X482489D02*
X480063D01*
X477301D02*
X475879D01*
X473452D02*
X471695D01*
X468264D02*
X468013D01*
X466423D02*
X464164D01*
X461737D02*
X460482D01*
X523825Y432433D02*
X522737D01*
X518637D02*
X498639D01*
X495710D02*
X495124D01*
X491359D02*
X490271D01*
X487175D02*
X486757D01*
X484999D02*
X484246D01*
X482489D02*
X480397D01*
X476966D02*
X476046D01*
X473117D02*
X471862D01*
X468264D02*
X468013D01*
X466423D02*
X464499D01*
X461403D02*
X460817D01*
X523825Y432601D02*
X522737D01*
X518470D02*
X498806D01*
X495543D02*
X495124D01*
X491191D02*
X490438D01*
X487008D02*
X486757D01*
X484999D02*
X484246D01*
X482489D02*
X480732D01*
X476966D02*
X476213D01*
X472950D02*
X472030D01*
X468264D02*
X468013D01*
X466423D02*
X464666D01*
X461235D02*
X460817D01*
X523658Y432768D02*
X522737D01*
X518470D02*
X498973D01*
X495375D02*
X495124D01*
X491191D02*
X490606D01*
X486840D02*
X486757D01*
X484999D02*
X484246D01*
X482489D02*
X480899D01*
X476799D02*
X476381D01*
X472783D02*
X472197D01*
X468264D02*
X468013D01*
X466423D02*
X464666D01*
X461068D02*
X460984D01*
X523658Y432935D02*
X522737D01*
X518303D02*
X499141D01*
X495375D02*
X495124D01*
X491024D02*
X490606D01*
X484999D02*
X484246D01*
X482489D02*
X481067D01*
X476632D02*
X476548D01*
X472783D02*
X472364D01*
X468264D02*
X468013D01*
X466423D02*
X464833D01*
X523658Y433103D02*
X522737D01*
X518135D02*
X499141D01*
X495208D02*
X495124D01*
X491024D02*
X490773D01*
X484999D02*
X484246D01*
X482489D02*
X481067D01*
X476632D02*
X476548D01*
X472615D02*
X472532D01*
X468264D02*
X468013D01*
X466423D02*
X465001D01*
X523658Y433270D02*
X522737D01*
X517968D02*
X499308D01*
X495208D02*
X495124D01*
X490857D02*
X490773D01*
X487008D02*
X486757D01*
X484999D02*
X484246D01*
X482489D02*
X480899D01*
X472615D02*
X472532D01*
X468264D02*
X468013D01*
X466423D02*
X465001D01*
X523658Y433437D02*
X522737D01*
X517968D02*
X499308D01*
X495208D02*
X495124D01*
X490857D02*
X490773D01*
X487175D02*
X486757D01*
X484999D02*
X484246D01*
X482489D02*
X480732D01*
X468264D02*
X468013D01*
X466423D02*
X465168D01*
X461403D02*
X461319D01*
X523658Y433605D02*
X522570D01*
X517800D02*
X499308D01*
X497551D02*
X496965D01*
X493032D02*
X492279D01*
X490857D02*
X490773D01*
X489183D02*
X488263D01*
X487342D02*
X486757D01*
X484999D02*
X484246D01*
X482489D02*
X480565D01*
X479309D02*
X478222D01*
X474958D02*
X474373D01*
X470607D02*
X470021D01*
X468264D02*
X468013D01*
X466423D02*
X465168D01*
X463244D02*
X462491D01*
X461570D02*
X461319D01*
X459729D02*
X458809D01*
X523658Y433772D02*
X522570D01*
X517633D02*
X499308D01*
X497718D02*
X496798D01*
X493200D02*
X492279D01*
X484999D02*
X484246D01*
X482489D02*
X480397D01*
X479477D02*
X479058D01*
X474958D02*
X474205D01*
X470774D02*
X470021D01*
X468264D02*
X468013D01*
X466423D02*
X465168D01*
X463411D02*
X462323D01*
X461737D02*
X461486D01*
X523658Y433939D02*
X522570D01*
X517633D02*
X499308D01*
X497718D02*
X496798D01*
X493200D02*
X492279D01*
X484999D02*
X484246D01*
X482489D02*
X480230D01*
X475126D02*
X474205D01*
X470774D02*
X469854D01*
X468264D02*
X468013D01*
X466423D02*
X465168D01*
X463578D02*
X462156D01*
X461905D02*
X461486D01*
X523658Y434107D02*
X522570D01*
X517466D02*
X499308D01*
X497718D02*
X496798D01*
X493200D02*
X492112D01*
X484999D02*
X484246D01*
X482489D02*
X480063D01*
X475126D02*
X474038D01*
X470774D02*
X469854D01*
X468264D02*
X468013D01*
X466423D02*
X465336D01*
X463578D02*
X461486D01*
X523490Y434274D02*
X522570D01*
X517298D02*
X499308D01*
X497718D02*
X496798D01*
X493200D02*
X492112D01*
X484999D02*
X484246D01*
X482489D02*
X480230D01*
X475126D02*
X474038D01*
X470774D02*
X469854D01*
X468264D02*
X468013D01*
X466423D02*
X465336D01*
X463578D02*
X461486D01*
X523490Y434441D02*
X522570D01*
X517131D02*
X499308D01*
X497718D02*
X496798D01*
X493200D02*
X492112D01*
X484999D02*
X484246D01*
X482489D02*
X480397D01*
X475126D02*
X474038D01*
X470774D02*
X469854D01*
X468264D02*
X468013D01*
X466423D02*
X465336D01*
X463578D02*
X461486D01*
X523490Y434609D02*
X522570D01*
X517131D02*
X499308D01*
X497718D02*
X496798D01*
X493200D02*
X492112D01*
X484999D02*
X484246D01*
X482489D02*
X480565D01*
X475126D02*
X474038D01*
X470774D02*
X469854D01*
X468264D02*
X468013D01*
X466423D02*
X465336D01*
X463578D02*
X461486D01*
X523490Y434776D02*
X522570D01*
X516964D02*
X499308D01*
X497718D02*
X496798D01*
X493200D02*
X492279D01*
X484999D02*
X484246D01*
X482489D02*
X480565D01*
X476966D02*
X476715D01*
X475126D02*
X474038D01*
X470774D02*
X469854D01*
X468264D02*
X468013D01*
X466423D02*
X465336D01*
X463578D02*
X461486D01*
X523490Y434944D02*
X522403D01*
X516796D02*
X499308D01*
X497718D02*
X496798D01*
X493200D02*
X492279D01*
X485167D02*
X484246D01*
X482489D02*
X480565D01*
X477134D02*
X476715D01*
X475126D02*
X474205D01*
X470774D02*
X469854D01*
X468264D02*
X468013D01*
X466423D02*
X465168D01*
X463578D02*
X462156D01*
X461905D02*
X461486D01*
X523490Y435111D02*
X522403D01*
X516629D02*
X499308D01*
X497718D02*
X496798D01*
X493032D02*
X492279D01*
X485167D02*
X484246D01*
X482489D02*
X480565D01*
X477301D02*
X476715D01*
X475126D02*
X474205D01*
X470774D02*
X469854D01*
X468264D02*
X468013D01*
X466423D02*
X465168D01*
X463411D02*
X462323D01*
X461737D02*
X461486D01*
X523490Y435278D02*
X522403D01*
X516629D02*
X499308D01*
X497551D02*
X496965D01*
X492698D02*
X492614D01*
X489183D02*
X488597D01*
X484999D02*
X484246D01*
X482489D02*
X480565D01*
X478473D02*
X477887D01*
X477134D02*
X476715D01*
X474958D02*
X474205D01*
X470774D02*
X469854D01*
X468264D02*
X468013D01*
X466256D02*
X465670D01*
X465252D02*
X465168D01*
X463411D02*
X462491D01*
X461570D02*
X461319D01*
X459729D02*
X458976D01*
X523490Y435446D02*
X522403D01*
X516462D02*
X499308D01*
X495208D02*
X495124D01*
X489016D02*
X488597D01*
X482656D02*
X480732D01*
X478975D02*
X478222D01*
X476966D02*
X476715D01*
X470774D02*
X469854D01*
X468264D02*
X468013D01*
X465084D02*
X465001D01*
X461403D02*
X461319D01*
X459562D02*
X459143D01*
X523490Y435613D02*
X522403D01*
X516294D02*
X499308D01*
X495208D02*
X495124D01*
X490857D02*
X490773D01*
X486840D02*
X486757D01*
X482824D02*
X480565D01*
X476966D02*
X476715D01*
X472615D02*
X472532D01*
X470774D02*
X469854D01*
X468264D02*
X468013D01*
X523490Y435780D02*
X522403D01*
X516294D02*
X499141D01*
X495208D02*
X495124D01*
X490857D02*
X490773D01*
X486840D02*
X486757D01*
X482824D02*
X480565D01*
X476799D02*
X476548D01*
X472615D02*
X472532D01*
X470774D02*
X469854D01*
X468264D02*
X468013D01*
X523490Y435948D02*
X522403D01*
X516127D02*
X499141D01*
X495375D02*
X495124D01*
X491024D02*
X490773D01*
X487008D02*
X486757D01*
X482824D02*
X480565D01*
X476632D02*
X476548D01*
X472783D02*
X472532D01*
X470774D02*
X469854D01*
X468264D02*
X468013D01*
X523490Y436115D02*
X522403D01*
X515960D02*
X498973D01*
X495375D02*
X495124D01*
X491024D02*
X490606D01*
X487008D02*
X486757D01*
X482824D02*
X480397D01*
X476464D02*
X476381D01*
X472783D02*
X472532D01*
X470774D02*
X469854D01*
X468264D02*
X468013D01*
X523323Y436282D02*
X522403D01*
X515792D02*
X498973D01*
X495543D02*
X495124D01*
X491191D02*
X490606D01*
X487175D02*
X486757D01*
X482991D02*
X480230D01*
X476632D02*
X476381D01*
X472950D02*
X472532D01*
X470774D02*
X469854D01*
X468264D02*
X468013D01*
X461235D02*
X460984D01*
X523323Y436450D02*
X522235D01*
X515792D02*
X498806D01*
X495710D02*
X495124D01*
X491359D02*
X490438D01*
X487342D02*
X486757D01*
X482991D02*
X480230D01*
X476799D02*
X476213D01*
X473117D02*
X472532D01*
X470774D02*
X469854D01*
X468264D02*
X468013D01*
X461403D02*
X460817D01*
X523323Y436617D02*
X522235D01*
X515625D02*
X498639D01*
X495877D02*
X495124D01*
X491526D02*
X490271D01*
X487677D02*
X486757D01*
X483159D02*
X479895D01*
X477134D02*
X476046D01*
X473285D02*
X472532D01*
X470774D02*
X469854D01*
X468264D02*
X468013D01*
X464582D02*
X464164D01*
X461570D02*
X460650D01*
X523323Y436784D02*
X522235D01*
X515458D02*
X498304D01*
X496212D02*
X495124D01*
X493367D02*
X493283D01*
X491693D02*
X489936D01*
X487844D02*
X486757D01*
X484999D02*
X484916D01*
X483493D02*
X479560D01*
X477469D02*
X475711D01*
X473452D02*
X472532D01*
X470774D02*
X469854D01*
X468264D02*
X468013D01*
X466423D02*
X466340D01*
X464750D02*
X463829D01*
X461905D02*
X460482D01*
X523323Y436952D02*
X522235D01*
X515458D02*
X497802D01*
X496547D02*
X495124D01*
X493367D02*
X492949D01*
X492196D02*
X489434D01*
X488514D02*
X486757D01*
X485167D02*
X484581D01*
X483995D02*
X479058D01*
X477971D02*
X475209D01*
X474122D02*
X472532D01*
X470774D02*
X469854D01*
X468264D02*
X468013D01*
X466423D02*
X465838D01*
X465252D02*
X463327D01*
X462407D02*
X459980D01*
X523323Y437119D02*
X522235D01*
X523323Y437286D02*
X522235D01*
X523323Y437454D02*
X522235D01*
X523323Y437621D02*
X522235D01*
X523323Y437789D02*
X522235D01*
X523323Y437956D02*
X522235D01*
X523323Y438123D02*
X522235D01*
X523323Y438291D02*
X522235D01*
X523323Y438458D02*
X522235D01*
X523323Y438625D02*
X522235D01*
X523323Y438793D02*
X522235D01*
X523323Y438960D02*
X522235D01*
X523323Y439127D02*
X522235D01*
X523323Y439295D02*
X522235D01*
X523323Y439462D02*
X522068D01*
X523323Y439629D02*
X522068D01*
X523323Y439797D02*
X522068D01*
X523323Y439964D02*
X522068D01*
X523323Y440131D02*
X522068D01*
X513115D02*
X488263D01*
X487844D02*
X468850D01*
X523323Y440299D02*
X522068D01*
X512947D02*
X488430D01*
X487510D02*
X469017D01*
X523323Y440466D02*
X522068D01*
X512780D02*
X488597D01*
X487342D02*
X469352D01*
X523323Y440634D02*
X522068D01*
X512613D02*
X488765D01*
X487008D02*
X469519D01*
X523323Y440801D02*
X522068D01*
X512613D02*
X488932D01*
X486840D02*
X469854D01*
X523323Y440968D02*
X522068D01*
X512445D02*
X489100D01*
X486506D02*
X470021D01*
X523323Y441136D02*
X522068D01*
X512278D02*
X489267D01*
X486338D02*
X470356D01*
X523323Y441303D02*
X522235D01*
X512110D02*
X489434D01*
X486004D02*
X470523D01*
X523490Y441470D02*
X522235D01*
X512110D02*
X489602D01*
X485836D02*
X483242D01*
X482991D02*
X473703D01*
X473452D02*
X470858D01*
X523490Y441638D02*
X522235D01*
X511943D02*
X489769D01*
X485501D02*
X483577D01*
X482824D02*
X473703D01*
X473117D02*
X471025D01*
X523490Y441805D02*
X522235D01*
X511776D02*
X489936D01*
X485334D02*
X483912D01*
X482824D02*
X473870D01*
X472783D02*
X471360D01*
X523490Y441972D02*
X522235D01*
X511608D02*
X490104D01*
X484999D02*
X484079D01*
X482656D02*
X473870D01*
X472448D02*
X471528D01*
X523490Y442140D02*
X522235D01*
X511608D02*
X490271D01*
X484832D02*
X484414D01*
X482656D02*
X474038D01*
X472281D02*
X471862D01*
X523490Y442307D02*
X522235D01*
X511441D02*
X490438D01*
X482656D02*
X474038D01*
X523490Y442474D02*
X522235D01*
X511274D02*
X490606D01*
X482489D02*
X474205D01*
X523490Y442642D02*
X522235D01*
X511106D02*
X490773D01*
X482489D02*
X474205D01*
X523490Y442809D02*
X522235D01*
X511106D02*
X490940D01*
X482322D02*
X474205D01*
X523490Y442976D02*
X522235D01*
X510939D02*
X491108D01*
X482322D02*
X474373D01*
X523658Y443144D02*
X522235D01*
X510772D02*
X491275D01*
X482154D02*
X474373D01*
X523658Y443311D02*
X522235D01*
X510604D02*
X491108D01*
X482154D02*
X474540D01*
X523658Y443478D02*
X522235D01*
X510604D02*
X490940D01*
X482154D02*
X474540D01*
X523658Y443646D02*
X522235D01*
X510437D02*
X490940D01*
X481987D02*
X474540D01*
X523658Y443813D02*
X522235D01*
X510270D02*
X490773D01*
X481987D02*
X474707D01*
X523658Y443981D02*
X522403D01*
X510102D02*
X490606D01*
X481820D02*
X474707D01*
X523658Y444148D02*
X522403D01*
X510102D02*
X490606D01*
X481820D02*
X474875D01*
X523825Y444315D02*
X522403D01*
X509935D02*
X490438D01*
X481820D02*
X474875D01*
X523825Y444483D02*
X522403D01*
X509768D02*
X490271D01*
X481652D02*
X475042D01*
X523825Y444650D02*
X522403D01*
X509600D02*
X490271D01*
X481652D02*
X475042D01*
X523825Y444817D02*
X522403D01*
X509600D02*
X490104D01*
X481485D02*
X475042D01*
X523825Y444985D02*
X522403D01*
X509433D02*
X489936D01*
X481485D02*
X475209D01*
X523825Y445152D02*
X522403D01*
X509265D02*
X489769D01*
X481485D02*
X475209D01*
X523992Y445319D02*
X522570D01*
X509098D02*
X489769D01*
X481318D02*
X475377D01*
X523992Y445487D02*
X522570D01*
X509098D02*
X489602D01*
X481318D02*
X475377D01*
X523992Y445654D02*
X522570D01*
X508931D02*
X489434D01*
X481150D02*
X475377D01*
X523992Y445821D02*
X522570D01*
X508763D02*
X489434D01*
X481150D02*
X475544D01*
X524160Y445989D02*
X522570D01*
X508596D02*
X489267D01*
X481150D02*
X475544D01*
X524160Y446156D02*
X522570D01*
X508596D02*
X489100D01*
X480983D02*
X475711D01*
X524160Y446323D02*
X522737D01*
X508429D02*
X489100D01*
X480983D02*
X475711D01*
X524160Y446491D02*
X522737D01*
X508261D02*
X488932D01*
X480816D02*
X475879D01*
X524327Y446658D02*
X522737D01*
X508094D02*
X488932D01*
X480816D02*
X475879D01*
X524327Y446826D02*
X522737D01*
X508094D02*
X489100D01*
X480648D02*
X475879D01*
X524327Y446993D02*
X522737D01*
X507927D02*
X489100D01*
X480648D02*
X476046D01*
X524327Y447160D02*
X522905D01*
X507759D02*
X489267D01*
X480648D02*
X476046D01*
X524495Y447328D02*
X522905D01*
X507592D02*
X489267D01*
X480481D02*
X476213D01*
X524495Y447495D02*
X522905D01*
X507425D02*
X489267D01*
X480481D02*
X476213D01*
X524495Y447662D02*
X522905D01*
X507425D02*
X489434D01*
X480314D02*
X476213D01*
X524662Y447830D02*
X523072D01*
X507257D02*
X489434D01*
X480314D02*
X476381D01*
X524662Y447997D02*
X523072D01*
X507090D02*
X489602D01*
X480314D02*
X476381D01*
X524662Y448164D02*
X523072D01*
X506923D02*
X489602D01*
X480146D02*
X476548D01*
X524829Y448332D02*
X523072D01*
X506923D02*
X489602D01*
X480146D02*
X476548D01*
X524829Y448499D02*
X523239D01*
X506755D02*
X489769D01*
X480146D02*
X476548D01*
X524829Y448666D02*
X523239D01*
X506588D02*
X489769D01*
X480146D02*
X476548D01*
X524997Y448834D02*
X523239D01*
X506420D02*
X489936D01*
X480314D02*
X476213D01*
X524997Y449001D02*
X523407D01*
X506253D02*
X489936D01*
X480648D02*
X476046D01*
X525164Y449168D02*
X523407D01*
X506253D02*
X489936D01*
X480816D02*
X475879D01*
X525164Y449336D02*
X523407D01*
X506086D02*
X490104D01*
X480983D02*
X475544D01*
X525164Y449503D02*
X523574D01*
X505918D02*
X490104D01*
X481150D02*
X475377D01*
X525331Y449671D02*
X523574D01*
X505751D02*
X490271D01*
X481485D02*
X475209D01*
X525331Y449838D02*
X523574D01*
X505751D02*
X490438D01*
X481652D02*
X475042D01*
X525499Y450005D02*
X523741D01*
X505584D02*
X490940D01*
X481652D02*
X474875D01*
X525499Y450173D02*
X523741D01*
X505416D02*
X491777D01*
X481820D02*
X474875D01*
X525666Y450340D02*
X523741D01*
X505249D02*
X492614D01*
X481987D02*
X474707D01*
X525666Y450507D02*
X523909D01*
X505082D02*
X493451D01*
X482154D02*
X474540D01*
X525833Y450675D02*
X523909D01*
X505082D02*
X494287D01*
X482154D02*
X474373D01*
X525833Y450842D02*
X524076D01*
X504914D02*
X494455D01*
X482322D02*
X474373D01*
X526001Y451009D02*
X524076D01*
X504747D02*
X494455D01*
X482322D02*
X474373D01*
X526001Y451177D02*
X524076D01*
X504580D02*
X494455D01*
X482322D02*
X474205D01*
X526168Y451344D02*
X524244D01*
X504412D02*
X494455D01*
X482489D02*
X474205D01*
X526168Y451511D02*
X524244D01*
X504412D02*
X494455D01*
X482489D02*
X474038D01*
X526335Y451679D02*
X524411D01*
X504245D02*
X494455D01*
X482656D02*
X474038D01*
X526503Y451846D02*
X524411D01*
X504078D02*
X494455D01*
X482656D02*
X474038D01*
X526503Y452013D02*
X524578D01*
X503910D02*
X494455D01*
X482656D02*
X474038D01*
X526670Y452181D02*
X524578D01*
X503743D02*
X494455D01*
X482656D02*
X473870D01*
X526670Y452348D02*
X524746D01*
X503743D02*
X494455D01*
X482656D02*
X473870D01*
X526837Y452516D02*
X524746D01*
X503576D02*
X494455D01*
X482656D02*
X473870D01*
X527005Y452683D02*
X524913D01*
X503408D02*
X494455D01*
X482824D02*
X473870D01*
X527005Y452850D02*
X525080D01*
X503241D02*
X494455D01*
X482824D02*
X473870D01*
X527172Y453018D02*
X525080D01*
X503073D02*
X494455D01*
X482824D02*
X473870D01*
X527340Y453185D02*
X525248D01*
X503073D02*
X494455D01*
X482656D02*
X473870D01*
X527507Y453352D02*
X525248D01*
X502906D02*
X494455D01*
X482656D02*
X473870D01*
X527507Y453520D02*
X525415D01*
X502739D02*
X494455D01*
X482656D02*
X473870D01*
X527674Y453687D02*
X525582D01*
X502571D02*
X494455D01*
X482656D02*
X473870D01*
X527842Y453854D02*
X525582D01*
X502404D02*
X494455D01*
X482656D02*
X474038D01*
X528009Y454022D02*
X525750D01*
X502237D02*
X494455D01*
X482656D02*
X474038D01*
X528176Y454189D02*
X525917D01*
X502237D02*
X494455D01*
X482489D02*
X474038D01*
X528176Y454356D02*
X526084D01*
X502069D02*
X494455D01*
X482489D02*
X474205D01*
X528344Y454524D02*
X526084D01*
X501902D02*
X494455D01*
X482489D02*
X474205D01*
X528511Y454691D02*
X526252D01*
X501735D02*
X494455D01*
X482322D02*
X474205D01*
X528678Y454858D02*
X526419D01*
X501567D02*
X494455D01*
X482322D02*
X474373D01*
X528846Y455026D02*
X526586D01*
X501400D02*
X494287D01*
X482154D02*
X474373D01*
X529013Y455193D02*
X526586D01*
X501400D02*
X493785D01*
X482154D02*
X474540D01*
X529180Y455361D02*
X526754D01*
X501233D02*
X492949D01*
X481987D02*
X474540D01*
X529348Y455528D02*
X526921D01*
X501065D02*
X492112D01*
X481820D02*
X474707D01*
X529515Y455695D02*
X527089D01*
X500898D02*
X491275D01*
X481652D02*
X474875D01*
X529850Y455863D02*
X527256D01*
X500731D02*
X490438D01*
X481652D02*
X475042D01*
X530017Y456030D02*
X527423D01*
X500563D02*
X490104D01*
X481485D02*
X475209D01*
X530185Y456197D02*
X527591D01*
X500396D02*
X490104D01*
X481318D02*
X475377D01*
X530352Y456365D02*
X527758D01*
X500228D02*
X489936D01*
X480983D02*
X475544D01*
X530687Y456532D02*
X527925D01*
X500061D02*
X489936D01*
X480816D02*
X475711D01*
X530854Y456699D02*
X528093D01*
X500061D02*
X489769D01*
X480648D02*
X476046D01*
X531021Y456867D02*
X528260D01*
X499894D02*
X489769D01*
X480314D02*
X476381D01*
X531356Y457034D02*
X528595D01*
X499726D02*
X489602D01*
X479979D02*
X476715D01*
X531523Y457201D02*
X528762D01*
X499559D02*
X489602D01*
X479309D02*
X477218D01*
X531858Y457369D02*
X528929D01*
X499392D02*
X489602D01*
X532193Y457536D02*
X529264D01*
X499224D02*
X489434D01*
X532527Y457703D02*
X529431D01*
X499057D02*
X489434D01*
X532695Y457871D02*
X529766D01*
X498890D02*
X489267D01*
X533197Y458038D02*
X529933D01*
X498722D02*
X489267D01*
X533532Y458205D02*
X530268D01*
X498555D02*
X489100D01*
X533866Y458373D02*
X530436D01*
X498388D02*
X489100D01*
X534201Y458540D02*
X530770D01*
X498220D02*
X489100D01*
X534703Y458708D02*
X531105D01*
X498053D02*
X488932D01*
X545246Y458875D02*
X545163D01*
X535205D02*
X531440D01*
X497886D02*
X488932D01*
X545246Y459042D02*
X544493D01*
X535707D02*
X531774D01*
X497718D02*
X488932D01*
X545414Y459210D02*
X543991D01*
X536377D02*
X532109D01*
X497551D02*
X488932D01*
X545414Y459377D02*
X543489D01*
X537213D02*
X532611D01*
X497383D02*
X489100D01*
X545414Y459544D02*
X542820D01*
X537883D02*
X533113D01*
X497216D02*
X489100D01*
X545414Y459712D02*
X542318D01*
X539389D02*
X533448D01*
X497049D02*
X489267D01*
X545581Y459879D02*
X534117D01*
X496881D02*
X489434D01*
X545414Y460046D02*
X534619D01*
X496714D02*
X489434D01*
X544744Y460214D02*
X535456D01*
X496547D02*
X489602D01*
X544242Y460381D02*
X536460D01*
X496379D02*
X489769D01*
X543740Y460548D02*
X539305D01*
X496212D02*
X489769D01*
X543238Y460716D02*
X539138D01*
X496045D02*
X489936D01*
X542569Y460883D02*
X538468D01*
X495877D02*
X490104D01*
X542067Y461050D02*
X537966D01*
X495710D02*
X490271D01*
X541564Y461218D02*
X537464D01*
X495543D02*
X490271D01*
X540895Y461385D02*
X536962D01*
X495208D02*
X490438D01*
X540393Y461553D02*
X536293D01*
X495041D02*
X490606D01*
X539891Y461720D02*
X535791D01*
X494873D02*
X490606D01*
X539389Y461887D02*
X535289D01*
X494706D02*
X490773D01*
X538719Y462055D02*
X534787D01*
X494538D02*
X490940D01*
X538217Y462222D02*
X534117D01*
X494371D02*
X490940D01*
X537715Y462389D02*
X533615D01*
X494036D02*
X491108D01*
X537213Y462557D02*
X533113D01*
X493869D02*
X491275D01*
X536544Y462724D02*
X532444D01*
X493702D02*
X491108D01*
X536042Y462891D02*
X531942D01*
X493534D02*
X491108D01*
X535540Y463059D02*
X531440D01*
X493367D02*
X490940D01*
X534870Y463226D02*
X530938D01*
X493032D02*
X490773D01*
X534368Y463393D02*
X530268D01*
X492865D02*
X490606D01*
X484665D02*
X484246D01*
X472448D02*
X472030D01*
X533866Y463561D02*
X529766D01*
X492698D02*
X490438D01*
X484832D02*
X483744D01*
X472950D02*
X471695D01*
X533364Y463728D02*
X529264D01*
X492530D02*
X490271D01*
X485167D02*
X483410D01*
X473285D02*
X471528D01*
X532695Y463895D02*
X528762D01*
X492363D02*
X490104D01*
X485334D02*
X483075D01*
X473619D02*
X471360D01*
X532193Y464063D02*
X528093D01*
X492028D02*
X489936D01*
X485501D02*
X482573D01*
X474122D02*
X471025D01*
X531691Y464230D02*
X527591D01*
X491861D02*
X489769D01*
X485836D02*
X482238D01*
X474456D02*
X470858D01*
X531021Y464398D02*
X527089D01*
X491693D02*
X489602D01*
X486004D02*
X481736D01*
X474958D02*
X470523D01*
X530519Y464565D02*
X526586D01*
X491359D02*
X489434D01*
X486338D02*
X481569D01*
X475126D02*
X470356D01*
X530017Y464732D02*
X525917D01*
X491191D02*
X489267D01*
X486506D02*
X481401D01*
X475293D02*
X470189D01*
X529515Y464900D02*
X525415D01*
X491024D02*
X489100D01*
X486840D02*
X481401D01*
X475293D02*
X469854D01*
X528846Y465067D02*
X524913D01*
X490689D02*
X488932D01*
X487008D02*
X481234D01*
X475293D02*
X469687D01*
X528344Y465234D02*
X524244D01*
X490522D02*
X488765D01*
X487342D02*
X481234D01*
X475293D02*
X469352D01*
X527842Y465402D02*
X523741D01*
X490355D02*
X488597D01*
X487510D02*
X481234D01*
X475460D02*
X469185D01*
X527340Y465569D02*
X523239D01*
X490020D02*
X488430D01*
X487677D02*
X481234D01*
X475460D02*
X468850D01*
X526670Y465736D02*
X522737D01*
X489853D02*
X481234D01*
X526168Y465904D02*
X522068D01*
X489685D02*
X481067D01*
X525666Y466071D02*
X521566D01*
X489351D02*
X481067D01*
X524997Y466238D02*
X521064D01*
X489183D02*
X481067D01*
X524495Y466406D02*
X520562D01*
X489016D02*
X481067D01*
X523992Y466573D02*
X519892D01*
X488681D02*
X481067D01*
X523490Y466740D02*
X519390D01*
X488346D02*
X481067D01*
X522821Y466908D02*
X518888D01*
X488179D02*
X480899D01*
X522319Y467075D02*
X518386D01*
X487844D02*
X480899D01*
X521817Y467243D02*
X517717D01*
X487677D02*
X480899D01*
X521148Y467410D02*
X517215D01*
X487342D02*
X480899D01*
X520645Y467577D02*
X516713D01*
X487175D02*
X480899D01*
X520143Y467745D02*
X516043D01*
X486840D02*
X480732D01*
X519641Y467912D02*
X515541D01*
X486673D02*
X480732D01*
X518972Y468079D02*
X515039D01*
X486338D02*
X480732D01*
X518470Y468247D02*
X514370D01*
X486171D02*
X480732D01*
X517968Y468414D02*
X513868D01*
X485836D02*
X480732D01*
X517298Y468581D02*
X513366D01*
X485669D02*
X480565D01*
X516796Y468749D02*
X512696D01*
X485334D02*
X480565D01*
X516294Y468916D02*
X512194D01*
X484999D02*
X480397D01*
X515625Y469083D02*
X511692D01*
X515123Y469251D02*
X511023D01*
X514621Y469418D02*
X510521D01*
X513951Y469585D02*
X510019D01*
X513449Y469753D02*
X509517D01*
X512947Y469920D02*
X508847D01*
X512278Y470088D02*
X508345D01*
X511776Y470255D02*
X507843D01*
X511274Y470422D02*
X507174D01*
X510604Y470590D02*
X506672D01*
X510102Y470757D02*
X506169D01*
X509600Y470924D02*
X505500D01*
X508931Y471092D02*
X504998D01*
X508429Y471259D02*
X504496D01*
X507927Y471426D02*
X503827D01*
X507257Y471594D02*
X503324D01*
X506755Y471761D02*
X502655D01*
X506086Y471928D02*
X502153D01*
X505584Y472096D02*
X501651D01*
X505082Y472263D02*
X500982D01*
X504412Y472430D02*
X500479D01*
X503910Y472598D02*
X499810D01*
X503408Y472765D02*
X499308D01*
X502739Y472933D02*
X498639D01*
X502237Y473100D02*
X498137D01*
X501567Y473267D02*
X497467D01*
X501065Y473435D02*
X496965D01*
X500396Y473602D02*
X496296D01*
X499894Y473769D02*
X495794D01*
X499224Y473937D02*
X495124D01*
X498722Y474104D02*
X494622D01*
X498053Y474271D02*
X493953D01*
X497551Y474439D02*
X493451D01*
X496881Y474606D02*
X492949D01*
X496379Y474773D02*
X492279D01*
X495710Y474941D02*
X491777D01*
X495208Y475108D02*
X491108D01*
X494538Y475275D02*
X490606D01*
X494036Y475443D02*
X489936D01*
X493367Y475610D02*
X489434D01*
X492865Y475777D02*
X488765D01*
X492196Y475945D02*
X488095D01*
X491693Y476112D02*
X487593D01*
X491024Y476280D02*
X486924D01*
X490522Y476447D02*
X486255D01*
X489853Y476614D02*
X485752D01*
X489183Y476782D02*
X485083D01*
X488681Y476949D02*
X484414D01*
X488012Y477116D02*
X483912D01*
X487342Y477284D02*
X483242D01*
X486673Y477451D02*
X482573D01*
X486171Y477618D02*
X482071D01*
X485501Y477786D02*
X481401D01*
X484832Y477953D02*
X480732D01*
X484163Y478120D02*
X480063D01*
X483661Y478288D02*
X479393D01*
X482991Y478455D02*
X478724D01*
X482322Y478622D02*
X478222D01*
X481652Y478790D02*
X477552D01*
X481150Y478957D02*
X476883D01*
X480481Y479125D02*
X476213D01*
X479811Y479292D02*
X475544D01*
X479142Y479459D02*
X474875D01*
X478640Y479627D02*
X474205D01*
X477971Y479794D02*
X473536D01*
X477301Y479961D02*
X472866D01*
X476632Y480129D02*
X472197D01*
X475962Y480296D02*
X471528D01*
X475293Y480463D02*
X470691D01*
X474624Y480631D02*
X470021D01*
X473954Y480798D02*
X469352D01*
X473285Y480965D02*
X468515D01*
X472615Y481133D02*
X467846D01*
X471946Y481300D02*
X467176D01*
X471277Y481467D02*
X466340D01*
X470607Y481635D02*
X465670D01*
X469770Y481802D02*
X465001D01*
X469101Y481970D02*
X464164D01*
X468432Y482137D02*
X463327D01*
X467595Y482304D02*
X462491D01*
X466925Y482472D02*
X461654D01*
X466089Y482639D02*
X460984D01*
X465419Y482806D02*
X460148D01*
X464750Y482974D02*
X459311D01*
X463913Y483141D02*
X458474D01*
X463076Y483308D02*
X457470D01*
X462239Y483476D02*
X456633D01*
X461403Y483643D02*
X455629D01*
X460733Y483810D02*
X454792D01*
X459897Y483978D02*
X453788D01*
X0Y0D02*
M02*
