M48
;FILE_FORMAT=2:4
INCH,LZ
FMAT,2
ICI,OFF
;TYPE=PLATED
T1C.01181
T2C.03543
T4C.04331
T5C.05906
T7C.12598
;TYPE=NON_PLATED
T3C.04331
T6C.07087
%
M72
G90
G93X0Y0
T1C.01181F095S3
X04437Y042264
X044724Y042264
X04437Y042894
X04374Y043307
X04185Y043307
X042835Y043307
X04437Y04372
X04437Y04435
X040512Y045169
X043563Y045602
X040512Y046035
X039941Y046602
X040512Y047169
X044528Y04748
X040512Y048035
X044252Y060591
X044646Y060689
X044173Y061339
X044724Y061417
X043563Y062579
X043524Y063307
X04374Y063602
X042953Y065169
X042953Y066035
X039941Y066602
X043563Y066602
X045827Y065374
X045827Y063917
X045571Y062165
X045Y061693
X046142Y061476
X045866Y061181
X045Y061142
X047047Y060374
X047047Y059744
X045394Y057638
X047047Y0575
X045551Y057323
X047047Y057047
X047047Y056339
X045709Y055906
X045551Y055504
X045394Y048602
X047087Y044293
X047087Y043911
X045335Y043307
X04498Y043307
X046929Y041713
X049563Y04148
X047559Y041713
X048189Y042911
X048189Y043293
X048071Y044293
X048268Y050669
X048661Y050669
X04811Y051063
X048819Y05122
X047795Y051791
X047953Y0525
X049213Y052933
X049016Y057756
X048543Y058878
X048504Y059232
X04815Y059291
X049724Y05937
X049724Y059685
X049724Y06
X048543Y060079
X049724Y060315
X048543Y060709
X047677Y060827
X047677Y06122
X048031Y061476
X048425Y061476
X048661Y063268
X048307Y065354
X047677Y065354
X049134Y068189
X048465Y068189
X049843Y068681
X048465Y069685
X048701Y070551
X049134Y070984
X051969Y071831
X05128Y071299
X05128Y069646
X051969Y069114
X050236Y068681
X05063Y068681
X052402Y062244
X051358Y061673
X050965Y061673
X051161Y061358
X052106Y060748
X051909Y060433
X052303Y060433
X050039Y060315
X050669Y060315
X050354Y060315
X050354Y06
X050039Y06
X050669Y06
X050669Y059685
X050354Y059685
X050039Y059685
X050354Y05937
X050669Y05937
X050039Y05937
X051909Y059252
X052303Y059252
X052106Y058937
X051319Y057795
X051713Y057795
X051516Y05748
X052402Y057441
X050563Y041476
X052598Y057126
X052795Y057441
X054685Y058484
X054154Y058484
X053799Y058484
X053445Y058484
X0525Y058937
X053445Y059843
X053799Y059843
X053091Y059843
X052736Y059843
X0525Y060748
X054685Y061201
X053445Y061201
X053799Y061201
X054154Y061201
X052795Y062244
X052598Y062559
X052657Y069646
X052657Y071299
X057008Y066634
X055118Y062795
X055118Y05689
X057638Y052677
X057343Y051929
X05563Y051594
X05563Y050728
X057638Y047657
X058504Y047028
X05685Y046831
X058504Y045157
X055787Y044646
X05685Y044094
X057441Y044094
X05622Y043484
T2C.03543F197S55
X051181Y054331
X05315Y054331
X051181Y065354
X05315Y065354
T3C.04331F139S55
X041232Y045602
X042232Y045602
X041232Y046602
X042232Y046602
X041232Y047602
X042232Y047602
X041232Y048602
X042232Y048602
X041232Y049602
X042232Y049602
X041232Y050602
X042232Y050602
X041232Y051602
X042232Y051602
X041232Y052602
X042232Y052602
X041232Y053602
X042232Y053602
X041232Y054602
X042232Y054602
X041232Y055602
X042232Y055602
X041232Y056602
X042232Y056602
X041232Y057602
X042232Y057602
X041232Y058602
X042232Y058602
X041232Y059602
X042232Y059602
X041232Y060602
X042232Y060602
X041232Y061602
X042232Y061602
X041232Y062602
X042232Y062602
X041232Y063602
X042232Y063602
X041232Y064602
X042232Y064602
X041232Y065602
X042232Y065602
X041232Y066602
X042232Y066602
T4C.04331F139S55
X04626Y047669
X050197Y047669
X04626Y048669
X050197Y048669
X059843Y066669
X059843Y065669
X059843Y052669
X059843Y051669
X059843Y050669
X059843Y049669
X054134Y048669
X054134Y047669
X059843Y047669
X059843Y046669
X059843Y045669
X059843Y044669
X059843Y043669
T5C.05906F107S55
X054528Y068898
X045965Y069331
X044587Y069331
X056496Y068898
X057362Y061909
X057362Y060531
X057362Y059154
X057362Y057776
T6C.07087F081S55
X041732Y046102
X041732Y066102
T7C.12598F035S794
X040945Y040945
X040945Y07126
X059449Y07126
X059449Y040945
M30
