*
*
G04 PADS VX.2.7 Build Number: 15549477 generated Gerber (RS-274-X) file*
G04 PC Version=2.1*
*
%IN "TMC5240-SA-DEV_V10.pcb"*%
*
%MOIN*%
*
%FSLAX35Y35*%
*
*
*
*
G04 PC Standard Apertures*
*
*
G04 Thermal Relief Aperture macro.*
%AMTER*
1,1,$1,0,0*
1,0,$1-$2,0,0*
21,0,$3,$4,0,0,45*
21,0,$3,$4,0,0,135*
%
*
*
G04 Annular Aperture macro.*
%AMANN*
1,1,$1,0,0*
1,0,$2,0,0*
%
*
*
G04 Odd Aperture macro.*
%AMODD*
1,1,$1,0,0*
1,0,$1-0.005,0,0*
%
*
*
G04 PC Custom Aperture Macros*
*
*
*
*
*
*
G04 PC Aperture Table*
*
%ADD011C,0.00787*%
%ADD013C,0.05906*%
%ADD020C,0.01181*%
%ADD021C,0.02362*%
%ADD035C,0.06299*%
%ADD042C,0.001*%
%ADD043C,0.25*%
%ADD044C,0.0748*%
%ADD048C,0.09055*%
*
*
*
*
G04 PC Circuitry*
G04 Layer Name TMC5240-SA-DEV_V10.pcb - circuitry*
%LPD*%
*
*
G04 PC Custom Flashes*
G04 Layer Name TMC5240-SA-DEV_V10.pcb - flashes*
%LPD*%
*
*
G04 PC Circuitry*
G04 Layer Name TMC5240-SA-DEV_V10.pcb - circuitry*
%LPD*%
*
G54D11*
G01X506140Y414164D02*
G75*
G03X505630Y413150I753J-1014D01*
G01X506140Y414164D02*
X505120D01*
X505630Y413150D02*
G03X505120Y414164I-1264J-0D01*
G01X505355Y413937D02*
X505905D01*
X505630Y413150D02*
Y414164D01*
X496140Y414203D02*
G03X495630Y413189I753J-1014D01*
G01X496140Y414203D02*
X495120D01*
X495630Y413189D02*
G03X495120Y414203I-1264J-0D01*
G01X495355Y413976D02*
X495905D01*
X495630Y413189D02*
Y414203D01*
X448029Y422574D02*
G03X448385Y421496I1250J-184D01*
G01X448029Y422574D02*
X447307Y421853D01*
X448385Y421496D02*
G03X447307Y421853I-893J-893D01*
G01X447738Y422284D02*
X448020D01*
X447598Y421862D02*
Y422144D01*
X492636Y528731D02*
G03X492126Y527717I754J-1014D01*
G01X492636Y528731D02*
X491616D01*
X492126Y527717D02*
G03X491616Y528731I-1264J-0D01*
G01X491851Y528504D02*
X492401D01*
X492126Y527717D02*
Y528731D01*
X481166Y511415D02*
G03X482244Y511771I184J1250D01*
G01X481166Y511415D02*
X481887Y510693D01*
X482244Y511771D02*
G03X481887Y510693I893J-893D01*
G01X482244Y511771D02*
X482244D01*
X481597Y510984D02*
X481878D01*
X481456Y511124D02*
Y511406D01*
X482741Y507478D02*
G03X483819Y507834I184J1250D01*
G01X482741Y507478D02*
X483462Y506756D01*
X483819Y507834D02*
G03X483462Y506756I893J-893D01*
G01X483819Y507834D02*
X483819D01*
X483171Y507047D02*
X483453D01*
X483031Y507187D02*
Y507469D01*
X446060Y474740D02*
G03X446417Y473662I1250J-185D01*
G01X446060Y474740D02*
X445339Y474018D01*
X446417Y473662D02*
G03X445339Y474018I-893J-894D01*
G01X445770Y474449D02*
X446051D01*
X445630Y474027D02*
Y474309D01*
X481105Y429178D02*
G03X480748Y430256I-1250J184D01*
G01X481105Y429178D02*
X481826Y429899D01*
X480748Y430256D02*
G03X481826Y429899I894J893D01*
G01X480748Y430256D02*
X480748D01*
X481114Y429468D02*
X481396D01*
X480748Y430256D02*
X480748D01*
X481536Y429608D02*
Y429890D01*
X444486Y443441D02*
G03X444842Y442363I1250J-185D01*
G01X444486Y443441D02*
X443764Y442719D01*
X444842Y442363D02*
G03X443764Y442719I-893J-894D01*
G01X444195Y443150D02*
X444477D01*
X444055Y442728D02*
Y443010D01*
X454727Y555103D02*
G03X454370Y556181I-1250J184D01*
G01X454727Y555103D02*
X455448Y555824D01*
X454370Y556181D02*
G03X455448Y555824I894J893D01*
G01X454370Y556181D02*
X454370D01*
X454736Y555393D02*
X455018D01*
X454370Y556181D02*
X454370D01*
X455158Y555534D02*
Y555815D01*
X455448Y572443D02*
G03X454370Y572087I-184J-1250D01*
G01X455448Y572443D02*
X454727Y573165D01*
X454370Y572087D02*
G03X454727Y573165I-893J893D01*
G01X454736Y572874D02*
X455018D01*
X454370Y572087D02*
X454370D01*
X455158Y572453D02*
Y572734D01*
X453152Y486087D02*
G03X452796Y487165I-1250J185D01*
G01X453152Y486087D02*
X453874Y486808D01*
X452796Y487165D02*
G03X453874Y486808I893J893D01*
G01X452796Y487165D02*
X452796D01*
X453161Y486378D02*
X453443D01*
X452796Y487165D02*
X452796D01*
X453583Y486518D02*
Y486799D01*
X453874Y575593D02*
G03X452796Y575237I-185J-1250D01*
G01X453874Y575593D02*
X453152Y576315D01*
X452796Y575237D02*
G03X453152Y576315I-894J893D01*
G01X453161Y576024D02*
X453443D01*
X452796Y575237D02*
X452796D01*
X453583Y575602D02*
Y575884D01*
X485829Y506756D02*
G03X485473Y507834I-1250J185D01*
G01X485829Y506756D02*
X486551Y507478D01*
X485473Y507834D02*
G03X486551Y507478I893J894D01*
G01X485473Y507834D02*
X485473D01*
X485838Y507047D02*
X486120D01*
X485473Y507834D02*
X485473D01*
X486260Y507187D02*
Y507469D01*
X485370Y587995D02*
G03X484292Y587638I-185J-1250D01*
G01X485370Y587995D02*
X484648Y588716D01*
X484292Y587638D02*
G03X484648Y588716I-894J894D01*
G01X484657Y588426D02*
X484939D01*
X484292Y587638D02*
X484292D01*
X485079Y588004D02*
Y588285D01*
X484976Y591538D02*
G03X483898Y591181I-185J-1250D01*
G01X484976Y591538D02*
X484255Y592259D01*
X483898Y591181D02*
G03X484255Y592259I-894J894D01*
G01X484264Y591969D02*
X484545D01*
X483898Y591181D02*
X483898D01*
X484685Y591547D02*
Y591829D01*
X481433Y592129D02*
G03X480355Y591772I-185J-1250D01*
G01X481433Y592129D02*
X480711Y592850D01*
X480355Y591772D02*
G03X480711Y592850I-894J893D01*
G01X480720Y592559D02*
X481002D01*
X480355Y591772D02*
X480355D01*
X481142Y592138D02*
Y592419D01*
X457150Y559840D02*
G03X458228Y560197I185J1250D01*
G01X457150Y559840D02*
X457871Y559118D01*
X458228Y560197D02*
G03X457871Y559119I893J-894D01*
G01X458228Y560197D02*
X458228D01*
X457581Y559409D02*
X457862D01*
X457441Y559549D02*
Y559831D01*
X476708Y607483D02*
G03X475630Y607126I-184J-1250D01*
G01X476708Y607483D02*
X475987Y608204D01*
X475630Y607126D02*
G03X475987Y608204I-893J894D01*
G01X475996Y607914D02*
X476277D01*
X475630Y607126D02*
X475630D01*
X476418Y607492D02*
Y607773D01*
X490221Y578344D02*
G03X491299Y578700I184J1250D01*
G01X490221Y578344D02*
X490942Y577622D01*
X491299Y578700D02*
G03X490942Y577622I893J-893D01*
G01X491299Y578700D02*
X491299D01*
X490652Y577913D02*
X490933D01*
X490511Y578053D02*
Y578335D01*
X491849Y681290D02*
G03X491339Y680276I753J-1014D01*
G01X491849Y681290D02*
X490828D01*
X491339Y680276D02*
G03X490828Y681290I-1264J-0D01*
G01X491063Y681063D02*
X491614D01*
X491339Y680276D02*
Y681290D01*
X478743Y525063D02*
G03X478386Y526141I-1250J185D01*
G01X478743Y525063D02*
X479464Y525785D01*
X478386Y526141D02*
G03X479464Y525785I894J894D01*
G01X478386Y526141D02*
X478386D01*
X478752Y525354D02*
X479033D01*
X478386Y526141D02*
X478386D01*
X479174Y525494D02*
Y525776D01*
X484189Y613979D02*
G03X483111Y613622I-185J-1250D01*
G01X484189Y613979D02*
X483467Y614700D01*
X483111Y613622D02*
G03X483467Y614700I-894J894D01*
G01X483476Y614410D02*
X483758D01*
X483111Y613622D02*
X483111D01*
X483898Y613988D02*
Y614270D01*
X477168Y517977D02*
G03X476811Y519055I-1250J184D01*
G01X477168Y517977D02*
X477889Y518698D01*
X476811Y519055D02*
G03X477889Y518698I894J893D01*
G01X476811Y519055D02*
X476811D01*
X477177Y518267D02*
X477459D01*
X476811Y519055D02*
X476811D01*
X477599Y518408D02*
Y518689D01*
X480825Y614164D02*
G03X480315Y613150I754J-1014D01*
G01X480825Y614164D02*
X479805D01*
X480315Y613150D02*
G03X479805Y614164I-1264J-0D01*
G01X480040Y613937D02*
X480590D01*
X480315Y613150D02*
Y614164D01*
X438186Y635960D02*
G03X438543Y634882I1250J-184D01*
G01X438186Y635960D02*
X437465Y635239D01*
X438543Y634882D02*
G03X437465Y635239I-894J-893D01*
G01X437896Y635670D02*
X438177D01*
X437756Y635248D02*
Y635529D01*
X469873Y574490D02*
G03X468858Y575000I-1015J-754D01*
G01X469873Y574490D02*
Y575510D01*
X468858Y575000D02*
G03X469873Y575510I0J1264D01*
G01X468858Y575000D02*
X469873D01*
X468858D02*
X468858D01*
X469646Y574725D02*
Y575275D01*
X435836Y633581D02*
G03X436850Y633071I1014J753D01*
G01X435836Y633581D02*
Y632561D01*
X436850Y633071D02*
G03X435836Y632561I0J-1264D01*
G01Y633071D02*
X436850D01*
X436063Y632796D02*
Y633346D01*
X469688Y570536D02*
G03X469331Y571614I-1250J184D01*
G01X469688Y570536D02*
X470409Y571257D01*
X469331Y571614D02*
G03X470409Y571257I894J893D01*
G01X469331Y571614D02*
X469331D01*
X469697Y570826D02*
X469978D01*
X469331Y571614D02*
X469331D01*
X470118Y570967D02*
Y571248D01*
X450785Y616866D02*
G03X451141Y615788I1250J-185D01*
G01X450785Y616866D02*
X450063Y616144D01*
X451141Y615788D02*
G03X450063Y616144I-893J-894D01*
G01X450494Y616575D02*
X450776D01*
X450354Y616153D02*
Y616435D01*
X450785Y611354D02*
G03X451141Y610276I1250J-185D01*
G01X450785Y611354D02*
X450063Y610632D01*
X451141Y610276D02*
G03X450063Y610632I-893J-894D01*
G01X450494Y611063D02*
X450776D01*
X450354Y610642D02*
Y610923D01*
X470266Y442423D02*
G03X469252Y442933I-1014J-754D01*
G01X470266Y442423D02*
Y443443D01*
X469252Y442933D02*
G03X470266Y443443I-0J1264D01*
G01X469252Y442933D02*
X470266D01*
X469252D02*
X469252D01*
X470039Y442658D02*
Y443208D01*
X476261Y612805D02*
G03X476772Y613819I-753J1014D01*
G01X476261Y612805D02*
X477282D01*
X476772Y613819D02*
G03X477282Y612805I1263J-0D01*
G01X476772Y613819D02*
X476772D01*
X476496Y613031D02*
X477047D01*
X476772Y612805D02*
Y613819D01*
X477282Y652944D02*
G03X476772Y651929I753J-1015D01*
G01X477282Y652944D02*
X476261D01*
X476772Y651929D02*
G03X476261Y652944I-1264J0D01*
G01X476496Y652717D02*
X477047D01*
X476772Y651929D02*
Y652944D01*
X442517Y613322D02*
G03X442874Y612244I1250J-184D01*
G01X442517Y613322D02*
X441796Y612601D01*
X442874Y612244D02*
G03X441796Y612601I-894J-893D01*
G01X442227Y613032D02*
X442508D01*
X442086Y612610D02*
Y612892D01*
X445947Y607490D02*
G03X446457Y608504I-754J1014D01*
G01X445947Y607490D02*
X446967D01*
X446457Y608504D02*
G03X446967Y607490I1263J-0D01*
G01X446457Y608504D02*
X446457D01*
X446181Y607717D02*
X446732D01*
X446457Y607490D02*
Y608504D01*
X485496Y607871D02*
G03X486574Y608228I185J1250D01*
G01X485496Y607871D02*
X486218Y607150D01*
X486574Y608228D02*
G03X486218Y607150I894J-893D01*
G01X486574Y608228D02*
X486574D01*
X485927Y607441D02*
X486209D01*
X485787Y607581D02*
Y607862D01*
X487399Y632614D02*
G03X487756Y631536I1250J-185D01*
G01X487399Y632614D02*
X486678Y631892D01*
X487756Y631536D02*
G03X486678Y631892I-894J-894D01*
G01X487108Y632323D02*
X487390D01*
X486968Y631901D02*
Y632183D01*
X447242Y606826D02*
G03X447598Y605748I1250J-184D01*
G01X447242Y606826D02*
X446520Y606105D01*
X447598Y605748D02*
G03X446520Y606105I-893J-893D01*
G01X446951Y606536D02*
X447232D01*
X446811Y606114D02*
Y606396D01*
X481290Y432423D02*
G03X480276Y432933I-1014J-754D01*
G01X481290Y432423D02*
Y433443D01*
X480276Y432933D02*
G03X481290Y433443I-0J1264D01*
G01X480276Y432933D02*
X481290D01*
X480276D02*
X480276D01*
X481063Y432658D02*
Y433208D01*
X447754Y613573D02*
G03X447244Y612559I754J-1014D01*
G01X447754Y613573D02*
X446734D01*
X447244Y612559D02*
G03X446734Y613573I-1263J0D01*
G01X446969Y613346D02*
X447519D01*
X447244Y612559D02*
Y613573D01*
X470266Y438604D02*
G03X469252Y439114I-1014J-753D01*
G01X470266Y438604D02*
Y439624D01*
X469252Y439114D02*
G03X470266Y439624I-0J1264D01*
G01X469252Y439114D02*
X470266D01*
X469252D02*
X469252D01*
X470039Y438839D02*
Y439390D01*
X456494Y621590D02*
G03X456850Y620512I1250J-184D01*
G01X456494Y621590D02*
X455772Y620869D01*
X456850Y620512D02*
G03X455772Y620869I-893J-893D01*
G01X456203Y621300D02*
X456484D01*
X456063Y620878D02*
Y621159D01*
X458151Y612411D02*
G03X458661Y613425I-753J1014D01*
G01X458151Y612411D02*
X459172D01*
X458661Y613425D02*
G03X459172Y612411I1264J0D01*
G01X458661Y613425D02*
X458661D01*
X458386Y612638D02*
X458937D01*
X458661Y612411D02*
Y613425D01*
X505630Y414764D02*
Y409449D01*
X495630D02*
Y414803D01*
X447244Y422638D02*
X448819Y421063D01*
Y412638*
X475630Y409449D02*
X490157Y423976D01*
Y451772*
X485630Y409449D02*
Y416535D01*
X492126Y423031*
Y529331*
X445630Y409449D02*
X448819Y412638D01*
X481102Y510630D02*
X482283Y511811D01*
X482677Y506693D02*
X483858Y507874D01*
Y526969*
X445276Y474803D02*
X446457Y473622D01*
Y457087*
X472244Y431299*
X479705*
X481890Y429114*
X443701Y443504D02*
X447047Y440157D01*
Y431890*
X455630Y423307*
Y409449*
X454331Y572047D02*
Y556220D01*
X455512Y555039*
X454331Y572047D02*
X455512Y573228D01*
X452756Y575197D02*
Y487205D01*
X453937Y486024*
X452756Y575197D02*
X453937Y576378D01*
X483071Y586417D02*
Y530118D01*
X485433Y527756*
Y507874*
X486614Y506693*
X483071Y586417D02*
X485433Y588780D01*
X481496D02*
Y529331D01*
X483858Y526969*
X481496Y588780D02*
X485039Y592323D01*
X479921Y528543D02*
Y591339D01*
X481496Y592913*
X479921Y528543D02*
X482283Y526181D01*
Y511811*
X457087Y559055D02*
X458268Y560236D01*
X469882Y513780D02*
Y472047D01*
X490157Y451772*
X469882Y513780D02*
X475197Y519094D01*
Y606693*
X476772Y608268*
X490157Y577559D02*
X491339Y578740D01*
Y681890*
X573622Y567323D02*
Y577756D01*
X478346Y603346D02*
Y526181D01*
X479528Y525000*
X478346Y603346D02*
Y603543D01*
X481890Y607087*
Y612402*
X484252Y614764*
X476772Y604331D02*
Y519094D01*
X477953Y517913*
X476772Y604331D02*
X480315Y607874D01*
Y614764*
X437402Y636024D02*
X455906Y617520D01*
Y587402*
X468307Y575000*
X470472*
X435236Y633071D02*
X437992D01*
X454331Y616732*
Y586614*
X470472Y570472*
X450000Y616929D02*
X452756Y614173D01*
Y585827*
X458268Y580315*
Y560236*
X450000Y611417D02*
X451181Y610236D01*
Y459469*
X467717Y442933*
X470866*
X476772Y612205D02*
Y653543D01*
X441732Y613386D02*
X446457Y608661D01*
Y606890*
X485433Y607087D02*
X487795Y609449D01*
Y631496*
X486614Y632677D02*
X487795Y631496D01*
X446457Y606890D02*
X448031Y605315D01*
Y457874*
X472972Y432933*
X481890*
X447244Y614173D02*
Y610236D01*
X449606Y607874*
Y458661*
X469154Y439114*
X470866*
X455709Y621654D02*
X458661Y618701D01*
Y611811*
X573622Y599409D02*
Y605315D01*
X579724Y619094D02*
G03X579724I-6102J0D01*
G01X607874Y597047D02*
G03X607480Y597441I-394J0D01*
G01X580118*
G03X579724Y597047I0J-394*
G01Y591535*
X567520D02*
G03X579724I6102J0D01*
G01X567520D02*
Y597047D01*
G03X567126Y597441I-394J0*
G01X541074*
G03X540796Y597326I0J-394*
G01X539485Y596015*
X538650Y595669D02*
G03X539485Y596015I0J1181D01*
G01X538650Y595669D02*
X517323D01*
G03X516929Y595276I-0J-393*
G01Y590877*
G03X517044Y590599I394J0*
G01X540205Y567438*
G03X540484Y567323I279J279*
G01X607480*
G03X607874Y567717I0J394*
G01Y597047*
Y629134D02*
G03X607480Y629528I-394J-0D01*
G01X540484*
G03X540205Y629412I-0J-394*
G01X517044Y606251*
G03X516929Y605973I279J-278*
G01Y601575*
G03X517323Y601181I394J-0*
G01X538650*
X539485Y600835D02*
G03X538650Y601181I-835J-835D01*
G01X539485Y600835D02*
X540796Y599525D01*
G03X541074Y599409I278J278*
G01X607480*
G03X607874Y599803I0J394*
G01Y629134*
X534449Y587598D02*
X546850D01*
Y582087D02*
G03Y587598I0J2756D01*
G01Y582087D02*
X534449D01*
Y587598D02*
G03Y582087I-0J-2755D01*
G01X579724Y619094D02*
G03X579724I-6102J0D01*
G01X534449Y614764D02*
X546850D01*
Y609252D02*
G03Y614764I0J2756D01*
G01Y609252D02*
X534449D01*
Y614764D02*
G03Y609252I-0J-2756D01*
G01X579724Y596377D02*
X607874D01*
X579724Y595668D02*
X607874D01*
X579724Y594959D02*
X607874D01*
X579724Y594251D02*
X607874D01*
X579724Y593542D02*
X607874D01*
X579724Y592833D02*
X607874D01*
X579724Y592125D02*
X607874D01*
X579723Y591416D02*
X607874D01*
X579668Y590707D02*
X607874D01*
X579528Y589999D02*
X607874D01*
X579296Y589290D02*
X607874D01*
X578962Y588581D02*
X607874D01*
X578503Y587873D02*
X607874D01*
X577880Y587164D02*
X607874D01*
X577003Y586455D02*
X607874D01*
X575553Y585747D02*
X607874D01*
X549599Y585038D02*
X607874D01*
X549558Y584329D02*
X607874D01*
X549321Y583621D02*
X607874D01*
X548817Y582912D02*
X607874D01*
X547644Y582203D02*
X607874D01*
X526149Y581495D02*
X607874D01*
X526857Y580786D02*
X607874D01*
X527566Y580077D02*
X607874D01*
X528275Y579369D02*
X607874D01*
X528983Y578660D02*
X607874D01*
X529692Y577951D02*
X607874D01*
X530401Y577243D02*
X607874D01*
X531109Y576534D02*
X607874D01*
X531818Y575825D02*
X607874D01*
X532527Y575117D02*
X607874D01*
X533235Y574408D02*
X607874D01*
X533944Y573699D02*
X607874D01*
X534653Y572991D02*
X607874D01*
X535361Y572282D02*
X607874D01*
X536070Y571573D02*
X607874D01*
X536779Y570865D02*
X607874D01*
X537487Y570156D02*
X607874D01*
X538196Y569448D02*
X607874D01*
X538905Y568739D02*
X607874D01*
X539613Y568030D02*
X607874D01*
X579726Y597085D02*
X607872D01*
X549454Y585747D02*
X571691D01*
X549085Y586455D02*
X570241D01*
X548336Y587164D02*
X569364D01*
X519771Y587873D02*
X568741D01*
X519062Y588581D02*
X568282D01*
X518353Y589290D02*
X567948D01*
X517645Y589999D02*
X567716D01*
X516968Y590707D02*
X567576D01*
X516929Y591416D02*
X567521D01*
X539847Y596377D02*
X567520D01*
X517291Y595668D02*
X567520D01*
X516929Y594959D02*
X567520D01*
X516929Y594251D02*
X567520D01*
X516929Y593542D02*
X567520D01*
X516929Y592833D02*
X567520D01*
X516929Y592125D02*
X567520D01*
X540555Y597085D02*
X567518D01*
X525440Y582203D02*
X533655D01*
X520479Y587164D02*
X532964D01*
X524731Y582912D02*
X532482D01*
X521188Y586455D02*
X532214D01*
X524023Y583621D02*
X531979D01*
X521897Y585747D02*
X531845D01*
X523314Y584329D02*
X531741D01*
X522605Y585038D02*
X531700D01*
X539256Y628463D02*
X607874D01*
X538548Y627755D02*
X607874D01*
X537839Y627046D02*
X607874D01*
X537130Y626337D02*
X607874D01*
X536422Y625629D02*
X607874D01*
X575439Y624920D02*
X607874D01*
X576947Y624211D02*
X607874D01*
X577842Y623503D02*
X607874D01*
X578475Y622794D02*
X607874D01*
X578941Y622085D02*
X607874D01*
X579282Y621377D02*
X607874D01*
X579518Y620668D02*
X607874D01*
X579663Y619959D02*
X607874D01*
X579722Y619251D02*
X607874D01*
X579699Y618542D02*
X607874D01*
X579593Y617833D02*
X607874D01*
X579398Y617125D02*
X607874D01*
X579105Y616416D02*
X607874D01*
X578698Y615707D02*
X607874D01*
X578146Y614999D02*
X607874D01*
X577384Y614290D02*
X607874D01*
X576238Y613581D02*
X607874D01*
X549467Y612873D02*
X607874D01*
X549602Y612164D02*
X607874D01*
X549550Y611455D02*
X607874D01*
X549301Y610747D02*
X607874D01*
X548778Y610038D02*
X607874D01*
X547499Y609329D02*
X607874D01*
X519414Y608621D02*
X607874D01*
X518705Y607912D02*
X607874D01*
X517996Y607203D02*
X607874D01*
X517288Y606495D02*
X607874D01*
X516929Y605786D02*
X607874D01*
X516929Y605077D02*
X607874D01*
X516929Y604369D02*
X607874D01*
X516929Y603660D02*
X607874D01*
X516929Y602951D02*
X607874D01*
X516929Y602243D02*
X607874D01*
X516931Y601534D02*
X607874D01*
X539495Y600825D02*
X607874D01*
X540204Y600117D02*
X607874D01*
X539965Y629172D02*
X607872D01*
X535713Y624920D02*
X571805D01*
X549113Y613581D02*
X571006D01*
X535004Y624211D02*
X570297D01*
X548395Y614290D02*
X569860D01*
X534296Y623503D02*
X569402D01*
X525792Y614999D02*
X569098D01*
X533587Y622794D02*
X568769D01*
X526500Y615707D02*
X568546D01*
X532878Y622085D02*
X568303D01*
X527209Y616416D02*
X568139D01*
X532170Y621377D02*
X567962D01*
X527918Y617125D02*
X567846D01*
X531461Y620668D02*
X567726D01*
X528626Y617833D02*
X567651D01*
X530752Y619959D02*
X567581D01*
X529335Y618542D02*
X567545D01*
X530044Y619251D02*
X567522D01*
X520122Y609329D02*
X533800D01*
X525083Y614290D02*
X532904D01*
X520831Y610038D02*
X532521D01*
X524374Y613581D02*
X532186D01*
X521540Y610747D02*
X531998D01*
X523666Y612873D02*
X531832D01*
X522248Y611455D02*
X531749D01*
X522957Y612164D02*
X531697D01*
X551378Y688976D02*
G03X551378I-6102J0D01*
G01X536220Y653543D02*
G03X536220I-4724J0D01*
G01Y543307D02*
G03X536220I-4724J0D01*
G01X529331Y696457D02*
G03X529331I-2756J0D01*
G01X522441Y691142D02*
G03X522441I-2756J0D01*
G01X515551Y696457D02*
G03X515551I-2756J0D01*
G01X516535Y653543D02*
G03X516535I-4724J0D01*
G01Y543307D02*
G03X516535I-4724J0D01*
G01X509764Y409449D02*
G03X509764I-4134J0D01*
G01X465748Y693307D02*
G03X465748I-6102J0D01*
G01X451969D02*
G03X451969I-6103J0D01*
G01X425669Y646024D02*
G03X425669I-3346J0D01*
G01Y636024D02*
G03X425669I-3346J0D01*
G01Y626024D02*
G03X425669I-3346J0D01*
G01Y616024D02*
G03X425669I-3346J0D01*
G01Y606024D02*
G03X425669I-3346J0D01*
G01Y596024D02*
G03X425669I-3346J0D01*
G01Y586024D02*
G03X425669I-3346J0D01*
G01Y576024D02*
G03X425669I-3346J0D01*
G01Y566024D02*
G03X425669I-3346J0D01*
G01Y556024D02*
G03X425669I-3346J0D01*
G01Y546024D02*
G03X425669I-3346J0D01*
G01Y536024D02*
G03X425669I-3346J0D01*
G01Y526024D02*
G03X425669I-3346J0D01*
G01Y516024D02*
G03X425669I-3346J0D01*
G01Y506024D02*
G03X425669I-3346J0D01*
G01Y496024D02*
G03X425669I-3346J0D01*
G01Y486024D02*
G03X425669I-3346J0D01*
G01Y476024D02*
G03X425669I-3346J0D01*
G01X415669Y646024D02*
G03X415669I-3346J0D01*
G01Y636024D02*
G03X415669I-3346J0D01*
G01Y626024D02*
G03X415669I-3346J0D01*
G01Y616024D02*
G03X415669I-3346J0D01*
G01Y606024D02*
G03X415669I-3346J0D01*
G01Y596024D02*
G03X415669I-3346J0D01*
G01Y586024D02*
G03X415669I-3346J0D01*
G01Y576024D02*
G03X415669I-3346J0D01*
G01Y566024D02*
G03X415669I-3346J0D01*
G01Y556024D02*
G03X415669I-3346J0D01*
G01Y546024D02*
G03X415669I-3346J0D01*
G01Y536024D02*
G03X415669I-3346J0D01*
G01Y526024D02*
G03X415669I-3346J0D01*
G01Y516024D02*
G03X415669I-3346J0D01*
G01Y506024D02*
G03X415669I-3346J0D01*
G01Y496024D02*
G03X415669I-3346J0D01*
G01Y486024D02*
G03X415669I-3346J0D01*
G01Y476024D02*
G03X415669I-3346J0D01*
G01X396063Y409449D02*
G03X409449Y396063I13386J-0D01*
G01X594488*
G03X607874Y409449I0J13386*
G01Y564961*
G03X607480Y565354I-394J-0*
G01X540484*
X538813Y566046D02*
G03X540484Y565354I1671J1671D01*
G01X538813Y566046D02*
X519794Y585065D01*
G03X519642Y585160I-278J-278*
G01X516853Y587949D02*
G03X519642Y585160I4210J1421D01*
G01X516853Y587949D02*
G03X516758Y588102I-373J-126D01*
G01X515653Y589207*
X514961Y590877D02*
G03X515653Y589207I2362J0D01*
G01X514961Y590877D02*
Y595276D01*
X517323Y597638D02*
G03X514961Y595276I-0J-2362D01*
G01X517323Y597638D02*
X524237D01*
G03X524631Y598031I0J393*
X524628Y598081I-394J0*
G01X524606Y598425D02*
G03X524628Y598081I2756J0D01*
G01Y598770D02*
G03X524606Y598425I2734J-345D01*
G01X524628Y598770D02*
G03X524631Y598819I-391J49D01*
X524237Y599213I-394J-0*
G01X517323*
X514961Y601575D02*
G03X517323Y599213I2362J-0D01*
G01X514961Y601575D02*
Y605973D01*
X515653Y607643D02*
G03X514961Y605973I1670J-1670D01*
G01X515653Y607643D02*
X538813Y630804D01*
X540484Y631496D02*
G03X538813Y630804I-0J-2362D01*
G01X540484Y631496D02*
X607480D01*
G03X607874Y631890I0J394*
G01Y712598*
G03X594488Y725984I-13386J0*
G01X409449*
G03X396063Y712598I-0J-13386*
G01Y409449*
X479921Y595403D02*
G03X480484Y595048I394J0D01*
G01X483309Y594428D02*
G03X480484Y595048I-1813J-1515D01*
G01X483309Y594428D02*
G03X483815Y594343I302J252D01*
G01X487064Y593540D02*
G03X483815Y594343I-2025J-1217D01*
G01X487064Y593540D02*
G03X487795Y593742I338J202D01*
G01Y605158*
G03X487120Y605433I-393J-0*
G01X483469Y605774D02*
G03X487120Y605433I1964J1313D01*
G01X483469Y605774D02*
G03X482864Y605833I-327J-219D01*
G01X480037Y603006*
G03X479921Y602728I278J-278*
G01Y595403*
X544267Y584449D02*
G03X544660Y584055I393J-0D01*
G01X546850*
G03Y585630I0J788*
G01X544660*
G03X544267Y585236I0J-394*
X544270Y585187I393J0*
G01X544291Y584843D02*
G03X544270Y585187I-2756J-0D01*
G01Y584498D02*
G03X544291Y584843I-2735J345D01*
G01X544270Y584498D02*
G03X544267Y584449I390J-49D01*
G01Y611614D02*
G03X544660Y611220I393J0D01*
G01X546850*
G03Y612795I0J788*
G01X544660*
G03X544267Y612402I0J-393*
X544270Y612352I393J-0*
G01X544291Y612008D02*
G03X544270Y612352I-2756J-0D01*
G01Y611663D02*
G03X544291Y612008I-2735J345D01*
G01X544270Y611663D02*
G03X544267Y611614I390J-49D01*
G01X593110Y656693D02*
X593110D01*
X596267Y661550D02*
G03X593110Y656693I2158J-4857D01*
G01X596267Y661550D02*
G03X596501Y661910I-160J360D01*
X596279Y662264I-394J-0*
G01X593504Y666693D02*
G03X596279Y662264I4921J-0D01*
G01X603346Y666693D02*
G03X593504I-4921J-0D01*
G01X600571Y662264D02*
G03X603346Y666693I-2146J4429D01*
G01X600571Y662264D02*
G03X600349Y661910I172J-354D01*
X600583Y661550I394J-0*
G01X603740Y656693D02*
G03X600583Y661550I-5315J-0D01*
G01X603740Y656693D02*
X603740D01*
X593110D02*
G03X603740I5315J-0D01*
G01X593110Y496693D02*
X593110D01*
X596267Y501550D02*
G03X593110Y496693I2158J-4857D01*
G01X596267Y501550D02*
G03X596501Y501910I-160J360D01*
X596279Y502264I-394J-0*
G01X593504Y506693D02*
G03X596279Y502264I4921J-0D01*
G01X596756Y511323D02*
G03X593504Y506693I1669J-4630D01*
G01X596756Y511323D02*
G03X597016Y511693I-133J370D01*
X596756Y512063I-393J-0*
G01X593504Y516693D02*
G03X596756Y512063I4921J-0D01*
G01Y521323D02*
G03X593504Y516693I1669J-4630D01*
G01X596756Y521323D02*
G03X597016Y521693I-133J370D01*
X596756Y522063I-393J-0*
G01X593504Y526693D02*
G03X596756Y522063I4921J-0D01*
G01X603346Y526693D02*
G03X593504I-4921J-0D01*
G01X600094Y522063D02*
G03X603346Y526693I-1669J4630D01*
G01X600094Y522063D02*
G03X599834Y521693I134J-370D01*
X600094Y521323I394J-0*
G01X603346Y516693D02*
G03X600094Y521323I-4921J-0D01*
G01Y512063D02*
G03X603346Y516693I-1669J4630D01*
G01X600094Y512063D02*
G03X599834Y511693I134J-370D01*
X600094Y511323I394J-0*
G01X603346Y506693D02*
G03X600094Y511323I-4921J-0D01*
G01X600571Y502264D02*
G03X603346Y506693I-2146J4429D01*
G01X600571Y502264D02*
G03X600349Y501910I172J-354D01*
X600583Y501550I394J-0*
G01X603740Y496693D02*
G03X600583Y501550I-5315J-0D01*
G01X603740Y496693D02*
X603740D01*
X593110D02*
G03X603740I5315J-0D01*
G01X593110Y466693D02*
X593110D01*
X596267Y471550D02*
G03X593110Y466693I2158J-4857D01*
G01X596267Y471550D02*
G03X596501Y471910I-160J360D01*
X596279Y472264I-394J-0*
G01X593504Y476693D02*
G03X596279Y472264I4921J-0D01*
G01X603346Y476693D02*
G03X593504I-4921J-0D01*
G01X600571Y472264D02*
G03X603346Y476693I-2146J4429D01*
G01X600571Y472264D02*
G03X600349Y471910I172J-354D01*
X600583Y471550I394J-0*
G01X603740Y466693D02*
G03X600583Y471550I-5315J-0D01*
G01X603740Y466693D02*
X603740D01*
X600583Y461836D02*
G03X603740Y466693I-2158J4857D01*
G01X600583Y461836D02*
G03X600349Y461476I160J-360D01*
X600571Y461122I394J-0*
G01X603346Y456693D02*
G03X600571Y461122I-4921J-0D01*
G01X600094Y452063D02*
G03X603346Y456693I-1669J4630D01*
G01X600094Y452063D02*
G03X599834Y451693I134J-370D01*
X600094Y451323I394J-0*
G01X603346Y446693D02*
G03X600094Y451323I-4921J-0D01*
G01Y442063D02*
G03X603346Y446693I-1669J4630D01*
G01X600094Y442063D02*
G03X599834Y441693I134J-370D01*
X600094Y441323I394J-0*
G01X603346Y436693D02*
G03X600094Y441323I-4921J-0D01*
G01X593504Y436693D02*
G03X603346I4921J-0D01*
G01X596756Y441323D02*
G03X593504Y436693I1669J-4630D01*
G01X596756Y441323D02*
G03X597016Y441693I-133J370D01*
X596756Y442063I-393J-0*
G01X593504Y446693D02*
G03X596756Y442063I4921J-0D01*
G01Y451323D02*
G03X593504Y446693I1669J-4630D01*
G01X596756Y451323D02*
G03X597016Y451693I-133J370D01*
X596756Y452063I-393J-0*
G01X593504Y456693D02*
G03X596756Y452063I4921J-0D01*
G01X596279Y461122D02*
G03X593504Y456693I2146J-4429D01*
G01X596279Y461122D02*
G03X596501Y461476I-172J354D01*
X596267Y461836I-394J-0*
G01X593110Y466693D02*
G03X596267Y461836I5315J-0D01*
G01X551378Y688976D02*
G03X551378I-6102J0D01*
G01X536220Y653543D02*
G03X536220I-4724J0D01*
G01Y543307D02*
G03X536220I-4724J0D01*
G01X529331Y696457D02*
G03X529331I-2756J0D01*
G01X522441Y691142D02*
G03X522441I-2756J0D01*
G01X515551Y696457D02*
G03X515551I-2756J0D01*
G01X516535Y653543D02*
G03X516535I-4724J0D01*
G01Y543307D02*
G03X516535I-4724J0D01*
G01X509764Y409449D02*
G03X509764I-4134J0D01*
G01X499404Y481348D02*
G03X496654Y476693I2565J-4655D01*
G01X499404Y481348D02*
G03X499607Y481693I-190J345D01*
X499404Y482038I-393J-0*
G01X496654Y486693D02*
G03X499404Y482038I5315J-0D01*
G01X507283Y486693D02*
G03X496654I-5314J-0D01*
G01X504533Y482038D02*
G03X507283Y486693I-2564J4655D01*
G01X504533Y482038D02*
G03X504330Y481693I190J-345D01*
X504533Y481348I393J-0*
G01X507283Y476693D02*
G03X504533Y481348I-5314J-0D01*
G01X496654Y476693D02*
G03X507283I5315J-0D01*
G01X500148Y688962D02*
G03X495669Y686811I-1723J-2151D01*
G01X500148Y688962D02*
G03X500640I246J308D01*
G01X504085D02*
G03X500640I-1723J-2151D01*
G01X504085D02*
G03X504577I246J308D01*
G01X509055Y686811D02*
G03X504577Y688962I-2756J0D01*
G01Y684660D02*
G03X509055Y686811I1722J2151D01*
G01X504577Y684660D02*
G03X504085I-246J-308D01*
G01X500640D02*
G03X504085I1722J2151D01*
G01X500640D02*
G03X500148I-246J-308D01*
G01X495669Y686811D02*
G03X500148Y684660I2756J0D01*
G01X493008Y413140D02*
G03X491102Y409449I2622J-3691D01*
G01X493008Y413140D02*
G03X493174Y413461I-228J321D01*
X493137Y413629I-394J0*
G01X492874Y414803D02*
G03X493137Y413629I2756J0D01*
G01X498386Y414803D02*
G03X492874I-2756J0D01*
G01X498386D02*
X498386D01*
X498123Y413629D02*
G03X498386Y414803I-2493J1174D01*
G01X498123Y413629D02*
G03X498086Y413461I356J-168D01*
X498251Y413140I393J0*
G01X500157Y409449D02*
G03X498251Y413140I-4527J-0D01*
G01X491102Y409449D02*
G03X500157I4528J-0D01*
G01X465748Y693307D02*
G03X465748I-6102J0D01*
G01X451969D02*
G03X451969I-6103J0D01*
G01X427165Y651693D02*
X427165D01*
X427672Y653154D02*
G03X427165Y651693I1856J-1461D01*
G01X427672Y653154D02*
G03X427756Y653398I-310J244D01*
G01Y658650*
G03X427672Y658893I-394J-0*
G01X427165Y660354D02*
G03X427672Y658893I2363J0D01*
G01X427165Y660354D02*
X427165D01*
X427672Y661816D02*
G03X427165Y660354I1856J-1462D01*
G01X427672Y661816D02*
G03X427756Y662059I-310J243D01*
G01Y669685*
X428275Y670938D02*
G03X427756Y669685I1253J-1253D01*
G01X428275Y670938D02*
X440480Y683143D01*
X441732Y683661D02*
G03X440480Y683143I0J-1771D01*
G01X441732Y683661D02*
X482941D01*
G03X483184Y683746I-0J394*
G01X486991Y682169D02*
G03X483184Y683746I-2345J-279D01*
G01X486991Y682169D02*
G03X487104Y681937I391J46D01*
G01X488536Y680505*
G03X489208Y680783I279J278*
X489175Y680941I-393J0*
G01X488976Y681890D02*
G03X489175Y680941I2363J-0D01*
G01X493701Y681890D02*
G03X488976I-2362J-0D01*
G01X493026Y680237D02*
G03X493701Y681890I-1687J1653D01*
G01X493026Y680237D02*
G03X492913Y679961I281J-276D01*
G01Y578740*
X492598Y577795D02*
G03X492913Y578740I-1259J945D01*
G01X492598Y577795D02*
G03X492520Y577559I315J-236D01*
G01X487795D02*
G03X492520I2362J0D01*
G01X489483Y579823D02*
G03X487795Y577559I674J-2264D01*
G01X489483Y579823D02*
G03X489764Y580200I-113J377D01*
G01Y585520*
G03X489092Y585799I-394J0*
G01X486729Y583437*
G03X486614Y583158I279J-279*
G01Y545779*
G03X486729Y545500I394J-0*
G01X537080Y495150*
X537598Y493898D02*
G03X537080Y495150I-1771J-0D01*
G01X537598Y493898D02*
Y491318D01*
G03X538223Y490999I394J-0*
G01X546654Y486693D02*
G03X538223Y490999I-5315J-0D01*
G01X546654Y486693D02*
X546654D01*
X543496Y481836D02*
G03X546654Y486693I-2157J4857D01*
G01X543496Y481836D02*
G03X543263Y481476I160J-360D01*
X543485Y481122I393J-0*
G01X546260Y476693D02*
G03X543485Y481122I-4921J-0D01*
G01X536417Y476693D02*
G03X546260I4922J-0D01*
G01X536417D02*
X536417D01*
X536743Y478453D02*
G03X536417Y476693I4596J-1760D01*
G01X536743Y478453D02*
G03X536769Y478594I-368J141D01*
X536654Y478872I-394J-0*
G01X534574Y480952*
X534055Y482205D02*
G03X534574Y480952I1772J-0D01*
G01X534055Y482205D02*
Y493001D01*
G03X533940Y493279I-394J-0*
G01X485318Y541901*
G03X484646Y541623I-279J-278*
G01Y530933*
G03X484761Y530655I393J0*
G01X486547Y528869*
X487008Y527756D02*
G03X486547Y528869I-1575J-0D01*
G01X487008Y527756D02*
Y509334D01*
G03X487289Y508957I394J-0*
G01X488976Y506693D02*
G03X487289Y508957I-2362J-0D01*
G01X484927Y505040D02*
G03X488976Y506693I1687J1653D01*
G01X484927Y505040D02*
G03X484364I-281J-276D01*
G01X480315Y506693D02*
G03X484364Y505040I2362J-0D01*
G01X480315Y506693D02*
X480315D01*
X480601Y507820D02*
G03X480315Y506693I2076J-1127D01*
G01X480601Y507820D02*
G03X480649Y508008I-346J188D01*
X480376Y508382I-394J-0*
G01X478740Y510630D02*
G03X480376Y508382I2362J-0D01*
G01X480427Y512894D02*
G03X478740Y510630I675J-2264D01*
G01X480427Y512894D02*
G03X480709Y513271I-112J377D01*
G01Y516494*
G03X479978Y516697I-394J-0*
G01X475863Y516812D02*
G03X479978Y516697I2090J1101D01*
G01X475863Y516812D02*
G03X475236Y516907I-348J-184D01*
G01X471572Y513243*
G03X471457Y512964I278J-279*
G01Y472863*
G03X471572Y472584I393J-0*
G01X489485Y454671*
G03X490157Y454949I279J278*
G01Y527247*
G03X490059Y527508I-393J0*
G01X489370Y529331D02*
G03X490059Y527508I2756J-0D01*
G01X494882Y529331D02*
G03X489370I-2756J-0D01*
G01X494193Y527508D02*
G03X494882Y529331I-2067J1823D01*
G01X494193Y527508D02*
G03X494094Y527247I295J-261D01*
G01Y423031*
X493518Y421640D02*
G03X494094Y423031I-1392J1391D01*
G01X493518Y421640D02*
X487714Y415835D01*
G03X487598Y415557I278J-278*
G01Y413766*
G03X487803Y413421I394J0*
G01X490157Y409449D02*
G03X487803Y413421I-4527J-0D01*
G01X481102Y409449D02*
G03X490157I4528J-0D01*
G01X483457Y413421D02*
G03X481102Y409449I2173J-3972D01*
G01X483457Y413421D02*
G03X483661Y413766I-189J345D01*
G01Y414303*
G03X482989Y414581I-393J-0*
G01X479627Y411218*
G03X479511Y410940I278J-278*
X479533Y410810I394J-0*
G01X479764Y409449D02*
G03X479533Y410810I-4134J-0D01*
G01X479764Y409449D02*
X479764D01*
X471496D02*
G03X479764I4134J-0D01*
G01X476991Y413352D02*
G03X471496Y409449I-1361J-3903D01*
G01X476991Y413352D02*
G03X477399Y413445I130J372D01*
G01X481589Y417635*
G03X481704Y417913I-278J278*
X481311Y418307I-393J0*
G01X473141*
G03X472863Y418192I0J-394*
G01X471750Y417079*
G03X471637Y416847I278J-279*
G01X469570Y414780D02*
G03X471637Y416847I-279J2346D01*
G01X469570Y414780D02*
G03X469339Y414668I47J-391D01*
G01X468041Y413370*
G03X467925Y413091I278J-279*
X468085Y412775I394J0*
G01X469764Y409449D02*
G03X468085Y412775I-4134J-0D01*
G01X469764Y409449D02*
X469764D01*
X469595Y408280D02*
G03X469764Y409449I-3965J1169D01*
G01X469595Y408280D02*
G03X469579Y408168I378J-112D01*
X469694Y407890I394J0*
G01X473729Y403855*
G03X474007Y403740I278J279*
G01X531583*
G03X531862Y403855I0J394*
G01X560318Y432311*
G03X560433Y432590I-279J279*
G01Y433138*
G03X560349Y433381I-394J-0*
G01X559843Y434843D02*
G03X560349Y433381I2362J-0D01*
G01X559843Y434843D02*
X559843D01*
X560349Y436304D02*
G03X559843Y434843I1856J-1461D01*
G01X560349Y436304D02*
G03X560433Y436547I-310J243D01*
G01Y500481*
G03X560318Y500759I-394J0*
G01X556252Y504825*
G03X556020Y504938I-278J-278*
G01X553937Y507283D02*
G03X556020Y504938I2362J0D01*
G01X553937Y507283D02*
X553937D01*
X554443Y508745D02*
G03X553937Y507283I1856J-1462D01*
G01X554443Y508745D02*
G03X554528Y508988I-309J243D01*
G01Y514240*
G03X554443Y514484I-394J0*
G01X553937Y515945D02*
G03X554443Y514484I2362J-0D01*
G01X553937Y515945D02*
X553937D01*
X558661D02*
G03X553937I-2362J-0D01*
G01X558661D02*
X558661D01*
X558155Y514484D02*
G03X558661Y515945I-1856J1461D01*
G01X558155Y514484D02*
G03X558071Y514240I310J-244D01*
G01Y508988*
G03X558155Y508745I394J0*
G01X558645Y507563D02*
G03X558155Y508745I-2346J-280D01*
G01X558645Y507563D02*
G03X558757Y507331I391J46D01*
G01X563457Y502631*
X563976Y501378D02*
G03X563457Y502631I-1771J-0D01*
G01X563976Y501378D02*
Y436547D01*
G03X564061Y436304I394J0*
G01X564567Y434843D02*
G03X564061Y436304I-2362J-0D01*
G01X564567Y434843D02*
X564567D01*
X564553Y434585D02*
G03X564567Y434843I-2348J258D01*
G01X564553Y434585D02*
G03X564550Y434542I391J-43D01*
X565223Y434264I394J-0*
G01X565223D02*
X571951Y440992D01*
G03X572064Y441224I-278J279*
G01X574130Y443291D02*
G03X572064Y441224I279J-2346D01*
G01X574130Y443291D02*
G03X574362Y443403I-46J390D01*
G01X574491Y443532*
G03X574606Y443810I-278J278*
G01Y474870*
G03X574522Y475114I-393J0*
G01X574016Y476575D02*
G03X574522Y475114I2362J-0D01*
G01X574016Y476575D02*
X574016D01*
X574522Y478036D02*
G03X574016Y476575I1856J-1461D01*
G01X574522Y478036D02*
G03X574606Y478280I-309J244D01*
G01Y525067*
G03X574522Y525310I-393J-0*
G01X574016Y526772D02*
G03X574522Y525310I2362J-0D01*
G01X574016Y526772D02*
X574016D01*
X578740D02*
G03X574016I-2362J-0D01*
G01X578740D02*
X578740D01*
X578234Y525310D02*
G03X578740Y526772I-1856J1462D01*
G01X578234Y525310D02*
G03X578150Y525067I309J-243D01*
G01Y478280*
G03X578234Y478036I393J-0*
G01X578740Y476575D02*
G03X578234Y478036I-2362J-0D01*
G01X578740Y476575D02*
X578740D01*
X578234Y475114D02*
G03X578740Y476575I-1856J1461D01*
G01X578234Y475114D02*
G03X578150Y474870I309J-244D01*
G01Y442913*
X577631Y441661D02*
G03X578150Y442913I-1253J1252D01*
G01X577631Y441661D02*
X576868Y440898D01*
G03X576755Y440666I278J-279*
G01X574689Y438599D02*
G03X576755Y440666I-280J2346D01*
G01X574689Y438599D02*
G03X574457Y438487I46J-391D01*
G01X534717Y398747*
X533465Y398228D02*
G03X534717Y398747I-0J1772D01*
G01X533465Y398228D02*
X445079D01*
X443826Y398747D02*
G03X445079Y398228I1253J1253D01*
G01X443826Y398747D02*
X437189Y405384D01*
G03X436799Y405484I-279J-278*
G01X431496Y409449D02*
G03X436799Y405484I4134J-0D01*
G01X439764Y409449D02*
G03X431496I-4134J-0D01*
G01X439764D02*
X439764D01*
X439595Y408280D02*
G03X439764Y409449I-3965J1169D01*
G01X439595Y408280D02*
G03X439579Y408168I378J-112D01*
X439694Y407890I394J0*
G01X445697Y401887*
G03X445976Y401772I279J278*
G01X469851*
G03X470245Y402165I0J393*
X470130Y402444I-394J0*
G01X470130D02*
X467189Y405384D01*
G03X466799Y405484I-279J-278*
G01X461496Y409449D02*
G03X466799Y405484I4134J-0D01*
G01X463653Y413079D02*
G03X461496Y409449I1977J-3630D01*
G01X463653Y413079D02*
G03X463858Y413425I-188J346D01*
G01Y413465*
X464377Y414717D02*
G03X463858Y413465I1253J-1252D01*
G01X464377Y414717D02*
X466507Y416848D01*
G03X466623Y417126I-278J278*
X466507Y417404I-394J-0*
G01X453299Y430613*
G03X453067Y430725I-278J-279*
G01X451885Y431215D02*
G03X453067Y430725I1461J1856D01*
G01X451885Y431215D02*
G03X451642Y431299I-243J-309D01*
G01X451508*
G03X451264Y431215I-0J-393*
G01X450905Y430981D02*
G03X451264Y431215I-1102J2090D01*
G01X450905Y430981D02*
G03X450694Y430633I183J-348D01*
X450810Y430354I394J-0*
G01X456743Y424421*
X457205Y423307D02*
G03X456743Y424421I-1575J0D01*
G01X457205Y423307D02*
Y413526D01*
G03X457427Y413172I393J0*
G01X459764Y409449D02*
G03X457427Y413172I-4134J-0D01*
G01X451496Y409449D02*
G03X459764I4134J-0D01*
G01X453833Y413172D02*
G03X451496Y409449I1797J-3723D01*
G01X453833Y413172D02*
G03X454055Y413526I-172J354D01*
G01Y422492*
G03X453940Y422770I-394J-0*
G01X445934Y430776*
X445472Y431890D02*
G03X445934Y430776I1575J-0D01*
G01X445472Y431890D02*
Y439342D01*
G03X445357Y439620I-393J0*
G01X443951Y441027*
G03X443677Y441142I-278J-279*
G01X441339Y443504D02*
G03X443677Y441142I2362J-0D01*
G01X446063Y443528D02*
G03X441339Y443504I-2362J-24D01*
G01X446063Y443528D02*
G03X446178Y443254I394J4D01*
G01X448161Y441271*
X448622Y440157D02*
G03X448161Y441271I-1575J0D01*
G01X448622Y440157D02*
Y435712D01*
G03X449128Y435335I394J-0*
G01X451264Y434927D02*
G03X449128Y435335I-1461J-1856D01*
G01X451264Y434927D02*
G03X451508Y434843I244J309D01*
G01X451642*
G03X451885Y434927I-0J393*
G01X455692Y433350D02*
G03X451885Y434927I-2346J-279D01*
G01X455692Y433350D02*
G03X455805Y433118I391J47D01*
G01X469013Y419910*
G03X469570I278J278*
G01X470991Y421331*
X472244Y421850D02*
G03X470991Y421331I0J-1771D01*
G01X472244Y421850D02*
X482764D01*
X482764D02*
G03X483043Y421966I0J394D01*
G01X486499Y425422*
G03X486614Y425700I-279J278*
G01Y450009*
G03X486499Y450287I-394J-0*
G01X464778Y472008*
G03X464359Y472097I-279J-278*
G01X457677Y476693D02*
G03X464359Y472097I4921J-0D01*
G01X460452Y481122D02*
G03X457677Y476693I2146J-4429D01*
G01X460452Y481122D02*
G03X460674Y481476I-171J354D01*
X460441Y481836I-393J-0*
G01X457283Y486693D02*
G03X460441Y481836I5315J-0D01*
G01X457283Y486693D02*
X457283D01*
X465714Y490999D02*
G03X457283Y486693I-3116J-4306D01*
G01X465714Y490999D02*
G03X466339Y491318I231J319D01*
G01Y514567*
X466857Y515820D02*
G03X466339Y514567I1253J-1253D01*
G01X466857Y515820D02*
X471538Y520500D01*
G03X471654Y520779I-278J279*
G01Y567831*
G03X471147Y568209I-394J0*
G01X468110Y570448D02*
G03X471147Y568209I2362J24D01*
G01X468110Y570448D02*
G03X467995Y570723I-393J-4D01*
G01X460515Y578203*
G03X459843Y577925I-279J-278*
G01Y560236*
X459528Y559291D02*
G03X459843Y560236I-1260J945D01*
G01X459528Y559291D02*
G03X459449Y559055I315J-236D01*
G01X457781Y556797D02*
G03X459449Y559055I-694J2258D01*
G01X457781Y556797D02*
G03X457503Y556421I115J-376D01*
X457556Y556224I393J-0*
G01X457874Y555039D02*
G03X457556Y556224I-2362J0D01*
G01X454837Y552776D02*
G03X457874Y555039I675J2263D01*
G01X454837Y552776D02*
G03X454331Y552398I-113J-378D01*
G01Y488665*
G03X454612Y488287I393J-0*
G01X456299Y486024D02*
G03X454612Y488287I-2362J-0D01*
G01X453262Y483760D02*
G03X456299Y486024I675J2264D01*
G01X453262Y483760D02*
G03X452756Y483383I-112J-377D01*
G01Y460284*
G03X452871Y460005I394J-0*
G01X468254Y444623*
G03X468532Y444508I278J279*
G01X468937*
G03X469213Y444620I0J394*
G01X473228Y442933D02*
G03X469213Y444620I-2362J0D01*
G01X473228Y442933D02*
X473228D01*
X472569Y441296D02*
G03X473228Y442933I-1703J1637D01*
G01X472569Y441296D02*
G03X472460Y441024I284J-272D01*
X472569Y440751I393J-0*
G01X473228Y439114D02*
G03X472569Y440751I-2362J0D01*
G01X473228Y439114D02*
X473228D01*
X471889Y436985D02*
G03X473228Y439114I-1023J2129D01*
G01X471889Y436985D02*
G03X471666Y436630I170J-355D01*
X471781Y436352I393J-0*
G01X473509Y434623*
G03X473788Y434508I279J279*
G01X479961*
G03X480237Y434620I0J394*
G01X484252Y432933D02*
G03X480237Y434620I-2362J0D01*
G01X484252Y432933D02*
X484252D01*
X483593Y431296D02*
G03X484252Y432933I-1703J1637D01*
G01X483593Y431296D02*
G03X483483Y431024I284J-272D01*
X483593Y430751I394J-0*
G01X484252Y429114D02*
G03X483593Y430751I-2362J0D01*
G01X484252Y429114D02*
X484252D01*
X479528Y429090D02*
G03X484252Y429114I2362J24D01*
G01X479528Y429090D02*
G03X479412Y429364I-394J-4D01*
G01X479168Y429609*
G03X478889Y429724I-279J-278*
G01X472244*
X471131Y430186D02*
G03X472244Y429724I1113J1113D01*
G01X471131Y430186D02*
X445343Y455973D01*
X444882Y457087D02*
G03X445343Y455973I1575J-0D01*
G01X444882Y457087D02*
Y472162D01*
G03X444601Y472539I-394J0*
G01X442913Y474803D02*
G03X444601Y472539I2363J0D01*
G01X445951Y477067D02*
G03X442913Y474803I-675J-2264D01*
G01X445951Y477067D02*
G03X446457Y477444I112J377D01*
G01Y604162*
G03X446119Y604552I-394J0*
G01X444094Y606890D02*
G03X446119Y604552I2363J-0D01*
G01X444094Y606890D02*
X444094D01*
X444410Y608069D02*
G03X444094Y606890I2047J-1179D01*
G01X444410Y608069D02*
G03X444462Y608265I-341J196D01*
G01X444462D02*
G03X444347Y608544I-393J0D01*
G01X441983Y610908*
G03X441708Y611024I-279J-278*
G01X439370Y613386D02*
G03X441708Y611024I2362J-0D01*
G01X444094Y613410D02*
G03X439370Y613386I-2362J-24D01*
G01X444094Y613410D02*
G03X444210Y613136I394J4D01*
G01X444367Y612979*
G03X445039Y613257I278J278*
X445016Y613388I-394J0*
G01X444882Y614173D02*
G03X445016Y613388I2362J0D01*
G01X447244Y616535D02*
G03X444882Y614173I0J-2362D01*
G01X447244Y616535D02*
G03X447638Y616929I0J394D01*
G01X449012Y619075D02*
G03X447638Y616929I988J-2146D01*
G01X449012Y619075D02*
G03X449241Y619432I-165J357D01*
X449125Y619711I-394J0*
G01X437455Y631381*
G03X437177Y631496I-278J-279*
G01X437165*
G03X436889Y631384I-0J-394*
G01X432874Y633071D02*
G03X436889Y631384I2362J-0D01*
G01X434740Y635380D02*
G03X432874Y633071I496J-2309D01*
G01X434740Y635380D02*
G03X435051Y635765I-82J385D01*
X435050Y635802I-393J0*
G01X435039Y636024D02*
G03X435050Y635802I2363J-0D01*
G01X439764Y636048D02*
G03X435039Y636024I-2362J-24D01*
G01X439764Y636048D02*
G03X439879Y635773I393J4D01*
G01X452992Y622660*
G03X453619Y622755I279J278*
G01X458071Y621678D02*
G03X453619Y622755I-2362J-24D01*
G01X458071Y621678D02*
G03X458186Y621403I393J4D01*
G01X459775Y619814*
X460236Y618701D02*
G03X459775Y619814I-1575J-0D01*
G01X460236Y618701D02*
Y613740D01*
G03X460349Y613464I394J-0*
G01X461024Y611811D02*
G03X460349Y613464I-2363J0D01*
G01X457987Y609547D02*
G03X461024Y611811I674J2264D01*
G01X457986Y609547D02*
G03X457480Y609170I-112J-377D01*
G01Y588217*
G03X457596Y587939I394J-0*
G01X468579Y576955*
G03X469088Y576914I279J278*
G01X471147Y577264D02*
G03X469088Y576914I-675J-2264D01*
G01X471147Y577264D02*
G03X471654Y577641I113J377D01*
G01Y593591*
G03X471538Y593870I-394J0*
G01X470425Y594983*
G03X470193Y595095I-278J-279*
G01X468110Y597441D02*
G03X470193Y595095I2362J-0D01*
G01X472818Y597720D02*
G03X468110Y597441I-2346J-279D01*
G01X472818Y597720D02*
G03X472931Y597488I391J47D01*
G01X472950Y597469*
G03X473622Y597747I278J278*
G01Y606693*
X474083Y607806D02*
G03X473622Y606693I1114J-1113D01*
G01X474083Y607806D02*
X474294Y608017D01*
G03X474410Y608292I-278J279*
G01X475118Y609955D02*
G03X474410Y608292I1654J-1687D01*
G01X475118Y609955D02*
G03X475237Y610236I-275J281D01*
X475118Y610517I-394J0*
G01X474409Y612205D02*
G03X475118Y610517I2363J-0D01*
G01X475084Y613858D02*
G03X474409Y612205I1688J-1653D01*
G01X475084Y613858D02*
G03X475197Y614133I-281J275D01*
G01Y651615*
G03X475084Y651890I-394J-0*
G01X474409Y653543D02*
G03X475084Y651890I2363J0D01*
G01X479134Y653543D02*
G03X474409I-2362J0D01*
G01X478459Y651890D02*
G03X479134Y653543I-1687J1653D01*
G01X478459Y651890D02*
G03X478346Y651615I281J-275D01*
G01Y617025*
G03X478965Y616702I394J0*
G01X482002Y616417D02*
G03X478965Y616702I-1687J-1653D01*
G01X482002Y616417D02*
G03X482565I281J276D01*
G01X485602Y616702D02*
G03X482565Y616417I-1350J-1938D01*
G01X485602Y616702D02*
G03X486220Y617025I225J323D01*
G01Y630036*
G03X485939Y630413I-393J0*
G01X484252Y632677D02*
G03X485939Y630413I2362J0D01*
G01X487289Y634941D02*
G03X484252Y632677I-675J-2264D01*
G01X487289Y634941D02*
G03X487795Y635318I113J377D01*
G01Y676072*
G03X487680Y676350I-393J-0*
G01X484598Y679432*
G03X484367Y679544I-278J-279*
G01X483184Y680034D02*
G03X484367Y679544I1462J1856D01*
G01X483184Y680034D02*
G03X482941Y680118I-243J-310D01*
G01X442629*
G03X442351Y680003I0J-394*
G01X431415Y669067*
G03X431299Y668788I278J-279*
G01Y662059*
G03X431384Y661816I394J0*
G01X431890Y660354D02*
G03X431384Y661816I-2362J0D01*
G01X431890Y660354D02*
X431890D01*
X431384Y658893D02*
G03X431890Y660354I-1856J1461D01*
G01X431384Y658893D02*
G03X431299Y658650I309J-243D01*
G01Y653398*
G03X431384Y653154I394J-0*
G01X431890Y651693D02*
G03X431384Y653154I-2362J-0D01*
G01X431890Y651693D02*
X431890D01*
X427165D02*
G03X431890I2363J-0D01*
G01X425669Y646024D02*
G03X425669I-3346J0D01*
G01Y636024D02*
G03X425669I-3346J0D01*
G01Y626024D02*
G03X425669I-3346J0D01*
G01Y616024D02*
G03X425669I-3346J0D01*
G01Y606024D02*
G03X425669I-3346J0D01*
G01Y596024D02*
G03X425669I-3346J0D01*
G01Y586024D02*
G03X425669I-3346J0D01*
G01Y576024D02*
G03X425669I-3346J0D01*
G01Y566024D02*
G03X425669I-3346J0D01*
G01Y556024D02*
G03X425669I-3346J0D01*
G01Y546024D02*
G03X425669I-3346J0D01*
G01Y536024D02*
G03X425669I-3346J0D01*
G01Y526024D02*
G03X425669I-3346J0D01*
G01Y516024D02*
G03X425669I-3346J0D01*
G01Y506024D02*
G03X425669I-3346J0D01*
G01Y496024D02*
G03X425669I-3346J0D01*
G01Y486024D02*
G03X425669I-3346J0D01*
G01Y476024D02*
G03X425669I-3346J0D01*
G01X412358Y659370D02*
G03X408976Y656024I-35J-3346D01*
G01X412358Y659370D02*
G03X412756Y659764I4J394D01*
X412744Y659860I-394J-0*
G01X412598Y661024D02*
G03X412744Y659861I4725J-0D01*
G01X412598Y661024D02*
X412598D01*
X412744Y662187D02*
G03X412598Y661024I4579J-1163D01*
G01X412744Y662187D02*
G03X412756Y662284I-382J97D01*
X412358Y662677I-394J-0*
G01X408976Y666024D02*
G03X412358Y662677I3347J-0D01*
G01X415669Y666024D02*
G03X408976I-3346J-0D01*
G01X415669D02*
X415669D01*
Y665988D02*
G03Y666024I-3346J36D01*
G01Y665988D02*
G03Y665984I409J-4D01*
X416160Y665603I394J0*
G01X418486D02*
G03X416160I-1163J-4579D01*
G01X418486D02*
G03X418977Y665984I97J381D01*
Y665988I-409J0*
G01X418976Y666024D02*
G03X418977Y665988I3347J-0D01*
G01X418976Y666024D02*
X418976D01*
X425669D02*
G03X418976I-3346J-0D01*
G01X422288Y662677D02*
G03X425669Y666024I35J3347D01*
G01X422288Y662677D02*
G03X421890Y662284I-5J-393D01*
X421902Y662187I393J-0*
G01X422047Y661024D02*
G03X421902Y662187I-4724J-0D01*
G01X422047Y661024D02*
X422047D01*
X421902Y659860D02*
G03X422047Y661024I-4579J1164D01*
G01X421902Y659860D02*
G03X421890Y659764I381J-96D01*
X422288Y659370I393J-0*
G01X425669Y656024D02*
G03X422288Y659370I-3346J-0D01*
G01X418976Y656024D02*
G03X425669I3347J-0D01*
G01X418976D02*
X418976D01*
X418977Y656059D02*
G03X418976Y656024I3346J-35D01*
G01X418977Y656059D02*
G03Y656063I-409J4D01*
X418486Y656445I-394J0*
G01X416160D02*
G03X418486I1163J4579D01*
G01X416160D02*
G03X415669Y656063I-97J-382D01*
Y656059I409J0*
G01Y656024D02*
G03Y656059I-3346J-0D01*
G01Y656024D02*
X415669D01*
X408976D02*
G03X415669I3347J-0D01*
G01Y646024D02*
G03X415669I-3346J0D01*
G01Y636024D02*
G03X415669I-3346J0D01*
G01Y626024D02*
G03X415669I-3346J0D01*
G01Y616024D02*
G03X415669I-3346J0D01*
G01Y606024D02*
G03X415669I-3346J0D01*
G01Y596024D02*
G03X415669I-3346J0D01*
G01Y586024D02*
G03X415669I-3346J0D01*
G01Y576024D02*
G03X415669I-3346J0D01*
G01Y566024D02*
G03X415669I-3346J0D01*
G01Y556024D02*
G03X415669I-3346J0D01*
G01Y546024D02*
G03X415669I-3346J0D01*
G01Y536024D02*
G03X415669I-3346J0D01*
G01Y526024D02*
G03X415669I-3346J0D01*
G01Y516024D02*
G03X415669I-3346J0D01*
G01Y506024D02*
G03X415669I-3346J0D01*
G01Y496024D02*
G03X415669I-3346J0D01*
G01Y486024D02*
G03X415669I-3346J0D01*
G01Y476024D02*
G03X415669I-3346J0D01*
G01X412358Y459370D02*
G03X408976Y456024I-35J-3346D01*
G01X412358Y459370D02*
G03X412756Y459764I4J394D01*
X412744Y459860I-394J-0*
G01X412598Y461024D02*
G03X412744Y459861I4725J-0D01*
G01X412598Y461024D02*
X412598D01*
X412744Y462187D02*
G03X412598Y461024I4579J-1163D01*
G01X412744Y462187D02*
G03X412756Y462284I-382J97D01*
X412358Y462677I-394J-0*
G01X408976Y466024D02*
G03X412358Y462677I3347J-0D01*
G01X415669Y466024D02*
G03X408976I-3346J-0D01*
G01X415669D02*
X415669D01*
Y465988D02*
G03Y466024I-3346J36D01*
G01Y465988D02*
G03Y465984I409J-4D01*
X416160Y465603I394J0*
G01X418486D02*
G03X416160I-1163J-4579D01*
G01X418486D02*
G03X418977Y465984I97J381D01*
Y465988I-409J0*
G01X418976Y466024D02*
G03X418977Y465988I3347J-0D01*
G01X418976Y466024D02*
X418976D01*
X425669D02*
G03X418976I-3346J-0D01*
G01X422288Y462677D02*
G03X425669Y466024I35J3347D01*
G01X422288Y462677D02*
G03X421890Y462284I-5J-393D01*
X421902Y462187I393J-0*
G01X422047Y461024D02*
G03X421902Y462187I-4724J-0D01*
G01X422047Y461024D02*
X422047D01*
X421902Y459860D02*
G03X422047Y461024I-4579J1164D01*
G01X421902Y459860D02*
G03X421890Y459764I381J-96D01*
X422288Y459370I393J-0*
G01X425669Y456024D02*
G03X422288Y459370I-3346J-0D01*
G01X418976Y456024D02*
G03X425669I3347J-0D01*
G01X418976D02*
X418976D01*
X418977Y456059D02*
G03X418976Y456024I3346J-35D01*
G01X418977Y456059D02*
G03Y456063I-409J4D01*
X418486Y456445I-394J0*
G01X416160D02*
G03X418486I1163J4579D01*
G01X416160D02*
G03X415669Y456063I-97J-382D01*
Y456059I409J0*
G01Y456024D02*
G03Y456059I-3346J-0D01*
G01Y456024D02*
X415669D01*
X408976D02*
G03X415669I3347J-0D01*
G01X399213Y450000D02*
Y462008D01*
X399905Y463679D02*
G03X399213Y462008I1670J-1671D01*
G01X399905Y463679D02*
X402641Y466414D01*
G03X402756Y466693I-279J279*
G01Y480354*
X407480D02*
G03X402756I-2362J0D01*
G01X407480D02*
Y465551D01*
X406788Y463881D02*
G03X407480Y465551I-1670J1670D01*
G01X406788Y463881D02*
X406320Y463413D01*
G03X406205Y463134I279J-279*
X406414Y462787I394J0*
G01X407874Y460354D02*
G03X406414Y462787I-2756J0D01*
G01X404429Y457686D02*
G03X407874Y460354I689J2668D01*
G01X404429Y457686D02*
G03X403937Y457305I-98J-381D01*
G01Y454743*
G03X404429Y454361I394J-0*
G01X407874Y451693D02*
G03X404429Y454361I-2756J-0D01*
G01X407874Y451693D02*
X407874D01*
X406391Y449249D02*
G03X407874Y451693I-1273J2444D01*
G01X406391Y449249D02*
G03X406179Y448899I182J-350D01*
X406294Y448621I394J0*
G01X429800Y425115*
G03X430079Y425000I279J279*
G01X447244*
X449606Y422662D02*
G03X447244Y425000I-2362J-24D01*
G01X449606Y422662D02*
G03X449721Y422388I394J4D01*
G01X449932Y422177*
X450394Y421063D02*
G03X449932Y422177I-1575J-0D01*
G01X450394Y421063D02*
Y412638D01*
X449932Y411524D02*
G03X450394Y412638I-1113J1114D01*
G01X449932Y411524D02*
X449627Y411218D01*
G03X449511Y410940I278J-278*
X449533Y410810I394J-0*
G01X449764Y409449D02*
G03X449533Y410810I-4134J-0D01*
G01X449764Y409449D02*
X449764D01*
X441496D02*
G03X449764I4134J-0D01*
G01X446744Y413430D02*
G03X441496Y409449I-1114J-3981D01*
G01X446744Y413430D02*
G03X447244Y413809I106J379D01*
G01Y419882*
G03X446850Y420276I-394J-0*
G01X428937*
X427267Y420967D02*
G03X428937Y420276I1670J1671D01*
G01X427267Y420967D02*
X399904Y448330D01*
X399213Y450000D02*
G03X399904Y448330I2362J0D01*
G01X396063Y712046D02*
X607874D01*
X396063Y711337D02*
X607874D01*
X396063Y710629D02*
X607874D01*
X396063Y709920D02*
X607874D01*
X396063Y709211D02*
X607874D01*
X396063Y708503D02*
X607874D01*
X396063Y707794D02*
X607874D01*
X396063Y707085D02*
X607874D01*
X396063Y706377D02*
X607874D01*
X396063Y705668D02*
X607874D01*
X396063Y704959D02*
X607874D01*
X396063Y704251D02*
X607874D01*
X396063Y703542D02*
X607874D01*
X396063Y702833D02*
X607874D01*
X396063Y702125D02*
X607874D01*
X396063Y701416D02*
X607874D01*
X396063Y700707D02*
X607874D01*
X396063Y699999D02*
X607874D01*
X460847Y699290D02*
X607874D01*
X528330Y698581D02*
X607874D01*
X528939Y697873D02*
X607874D01*
X529238Y697164D02*
X607874D01*
X529331Y696455D02*
X607874D01*
X529238Y695747D02*
X607874D01*
X545979Y695038D02*
X607874D01*
X548205Y694329D02*
X607874D01*
X549234Y693621D02*
X607874D01*
X549939Y692912D02*
X607874D01*
X550455Y692203D02*
X607874D01*
X550834Y691495D02*
X607874D01*
X551103Y690786D02*
X607874D01*
X551278Y690077D02*
X607874D01*
X551365Y689369D02*
X607874D01*
X551370Y688660D02*
X607874D01*
X551291Y687951D02*
X607874D01*
X551127Y687243D02*
X607874D01*
X550868Y686534D02*
X607874D01*
X550502Y685825D02*
X607874D01*
X550002Y685117D02*
X607874D01*
X549322Y684408D02*
X607874D01*
X548340Y683699D02*
X607874D01*
X546464Y682991D02*
X607874D01*
X493668Y682282D02*
X607874D01*
X493680Y681573D02*
X607874D01*
X493467Y680865D02*
X607874D01*
X492965Y680156D02*
X607874D01*
X492913Y679448D02*
X607874D01*
X492913Y678739D02*
X607874D01*
X492913Y678030D02*
X607874D01*
X492913Y677322D02*
X607874D01*
X492913Y676613D02*
X607874D01*
X492913Y675904D02*
X607874D01*
X492913Y675196D02*
X607874D01*
X492913Y674487D02*
X607874D01*
X492913Y673778D02*
X607874D01*
X492913Y673070D02*
X607874D01*
X492913Y672361D02*
X607874D01*
X492913Y671652D02*
X607874D01*
X600905Y670944D02*
X607874D01*
X601842Y670235D02*
X607874D01*
X602449Y669526D02*
X607874D01*
X602864Y668818D02*
X607874D01*
X603138Y668109D02*
X607874D01*
X603295Y667400D02*
X607874D01*
X603346Y666692D02*
X607874D01*
X603295Y665983D02*
X607874D01*
X603138Y665274D02*
X607874D01*
X602863Y664566D02*
X607874D01*
X602447Y663857D02*
X607874D01*
X601839Y663148D02*
X607874D01*
X600901Y662440D02*
X607874D01*
X600392Y661731D02*
X607874D01*
X601508Y661022D02*
X607874D01*
X602316Y660314D02*
X607874D01*
X602871Y659605D02*
X607874D01*
X603262Y658896D02*
X607874D01*
X603526Y658188D02*
X607874D01*
X603682Y657479D02*
X607874D01*
X603740Y656770D02*
X607874D01*
X603703Y656062D02*
X607874D01*
X603568Y655353D02*
X607874D01*
X603330Y654644D02*
X607874D01*
X602969Y653936D02*
X607874D01*
X602455Y653227D02*
X607874D01*
X601715Y652518D02*
X607874D01*
X600524Y651810D02*
X607874D01*
X535540Y651101D02*
X607874D01*
X535016Y650392D02*
X607874D01*
X534221Y649684D02*
X607874D01*
X532701Y648975D02*
X607874D01*
X492913Y648266D02*
X607874D01*
X492913Y647558D02*
X607874D01*
X492913Y646849D02*
X607874D01*
X492913Y646140D02*
X607874D01*
X492913Y645432D02*
X607874D01*
X492913Y644723D02*
X607874D01*
X492913Y644014D02*
X607874D01*
X492913Y643306D02*
X607874D01*
X492913Y642597D02*
X607874D01*
X492913Y641888D02*
X607874D01*
X492913Y641180D02*
X607874D01*
X492913Y640471D02*
X607874D01*
X492913Y639762D02*
X607874D01*
X492913Y639054D02*
X607874D01*
X492913Y638345D02*
X607874D01*
X492913Y637636D02*
X607874D01*
X492913Y636928D02*
X607874D01*
X492913Y636219D02*
X607874D01*
X492913Y635510D02*
X607874D01*
X492913Y634802D02*
X607874D01*
X492913Y634093D02*
X607874D01*
X492913Y633385D02*
X607874D01*
X492913Y632676D02*
X607874D01*
X492913Y631967D02*
X607874D01*
X486614Y564644D02*
X607874D01*
X486614Y563936D02*
X607874D01*
X486614Y563227D02*
X607874D01*
X486614Y562518D02*
X607874D01*
X486614Y561810D02*
X607874D01*
X486614Y561101D02*
X607874D01*
X486614Y560392D02*
X607874D01*
X486614Y559684D02*
X607874D01*
X486614Y558975D02*
X607874D01*
X486614Y558266D02*
X607874D01*
X486614Y557558D02*
X607874D01*
X486614Y556849D02*
X607874D01*
X486614Y556140D02*
X607874D01*
X486614Y555432D02*
X607874D01*
X486614Y554723D02*
X607874D01*
X486614Y554014D02*
X607874D01*
X486614Y553306D02*
X607874D01*
X486614Y552597D02*
X607874D01*
X486614Y551888D02*
X607874D01*
X486614Y551180D02*
X607874D01*
X486614Y550471D02*
X607874D01*
X486614Y549762D02*
X607874D01*
X486614Y549054D02*
X607874D01*
X486614Y548345D02*
X607874D01*
X533387Y547636D02*
X607874D01*
X534531Y546928D02*
X607874D01*
X535216Y546219D02*
X607874D01*
X535675Y545510D02*
X607874D01*
X535978Y544802D02*
X607874D01*
X536155Y544093D02*
X607874D01*
X536220Y543385D02*
X607874D01*
X536178Y542676D02*
X607874D01*
X536026Y541967D02*
X607874D01*
X535753Y541259D02*
X607874D01*
X535332Y540550D02*
X607874D01*
X534707Y539841D02*
X607874D01*
X533708Y539133D02*
X607874D01*
X493806Y538424D02*
X607874D01*
X494515Y537715D02*
X607874D01*
X495223Y537007D02*
X607874D01*
X495932Y536298D02*
X607874D01*
X496641Y535589D02*
X607874D01*
X497349Y534881D02*
X607874D01*
X498058Y534172D02*
X607874D01*
X498767Y533463D02*
X607874D01*
X499475Y532755D02*
X607874D01*
X500184Y532046D02*
X607874D01*
X600053Y531337D02*
X607874D01*
X601380Y530629D02*
X607874D01*
X602141Y529920D02*
X607874D01*
X602653Y529211D02*
X607874D01*
X603002Y528503D02*
X607874D01*
X603222Y527794D02*
X607874D01*
X603331Y527085D02*
X607874D01*
X603336Y526377D02*
X607874D01*
X603239Y525668D02*
X607874D01*
X603031Y524959D02*
X607874D01*
X602698Y524251D02*
X607874D01*
X602205Y523542D02*
X607874D01*
X601478Y522833D02*
X607874D01*
X600255Y522125D02*
X607874D01*
X599948Y521416D02*
X607874D01*
X601272Y520707D02*
X607874D01*
X602071Y519999D02*
X607874D01*
X602605Y519290D02*
X607874D01*
X602970Y518581D02*
X607874D01*
X603203Y517873D02*
X607874D01*
X603324Y517164D02*
X607874D01*
X603341Y516455D02*
X607874D01*
X603255Y515747D02*
X607874D01*
X603060Y515038D02*
X607874D01*
X602742Y514329D02*
X607874D01*
X602270Y513621D02*
X607874D01*
X601575Y512912D02*
X607874D01*
X600441Y512203D02*
X607874D01*
X599887Y511495D02*
X607874D01*
X601157Y510786D02*
X607874D01*
X601998Y510077D02*
X607874D01*
X602555Y509369D02*
X607874D01*
X602936Y508660D02*
X607874D01*
X603183Y507951D02*
X607874D01*
X603316Y507243D02*
X607874D01*
X603344Y506534D02*
X607874D01*
X603269Y505825D02*
X607874D01*
X603087Y505117D02*
X607874D01*
X602784Y504408D02*
X607874D01*
X602331Y503699D02*
X607874D01*
X601668Y502991D02*
X607874D01*
X600608Y502282D02*
X607874D01*
X600538Y501573D02*
X607874D01*
X601718Y500865D02*
X607874D01*
X602457Y500156D02*
X607874D01*
X602971Y499448D02*
X607874D01*
X603331Y498739D02*
X607874D01*
X603569Y498030D02*
X607874D01*
X603703Y497322D02*
X607874D01*
X603740Y496613D02*
X607874D01*
X603681Y495904D02*
X607874D01*
X603525Y495196D02*
X607874D01*
X603261Y494487D02*
X607874D01*
X602870Y493778D02*
X607874D01*
X602314Y493070D02*
X607874D01*
X601505Y492361D02*
X607874D01*
X600111Y491652D02*
X607874D01*
X578150Y490944D02*
X607874D01*
X578150Y490235D02*
X607874D01*
X578150Y489526D02*
X607874D01*
X578150Y488818D02*
X607874D01*
X578150Y488109D02*
X607874D01*
X578150Y487400D02*
X607874D01*
X578150Y486692D02*
X607874D01*
X578150Y485983D02*
X607874D01*
X578150Y485274D02*
X607874D01*
X578150Y484566D02*
X607874D01*
X578150Y483857D02*
X607874D01*
X578150Y483148D02*
X607874D01*
X578150Y482440D02*
X607874D01*
X578150Y481731D02*
X607874D01*
X600765Y481022D02*
X607874D01*
X601758Y480314D02*
X607874D01*
X602392Y479605D02*
X607874D01*
X602826Y478896D02*
X607874D01*
X603114Y478188D02*
X607874D01*
X603283Y477479D02*
X607874D01*
X603346Y476770D02*
X607874D01*
X603306Y476062D02*
X607874D01*
X603161Y475353D02*
X607874D01*
X602900Y474644D02*
X607874D01*
X602502Y473936D02*
X607874D01*
X601919Y473227D02*
X607874D01*
X601031Y472518D02*
X607874D01*
X600362Y471810D02*
X607874D01*
X601395Y471101D02*
X607874D01*
X602241Y470392D02*
X607874D01*
X602819Y469684D02*
X607874D01*
X603225Y468975D02*
X607874D01*
X603502Y468266D02*
X607874D01*
X603669Y467558D02*
X607874D01*
X603738Y466849D02*
X607874D01*
X603711Y466140D02*
X607874D01*
X603588Y465432D02*
X607874D01*
X603362Y464723D02*
X607874D01*
X603016Y464014D02*
X607874D01*
X602521Y463306D02*
X607874D01*
X601812Y462597D02*
X607874D01*
X600698Y461888D02*
X607874D01*
X600483Y461180D02*
X607874D01*
X601579Y460471D02*
X607874D01*
X602272Y459762D02*
X607874D01*
X602743Y459054D02*
X607874D01*
X603061Y458345D02*
X607874D01*
X603255Y457636D02*
X607874D01*
X603341Y456928D02*
X607874D01*
X603324Y456219D02*
X607874D01*
X603202Y455510D02*
X607874D01*
X602969Y454802D02*
X607874D01*
X602604Y454093D02*
X607874D01*
X602068Y453385D02*
X607874D01*
X601268Y452676D02*
X607874D01*
X599945Y451967D02*
X607874D01*
X600262Y451259D02*
X607874D01*
X601482Y450550D02*
X607874D01*
X602208Y449841D02*
X607874D01*
X602699Y449133D02*
X607874D01*
X603032Y448424D02*
X607874D01*
X603239Y447715D02*
X607874D01*
X603336Y447007D02*
X607874D01*
X603331Y446298D02*
X607874D01*
X603221Y445589D02*
X607874D01*
X603001Y444881D02*
X607874D01*
X602652Y444172D02*
X607874D01*
X602138Y443463D02*
X607874D01*
X601376Y442755D02*
X607874D01*
X600053Y442046D02*
X607874D01*
X600059Y441337D02*
X607874D01*
X601380Y440629D02*
X607874D01*
X602141Y439920D02*
X607874D01*
X602653Y439211D02*
X607874D01*
X603002Y438503D02*
X607874D01*
X603222Y437794D02*
X607874D01*
X603331Y437085D02*
X607874D01*
X603336Y436377D02*
X607874D01*
X603239Y435668D02*
X607874D01*
X603031Y434959D02*
X607874D01*
X602698Y434251D02*
X607874D01*
X602205Y433542D02*
X607874D01*
X601478Y432833D02*
X607874D01*
X600255Y432125D02*
X607874D01*
X567386Y431416D02*
X607874D01*
X566677Y430707D02*
X607874D01*
X565969Y429999D02*
X607874D01*
X565260Y429290D02*
X607874D01*
X564551Y428581D02*
X607874D01*
X563843Y427873D02*
X607874D01*
X563134Y427164D02*
X607874D01*
X562425Y426455D02*
X607874D01*
X561717Y425747D02*
X607874D01*
X561008Y425038D02*
X607874D01*
X560299Y424329D02*
X607874D01*
X559591Y423621D02*
X607874D01*
X558882Y422912D02*
X607874D01*
X558173Y422203D02*
X607874D01*
X557465Y421495D02*
X607874D01*
X556756Y420786D02*
X607874D01*
X556047Y420077D02*
X607874D01*
X555339Y419369D02*
X607874D01*
X554630Y418660D02*
X607874D01*
X553922Y417951D02*
X607874D01*
X553213Y417243D02*
X607874D01*
X552504Y416534D02*
X607874D01*
X551796Y415825D02*
X607874D01*
X551087Y415117D02*
X607874D01*
X550378Y414408D02*
X607874D01*
X549670Y413699D02*
X607874D01*
X548961Y412991D02*
X607874D01*
X548252Y412282D02*
X607874D01*
X547544Y411573D02*
X607874D01*
X546835Y410865D02*
X607874D01*
X546126Y410156D02*
X607874D01*
X545418Y409448D02*
X607874D01*
X396064Y712755D02*
X607873D01*
X544709Y408739D02*
X607855D01*
X396091Y713463D02*
X607846D01*
X544000Y408030D02*
X607799D01*
X396156Y714172D02*
X607781D01*
X543292Y407322D02*
X607704D01*
X396259Y714881D02*
X607678D01*
X542583Y406613D02*
X607570D01*
X396401Y715589D02*
X607536D01*
X486614Y565353D02*
X607512D01*
X541874Y405904D02*
X607396D01*
X396584Y716298D02*
X607353D01*
X541166Y405196D02*
X607180D01*
X396810Y717007D02*
X607127D01*
X540457Y404487D02*
X606920D01*
X397080Y717715D02*
X606857D01*
X539748Y403778D02*
X606614D01*
X397397Y718424D02*
X606540D01*
X539040Y403070D02*
X606256D01*
X397766Y719133D02*
X606171D01*
X538331Y402361D02*
X605843D01*
X398192Y719841D02*
X605745D01*
X537622Y401652D02*
X605369D01*
X398681Y720550D02*
X605256D01*
X536914Y400944D02*
X604825D01*
X399242Y721259D02*
X604695D01*
X536205Y400235D02*
X604198D01*
X399888Y721967D02*
X604049D01*
X535496Y399526D02*
X603473D01*
X400638Y722676D02*
X603299D01*
X534788Y398818D02*
X602622D01*
X401522Y723385D02*
X602415D01*
X402336Y398109D02*
X601601D01*
X402589Y724093D02*
X601348D01*
X403617Y397400D02*
X600320D01*
X403948Y724802D02*
X599989D01*
X405395Y396692D02*
X598542D01*
X405919Y725510D02*
X598018D01*
X578150Y511495D02*
X596963D01*
X578150Y451967D02*
X596905D01*
X578150Y521416D02*
X596903D01*
X500893Y531337D02*
X596798D01*
X577923Y442046D02*
X596797D01*
X577307Y441337D02*
X596792D01*
X578150Y491652D02*
X596740D01*
X578150Y522125D02*
X596595D01*
X568095Y432125D02*
X596595D01*
X578150Y451259D02*
X596588D01*
X578150Y471810D02*
X596488D01*
X492913Y661731D02*
X596458D01*
X578150Y512203D02*
X596409D01*
X578150Y461180D02*
X596367D01*
X535891Y651810D02*
X596327D01*
X578150Y501573D02*
X596312D01*
X578150Y502282D02*
X596243D01*
X578150Y461888D02*
X596152D01*
X578150Y481022D02*
X596085D01*
X492913Y662440D02*
X595950D01*
X492913Y670944D02*
X595945D01*
X578150Y472518D02*
X595819D01*
X578150Y510786D02*
X595693D01*
X578150Y452676D02*
X595582D01*
X578150Y520707D02*
X595579D01*
X578142Y442755D02*
X595474D01*
X501601Y530629D02*
X595471D01*
X576750Y440629D02*
X595471D01*
X578150Y471101D02*
X595456D01*
X578150Y522833D02*
X595372D01*
X568803Y432833D02*
X595372D01*
X578150Y450550D02*
X595369D01*
X578150Y492361D02*
X595346D01*
X492913Y661022D02*
X595342D01*
X578150Y512912D02*
X595275D01*
X578150Y460471D02*
X595272D01*
X578150Y502991D02*
X595183D01*
X536108Y652518D02*
X595136D01*
X578150Y500865D02*
X595132D01*
X578150Y480314D02*
X595092D01*
X578150Y462597D02*
X595038D01*
X492913Y663148D02*
X595011D01*
X492913Y670235D02*
X595009D01*
X578150Y473227D02*
X594931D01*
X578150Y510077D02*
X594853D01*
X578150Y453385D02*
X594782D01*
X578150Y519999D02*
X594780D01*
X578150Y443463D02*
X594712D01*
X502310Y529920D02*
X594710D01*
X576538Y439920D02*
X594710D01*
X578150Y523542D02*
X594645D01*
X569512Y433542D02*
X594645D01*
X578150Y449841D02*
X594643D01*
X578150Y470392D02*
X594609D01*
X578150Y513621D02*
X594581D01*
X578150Y459762D02*
X594579D01*
X578150Y493070D02*
X594537D01*
X492913Y660314D02*
X594534D01*
X578150Y503699D02*
X594519D01*
X578150Y479605D02*
X594458D01*
X492913Y663857D02*
X594403D01*
X492913Y669526D02*
X594401D01*
X536210Y653227D02*
X594396D01*
X578150Y500156D02*
X594393D01*
X578150Y473936D02*
X594349D01*
X578150Y463306D02*
X594329D01*
X578150Y509369D02*
X594295D01*
X578150Y454093D02*
X594247D01*
X578150Y519290D02*
X594245D01*
X578150Y444172D02*
X594199D01*
X503019Y529211D02*
X594197D01*
X576014Y439211D02*
X594197D01*
X578150Y524251D02*
X594153D01*
X570221Y434251D02*
X594153D01*
X578150Y449133D02*
X594151D01*
X578150Y514329D02*
X594109D01*
X578150Y459054D02*
X594107D01*
X578150Y504408D02*
X594066D01*
X578150Y469684D02*
X594032D01*
X578150Y478896D02*
X594025D01*
X492913Y664566D02*
X593987D01*
X492913Y668818D02*
X593986D01*
X578150Y493778D02*
X593981D01*
X492913Y659605D02*
X593979D01*
X578150Y474644D02*
X593951D01*
X578150Y508660D02*
X593914D01*
X578150Y454802D02*
X593882D01*
X536204Y653936D02*
X593881D01*
X578150Y518581D02*
X593881D01*
X578150Y499448D02*
X593880D01*
X578150Y444881D02*
X593850D01*
X577985Y528503D02*
X593849D01*
X574474Y438503D02*
X593849D01*
X578150Y464014D02*
X593834D01*
X578150Y524959D02*
X593819D01*
X570929Y434959D02*
X593819D01*
X578150Y448424D02*
X593818D01*
X578150Y515038D02*
X593791D01*
X578150Y458345D02*
X593790D01*
X578150Y505117D02*
X593763D01*
X578160Y478188D02*
X593736D01*
X492913Y665274D02*
X593713D01*
X492913Y668109D02*
X593712D01*
X578400Y475353D02*
X593690D01*
X578150Y507951D02*
X593668D01*
X578150Y455510D02*
X593648D01*
X578150Y517873D02*
X593647D01*
X578150Y445589D02*
X593629D01*
X578507Y527794D02*
X593629D01*
X573764Y437794D02*
X593629D01*
X578150Y468975D02*
X593625D01*
X578466Y525668D02*
X593612D01*
X571638Y435668D02*
X593612D01*
X578150Y447715D02*
X593611D01*
X578150Y515747D02*
X593596D01*
X578150Y457636D02*
X593595D01*
X578150Y494487D02*
X593590D01*
X492913Y658896D02*
X593588D01*
X578150Y505825D02*
X593581D01*
X578560Y477479D02*
X593567D01*
X492913Y665983D02*
X593555D01*
X492913Y667400D02*
X593555D01*
X578684Y476062D02*
X593545D01*
X578150Y507243D02*
X593535D01*
X578150Y456219D02*
X593527D01*
X578150Y517164D02*
X593527D01*
X536090Y654644D02*
X593521D01*
X578150Y446298D02*
X593520D01*
X578150Y498739D02*
X593520D01*
X578719Y527085D02*
X593520D01*
X573055Y437085D02*
X593520D01*
X578707Y526377D02*
X593514D01*
X572347Y436377D02*
X593514D01*
X578150Y447007D02*
X593514D01*
X578150Y516455D02*
X593510D01*
X578150Y456928D02*
X593510D01*
X578150Y506534D02*
X593506D01*
X578732Y476770D02*
X593505D01*
X492913Y666692D02*
X593504D01*
X578150Y464723D02*
X593489D01*
X578150Y468266D02*
X593348D01*
X578150Y495196D02*
X593326D01*
X532362Y658188D02*
X593325D01*
X535860Y655353D02*
X593282D01*
X578150Y498030D02*
X593281D01*
X578150Y465432D02*
X593262D01*
X578150Y467558D02*
X593181D01*
X578150Y495904D02*
X593169D01*
X534110Y657479D02*
X593169D01*
X535493Y656062D02*
X593148D01*
X578150Y497322D02*
X593148D01*
X578150Y466140D02*
X593139D01*
X578150Y466849D02*
X593113D01*
X578150Y496613D02*
X593111D01*
X534947Y656770D02*
X593111D01*
X503727Y528503D02*
X574771D01*
X507271Y524959D02*
X574606D01*
X507979Y524251D02*
X574606D01*
X508688Y523542D02*
X574606D01*
X509397Y522833D02*
X574606D01*
X510105Y522125D02*
X574606D01*
X510814Y521416D02*
X574606D01*
X511523Y520707D02*
X574606D01*
X512231Y519999D02*
X574606D01*
X512940Y519290D02*
X574606D01*
X513649Y518581D02*
X574606D01*
X557664Y517873D02*
X574606D01*
X558322Y517164D02*
X574606D01*
X558606Y516455D02*
X574606D01*
X558653Y515747D02*
X574606D01*
X558480Y515038D02*
X574606D01*
X558081Y514329D02*
X574606D01*
X558071Y513621D02*
X574606D01*
X558071Y512912D02*
X574606D01*
X558071Y512203D02*
X574606D01*
X558071Y511495D02*
X574606D01*
X558071Y510786D02*
X574606D01*
X558071Y510077D02*
X574606D01*
X558071Y509369D02*
X574606D01*
X558219Y508660D02*
X574606D01*
X558565Y507951D02*
X574606D01*
X558845Y507243D02*
X574606D01*
X559554Y506534D02*
X574606D01*
X560263Y505825D02*
X574606D01*
X560971Y505117D02*
X574606D01*
X561680Y504408D02*
X574606D01*
X562389Y503699D02*
X574606D01*
X563097Y502991D02*
X574606D01*
X563728Y502282D02*
X574606D01*
X563966Y501573D02*
X574606D01*
X563976Y500865D02*
X574606D01*
X563976Y500156D02*
X574606D01*
X563976Y499448D02*
X574606D01*
X563976Y498739D02*
X574606D01*
X563976Y498030D02*
X574606D01*
X563976Y497322D02*
X574606D01*
X563976Y496613D02*
X574606D01*
X563976Y495904D02*
X574606D01*
X563976Y495196D02*
X574606D01*
X563976Y494487D02*
X574606D01*
X563976Y493778D02*
X574606D01*
X563976Y493070D02*
X574606D01*
X563976Y492361D02*
X574606D01*
X563976Y491652D02*
X574606D01*
X563976Y490944D02*
X574606D01*
X563976Y490235D02*
X574606D01*
X563976Y489526D02*
X574606D01*
X563976Y488818D02*
X574606D01*
X563976Y488109D02*
X574606D01*
X563976Y487400D02*
X574606D01*
X563976Y486692D02*
X574606D01*
X563976Y485983D02*
X574606D01*
X563976Y485274D02*
X574606D01*
X563976Y484566D02*
X574606D01*
X563976Y483857D02*
X574606D01*
X563976Y483148D02*
X574606D01*
X563976Y482440D02*
X574606D01*
X563976Y481731D02*
X574606D01*
X563976Y481022D02*
X574606D01*
X563976Y480314D02*
X574606D01*
X563976Y479605D02*
X574606D01*
X563976Y478896D02*
X574606D01*
X563976Y474644D02*
X574606D01*
X563976Y473936D02*
X574606D01*
X563976Y473227D02*
X574606D01*
X563976Y472518D02*
X574606D01*
X563976Y471810D02*
X574606D01*
X563976Y471101D02*
X574606D01*
X563976Y470392D02*
X574606D01*
X563976Y469684D02*
X574606D01*
X563976Y468975D02*
X574606D01*
X563976Y468266D02*
X574606D01*
X563976Y467558D02*
X574606D01*
X563976Y466849D02*
X574606D01*
X563976Y466140D02*
X574606D01*
X563976Y465432D02*
X574606D01*
X563976Y464723D02*
X574606D01*
X563976Y464014D02*
X574606D01*
X563976Y463306D02*
X574606D01*
X563976Y462597D02*
X574606D01*
X563976Y461888D02*
X574606D01*
X563976Y461180D02*
X574606D01*
X563976Y460471D02*
X574606D01*
X563976Y459762D02*
X574606D01*
X563976Y459054D02*
X574606D01*
X563976Y458345D02*
X574606D01*
X563976Y457636D02*
X574606D01*
X563976Y456928D02*
X574606D01*
X563976Y456219D02*
X574606D01*
X563976Y455510D02*
X574606D01*
X563976Y454802D02*
X574606D01*
X563976Y454093D02*
X574606D01*
X563976Y453385D02*
X574606D01*
X563976Y452676D02*
X574606D01*
X563976Y451967D02*
X574606D01*
X563976Y451259D02*
X574606D01*
X563976Y450550D02*
X574606D01*
X563976Y449841D02*
X574606D01*
X563976Y449133D02*
X574606D01*
X563976Y448424D02*
X574606D01*
X563976Y447715D02*
X574606D01*
X563976Y447007D02*
X574606D01*
X563976Y446298D02*
X574606D01*
X563976Y445589D02*
X574606D01*
X563976Y444881D02*
X574606D01*
X563976Y444172D02*
X574606D01*
X563976Y478188D02*
X574595D01*
X563976Y443463D02*
X574422D01*
X563976Y475353D02*
X574356D01*
X506562Y525668D02*
X574289D01*
X504436Y527794D02*
X574248D01*
X563976Y477479D02*
X574196D01*
X563976Y476062D02*
X574072D01*
X505853Y526377D02*
X574049D01*
X505145Y527085D02*
X574037D01*
X563976Y476770D02*
X574024D01*
X563976Y442755D02*
X572891D01*
X563976Y442046D02*
X572320D01*
X563976Y441337D02*
X572080D01*
X563976Y440629D02*
X571588D01*
X563976Y439920D02*
X570879D01*
X563976Y439211D02*
X570170D01*
X563976Y438503D02*
X569462D01*
X563976Y437794D02*
X568753D01*
X563976Y437085D02*
X568044D01*
X564015Y436377D02*
X567336D01*
X564418Y435668D02*
X566627D01*
X564564Y434959D02*
X565918D01*
X564679Y434251D02*
X565209D01*
X532074Y500156D02*
X560433D01*
X532782Y499448D02*
X560433D01*
X533491Y498739D02*
X560433D01*
X534200Y498030D02*
X560433D01*
X534908Y497322D02*
X560433D01*
X535617Y496613D02*
X560433D01*
X536326Y495904D02*
X560433D01*
X537034Y495196D02*
X560433D01*
X537498Y494487D02*
X560433D01*
X537598Y493778D02*
X560433D01*
X537598Y493070D02*
X560433D01*
X537598Y492361D02*
X560433D01*
X543250Y491652D02*
X560433D01*
X544529Y490944D02*
X560433D01*
X545301Y490235D02*
X560433D01*
X545835Y489526D02*
X560433D01*
X546210Y488818D02*
X560433D01*
X546461Y488109D02*
X560433D01*
X546606Y487400D02*
X560433D01*
X546654Y486692D02*
X560433D01*
X546606Y485983D02*
X560433D01*
X546461Y485274D02*
X560433D01*
X546209Y484566D02*
X560433D01*
X545834Y483857D02*
X560433D01*
X545299Y483148D02*
X560433D01*
X544526Y482440D02*
X560433D01*
X543356Y481731D02*
X560433D01*
X543678Y481022D02*
X560433D01*
X544672Y480314D02*
X560433D01*
X545306Y479605D02*
X560433D01*
X545739Y478896D02*
X560433D01*
X546027Y478188D02*
X560433D01*
X546197Y477479D02*
X560433D01*
X546259Y476770D02*
X560433D01*
X546219Y476062D02*
X560433D01*
X546074Y475353D02*
X560433D01*
X545813Y474644D02*
X560433D01*
X545415Y473936D02*
X560433D01*
X544832Y473227D02*
X560433D01*
X543945Y472518D02*
X560433D01*
X541949Y471810D02*
X560433D01*
X494094Y471101D02*
X560433D01*
X494094Y470392D02*
X560433D01*
X494094Y469684D02*
X560433D01*
X494094Y468975D02*
X560433D01*
X494094Y468266D02*
X560433D01*
X494094Y467558D02*
X560433D01*
X494094Y466849D02*
X560433D01*
X494094Y466140D02*
X560433D01*
X494094Y465432D02*
X560433D01*
X494094Y464723D02*
X560433D01*
X494094Y464014D02*
X560433D01*
X494094Y463306D02*
X560433D01*
X494094Y462597D02*
X560433D01*
X494094Y461888D02*
X560433D01*
X494094Y461180D02*
X560433D01*
X494094Y460471D02*
X560433D01*
X494094Y459762D02*
X560433D01*
X494094Y459054D02*
X560433D01*
X494094Y458345D02*
X560433D01*
X494094Y457636D02*
X560433D01*
X494094Y456928D02*
X560433D01*
X494094Y456219D02*
X560433D01*
X494094Y455510D02*
X560433D01*
X494094Y454802D02*
X560433D01*
X494094Y454093D02*
X560433D01*
X494094Y453385D02*
X560433D01*
X494094Y452676D02*
X560433D01*
X494094Y451967D02*
X560433D01*
X494094Y451259D02*
X560433D01*
X494094Y450550D02*
X560433D01*
X494094Y449841D02*
X560433D01*
X494094Y449133D02*
X560433D01*
X494094Y448424D02*
X560433D01*
X494094Y447715D02*
X560433D01*
X494094Y447007D02*
X560433D01*
X494094Y446298D02*
X560433D01*
X494094Y445589D02*
X560433D01*
X494094Y444881D02*
X560433D01*
X494094Y444172D02*
X560433D01*
X494094Y443463D02*
X560433D01*
X494094Y442755D02*
X560433D01*
X494094Y442046D02*
X560433D01*
X494094Y441337D02*
X560433D01*
X494094Y440629D02*
X560433D01*
X494094Y439920D02*
X560433D01*
X494094Y439211D02*
X560433D01*
X494094Y438503D02*
X560433D01*
X494094Y437794D02*
X560433D01*
X494094Y437085D02*
X560433D01*
X494094Y432833D02*
X560433D01*
X494094Y436377D02*
X560394D01*
X494094Y433542D02*
X560233D01*
X531365Y500865D02*
X560212D01*
X494094Y432125D02*
X560131D01*
X494094Y435668D02*
X559991D01*
X494094Y434251D02*
X559918D01*
X494094Y434959D02*
X559845D01*
X530656Y501573D02*
X559504D01*
X494094Y431416D02*
X559422D01*
X529948Y502282D02*
X558795D01*
X494094Y430707D02*
X558714D01*
X529239Y502991D02*
X558086D01*
X494094Y429999D02*
X558005D01*
X528530Y503699D02*
X557378D01*
X494094Y429290D02*
X557296D01*
X527822Y504408D02*
X556669D01*
X494094Y428581D02*
X556588D01*
X494094Y427873D02*
X555879D01*
X527113Y505117D02*
X555358D01*
X494094Y427164D02*
X555170D01*
X514357Y517873D02*
X554934D01*
X518609Y513621D02*
X554528D01*
X519318Y512912D02*
X554528D01*
X520026Y512203D02*
X554528D01*
X520735Y511495D02*
X554528D01*
X521444Y510786D02*
X554528D01*
X522152Y510077D02*
X554528D01*
X522861Y509369D02*
X554528D01*
X517901Y514329D02*
X554517D01*
X494094Y426455D02*
X554462D01*
X526404Y505825D02*
X554441D01*
X523570Y508660D02*
X554380D01*
X515066Y517164D02*
X554276D01*
X517192Y515038D02*
X554118D01*
X525696Y506534D02*
X554059D01*
X524278Y507951D02*
X554033D01*
X515775Y516455D02*
X553993D01*
X516483Y515747D02*
X553945D01*
X524987Y507243D02*
X553937D01*
X494094Y425747D02*
X553753D01*
X494094Y425038D02*
X553044D01*
X494094Y424329D02*
X552336D01*
X494094Y423621D02*
X551627D01*
X494091Y422912D02*
X550918D01*
X493912Y422203D02*
X550210D01*
X493373Y421495D02*
X549501D01*
X492664Y420786D02*
X548792D01*
X491956Y420077D02*
X548084D01*
X491247Y419369D02*
X547375D01*
X490538Y418660D02*
X546666D01*
X489830Y417951D02*
X545958D01*
X496912Y417243D02*
X545249D01*
X528938Y695038D02*
X544572D01*
X497774Y416534D02*
X544540D01*
X493428Y682991D02*
X544087D01*
X498189Y415825D02*
X543832D01*
X498368Y415117D02*
X543123D01*
X498357Y414408D02*
X542414D01*
X528327Y694329D02*
X542346D01*
X492857Y683699D02*
X542211D01*
X498155Y413699D02*
X541706D01*
X520889Y693621D02*
X541317D01*
X507649Y684408D02*
X541230D01*
X507761Y412991D02*
X540997D01*
X504067Y471810D02*
X540728D01*
X521797Y692912D02*
X540612D01*
X508473Y685117D02*
X540549D01*
X508640Y412282D02*
X540288D01*
X522228Y692203D02*
X540096D01*
X508873Y685825D02*
X540050D01*
X522418Y691495D02*
X539717D01*
X509041Y686534D02*
X539683D01*
X509176Y411573D02*
X539580D01*
X492913Y631259D02*
X539451D01*
X522418Y690786D02*
X539448D01*
X537598Y491652D02*
X539427D01*
X509021Y687243D02*
X539425D01*
X522227Y690077D02*
X539273D01*
X508808Y687951D02*
X539260D01*
X521795Y689369D02*
X539186D01*
X520884Y688660D02*
X539181D01*
X509514Y410865D02*
X538871D01*
X486614Y566062D02*
X538798D01*
X505258Y472518D02*
X538732D01*
X492913Y630550D02*
X538559D01*
X509703Y410156D02*
X538162D01*
X537870Y490944D02*
X538114D01*
X486614Y566770D02*
X538089D01*
X492913Y629841D02*
X537850D01*
X505998Y473227D02*
X537845D01*
X509764Y409448D02*
X537454D01*
X486614Y567479D02*
X537381D01*
X506512Y473936D02*
X537262D01*
X492913Y629133D02*
X537142D01*
X506873Y474644D02*
X536864D01*
X509702Y408739D02*
X536745D01*
X486614Y568188D02*
X536672D01*
X507069Y478188D02*
X536650D01*
X506805Y478896D02*
X536630D01*
X507112Y475353D02*
X536603D01*
X507225Y477479D02*
X536481D01*
X507246Y476062D02*
X536458D01*
X492913Y628424D02*
X536433D01*
X507283Y476770D02*
X536418D01*
X509513Y408030D02*
X536036D01*
X486614Y568896D02*
X535963D01*
X506415Y479605D02*
X535921D01*
X492913Y627715D02*
X535724D01*
X509174Y407322D02*
X535328D01*
X486614Y569605D02*
X535255D01*
X505859Y480314D02*
X535212D01*
X492913Y627007D02*
X535016D01*
X508638Y406613D02*
X534619D01*
X486614Y570314D02*
X534546D01*
X505052Y481022D02*
X534507D01*
X492913Y626298D02*
X534307D01*
X504331Y481731D02*
X534120D01*
X494094Y492361D02*
X534055D01*
X503880Y491652D02*
X534055D01*
X505159Y490944D02*
X534055D01*
X505931Y490235D02*
X534055D01*
X506465Y489526D02*
X534055D01*
X506840Y488818D02*
X534055D01*
X507091Y488109D02*
X534055D01*
X507236Y487400D02*
X534055D01*
X507283Y486692D02*
X534055D01*
X507236Y485983D02*
X534055D01*
X507091Y485274D02*
X534055D01*
X506839Y484566D02*
X534055D01*
X506464Y483857D02*
X534055D01*
X505929Y483148D02*
X534055D01*
X505156Y482440D02*
X534055D01*
X494094Y493070D02*
X534049D01*
X507757Y405904D02*
X533911D01*
X486614Y571022D02*
X533837D01*
X492913Y625589D02*
X533598D01*
X494094Y493778D02*
X533441D01*
X497182Y405196D02*
X533202D01*
X486614Y571731D02*
X533129D01*
X492913Y624881D02*
X532890D01*
X494094Y494487D02*
X532732D01*
X473097Y404487D02*
X532493D01*
X486614Y572440D02*
X532420D01*
X492913Y624172D02*
X532181D01*
X494094Y495196D02*
X532023D01*
X473838Y403778D02*
X531752D01*
X486614Y573148D02*
X531711D01*
X492913Y623463D02*
X531472D01*
X494094Y495904D02*
X531315D01*
X486614Y573857D02*
X531003D01*
X492913Y622755D02*
X530764D01*
X512677Y658188D02*
X530630D01*
X494094Y496613D02*
X530606D01*
X486614Y574566D02*
X530294D01*
X513016Y648975D02*
X530291D01*
X492913Y622046D02*
X530055D01*
X494094Y497322D02*
X529897D01*
X513702Y547636D02*
X529605D01*
X490757Y575274D02*
X529585D01*
X492913Y621337D02*
X529346D01*
X514023Y539133D02*
X529284D01*
X494094Y498030D02*
X529189D01*
X514425Y657479D02*
X528883D01*
X491917Y575983D02*
X528877D01*
X514536Y649684D02*
X528771D01*
X492913Y620629D02*
X528638D01*
X494094Y498739D02*
X528480D01*
X514846Y546928D02*
X528461D01*
X515022Y539841D02*
X528285D01*
X492355Y576692D02*
X528168D01*
X515262Y656770D02*
X528046D01*
X515331Y650392D02*
X527976D01*
X492913Y619920D02*
X527929D01*
X515531Y546219D02*
X527776D01*
X494094Y499448D02*
X527771D01*
X515647Y540550D02*
X527660D01*
X515808Y656062D02*
X527499D01*
X492514Y577400D02*
X527459D01*
X515855Y651101D02*
X527452D01*
X515990Y545510D02*
X527317D01*
X516068Y541259D02*
X527239D01*
X492913Y619211D02*
X527220D01*
X516175Y655353D02*
X527132D01*
X516206Y651810D02*
X527101D01*
X494094Y500156D02*
X527063D01*
X516293Y544802D02*
X527014D01*
X516341Y541967D02*
X526966D01*
X516405Y654644D02*
X526902D01*
X516423Y652518D02*
X526884D01*
X516470Y544093D02*
X526838D01*
X516493Y542676D02*
X526814D01*
X516519Y653936D02*
X526788D01*
X516525Y653227D02*
X526782D01*
X516535Y543385D02*
X526772D01*
X492781Y578109D02*
X526751D01*
X492913Y618503D02*
X526512D01*
X494094Y500865D02*
X526354D01*
X492913Y578818D02*
X526042D01*
X492913Y617794D02*
X525803D01*
X494094Y501573D02*
X525645D01*
X492913Y579526D02*
X525333D01*
X492913Y617085D02*
X525094D01*
X494094Y502282D02*
X524937D01*
X514547Y694329D02*
X524823D01*
X514550Y698581D02*
X524820D01*
X492913Y580235D02*
X524625D01*
X492913Y597951D02*
X524623D01*
X492913Y598660D02*
X524616D01*
X492913Y616377D02*
X524386D01*
X494094Y502991D02*
X524228D01*
X515158Y695038D02*
X524212D01*
X515160Y697873D02*
X524210D01*
X492913Y580944D02*
X523916D01*
X515458Y695747D02*
X523912D01*
X515459Y697164D02*
X523911D01*
X515551Y696455D02*
X523819D01*
X492913Y615668D02*
X523677D01*
X494094Y503699D02*
X523519D01*
X492913Y581652D02*
X523207D01*
X492913Y614959D02*
X522968D01*
X494094Y504408D02*
X522811D01*
X492913Y582361D02*
X522499D01*
X492913Y614251D02*
X522260D01*
X494094Y505117D02*
X522102D01*
X492913Y583070D02*
X521790D01*
X492913Y613542D02*
X521551D01*
X494094Y505825D02*
X521393D01*
X492913Y583778D02*
X521081D01*
X492913Y612833D02*
X520842D01*
X494094Y506534D02*
X520685D01*
X492913Y584487D02*
X520373D01*
X492913Y612125D02*
X520134D01*
X494094Y507243D02*
X519976D01*
X492913Y585196D02*
X519540D01*
X492913Y611416D02*
X519425D01*
X494094Y507951D02*
X519267D01*
X492913Y610707D02*
X518716D01*
X494094Y508660D02*
X518559D01*
X508343Y688660D02*
X518486D01*
X465740Y693621D02*
X518481D01*
X492913Y585904D02*
X518282D01*
X492913Y609999D02*
X518008D01*
X494094Y509369D02*
X517850D01*
X492913Y586613D02*
X517578D01*
X507325Y689369D02*
X517575D01*
X465735Y692912D02*
X517573D01*
X492913Y609290D02*
X517299D01*
X464823Y690077D02*
X517143D01*
X465647Y692203D02*
X517142D01*
X494094Y510077D02*
X517141D01*
X492913Y587322D02*
X517120D01*
X465203Y690786D02*
X516952D01*
X465473Y691495D02*
X516952D01*
X492913Y588030D02*
X516814D01*
X492913Y608581D02*
X516590D01*
X492913Y599369D02*
X516478D01*
X494094Y510786D02*
X516433D01*
X492913Y588739D02*
X516121D01*
X492913Y597243D02*
X516015D01*
X492913Y607873D02*
X515882D01*
X494094Y511495D02*
X515724D01*
X492913Y600077D02*
X515496D01*
X492913Y589448D02*
X515443D01*
X492913Y596534D02*
X515324D01*
X492913Y607164D02*
X515283D01*
X492913Y600786D02*
X515096D01*
X492913Y590156D02*
X515073D01*
X492913Y595825D02*
X515026D01*
X494094Y512203D02*
X515016D01*
X492913Y606455D02*
X515010D01*
X492913Y601495D02*
X514962D01*
X492913Y590865D02*
X514961D01*
X492913Y605747D02*
X514961D01*
X492913Y605038D02*
X514961D01*
X492913Y604329D02*
X514961D01*
X492913Y603621D02*
X514961D01*
X492913Y602912D02*
X514961D01*
X492913Y602203D02*
X514961D01*
X492913Y595117D02*
X514961D01*
X492913Y594408D02*
X514961D01*
X492913Y593699D02*
X514961D01*
X492913Y592991D02*
X514961D01*
X492913Y592282D02*
X514961D01*
X492913Y591573D02*
X514961D01*
X494094Y512912D02*
X514307D01*
X494094Y513621D02*
X513598D01*
X494094Y514329D02*
X512890D01*
X494094Y515038D02*
X512181D01*
X494094Y515747D02*
X511472D01*
X465662Y694329D02*
X511043D01*
X462715Y698581D02*
X511040D01*
X492913Y658188D02*
X510945D01*
X494094Y516455D02*
X510764D01*
X492913Y648975D02*
X510606D01*
X465497Y695038D02*
X510433D01*
X463695Y697873D02*
X510431D01*
X465239Y695747D02*
X510132D01*
X464375Y697164D02*
X510132D01*
X494094Y517164D02*
X510055D01*
X464873Y696455D02*
X510039D01*
X486614Y547636D02*
X509920D01*
X493097Y539133D02*
X509599D01*
X494094Y517873D02*
X509346D01*
X492913Y657479D02*
X509198D01*
X492913Y649684D02*
X509086D01*
X486614Y546928D02*
X508776D01*
X494094Y518581D02*
X508638D01*
X492389Y539841D02*
X508600D01*
X492913Y656770D02*
X508360D01*
X492913Y650392D02*
X508291D01*
X486614Y546219D02*
X508091D01*
X491680Y540550D02*
X507975D01*
X494094Y519290D02*
X507929D01*
X492913Y656062D02*
X507814D01*
X492913Y651101D02*
X507767D01*
X486720Y545510D02*
X507632D01*
X490971Y541259D02*
X507554D01*
X492913Y655353D02*
X507447D01*
X492913Y651810D02*
X507416D01*
X487428Y544802D02*
X507329D01*
X490263Y541967D02*
X507281D01*
X494094Y519999D02*
X507220D01*
X492913Y654644D02*
X507217D01*
X492913Y652518D02*
X507199D01*
X488137Y544093D02*
X507152D01*
X489554Y542676D02*
X507129D01*
X492913Y653936D02*
X507103D01*
X492913Y653227D02*
X507097D01*
X488845Y543385D02*
X507087D01*
X494094Y520707D02*
X506512D01*
X494094Y521416D02*
X505803D01*
X503388Y689369D02*
X505273D01*
X494094Y522125D02*
X505094D01*
X503712Y684408D02*
X504950D01*
X494094Y522833D02*
X504386D01*
X494094Y523542D02*
X503677D01*
X498447Y405904D02*
X503503D01*
X498450Y412991D02*
X503498D01*
X494094Y524251D02*
X502968D01*
X499159Y406613D02*
X502622D01*
X499161Y412282D02*
X502620D01*
X494094Y524959D02*
X502260D01*
X499627Y407322D02*
X502085D01*
X499628Y411573D02*
X502084D01*
X499929Y408030D02*
X501747D01*
X499930Y410865D02*
X501746D01*
X500101Y408739D02*
X501557D01*
X500102Y410156D02*
X501557D01*
X494094Y525668D02*
X501551D01*
X500157Y409448D02*
X501496D01*
X499451Y689369D02*
X501336D01*
X499775Y684408D02*
X501013D01*
X494094Y526377D02*
X500842D01*
X494094Y527085D02*
X500134D01*
X494094Y491652D02*
X500057D01*
X494094Y471810D02*
X499870D01*
X494094Y481731D02*
X499606D01*
X494414Y527794D02*
X499425D01*
X494094Y481022D02*
X498885D01*
X494094Y482440D02*
X498781D01*
X494094Y490944D02*
X498778D01*
X494755Y528503D02*
X498716D01*
X494094Y472518D02*
X498679D01*
X494094Y480314D02*
X498078D01*
X494094Y483148D02*
X498008D01*
X494879Y529211D02*
X498008D01*
X494094Y490235D02*
X498006D01*
X494094Y473227D02*
X497939D01*
X494094Y479605D02*
X497522D01*
X494094Y483857D02*
X497473D01*
X494094Y489526D02*
X497472D01*
X494094Y473936D02*
X497425D01*
X464307Y689369D02*
X497399D01*
X494818Y529920D02*
X497299D01*
X494094Y478896D02*
X497132D01*
X494094Y484566D02*
X497098D01*
X494094Y488818D02*
X497097D01*
X396063Y684408D02*
X497076D01*
X494094Y474644D02*
X497064D01*
X494094Y478188D02*
X496868D01*
X494094Y485274D02*
X496846D01*
X494094Y488109D02*
X496846D01*
X494094Y475353D02*
X496825D01*
X494094Y477479D02*
X496712D01*
X494094Y485983D02*
X496701D01*
X494094Y487400D02*
X496701D01*
X494094Y476062D02*
X496691D01*
X494094Y476770D02*
X496654D01*
X494094Y486692D02*
X496654D01*
X494557Y530629D02*
X496590D01*
X463601Y688660D02*
X496382D01*
X396063Y685117D02*
X496252D01*
X462571Y687951D02*
X495916D01*
X494015Y531337D02*
X495882D01*
X396063Y685825D02*
X495852D01*
X460326Y687243D02*
X495703D01*
X396063Y686534D02*
X495683D01*
X492598Y532046D02*
X495173D01*
X484646Y532755D02*
X494464D01*
X489121Y417243D02*
X494348D01*
X487182Y405196D02*
X494078D01*
X484646Y533463D02*
X493756D01*
X488412Y416534D02*
X493485D01*
X487604Y413699D02*
X493105D01*
X487704Y415825D02*
X493071D01*
X484646Y534172D02*
X493047D01*
X487598Y414408D02*
X492902D01*
X487598Y415117D02*
X492892D01*
X488447Y405904D02*
X492813D01*
X488450Y412991D02*
X492810D01*
X484646Y534881D02*
X492338D01*
X489159Y406613D02*
X492101D01*
X489161Y412282D02*
X492098D01*
X484646Y532046D02*
X491654D01*
X489627Y407322D02*
X491633D01*
X489628Y411573D02*
X491632D01*
X484646Y535589D02*
X491630D01*
X489929Y408030D02*
X491330D01*
X489930Y410865D02*
X491329D01*
X490101Y408739D02*
X491158D01*
X490102Y410156D02*
X491158D01*
X490157Y409448D02*
X491102D01*
X484646Y536298D02*
X490921D01*
X484646Y531337D02*
X490237D01*
X484646Y537007D02*
X490212D01*
X487008Y527085D02*
X490157D01*
X487008Y526377D02*
X490157D01*
X487008Y525668D02*
X490157D01*
X487008Y524959D02*
X490157D01*
X487008Y524251D02*
X490157D01*
X487008Y523542D02*
X490157D01*
X487008Y522833D02*
X490157D01*
X487008Y522125D02*
X490157D01*
X487008Y521416D02*
X490157D01*
X487008Y520707D02*
X490157D01*
X487008Y519999D02*
X490157D01*
X487008Y519290D02*
X490157D01*
X487008Y518581D02*
X490157D01*
X487008Y517873D02*
X490157D01*
X487008Y517164D02*
X490157D01*
X487008Y516455D02*
X490157D01*
X487008Y515747D02*
X490157D01*
X487008Y515038D02*
X490157D01*
X487008Y514329D02*
X490157D01*
X487008Y513621D02*
X490157D01*
X487008Y512912D02*
X490157D01*
X487008Y512203D02*
X490157D01*
X487008Y511495D02*
X490157D01*
X487008Y510786D02*
X490157D01*
X487008Y510077D02*
X490157D01*
X487008Y509369D02*
X490157D01*
X487922Y508660D02*
X490157D01*
X488613Y507951D02*
X490157D01*
X488911Y507243D02*
X490157D01*
X488971Y506534D02*
X490157D01*
X488811Y505825D02*
X490157D01*
X488374Y505117D02*
X490157D01*
X487214Y504408D02*
X490157D01*
X471457Y503699D02*
X490157D01*
X471457Y502991D02*
X490157D01*
X471457Y502282D02*
X490157D01*
X471457Y501573D02*
X490157D01*
X471457Y500865D02*
X490157D01*
X471457Y500156D02*
X490157D01*
X471457Y499448D02*
X490157D01*
X471457Y498739D02*
X490157D01*
X471457Y498030D02*
X490157D01*
X471457Y497322D02*
X490157D01*
X471457Y496613D02*
X490157D01*
X471457Y495904D02*
X490157D01*
X471457Y495196D02*
X490157D01*
X471457Y494487D02*
X490157D01*
X471457Y493778D02*
X490157D01*
X471457Y493070D02*
X490157D01*
X471457Y492361D02*
X490157D01*
X471457Y491652D02*
X490157D01*
X471457Y490944D02*
X490157D01*
X471457Y490235D02*
X490157D01*
X471457Y489526D02*
X490157D01*
X471457Y488818D02*
X490157D01*
X471457Y488109D02*
X490157D01*
X471457Y487400D02*
X490157D01*
X471457Y486692D02*
X490157D01*
X471457Y485983D02*
X490157D01*
X471457Y485274D02*
X490157D01*
X471457Y484566D02*
X490157D01*
X471457Y483857D02*
X490157D01*
X471457Y483148D02*
X490157D01*
X471457Y482440D02*
X490157D01*
X471457Y481731D02*
X490157D01*
X471457Y481022D02*
X490157D01*
X471457Y480314D02*
X490157D01*
X471457Y479605D02*
X490157D01*
X471457Y478896D02*
X490157D01*
X471457Y478188D02*
X490157D01*
X471457Y477479D02*
X490157D01*
X471457Y476770D02*
X490157D01*
X471457Y476062D02*
X490157D01*
X471457Y475353D02*
X490157D01*
X471457Y474644D02*
X490157D01*
X471457Y473936D02*
X490157D01*
X471457Y473227D02*
X490157D01*
X471638Y472518D02*
X490157D01*
X472347Y471810D02*
X490157D01*
X473055Y471101D02*
X490157D01*
X473764Y470392D02*
X490157D01*
X474473Y469684D02*
X490157D01*
X475181Y468975D02*
X490157D01*
X475890Y468266D02*
X490157D01*
X476598Y467558D02*
X490157D01*
X477307Y466849D02*
X490157D01*
X478016Y466140D02*
X490157D01*
X478724Y465432D02*
X490157D01*
X479433Y464723D02*
X490157D01*
X480142Y464014D02*
X490157D01*
X480850Y463306D02*
X490157D01*
X481559Y462597D02*
X490157D01*
X482268Y461888D02*
X490157D01*
X482976Y461180D02*
X490157D01*
X483685Y460471D02*
X490157D01*
X484394Y459762D02*
X490157D01*
X485102Y459054D02*
X490157D01*
X485811Y458345D02*
X490157D01*
X486520Y457636D02*
X490157D01*
X487228Y456928D02*
X490157D01*
X487937Y456219D02*
X490157D01*
X488646Y455510D02*
X490157D01*
X489354Y454802D02*
X490129D01*
X487007Y527794D02*
X489838D01*
X486164Y683699D02*
X489820D01*
X488488Y585196D02*
X489764D01*
X487780Y584487D02*
X489764D01*
X487071Y583778D02*
X489764D01*
X486614Y583070D02*
X489764D01*
X486614Y582361D02*
X489764D01*
X486614Y581652D02*
X489764D01*
X486614Y580944D02*
X489764D01*
X486614Y580235D02*
X489764D01*
X484787Y530629D02*
X489695D01*
X486614Y575274D02*
X489558D01*
X484646Y537715D02*
X489504D01*
X486820Y528503D02*
X489497D01*
X489282Y585904D02*
X489458D01*
X485496Y529920D02*
X489434D01*
X486205Y529211D02*
X489373D01*
X486736Y682991D02*
X489249D01*
X488176Y680865D02*
X489200D01*
X486975Y682282D02*
X489009D01*
X487467Y681573D02*
X488998D01*
X486614Y579526D02*
X488850D01*
X484646Y538424D02*
X488795D01*
X486614Y575983D02*
X488398D01*
X486614Y578818D02*
X488158D01*
X484646Y539133D02*
X488086D01*
X486614Y576692D02*
X487960D01*
X486614Y578109D02*
X487860D01*
X486614Y577400D02*
X487801D01*
X438252Y675904D02*
X487795D01*
X437544Y675196D02*
X487795D01*
X436835Y674487D02*
X487795D01*
X436126Y673778D02*
X487795D01*
X435418Y673070D02*
X487795D01*
X434709Y672361D02*
X487795D01*
X434000Y671652D02*
X487795D01*
X433292Y670944D02*
X487795D01*
X432583Y670235D02*
X487795D01*
X431874Y669526D02*
X487795D01*
X431300Y668818D02*
X487795D01*
X431299Y668109D02*
X487795D01*
X431299Y667400D02*
X487795D01*
X431299Y666692D02*
X487795D01*
X431299Y665983D02*
X487795D01*
X431299Y665274D02*
X487795D01*
X431299Y664566D02*
X487795D01*
X431299Y663857D02*
X487795D01*
X431299Y663148D02*
X487795D01*
X431299Y662440D02*
X487795D01*
X431447Y661731D02*
X487795D01*
X431793Y661022D02*
X487795D01*
X431889Y660314D02*
X487795D01*
X431768Y659605D02*
X487795D01*
X431386Y658896D02*
X487795D01*
X431299Y658188D02*
X487795D01*
X431299Y657479D02*
X487795D01*
X431299Y656770D02*
X487795D01*
X431299Y656062D02*
X487795D01*
X478290Y655353D02*
X487795D01*
X478862Y654644D02*
X487795D01*
X479101Y653936D02*
X487795D01*
X479113Y653227D02*
X487795D01*
X478900Y652518D02*
X487795D01*
X478398Y651810D02*
X487795D01*
X478346Y651101D02*
X487795D01*
X478346Y650392D02*
X487795D01*
X478346Y649684D02*
X487795D01*
X478346Y648975D02*
X487795D01*
X478346Y648266D02*
X487795D01*
X478346Y647558D02*
X487795D01*
X478346Y646849D02*
X487795D01*
X478346Y646140D02*
X487795D01*
X478346Y645432D02*
X487795D01*
X478346Y644723D02*
X487795D01*
X478346Y644014D02*
X487795D01*
X478346Y643306D02*
X487795D01*
X478346Y642597D02*
X487795D01*
X478346Y641888D02*
X487795D01*
X478346Y641180D02*
X487795D01*
X478346Y640471D02*
X487795D01*
X478346Y639762D02*
X487795D01*
X478346Y639054D02*
X487795D01*
X478346Y638345D02*
X487795D01*
X478346Y637636D02*
X487795D01*
X478346Y636928D02*
X487795D01*
X478346Y636219D02*
X487795D01*
X478346Y635510D02*
X487795D01*
X438961Y676613D02*
X487417D01*
X484646Y539841D02*
X487378D01*
X439670Y677322D02*
X486708D01*
X484646Y540550D02*
X486669D01*
X463036Y449841D02*
X486614D01*
X463744Y449133D02*
X486614D01*
X464453Y448424D02*
X486614D01*
X465161Y447715D02*
X486614D01*
X465870Y447007D02*
X486614D01*
X466579Y446298D02*
X486614D01*
X467287Y445589D02*
X486614D01*
X472203Y444881D02*
X486614D01*
X472877Y444172D02*
X486614D01*
X473168Y443463D02*
X486614D01*
X473222Y442755D02*
X486614D01*
X473055Y442046D02*
X486614D01*
X472608Y441337D02*
X486614D01*
X472679Y440629D02*
X486614D01*
X473087Y439920D02*
X486614D01*
X473226Y439211D02*
X486614D01*
X473148Y438503D02*
X486614D01*
X472825Y437794D02*
X486614D01*
X472076Y437085D02*
X486614D01*
X471758Y436377D02*
X486614D01*
X472465Y435668D02*
X486614D01*
X483104Y434959D02*
X486614D01*
X483850Y434251D02*
X486614D01*
X484172Y433542D02*
X486614D01*
X484250Y432833D02*
X486614D01*
X484109Y432125D02*
X486614D01*
X483700Y431416D02*
X486614D01*
X483634Y430707D02*
X486614D01*
X484080Y429999D02*
X486614D01*
X484245Y429290D02*
X486614D01*
X484191Y428581D02*
X486614D01*
X483899Y427873D02*
X486614D01*
X483223Y427164D02*
X486614D01*
X462467Y426455D02*
X486614D01*
X463176Y425747D02*
X486614D01*
X462327Y450550D02*
X486236D01*
X478346Y629841D02*
X486220D01*
X478346Y629133D02*
X486220D01*
X478346Y628424D02*
X486220D01*
X478346Y627715D02*
X486220D01*
X478346Y627007D02*
X486220D01*
X478346Y626298D02*
X486220D01*
X478346Y625589D02*
X486220D01*
X478346Y624881D02*
X486220D01*
X478346Y624172D02*
X486220D01*
X478346Y623463D02*
X486220D01*
X478346Y622755D02*
X486220D01*
X478346Y622046D02*
X486220D01*
X478346Y621337D02*
X486220D01*
X478346Y620629D02*
X486220D01*
X478346Y619920D02*
X486220D01*
X478346Y619211D02*
X486220D01*
X478346Y618503D02*
X486220D01*
X478346Y617794D02*
X486220D01*
X484688Y617085D02*
X486220D01*
X463885Y425038D02*
X486115D01*
X483277Y504408D02*
X486014D01*
X440378Y678030D02*
X486000D01*
X484646Y541259D02*
X485960D01*
X478346Y630550D02*
X485587D01*
X478346Y634802D02*
X485582D01*
X461618Y451259D02*
X485527D01*
X464593Y424329D02*
X485407D01*
X441087Y678739D02*
X485291D01*
X484849Y541967D02*
X485230D01*
X484471Y505117D02*
X484821D01*
X460910Y451967D02*
X484819D01*
X478346Y631259D02*
X484725D01*
X478346Y634093D02*
X484723D01*
X465302Y423621D02*
X484698D01*
X441796Y679448D02*
X484581D01*
X478346Y631967D02*
X484361D01*
X478346Y633385D02*
X484360D01*
X478346Y632676D02*
X484252D01*
X460201Y452676D02*
X484110D01*
X472389Y405196D02*
X484078D01*
X466011Y422912D02*
X483989D01*
X480751Y617085D02*
X483815D01*
X482108Y413699D02*
X483656D01*
X482816Y414408D02*
X483647D01*
X459492Y453385D02*
X483401D01*
X466719Y422203D02*
X483281D01*
X396063Y683699D02*
X483110D01*
X477757Y405904D02*
X482813D01*
X481399Y412991D02*
X482810D01*
X458784Y454093D02*
X482693D01*
X482048Y616377D02*
X482518D01*
X478638Y406613D02*
X482101D01*
X480690Y412282D02*
X482098D01*
X471457Y504408D02*
X482077D01*
X458075Y454802D02*
X481984D01*
X472622Y417951D02*
X481702D01*
X479174Y407322D02*
X481633D01*
X479982Y411573D02*
X481632D01*
X479513Y408030D02*
X481330D01*
X479518Y410865D02*
X481329D01*
X457366Y455510D02*
X481275D01*
X471914Y417243D02*
X481197D01*
X479702Y408739D02*
X481158D01*
X479703Y410156D02*
X481158D01*
X479764Y409448D02*
X481102D01*
X471457Y505117D02*
X480918D01*
X479811Y516455D02*
X480709D01*
X478894Y515747D02*
X480709D01*
X473368Y515038D02*
X480709D01*
X472659Y514329D02*
X480709D01*
X471950Y513621D02*
X480709D01*
X473173Y434959D02*
X480676D01*
X471457Y507951D02*
X480645D01*
X456658Y456219D02*
X480567D01*
X461759Y427164D02*
X480557D01*
X471578Y416534D02*
X480488D01*
X471457Y505825D02*
X480480D01*
X471457Y512912D02*
X480477D01*
X471457Y507243D02*
X480380D01*
X471457Y506534D02*
X480320D01*
X461050Y427873D02*
X479880D01*
X478346Y617085D02*
X479878D01*
X455949Y456928D02*
X479858D01*
X471457Y508660D02*
X479799D01*
X471263Y415825D02*
X479779D01*
X460341Y428581D02*
X479588D01*
X459633Y429290D02*
X479471D01*
X471457Y512203D02*
X479341D01*
X455240Y457636D02*
X479149D01*
X471457Y509369D02*
X479105D01*
X470534Y415117D02*
X479071D01*
X471457Y511495D02*
X478904D01*
X471457Y510077D02*
X478806D01*
X471457Y510786D02*
X478745D01*
X454532Y458345D02*
X478441D01*
X469079Y414408D02*
X478362D01*
X453823Y459054D02*
X477732D01*
X468370Y413699D02*
X477653D01*
X453114Y459762D02*
X477023D01*
X474076Y515747D02*
X477012D01*
X452756Y460471D02*
X476315D01*
X474785Y516455D02*
X476094D01*
X452756Y461180D02*
X475606D01*
X431299Y655353D02*
X475253D01*
X431814Y651101D02*
X475197D01*
X431500Y650392D02*
X475197D01*
X430770Y649684D02*
X475197D01*
X423900Y648975D02*
X475197D01*
X424807Y648266D02*
X475197D01*
X425297Y647558D02*
X475197D01*
X425566Y646849D02*
X475197D01*
X425667Y646140D02*
X475197D01*
X425617Y645432D02*
X475197D01*
X425406Y644723D02*
X475197D01*
X424999Y644014D02*
X475197D01*
X424275Y643306D02*
X475197D01*
X396063Y642597D02*
X475197D01*
X396063Y641888D02*
X475197D01*
X396063Y641180D02*
X475197D01*
X396063Y640471D02*
X475197D01*
X396063Y639762D02*
X475197D01*
X423743Y639054D02*
X475197D01*
X437838Y638345D02*
X475197D01*
X439127Y637636D02*
X475197D01*
X439584Y636928D02*
X475197D01*
X439756Y636219D02*
X475197D01*
X440142Y635510D02*
X475197D01*
X440850Y634802D02*
X475197D01*
X441559Y634093D02*
X475197D01*
X442268Y633385D02*
X475197D01*
X442976Y632676D02*
X475197D01*
X443685Y631967D02*
X475197D01*
X444394Y631259D02*
X475197D01*
X445102Y630550D02*
X475197D01*
X445811Y629841D02*
X475197D01*
X446520Y629133D02*
X475197D01*
X447228Y628424D02*
X475197D01*
X447937Y627715D02*
X475197D01*
X448646Y627007D02*
X475197D01*
X449354Y626298D02*
X475197D01*
X450063Y625589D02*
X475197D01*
X450772Y624881D02*
X475197D01*
X451480Y624172D02*
X475197D01*
X457227Y623463D02*
X475197D01*
X457799Y622755D02*
X475197D01*
X458038Y622046D02*
X475197D01*
X458252Y621337D02*
X475197D01*
X458961Y620629D02*
X475197D01*
X459669Y619920D02*
X475197D01*
X460151Y619211D02*
X475197D01*
X460236Y618503D02*
X475197D01*
X460236Y617794D02*
X475197D01*
X460236Y617085D02*
X475197D01*
X460236Y616377D02*
X475197D01*
X460236Y615668D02*
X475197D01*
X460236Y614959D02*
X475197D01*
X460236Y614251D02*
X475197D01*
X460176Y609999D02*
X475157D01*
X431887Y651810D02*
X475145D01*
X460750Y610707D02*
X474945D01*
X452756Y461888D02*
X474897D01*
X460289Y613542D02*
X474824D01*
X431299Y654644D02*
X474682D01*
X431741Y652518D02*
X474643D01*
X457499Y609290D02*
X474642D01*
X460990Y611416D02*
X474545D01*
X460791Y612833D02*
X474495D01*
X431299Y653936D02*
X474442D01*
X431338Y653227D02*
X474431D01*
X457480Y608581D02*
X474430D01*
X461003Y612125D02*
X474411D01*
X452756Y462597D02*
X474189D01*
X457480Y607873D02*
X474150D01*
X457480Y607164D02*
X473694D01*
X457480Y606455D02*
X473622D01*
X457480Y605747D02*
X473622D01*
X457480Y605038D02*
X473622D01*
X457480Y604329D02*
X473622D01*
X457480Y603621D02*
X473622D01*
X457480Y602912D02*
X473622D01*
X457480Y602203D02*
X473622D01*
X457480Y601495D02*
X473622D01*
X457480Y600786D02*
X473622D01*
X457480Y600077D02*
X473622D01*
X471838Y599369D02*
X473622D01*
X472496Y598660D02*
X473622D01*
X472779Y597951D02*
X473622D01*
X471680Y405904D02*
X473503D01*
X467938Y412991D02*
X473498D01*
X452756Y463306D02*
X473480D01*
X452756Y464014D02*
X472771D01*
X470971Y406613D02*
X472622D01*
X468640Y412282D02*
X472620D01*
X470263Y407322D02*
X472085D01*
X469176Y411573D02*
X472084D01*
X452756Y464723D02*
X472063D01*
X469604Y408030D02*
X471747D01*
X469514Y410865D02*
X471746D01*
X457480Y592991D02*
X471654D01*
X457480Y592282D02*
X471654D01*
X457480Y591573D02*
X471654D01*
X457480Y590865D02*
X471654D01*
X457480Y590156D02*
X471654D01*
X457480Y589448D02*
X471654D01*
X457480Y588739D02*
X471654D01*
X457527Y588030D02*
X471654D01*
X458213Y587322D02*
X471654D01*
X458921Y586613D02*
X471654D01*
X459630Y585904D02*
X471654D01*
X460339Y585196D02*
X471654D01*
X461047Y584487D02*
X471654D01*
X461756Y583778D02*
X471654D01*
X462465Y583070D02*
X471654D01*
X463173Y582361D02*
X471654D01*
X463882Y581652D02*
X471654D01*
X464591Y580944D02*
X471654D01*
X465299Y580235D02*
X471654D01*
X466008Y579526D02*
X471654D01*
X466717Y578818D02*
X471654D01*
X467425Y578109D02*
X471654D01*
X459843Y567479D02*
X471654D01*
X459843Y566770D02*
X471654D01*
X459843Y566062D02*
X471654D01*
X459843Y565353D02*
X471654D01*
X459843Y564644D02*
X471654D01*
X459843Y563936D02*
X471654D01*
X459843Y563227D02*
X471654D01*
X459843Y562518D02*
X471654D01*
X459843Y561810D02*
X471654D01*
X459843Y561101D02*
X471654D01*
X459843Y560392D02*
X471654D01*
X459742Y559684D02*
X471654D01*
X459447Y558975D02*
X471654D01*
X459313Y558266D02*
X471654D01*
X458914Y557558D02*
X471654D01*
X457931Y556849D02*
X471654D01*
X457602Y556140D02*
X471654D01*
X457841Y555432D02*
X471654D01*
X457853Y554723D02*
X471654D01*
X457640Y554014D02*
X471654D01*
X457116Y553306D02*
X471654D01*
X454385Y552597D02*
X471654D01*
X454331Y551888D02*
X471654D01*
X454331Y551180D02*
X471654D01*
X454331Y550471D02*
X471654D01*
X454331Y549762D02*
X471654D01*
X454331Y549054D02*
X471654D01*
X454331Y548345D02*
X471654D01*
X454331Y547636D02*
X471654D01*
X454331Y546928D02*
X471654D01*
X454331Y546219D02*
X471654D01*
X454331Y545510D02*
X471654D01*
X454331Y544802D02*
X471654D01*
X454331Y544093D02*
X471654D01*
X454331Y543385D02*
X471654D01*
X454331Y542676D02*
X471654D01*
X454331Y541967D02*
X471654D01*
X454331Y541259D02*
X471654D01*
X454331Y540550D02*
X471654D01*
X454331Y539841D02*
X471654D01*
X454331Y539133D02*
X471654D01*
X454331Y538424D02*
X471654D01*
X454331Y537715D02*
X471654D01*
X454331Y537007D02*
X471654D01*
X454331Y536298D02*
X471654D01*
X454331Y535589D02*
X471654D01*
X454331Y534881D02*
X471654D01*
X454331Y534172D02*
X471654D01*
X454331Y533463D02*
X471654D01*
X454331Y532755D02*
X471654D01*
X454331Y532046D02*
X471654D01*
X454331Y531337D02*
X471654D01*
X454331Y530629D02*
X471654D01*
X454331Y529920D02*
X471654D01*
X454331Y529211D02*
X471654D01*
X454331Y528503D02*
X471654D01*
X454331Y527794D02*
X471654D01*
X454331Y527085D02*
X471654D01*
X454331Y526377D02*
X471654D01*
X454331Y525668D02*
X471654D01*
X454331Y524959D02*
X471654D01*
X454331Y524251D02*
X471654D01*
X454331Y523542D02*
X471654D01*
X454331Y522833D02*
X471654D01*
X454331Y522125D02*
X471654D01*
X454331Y521416D02*
X471654D01*
X454331Y520707D02*
X471647D01*
X457480Y593699D02*
X471638D01*
X468134Y577400D02*
X471571D01*
X469702Y408739D02*
X471557D01*
X469703Y410156D02*
X471557D01*
X469764Y409448D02*
X471496D01*
X471072Y568188D02*
X471427D01*
X458924Y429999D02*
X471356D01*
X452756Y465432D02*
X471354D01*
X467428Y421495D02*
X471179D01*
X454331Y519999D02*
X471036D01*
X457480Y594408D02*
X471000D01*
X452756Y466140D02*
X470645D01*
X458215Y430707D02*
X470609D01*
X468137Y420786D02*
X470446D01*
X454331Y519290D02*
X470328D01*
X445223Y402361D02*
X470193D01*
X457480Y595117D02*
X470050D01*
X452756Y466849D02*
X469937D01*
X457507Y431416D02*
X469900D01*
X459843Y568188D02*
X469873D01*
X468845Y420077D02*
X469737D01*
X454331Y518581D02*
X469619D01*
X467996Y444881D02*
X469529D01*
X444515Y403070D02*
X469504D01*
X452756Y467558D02*
X469228D01*
X456798Y432125D02*
X469192D01*
X457480Y599369D02*
X469107D01*
X454331Y517873D02*
X468911D01*
X443806Y403778D02*
X468795D01*
X457480Y595825D02*
X468749D01*
X459843Y568896D02*
X468713D01*
X452756Y468266D02*
X468519D01*
X456089Y432833D02*
X468483D01*
X457480Y598660D02*
X468449D01*
X457480Y596534D02*
X468291D01*
X459843Y569605D02*
X468275D01*
X454331Y517164D02*
X468202D01*
X457480Y597951D02*
X468166D01*
X457480Y597243D02*
X468119D01*
X459843Y570314D02*
X468116D01*
X443097Y404487D02*
X468086D01*
X452756Y468975D02*
X467811D01*
X455661Y433542D02*
X467774D01*
X459843Y571022D02*
X467695D01*
X454331Y516455D02*
X467493D01*
X442389Y405196D02*
X467378D01*
X452756Y469684D02*
X467102D01*
X455393Y434251D02*
X467066D01*
X459843Y571731D02*
X466987D01*
X454331Y515747D02*
X466789D01*
X457205Y417243D02*
X466605D01*
X454331Y515038D02*
X466402D01*
X452756Y470392D02*
X466393D01*
X454766Y434959D02*
X466357D01*
X454331Y514329D02*
X466339D01*
X454331Y513621D02*
X466339D01*
X454331Y512912D02*
X466339D01*
X454331Y512203D02*
X466339D01*
X454331Y511495D02*
X466339D01*
X454331Y510786D02*
X466339D01*
X454331Y510077D02*
X466339D01*
X454331Y509369D02*
X466339D01*
X454331Y508660D02*
X466339D01*
X454331Y507951D02*
X466339D01*
X454331Y507243D02*
X466339D01*
X454331Y506534D02*
X466339D01*
X454331Y505825D02*
X466339D01*
X454331Y505117D02*
X466339D01*
X454331Y504408D02*
X466339D01*
X454331Y503699D02*
X466339D01*
X454331Y502991D02*
X466339D01*
X454331Y502282D02*
X466339D01*
X454331Y501573D02*
X466339D01*
X454331Y500865D02*
X466339D01*
X454331Y500156D02*
X466339D01*
X454331Y499448D02*
X466339D01*
X454331Y498739D02*
X466339D01*
X454331Y498030D02*
X466339D01*
X454331Y497322D02*
X466339D01*
X454331Y496613D02*
X466339D01*
X454331Y495904D02*
X466339D01*
X454331Y495196D02*
X466339D01*
X454331Y494487D02*
X466339D01*
X454331Y493778D02*
X466339D01*
X454331Y493070D02*
X466339D01*
X454331Y492361D02*
X466339D01*
X464510Y491652D02*
X466339D01*
X459843Y572440D02*
X466278D01*
X457205Y416534D02*
X466194D01*
X465823Y490944D02*
X466067D01*
X457205Y417951D02*
X465960D01*
X452756Y471101D02*
X465685D01*
X448625Y435668D02*
X465648D01*
X459843Y573148D02*
X465569D01*
X457205Y415825D02*
X465485D01*
X457205Y418660D02*
X465252D01*
X463209Y471810D02*
X464976D01*
X448622Y436377D02*
X464940D01*
X459843Y573857D02*
X464861D01*
X457205Y415117D02*
X464777D01*
X457205Y419369D02*
X464543D01*
X448622Y437085D02*
X464231D01*
X459843Y574566D02*
X464152D01*
X457205Y414408D02*
X464130D01*
X457205Y413699D02*
X463874D01*
X457205Y420077D02*
X463834D01*
X448622Y437794D02*
X463522D01*
X457757Y405904D02*
X463503D01*
X457761Y412991D02*
X463498D01*
X459843Y575274D02*
X463443D01*
X457205Y420786D02*
X463126D01*
X448622Y438503D02*
X462814D01*
X459843Y575983D02*
X462735D01*
X458638Y406613D02*
X462622D01*
X458640Y412282D02*
X462620D01*
X457205Y421495D02*
X462417D01*
X448622Y439211D02*
X462105D01*
X459174Y407322D02*
X462085D01*
X459176Y411573D02*
X462084D01*
X459843Y576692D02*
X462026D01*
X452756Y471810D02*
X461988D01*
X459513Y408030D02*
X461747D01*
X459514Y410865D02*
X461746D01*
X457205Y422203D02*
X461708D01*
X459702Y408739D02*
X461557D01*
X459703Y410156D02*
X461557D01*
X459764Y409448D02*
X461496D01*
X448622Y439920D02*
X461396D01*
X459843Y577400D02*
X461318D01*
X457205Y422912D02*
X461000D01*
X448550Y440629D02*
X460688D01*
X454331Y491652D02*
X460687D01*
X459888Y578109D02*
X460609D01*
X452756Y481731D02*
X460581D01*
X457173Y423621D02*
X460291D01*
X452756Y481022D02*
X460259D01*
X452756Y472518D02*
X459992D01*
X448095Y441337D02*
X459979D01*
X456828Y424329D02*
X459582D01*
X452756Y482440D02*
X459411D01*
X454331Y490944D02*
X459408D01*
X447386Y442046D02*
X459270D01*
X452756Y480314D02*
X459265D01*
X452756Y473227D02*
X459105D01*
X446547Y687243D02*
X458965D01*
X456126Y425038D02*
X458874D01*
X452756Y483148D02*
X458638D01*
X454331Y490235D02*
X458636D01*
X452756Y479605D02*
X458631D01*
X446677Y442755D02*
X458562D01*
X452756Y473936D02*
X458522D01*
X447067Y699290D02*
X458444D01*
X452756Y478896D02*
X458198D01*
X455417Y425747D02*
X458165D01*
X452756Y474644D02*
X458124D01*
X454878Y483857D02*
X458103D01*
X454331Y489526D02*
X458102D01*
X452756Y478188D02*
X457910D01*
X452756Y475353D02*
X457863D01*
X446069Y443463D02*
X457853D01*
X452756Y477479D02*
X457740D01*
X455796Y484566D02*
X457728D01*
X454331Y488818D02*
X457727D01*
X452756Y476062D02*
X457718D01*
X452756Y476770D02*
X457678D01*
X456177Y485274D02*
X457476D01*
X455047Y488109D02*
X457476D01*
X454709Y426455D02*
X457456D01*
X456299Y485983D02*
X457331D01*
X455857Y487400D02*
X457331D01*
X456203Y486692D02*
X457283D01*
X445967Y444172D02*
X457144D01*
X454000Y427164D02*
X456748D01*
X448791Y687951D02*
X456721D01*
X448935Y698581D02*
X456576D01*
X445620Y444881D02*
X456436D01*
X453291Y427873D02*
X456039D01*
X444811Y445589D02*
X455727D01*
X449821Y688660D02*
X455690D01*
X449915Y697873D02*
X455597D01*
X452583Y428581D02*
X455330D01*
X408618Y446298D02*
X455018D01*
X450528Y689369D02*
X454984D01*
X450595Y697164D02*
X454917D01*
X451874Y429290D02*
X454622D01*
X451044Y690077D02*
X454468D01*
X451094Y696455D02*
X454418D01*
X407909Y447007D02*
X454310D01*
X452189Y623463D02*
X454190D01*
X451423Y690786D02*
X454088D01*
X449906Y422203D02*
X454055D01*
X450333Y421495D02*
X454055D01*
X450394Y420786D02*
X454055D01*
X450394Y420077D02*
X454055D01*
X450394Y419369D02*
X454055D01*
X450394Y418660D02*
X454055D01*
X450394Y417951D02*
X454055D01*
X450394Y417243D02*
X454055D01*
X450394Y416534D02*
X454055D01*
X450394Y415825D02*
X454055D01*
X450394Y415117D02*
X454055D01*
X450394Y414408D02*
X454055D01*
X450394Y413699D02*
X454055D01*
X451460Y695747D02*
X454052D01*
X451165Y429999D02*
X453913D01*
X451693Y691495D02*
X453819D01*
X449590Y422912D02*
X453798D01*
X451718Y695038D02*
X453794D01*
X451868Y692203D02*
X453644D01*
X451882Y694329D02*
X453630D01*
X452898Y622755D02*
X453619D01*
X407200Y447715D02*
X453601D01*
X451956Y692912D02*
X453556D01*
X451960Y693621D02*
X453551D01*
X447757Y405904D02*
X453503D01*
X450394Y412991D02*
X453498D01*
X450701Y430707D02*
X453147D01*
X449392Y423621D02*
X453089D01*
X406492Y448424D02*
X452892D01*
X448638Y406613D02*
X452622D01*
X450353Y412282D02*
X452620D01*
X448893Y424329D02*
X452381D01*
X406256Y449133D02*
X452184D01*
X449174Y407322D02*
X452085D01*
X449980Y411573D02*
X452084D01*
X451222Y434959D02*
X451927D01*
X449513Y408030D02*
X451747D01*
X449518Y410865D02*
X451746D01*
X429910Y425038D02*
X451672D01*
X449702Y408739D02*
X451557D01*
X449703Y410156D02*
X451557D01*
X449764Y409448D02*
X451496D01*
X407159Y449841D02*
X451475D01*
X429169Y425747D02*
X450963D01*
X407626Y450550D02*
X450766D01*
X428460Y426455D02*
X450255D01*
X407840Y451259D02*
X450058D01*
X427751Y427164D02*
X449546D01*
X407860Y451967D02*
X449349D01*
X423341Y619211D02*
X449173D01*
X396063Y619920D02*
X448916D01*
X427043Y427873D02*
X448837D01*
X407693Y452676D02*
X448640D01*
X424571Y618503D02*
X448238D01*
X396063Y620629D02*
X448207D01*
X426334Y428581D02*
X448129D01*
X424380Y453385D02*
X447932D01*
X425163Y617794D02*
X447802D01*
X425496Y617085D02*
X447643D01*
X396063Y621337D02*
X447499D01*
X425625Y429290D02*
X447420D01*
X396063Y419369D02*
X447244D01*
X396063Y418660D02*
X447244D01*
X396063Y417951D02*
X447244D01*
X396063Y417243D02*
X447244D01*
X396063Y416534D02*
X447244D01*
X396063Y415825D02*
X447244D01*
X396063Y415117D02*
X447244D01*
X396063Y414408D02*
X447244D01*
X396063Y413699D02*
X447229D01*
X425056Y454093D02*
X447223D01*
X396063Y420077D02*
X447192D01*
X396063Y622046D02*
X446790D01*
X424917Y429999D02*
X446711D01*
X425438Y454802D02*
X446514D01*
X424652Y603621D02*
X446457D01*
X423555Y602912D02*
X446457D01*
X396063Y602203D02*
X446457D01*
X396063Y601495D02*
X446457D01*
X396063Y600786D02*
X446457D01*
X396063Y600077D02*
X446457D01*
X422417Y599369D02*
X446457D01*
X424384Y598660D02*
X446457D01*
X425058Y597951D02*
X446457D01*
X425439Y597243D02*
X446457D01*
X425630Y596534D02*
X446457D01*
X425663Y595825D02*
X446457D01*
X425544Y595117D02*
X446457D01*
X425254Y594408D02*
X446457D01*
X424731Y593699D02*
X446457D01*
X423737Y592991D02*
X446457D01*
X396063Y592282D02*
X446457D01*
X396063Y591573D02*
X446457D01*
X396063Y590865D02*
X446457D01*
X396063Y590156D02*
X446457D01*
X396063Y589448D02*
X446457D01*
X424279Y588739D02*
X446457D01*
X425001Y588030D02*
X446457D01*
X425407Y587322D02*
X446457D01*
X425617Y586613D02*
X446457D01*
X425667Y585904D02*
X446457D01*
X425565Y585196D02*
X446457D01*
X425296Y584487D02*
X446457D01*
X424804Y583778D02*
X446457D01*
X423895Y583070D02*
X446457D01*
X396063Y582361D02*
X446457D01*
X396063Y581652D02*
X446457D01*
X396063Y580944D02*
X446457D01*
X396063Y580235D02*
X446457D01*
X396063Y579526D02*
X446457D01*
X424165Y578818D02*
X446457D01*
X424940Y578109D02*
X446457D01*
X425373Y577400D02*
X446457D01*
X425602Y576692D02*
X446457D01*
X425669Y575983D02*
X446457D01*
X425584Y575274D02*
X446457D01*
X425335Y574566D02*
X446457D01*
X424873Y573857D02*
X446457D01*
X424035Y573148D02*
X446457D01*
X396063Y572440D02*
X446457D01*
X396063Y571731D02*
X446457D01*
X396063Y571022D02*
X446457D01*
X396063Y570314D02*
X446457D01*
X396063Y569605D02*
X446457D01*
X424039Y568896D02*
X446457D01*
X424875Y568188D02*
X446457D01*
X425336Y567479D02*
X446457D01*
X425585Y566770D02*
X446457D01*
X425669Y566062D02*
X446457D01*
X425601Y565353D02*
X446457D01*
X425372Y564644D02*
X446457D01*
X424938Y563936D02*
X446457D01*
X424161Y563227D02*
X446457D01*
X396063Y562518D02*
X446457D01*
X396063Y561810D02*
X446457D01*
X396063Y561101D02*
X446457D01*
X396063Y560392D02*
X446457D01*
X396063Y559684D02*
X446457D01*
X423900Y558975D02*
X446457D01*
X424807Y558266D02*
X446457D01*
X425297Y557558D02*
X446457D01*
X425566Y556849D02*
X446457D01*
X425667Y556140D02*
X446457D01*
X425617Y555432D02*
X446457D01*
X425406Y554723D02*
X446457D01*
X424999Y554014D02*
X446457D01*
X424275Y553306D02*
X446457D01*
X396063Y552597D02*
X446457D01*
X396063Y551888D02*
X446457D01*
X396063Y551180D02*
X446457D01*
X396063Y550471D02*
X446457D01*
X396063Y549762D02*
X446457D01*
X423743Y549054D02*
X446457D01*
X424733Y548345D02*
X446457D01*
X425255Y547636D02*
X446457D01*
X425545Y546928D02*
X446457D01*
X425664Y546219D02*
X446457D01*
X425630Y545510D02*
X446457D01*
X425438Y544802D02*
X446457D01*
X425056Y544093D02*
X446457D01*
X424380Y543385D02*
X446457D01*
X396063Y542676D02*
X446457D01*
X396063Y541967D02*
X446457D01*
X396063Y541259D02*
X446457D01*
X396063Y540550D02*
X446457D01*
X396063Y539841D02*
X446457D01*
X423561Y539133D02*
X446457D01*
X424655Y538424D02*
X446457D01*
X425210Y537715D02*
X446457D01*
X425522Y537007D02*
X446457D01*
X425658Y536298D02*
X446457D01*
X425641Y535589D02*
X446457D01*
X425468Y534881D02*
X446457D01*
X425110Y534172D02*
X446457D01*
X424478Y533463D02*
X446457D01*
X423039Y532755D02*
X446457D01*
X396063Y532046D02*
X446457D01*
X396063Y531337D02*
X446457D01*
X396063Y530629D02*
X446457D01*
X396063Y529920D02*
X446457D01*
X423341Y529211D02*
X446457D01*
X424571Y528503D02*
X446457D01*
X425163Y527794D02*
X446457D01*
X425496Y527085D02*
X446457D01*
X425651Y526377D02*
X446457D01*
X425650Y525668D02*
X446457D01*
X425496Y524959D02*
X446457D01*
X425161Y524251D02*
X446457D01*
X424568Y523542D02*
X446457D01*
X423333Y522833D02*
X446457D01*
X396063Y522125D02*
X446457D01*
X396063Y521416D02*
X446457D01*
X396063Y520707D02*
X446457D01*
X396063Y519999D02*
X446457D01*
X423050Y519290D02*
X446457D01*
X424481Y518581D02*
X446457D01*
X425112Y517873D02*
X446457D01*
X425469Y517164D02*
X446457D01*
X425641Y516455D02*
X446457D01*
X425658Y515747D02*
X446457D01*
X425521Y515038D02*
X446457D01*
X425209Y514329D02*
X446457D01*
X424652Y513621D02*
X446457D01*
X423555Y512912D02*
X446457D01*
X396063Y512203D02*
X446457D01*
X396063Y511495D02*
X446457D01*
X396063Y510786D02*
X446457D01*
X396063Y510077D02*
X446457D01*
X422417Y509369D02*
X446457D01*
X424384Y508660D02*
X446457D01*
X425058Y507951D02*
X446457D01*
X425439Y507243D02*
X446457D01*
X425630Y506534D02*
X446457D01*
X425663Y505825D02*
X446457D01*
X425544Y505117D02*
X446457D01*
X425254Y504408D02*
X446457D01*
X424731Y503699D02*
X446457D01*
X423737Y502991D02*
X446457D01*
X396063Y502282D02*
X446457D01*
X396063Y501573D02*
X446457D01*
X396063Y500865D02*
X446457D01*
X396063Y500156D02*
X446457D01*
X396063Y499448D02*
X446457D01*
X424279Y498739D02*
X446457D01*
X425001Y498030D02*
X446457D01*
X425407Y497322D02*
X446457D01*
X425617Y496613D02*
X446457D01*
X425667Y495904D02*
X446457D01*
X425565Y495196D02*
X446457D01*
X425296Y494487D02*
X446457D01*
X424804Y493778D02*
X446457D01*
X423895Y493070D02*
X446457D01*
X396063Y492361D02*
X446457D01*
X396063Y491652D02*
X446457D01*
X396063Y490944D02*
X446457D01*
X396063Y490235D02*
X446457D01*
X396063Y489526D02*
X446457D01*
X424165Y488818D02*
X446457D01*
X424940Y488109D02*
X446457D01*
X425373Y487400D02*
X446457D01*
X425602Y486692D02*
X446457D01*
X425669Y485983D02*
X446457D01*
X425584Y485274D02*
X446457D01*
X425335Y484566D02*
X446457D01*
X424873Y483857D02*
X446457D01*
X424035Y483148D02*
X446457D01*
X406228Y482440D02*
X446457D01*
X407038Y481731D02*
X446457D01*
X407384Y481022D02*
X446457D01*
X407480Y480314D02*
X446457D01*
X407480Y479605D02*
X446457D01*
X424039Y478896D02*
X446457D01*
X424875Y478188D02*
X446457D01*
X425336Y477479D02*
X446457D01*
X425209Y604329D02*
X446419D01*
X425651Y616377D02*
X446393D01*
X423039Y622755D02*
X446081D01*
X424208Y430707D02*
X446003D01*
X425630Y455510D02*
X445806D01*
X423499Y431416D02*
X445545D01*
X415704Y439211D02*
X445472D01*
X416413Y438503D02*
X445472D01*
X417122Y437794D02*
X445472D01*
X417830Y437085D02*
X445472D01*
X418539Y436377D02*
X445472D01*
X419247Y435668D02*
X445472D01*
X419956Y434959D02*
X445472D01*
X420665Y434251D02*
X445472D01*
X421373Y433542D02*
X445472D01*
X422082Y432833D02*
X445472D01*
X422791Y432125D02*
X445472D01*
X442342Y615668D02*
X445415D01*
X424478Y623463D02*
X445373D01*
X396063Y687243D02*
X445186D01*
X425664Y456219D02*
X445142D01*
X414996Y439920D02*
X445058D01*
X443494Y614959D02*
X445017D01*
X425521Y605038D02*
X444990D01*
X444089Y613542D02*
X444968D01*
X425545Y456928D02*
X444890D01*
X443930Y614251D02*
X444883D01*
X407480Y471810D02*
X444882D01*
X407480Y471101D02*
X444882D01*
X407480Y470392D02*
X444882D01*
X407480Y469684D02*
X444882D01*
X423900Y468975D02*
X444882D01*
X424807Y468266D02*
X444882D01*
X425297Y467558D02*
X444882D01*
X425566Y466849D02*
X444882D01*
X425667Y466140D02*
X444882D01*
X425617Y465432D02*
X444882D01*
X425406Y464723D02*
X444882D01*
X424999Y464014D02*
X444882D01*
X424275Y463306D02*
X444882D01*
X422045Y462597D02*
X444882D01*
X421967Y461888D02*
X444882D01*
X422045Y461180D02*
X444882D01*
X422015Y460471D02*
X444882D01*
X421890Y459762D02*
X444882D01*
X423743Y459054D02*
X444882D01*
X424733Y458345D02*
X444882D01*
X425255Y457636D02*
X444882D01*
X396063Y699290D02*
X444665D01*
X425110Y624172D02*
X444664D01*
X407480Y472518D02*
X444656D01*
X425658Y605747D02*
X444389D01*
X414287Y440629D02*
X444349D01*
X424481Y608581D02*
X444310D01*
X425112Y607873D02*
X444309D01*
X425641Y606455D02*
X444135D01*
X425469Y607164D02*
X444110D01*
X425585Y476770D02*
X443968D01*
X425468Y624881D02*
X443955D01*
X401315Y398818D02*
X443756D01*
X423050Y609290D02*
X443601D01*
X424161Y473227D02*
X443516D01*
X441680Y405904D02*
X443503D01*
X437761Y412991D02*
X443498D01*
X425669Y476062D02*
X443277D01*
X425641Y625589D02*
X443247D01*
X424938Y473936D02*
X443078D01*
X400464Y399526D02*
X443047D01*
X425601Y475353D02*
X442978D01*
X396063Y687951D02*
X442941D01*
X425372Y474644D02*
X442919D01*
X396063Y609999D02*
X442892D01*
X396063Y698581D02*
X442797D01*
X413578Y441337D02*
X442760D01*
X440971Y406613D02*
X442622D01*
X438640Y412282D02*
X442620D01*
X409326Y445589D02*
X442591D01*
X425658Y626298D02*
X442538D01*
X399739Y400235D02*
X442338D01*
X396063Y610707D02*
X442184D01*
X440263Y407322D02*
X442085D01*
X439176Y411573D02*
X442084D01*
X396063Y688660D02*
X441911D01*
X412870Y442046D02*
X441842D01*
X425522Y627007D02*
X441829D01*
X396063Y697873D02*
X441817D01*
X410035Y444881D02*
X441781D01*
X439604Y408030D02*
X441747D01*
X439514Y410865D02*
X441746D01*
X399112Y400944D02*
X441630D01*
X439702Y408739D02*
X441557D01*
X439703Y410156D02*
X441557D01*
X439764Y409448D02*
X441496D01*
X412161Y442755D02*
X441461D01*
X410744Y444172D02*
X441435D01*
X411452Y443463D02*
X441339D01*
X396063Y689369D02*
X441205D01*
X396063Y697164D02*
X441137D01*
X425650Y615668D02*
X441123D01*
X425210Y627715D02*
X441121D01*
X398568Y401652D02*
X440921D01*
X396063Y690077D02*
X440688D01*
X396063Y696455D02*
X440639D01*
X396063Y611416D02*
X440429D01*
X424655Y628424D02*
X440412D01*
X396063Y682991D02*
X440328D01*
X396063Y690786D02*
X440309D01*
X396063Y695747D02*
X440273D01*
X398094Y402361D02*
X440212D01*
X396063Y691495D02*
X440039D01*
X396063Y695038D02*
X440014D01*
X425496Y614959D02*
X439970D01*
X396063Y692203D02*
X439864D01*
X396063Y694329D02*
X439850D01*
X396063Y692912D02*
X439777D01*
X396063Y693621D02*
X439772D01*
X396063Y612125D02*
X439735D01*
X423561Y629133D02*
X439703D01*
X396063Y682282D02*
X439619D01*
X425161Y614251D02*
X439534D01*
X397681Y403070D02*
X439504D01*
X423333Y612833D02*
X439436D01*
X424568Y613542D02*
X439375D01*
X396063Y629841D02*
X438995D01*
X396063Y681573D02*
X438911D01*
X397323Y403778D02*
X438795D01*
X396063Y630550D02*
X438286D01*
X396063Y680865D02*
X438202D01*
X397017Y404487D02*
X438086D01*
X436751Y631259D02*
X437577D01*
X396063Y680156D02*
X437493D01*
X396757Y405196D02*
X437378D01*
X424733Y638345D02*
X436965D01*
X396063Y679448D02*
X436785D01*
X396063Y678739D02*
X436076D01*
X425255Y637636D02*
X435676D01*
X396063Y678030D02*
X435367D01*
X425545Y636928D02*
X435219D01*
X425664Y636219D02*
X435047D01*
X425630Y635510D02*
X434958D01*
X396063Y677322D02*
X434659D01*
X396063Y676613D02*
X433950D01*
X396063Y631259D02*
X433721D01*
X425438Y634802D02*
X433629D01*
X396541Y405904D02*
X433503D01*
X396063Y412991D02*
X433498D01*
X396063Y675904D02*
X433241D01*
X396063Y631967D02*
X433148D01*
X425056Y634093D02*
X433107D01*
X396063Y632676D02*
X432907D01*
X424380Y633385D02*
X432895D01*
X396367Y406613D02*
X432622D01*
X396063Y412282D02*
X432620D01*
X396063Y675196D02*
X432533D01*
X396233Y407322D02*
X432085D01*
X396063Y411573D02*
X432084D01*
X396063Y674487D02*
X431824D01*
X396138Y408030D02*
X431747D01*
X396063Y410865D02*
X431746D01*
X396082Y408739D02*
X431557D01*
X396063Y410156D02*
X431557D01*
X396063Y409448D02*
X431496D01*
X396063Y673778D02*
X431115D01*
X396063Y673070D02*
X430407D01*
X396063Y672361D02*
X429698D01*
X396063Y671652D02*
X428989D01*
X396063Y649684D02*
X428285D01*
X396063Y670944D02*
X428281D01*
X396063Y670235D02*
X427843D01*
X396063Y669526D02*
X427756D01*
X424165Y668818D02*
X427756D01*
X424940Y668109D02*
X427756D01*
X425373Y667400D02*
X427756D01*
X425602Y666692D02*
X427756D01*
X425669Y665983D02*
X427756D01*
X425584Y665274D02*
X427756D01*
X425335Y664566D02*
X427756D01*
X424873Y663857D02*
X427756D01*
X424035Y663148D02*
X427756D01*
X421922Y662440D02*
X427756D01*
X424875Y658188D02*
X427756D01*
X425336Y657479D02*
X427756D01*
X425585Y656770D02*
X427756D01*
X425669Y656062D02*
X427756D01*
X425601Y655353D02*
X427756D01*
X425372Y654644D02*
X427756D01*
X424938Y653936D02*
X427756D01*
X424161Y653227D02*
X427717D01*
X424039Y658896D02*
X427669D01*
X421994Y661731D02*
X427608D01*
X396063Y650392D02*
X427556D01*
X396063Y420786D02*
X427470D01*
X396063Y652518D02*
X427314D01*
X421923Y659605D02*
X427287D01*
X422047Y661022D02*
X427262D01*
X396063Y651101D02*
X427241D01*
X396063Y651810D02*
X427168D01*
X421994Y660314D02*
X427166D01*
X396063Y421495D02*
X426739D01*
X396063Y422203D02*
X426031D01*
X396063Y422912D02*
X425322D01*
X396063Y423621D02*
X424613D01*
X396063Y424329D02*
X423905D01*
X396063Y425038D02*
X423196D01*
X396063Y425747D02*
X422487D01*
X412417Y599369D02*
X422229D01*
X412417Y509369D02*
X422229D01*
X396063Y426455D02*
X421779D01*
X413039Y622755D02*
X421607D01*
X413039Y532755D02*
X421607D01*
X413050Y609290D02*
X421595D01*
X413050Y519290D02*
X421595D01*
X413333Y612833D02*
X421312D01*
X413333Y522833D02*
X421312D01*
X413341Y619211D02*
X421304D01*
X413341Y529211D02*
X421304D01*
X413555Y602912D02*
X421091D01*
X413555Y512912D02*
X421091D01*
X413561Y629133D02*
X421085D01*
X413561Y539133D02*
X421085D01*
X396063Y427164D02*
X421070D01*
X413737Y592991D02*
X420908D01*
X413737Y502991D02*
X420908D01*
X413743Y639054D02*
X420903D01*
X413743Y549054D02*
X420903D01*
X413895Y583070D02*
X420750D01*
X413895Y493070D02*
X420750D01*
X413900Y648975D02*
X420746D01*
X413900Y558975D02*
X420746D01*
X413900Y468975D02*
X420746D01*
X414035Y573148D02*
X420611D01*
X414035Y483148D02*
X420611D01*
X414039Y568896D02*
X420606D01*
X414039Y478896D02*
X420606D01*
X414161Y653227D02*
X420485D01*
X414161Y563227D02*
X420485D01*
X414161Y473227D02*
X420485D01*
X414165Y668818D02*
X420481D01*
X414165Y578818D02*
X420481D01*
X414165Y488818D02*
X420481D01*
X414275Y643306D02*
X420370D01*
X414275Y553306D02*
X420370D01*
X414279Y588739D02*
X420367D01*
X414279Y498739D02*
X420367D01*
X396063Y427873D02*
X420361D01*
X414380Y633385D02*
X420265D01*
X414380Y543385D02*
X420265D01*
X414380Y453385D02*
X420265D01*
X414384Y598660D02*
X420262D01*
X414384Y508660D02*
X420262D01*
X414478Y623463D02*
X420168D01*
X414478Y533463D02*
X420168D01*
X414481Y608581D02*
X420165D01*
X414481Y518581D02*
X420165D01*
X414568Y613542D02*
X420078D01*
X414568Y523542D02*
X420078D01*
X414571Y618503D02*
X420075D01*
X414571Y528503D02*
X420075D01*
X414652Y603621D02*
X419994D01*
X414652Y513621D02*
X419994D01*
X414655Y628424D02*
X419991D01*
X414655Y538424D02*
X419991D01*
X414731Y593699D02*
X419915D01*
X414731Y503699D02*
X419915D01*
X414733Y638345D02*
X419913D01*
X414733Y548345D02*
X419913D01*
X414804Y583778D02*
X419842D01*
X414804Y493778D02*
X419842D01*
X414807Y648266D02*
X419839D01*
X414807Y558266D02*
X419839D01*
X414807Y468266D02*
X419839D01*
X414873Y573857D02*
X419772D01*
X414873Y483857D02*
X419772D01*
X414875Y568188D02*
X419770D01*
X414875Y478188D02*
X419770D01*
X414938Y653936D02*
X419708D01*
X414938Y563936D02*
X419708D01*
X414938Y473936D02*
X419708D01*
X414940Y668109D02*
X419706D01*
X414940Y578109D02*
X419706D01*
X414940Y488109D02*
X419706D01*
X396063Y428581D02*
X419653D01*
X414999Y644014D02*
X419647D01*
X414999Y554014D02*
X419647D01*
X415001Y588030D02*
X419645D01*
X415001Y498030D02*
X419645D01*
X415056Y634093D02*
X419589D01*
X415056Y544093D02*
X419589D01*
X415056Y454093D02*
X419589D01*
X415058Y597951D02*
X419587D01*
X415058Y507951D02*
X419587D01*
X415110Y624172D02*
X419535D01*
X415110Y534172D02*
X419535D01*
X415112Y607873D02*
X419534D01*
X415112Y517873D02*
X419534D01*
X415161Y614251D02*
X419485D01*
X415161Y524251D02*
X419485D01*
X415163Y617794D02*
X419483D01*
X415163Y527794D02*
X419483D01*
X415209Y604329D02*
X419437D01*
X415209Y514329D02*
X419437D01*
X415210Y627715D02*
X419435D01*
X415210Y537715D02*
X419435D01*
X415254Y594408D02*
X419392D01*
X415254Y504408D02*
X419392D01*
X415255Y637636D02*
X419391D01*
X415255Y547636D02*
X419391D01*
X415296Y584487D02*
X419350D01*
X415296Y494487D02*
X419350D01*
X415297Y647558D02*
X419349D01*
X415297Y557558D02*
X419349D01*
X415297Y467558D02*
X419349D01*
X415335Y574566D02*
X419311D01*
X415335Y484566D02*
X419311D01*
X415336Y567479D02*
X419309D01*
X415336Y477479D02*
X419309D01*
X415372Y654644D02*
X419274D01*
X415372Y564644D02*
X419274D01*
X415372Y474644D02*
X419274D01*
X415373Y667400D02*
X419273D01*
X415373Y577400D02*
X419273D01*
X415373Y487400D02*
X419273D01*
X415406Y644723D02*
X419239D01*
X415406Y554723D02*
X419239D01*
X415407Y587322D02*
X419238D01*
X415407Y497322D02*
X419238D01*
X415438Y634802D02*
X419207D01*
X415438Y544802D02*
X419207D01*
X415438Y454802D02*
X419207D01*
X415439Y597243D02*
X419206D01*
X415439Y507243D02*
X419206D01*
X415468Y624881D02*
X419178D01*
X415468Y534881D02*
X419178D01*
X415469Y607164D02*
X419177D01*
X415469Y517164D02*
X419177D01*
X415496Y614959D02*
X419150D01*
X415496Y524959D02*
X419150D01*
X415496Y617085D02*
X419149D01*
X415496Y527085D02*
X419149D01*
X415521Y605038D02*
X419125D01*
X415521Y515038D02*
X419125D01*
X415522Y627007D02*
X419124D01*
X415522Y537007D02*
X419124D01*
X415544Y595117D02*
X419102D01*
X415544Y505117D02*
X419102D01*
X415545Y636928D02*
X419101D01*
X415545Y546928D02*
X419101D01*
X415565Y585196D02*
X419080D01*
X415565Y495196D02*
X419080D01*
X415566Y646849D02*
X419080D01*
X415566Y556849D02*
X419080D01*
X415566Y466849D02*
X419080D01*
X415584Y575274D02*
X419061D01*
X415584Y485274D02*
X419061D01*
X415585Y566770D02*
X419061D01*
X415585Y476770D02*
X419061D01*
X415601Y655353D02*
X419044D01*
X415601Y565353D02*
X419044D01*
X415601Y475353D02*
X419044D01*
X415602Y666692D02*
X419044D01*
X415602Y576692D02*
X419044D01*
X415602Y486692D02*
X419044D01*
X415617Y645432D02*
X419029D01*
X415617Y555432D02*
X419029D01*
X415617Y586613D02*
X419029D01*
X415617Y496613D02*
X419029D01*
X415630Y635510D02*
X419016D01*
X415630Y545510D02*
X419016D01*
X415630Y455510D02*
X419016D01*
X415630Y596534D02*
X419016D01*
X415630Y506534D02*
X419016D01*
X415641Y625589D02*
X419005D01*
X415641Y535589D02*
X419005D01*
X415641Y606455D02*
X419004D01*
X415641Y516455D02*
X419004D01*
X415650Y615668D02*
X418995D01*
X415650Y525668D02*
X418995D01*
X415651Y616377D02*
X418995D01*
X415651Y526377D02*
X418995D01*
X415658Y605747D02*
X418988D01*
X415658Y515747D02*
X418988D01*
X415658Y626298D02*
X418988D01*
X415658Y536298D02*
X418988D01*
X415663Y595825D02*
X418982D01*
X415663Y505825D02*
X418982D01*
X415664Y636219D02*
X418982D01*
X415664Y546219D02*
X418982D01*
X415667Y585904D02*
X418979D01*
X415667Y495904D02*
X418979D01*
X415667Y646140D02*
X418978D01*
X415667Y556140D02*
X418978D01*
X415667Y466140D02*
X418978D01*
X415669Y575983D02*
X418977D01*
X415669Y485983D02*
X418977D01*
X415669Y566062D02*
X418977D01*
X415669Y476062D02*
X418977D01*
X415669Y665983D02*
X418977D01*
X415669Y656062D02*
X418977D01*
X415701Y456219D02*
X418944D01*
X396063Y429290D02*
X418944D01*
X396063Y429999D02*
X418235D01*
X396063Y430707D02*
X417527D01*
X396063Y431416D02*
X416818D01*
X396063Y432125D02*
X416109D01*
X396063Y432833D02*
X415401D01*
X396063Y433542D02*
X414692D01*
X396063Y434251D02*
X413983D01*
X396063Y434959D02*
X413275D01*
X407810Y459762D02*
X412756D01*
X396063Y662440D02*
X412724D01*
X396063Y659605D02*
X412723D01*
X407408Y461888D02*
X412678D01*
X396063Y660314D02*
X412652D01*
X396063Y661731D02*
X412652D01*
X407872Y460471D02*
X412631D01*
X407747Y461180D02*
X412601D01*
X406720Y462597D02*
X412600D01*
X396063Y661022D02*
X412598D01*
X396063Y435668D02*
X412566D01*
X396063Y599369D02*
X412229D01*
X396063Y509369D02*
X412229D01*
X396063Y436377D02*
X411858D01*
X396063Y622755D02*
X411607D01*
X396063Y532755D02*
X411607D01*
X396063Y609290D02*
X411595D01*
X396063Y519290D02*
X411595D01*
X396063Y612833D02*
X411312D01*
X396063Y522833D02*
X411312D01*
X396063Y619211D02*
X411304D01*
X396063Y529211D02*
X411304D01*
X396063Y437085D02*
X411149D01*
X396063Y602912D02*
X411091D01*
X396063Y512912D02*
X411091D01*
X396063Y629133D02*
X411085D01*
X396063Y539133D02*
X411085D01*
X396063Y592991D02*
X410908D01*
X396063Y502991D02*
X410908D01*
X396063Y639054D02*
X410903D01*
X396063Y549054D02*
X410903D01*
X407548Y459054D02*
X410903D01*
X396063Y583070D02*
X410750D01*
X396063Y493070D02*
X410750D01*
X396063Y648975D02*
X410746D01*
X396063Y558975D02*
X410746D01*
X407480Y468975D02*
X410746D01*
X396063Y663148D02*
X410611D01*
X396063Y573148D02*
X410611D01*
X396063Y483148D02*
X410611D01*
X396063Y658896D02*
X410606D01*
X396063Y568896D02*
X410606D01*
X407480Y478896D02*
X410606D01*
X396063Y653227D02*
X410485D01*
X396063Y563227D02*
X410485D01*
X407480Y473227D02*
X410485D01*
X396063Y668818D02*
X410481D01*
X396063Y578818D02*
X410481D01*
X396063Y488818D02*
X410481D01*
X396063Y437794D02*
X410440D01*
X396063Y643306D02*
X410370D01*
X396063Y553306D02*
X410370D01*
X406244Y463306D02*
X410370D01*
X396063Y588739D02*
X410367D01*
X396063Y498739D02*
X410367D01*
X396063Y633385D02*
X410265D01*
X396063Y543385D02*
X410265D01*
X407294Y453385D02*
X410265D01*
X396063Y598660D02*
X410262D01*
X396063Y508660D02*
X410262D01*
X396063Y623463D02*
X410168D01*
X396063Y533463D02*
X410168D01*
X396063Y608581D02*
X410165D01*
X396063Y518581D02*
X410165D01*
X396063Y613542D02*
X410078D01*
X396063Y523542D02*
X410078D01*
X396063Y618503D02*
X410075D01*
X396063Y528503D02*
X410075D01*
X396063Y603621D02*
X409994D01*
X396063Y513621D02*
X409994D01*
X396063Y628424D02*
X409991D01*
X396063Y538424D02*
X409991D01*
X396063Y593699D02*
X409915D01*
X396063Y503699D02*
X409915D01*
X396063Y638345D02*
X409913D01*
X396063Y548345D02*
X409913D01*
X407004Y458345D02*
X409913D01*
X396063Y583778D02*
X409842D01*
X396063Y493778D02*
X409842D01*
X396063Y648266D02*
X409839D01*
X396063Y558266D02*
X409839D01*
X407480Y468266D02*
X409839D01*
X396063Y663857D02*
X409772D01*
X396063Y573857D02*
X409772D01*
X396063Y483857D02*
X409772D01*
X396063Y658188D02*
X409770D01*
X396063Y568188D02*
X409770D01*
X407480Y478188D02*
X409770D01*
X396063Y438503D02*
X409732D01*
X396063Y653936D02*
X409708D01*
X396063Y563936D02*
X409708D01*
X407480Y473936D02*
X409708D01*
X396063Y668109D02*
X409706D01*
X396063Y578109D02*
X409706D01*
X396063Y488109D02*
X409706D01*
X396063Y644014D02*
X409647D01*
X396063Y554014D02*
X409647D01*
X406912Y464014D02*
X409647D01*
X396063Y588030D02*
X409645D01*
X396063Y498030D02*
X409645D01*
X396063Y634093D02*
X409589D01*
X396063Y544093D02*
X409589D01*
X406472Y454093D02*
X409589D01*
X396063Y597951D02*
X409587D01*
X396063Y507951D02*
X409587D01*
X396063Y624172D02*
X409535D01*
X396063Y534172D02*
X409535D01*
X396063Y607873D02*
X409534D01*
X396063Y517873D02*
X409534D01*
X396063Y614251D02*
X409485D01*
X396063Y524251D02*
X409485D01*
X396063Y617794D02*
X409483D01*
X396063Y527794D02*
X409483D01*
X396063Y604329D02*
X409437D01*
X396063Y514329D02*
X409437D01*
X396063Y627715D02*
X409435D01*
X396063Y537715D02*
X409435D01*
X396063Y594408D02*
X409392D01*
X396063Y504408D02*
X409392D01*
X396063Y637636D02*
X409391D01*
X396063Y547636D02*
X409391D01*
X405575Y457636D02*
X409391D01*
X396063Y584487D02*
X409350D01*
X396063Y494487D02*
X409350D01*
X396063Y647558D02*
X409349D01*
X396063Y557558D02*
X409349D01*
X407480Y467558D02*
X409349D01*
X396063Y664566D02*
X409311D01*
X396063Y574566D02*
X409311D01*
X396063Y484566D02*
X409311D01*
X396063Y657479D02*
X409309D01*
X396063Y567479D02*
X409309D01*
X407480Y477479D02*
X409309D01*
X396063Y654644D02*
X409274D01*
X396063Y564644D02*
X409274D01*
X407480Y474644D02*
X409274D01*
X396063Y667400D02*
X409273D01*
X396063Y577400D02*
X409273D01*
X396063Y487400D02*
X409273D01*
X396063Y644723D02*
X409239D01*
X396063Y554723D02*
X409239D01*
X407330Y464723D02*
X409239D01*
X396063Y587322D02*
X409238D01*
X396063Y497322D02*
X409238D01*
X396063Y634802D02*
X409207D01*
X396063Y544802D02*
X409207D01*
X403937Y454802D02*
X409207D01*
X396063Y597243D02*
X409206D01*
X396063Y507243D02*
X409206D01*
X396063Y624881D02*
X409178D01*
X396063Y534881D02*
X409178D01*
X396063Y607164D02*
X409177D01*
X396063Y517164D02*
X409177D01*
X396063Y614959D02*
X409150D01*
X396063Y524959D02*
X409150D01*
X396063Y617085D02*
X409149D01*
X396063Y527085D02*
X409149D01*
X396063Y605038D02*
X409125D01*
X396063Y515038D02*
X409125D01*
X396063Y627007D02*
X409124D01*
X396063Y537007D02*
X409124D01*
X396063Y595117D02*
X409102D01*
X396063Y505117D02*
X409102D01*
X396063Y636928D02*
X409101D01*
X396063Y546928D02*
X409101D01*
X403937Y456928D02*
X409101D01*
X396063Y585196D02*
X409080D01*
X396063Y495196D02*
X409080D01*
X396063Y646849D02*
X409080D01*
X396063Y556849D02*
X409080D01*
X407480Y466849D02*
X409080D01*
X396063Y665274D02*
X409061D01*
X396063Y575274D02*
X409061D01*
X396063Y485274D02*
X409061D01*
X396063Y656770D02*
X409061D01*
X396063Y566770D02*
X409061D01*
X407480Y476770D02*
X409061D01*
X396063Y655353D02*
X409044D01*
X396063Y565353D02*
X409044D01*
X407480Y475353D02*
X409044D01*
X396063Y666692D02*
X409044D01*
X396063Y576692D02*
X409044D01*
X396063Y486692D02*
X409044D01*
X396063Y645432D02*
X409029D01*
X396063Y555432D02*
X409029D01*
X407477Y465432D02*
X409029D01*
X396063Y586613D02*
X409029D01*
X396063Y496613D02*
X409029D01*
X396063Y439211D02*
X409023D01*
X396063Y635510D02*
X409016D01*
X396063Y545510D02*
X409016D01*
X403937Y455510D02*
X409016D01*
X396063Y596534D02*
X409016D01*
X396063Y506534D02*
X409016D01*
X396063Y625589D02*
X409005D01*
X396063Y535589D02*
X409005D01*
X396063Y606455D02*
X409004D01*
X396063Y516455D02*
X409004D01*
X396063Y615668D02*
X408995D01*
X396063Y525668D02*
X408995D01*
X396063Y616377D02*
X408995D01*
X396063Y526377D02*
X408995D01*
X396063Y605747D02*
X408988D01*
X396063Y515747D02*
X408988D01*
X396063Y626298D02*
X408988D01*
X396063Y536298D02*
X408988D01*
X396063Y595825D02*
X408982D01*
X396063Y505825D02*
X408982D01*
X396063Y636219D02*
X408982D01*
X396063Y546219D02*
X408982D01*
X403937Y456219D02*
X408982D01*
X396063Y585904D02*
X408979D01*
X396063Y495904D02*
X408979D01*
X396063Y646140D02*
X408978D01*
X396063Y556140D02*
X408978D01*
X407480Y466140D02*
X408978D01*
X396063Y665983D02*
X408977D01*
X396063Y575983D02*
X408977D01*
X396063Y485983D02*
X408977D01*
X396063Y656062D02*
X408977D01*
X396063Y566062D02*
X408977D01*
X407480Y476062D02*
X408977D01*
X396063Y439920D02*
X408314D01*
X396063Y440629D02*
X407606D01*
X396063Y441337D02*
X406897D01*
X396063Y442046D02*
X406188D01*
X396063Y442755D02*
X405480D01*
X396063Y443463D02*
X404771D01*
X404119Y457636D02*
X404662D01*
X396063Y444172D02*
X404062D01*
X396063Y482440D02*
X404008D01*
X396063Y444881D02*
X403354D01*
X396063Y481731D02*
X403199D01*
X396063Y481022D02*
X402852D01*
X396063Y480314D02*
X402756D01*
X396063Y479605D02*
X402756D01*
X396063Y478896D02*
X402756D01*
X396063Y478188D02*
X402756D01*
X396063Y477479D02*
X402756D01*
X396063Y476770D02*
X402756D01*
X396063Y476062D02*
X402756D01*
X396063Y475353D02*
X402756D01*
X396063Y474644D02*
X402756D01*
X396063Y473936D02*
X402756D01*
X396063Y473227D02*
X402756D01*
X396063Y472518D02*
X402756D01*
X396063Y471810D02*
X402756D01*
X396063Y471101D02*
X402756D01*
X396063Y470392D02*
X402756D01*
X396063Y469684D02*
X402756D01*
X396063Y468975D02*
X402756D01*
X396063Y468266D02*
X402756D01*
X396063Y467558D02*
X402756D01*
X396063Y466849D02*
X402756D01*
X396063Y445589D02*
X402645D01*
X396063Y466140D02*
X402367D01*
X396063Y446298D02*
X401936D01*
X396063Y465432D02*
X401658D01*
X396063Y447007D02*
X401228D01*
X396063Y464723D02*
X400949D01*
X396063Y447715D02*
X400519D01*
X396063Y464014D02*
X400241D01*
X396063Y448424D02*
X399815D01*
X396063Y463306D02*
X399601D01*
X396063Y449133D02*
X399378D01*
X396063Y462597D02*
X399287D01*
X396063Y449841D02*
X399218D01*
X396063Y461888D02*
X399213D01*
X396063Y461180D02*
X399213D01*
X396063Y460471D02*
X399213D01*
X396063Y459762D02*
X399213D01*
X396063Y459054D02*
X399213D01*
X396063Y458345D02*
X399213D01*
X396063Y457636D02*
X399213D01*
X396063Y456928D02*
X399213D01*
X396063Y456219D02*
X399213D01*
X396063Y455510D02*
X399213D01*
X396063Y454802D02*
X399213D01*
X396063Y454093D02*
X399213D01*
X396063Y453385D02*
X399213D01*
X396063Y452676D02*
X399213D01*
X396063Y451967D02*
X399213D01*
X396063Y451259D02*
X399213D01*
X396063Y450550D02*
X399213D01*
X486609Y605038D02*
X487795D01*
X481360Y604329D02*
X487795D01*
X480651Y603621D02*
X487795D01*
X479967Y602912D02*
X487795D01*
X479921Y602203D02*
X487795D01*
X479921Y601495D02*
X487795D01*
X479921Y600786D02*
X487795D01*
X479921Y600077D02*
X487795D01*
X479921Y599369D02*
X487795D01*
X479921Y598660D02*
X487795D01*
X479921Y597951D02*
X487795D01*
X479921Y597243D02*
X487795D01*
X479921Y596534D02*
X487795D01*
X479921Y595825D02*
X487795D01*
X482348Y595117D02*
X487795D01*
X486149Y594408D02*
X487795D01*
X486959Y593699D02*
X487793D01*
X482068Y605038D02*
X484257D01*
X483326Y594408D02*
X483930D01*
X482777Y605747D02*
X483488D01*
X480045Y595117D02*
X480645D01*
X544269Y585196D02*
X547554D01*
X544268Y584487D02*
X547553D01*
X544289Y612125D02*
X547629D01*
X544320Y611416D02*
X547370D01*
X509764Y409449D02*
X508583D01*
X505630Y413583D02*
Y412402D01*
Y405315D02*
Y406496D01*
X501496Y409449D02*
X502677D01*
G54D13*
X445630D03*
X485630D03*
X475630D03*
X435630D03*
X505630D03*
X495630D03*
X455630D03*
X465630D03*
G54D20*
X469244Y416537D02*
G03X468435Y416270I-139J-937D01*
G01X469244Y416537D02*
X468703Y417078D01*
X468435Y416270D02*
G03X468703Y417078I-670J670D01*
G01X468435Y416270D02*
X468435D01*
X562587Y434393D02*
G03X562205Y433632I565J-761D01*
G01X562587Y434393D02*
X561822D01*
X562205Y433632D02*
G03X561822Y434393I-948J-0D01*
G01X562205Y433632D02*
Y434393D01*
X469339Y417715D02*
G03X470147Y417982I138J937D01*
G01X469339Y417715D02*
X469880Y417174D01*
X470147Y417982D02*
G03X469880Y417174I670J-670D01*
G01X470147Y417982D02*
X470147D01*
X574362Y440356D02*
G03X573553Y440089I-138J-937D01*
G01X574362Y440356D02*
X573821Y440897D01*
X573553Y440089D02*
G03X573821Y440897I-670J670D01*
G01X573553Y440089D02*
X573553D01*
X450253Y433453D02*
G03X451014Y433071I761J566D01*
G01X450253Y433453D02*
Y432688D01*
X451014Y433071D02*
G03X450253Y432688I-0J-948D01*
G01Y433071D02*
X451014D01*
X452897Y432688D02*
G03X452136Y433071I-761J-565D01*
G01X452897Y432688D02*
Y433453D01*
X452136Y433071D02*
G03X452897Y433453I-0J948D01*
G01X452136Y433071D02*
X452897D01*
X452136D02*
X452136D01*
X453935Y433023D02*
G03X454203Y432215I938J-138D01*
G01X453935Y433023D02*
X453394Y432482D01*
X454202Y432215D02*
G03X453394Y432482I-670J-670D01*
G01X468703Y417174D02*
G03X468435Y417982I-938J138D01*
G01X468703Y417174D02*
X469244Y417715D01*
X468435Y417982D02*
G03X469244Y417715I670J670D01*
G01X468435Y417982D02*
X468435D01*
X468435*
X555917Y507733D02*
G03X556299Y508494I-565J761D01*
G01X555917Y507733D02*
X556682D01*
X556299Y508494D02*
G03X556682Y507733I948J0D01*
G01X556299Y508494D02*
X556299D01*
Y507733D02*
Y508494D01*
X556682Y515495D02*
G03X556299Y514734I565J-761D01*
G01X556682Y515495D02*
X555917D01*
X556299Y514734D02*
G03X555917Y515495I-947J0D01*
G01X556299Y514734D02*
Y515495D01*
X556888Y507236D02*
G03X557155Y506427I937J-138D01*
G01X556888Y507236D02*
X556347Y506695D01*
X557155Y506427D02*
G03X556347Y506695I-670J-670D01*
G01X561822Y435292D02*
G03X562205Y436053I-565J761D01*
G01X561822Y435292D02*
X562587D01*
X562205Y436053D02*
G03X562587Y435292I947J0D01*
G01X562205Y436053D02*
X562205D01*
Y435292D02*
Y436053D01*
X575995Y477025D02*
G03X576378Y477785I-565J760D01*
G01X575995Y477025D02*
X576761D01*
X576378Y477785D02*
G03X576761Y477025I948J0D01*
G01X576378Y477785D02*
X576378D01*
Y477025D02*
Y477785D01*
X576761Y526322D02*
G03X576378Y525561I565J-761D01*
G01X576761Y526322D02*
X575995D01*
X576378Y525561D02*
G03X575995Y526322I-948J0D01*
G01X576378Y525561D02*
Y526322D01*
X574457Y441534D02*
G03X575265Y441801I138J937D01*
G01X574457Y441534D02*
X574998Y440992D01*
X575265Y441801D02*
G03X574998Y440992I671J-670D01*
G01X575265Y441801D02*
X575265D01*
X576761Y476125D02*
G03X576378Y475364I565J-761D01*
G01X576761Y476125D02*
X575995D01*
X576378Y475364D02*
G03X575995Y476125I-948J0D01*
G01X576378Y475364D02*
Y476125D01*
X551631Y569280D02*
G03X552392Y568898I761J565D01*
G01X551631Y569280D02*
Y568515D01*
X552392Y568898D02*
G03X551631Y568515I-0J-948D01*
G01Y568898D02*
X552392D01*
X525589Y589323D02*
G03X525856Y588514I937J-139D01*
G01X525589Y589323D02*
X525048Y588781D01*
X525856Y588514D02*
G03X525048Y588781I-670J-670D01*
G01X550731Y568515D02*
G03X549970Y568898I-761J-565D01*
G01X550731Y568515D02*
Y569280D01*
X549970Y568898D02*
G03X550731Y569280I0J947D01*
G01X549970Y568898D02*
X550731D01*
X549970D02*
X549970D01*
X429145Y652143D02*
G03X429528Y652904I-565J761D01*
G01X429145Y652143D02*
X429910D01*
X429528Y652904D02*
G03X429910Y652143I947J-0D01*
G01X429528Y652904D02*
X429528D01*
Y652143D02*
Y652904D01*
X484196Y681507D02*
G03X483435Y681890I-761J-565D01*
G01X484196Y681507D02*
Y682272D01*
X483435Y681890D02*
G03X484196Y682272I0J947D01*
G01X483435Y681890D02*
X484196D01*
X483435D02*
X483435D01*
X471061Y597393D02*
G03X471328Y596585I938J-138D01*
G01X471061Y597393D02*
X470520Y596852D01*
X471328Y596585D02*
G03X470520Y596852I-670J-670D01*
G01X525048Y608069D02*
G03X525856Y608336I138J937D01*
G01X525048Y608069D02*
X525589Y607528D01*
X525856Y608336D02*
G03X525589Y607528I670J-670D01*
G01X525856Y608336D02*
X525856D01*
X550731Y627570D02*
G03X549970Y627953I-761J-565D01*
G01X550731Y627570D02*
Y628335D01*
X549970Y627953D02*
G03X550731Y628335I0J947D01*
G01X549970Y627953D02*
X550731D01*
X549970D02*
X549970D01*
X551770Y627905D02*
G03X552037Y627097I937J-138D01*
G01X551770Y627905D02*
X551229Y627364D01*
X552037Y627097D02*
G03X551229Y627364I-670J-670D01*
G01X485234Y681842D02*
G03X485502Y681034I938J-138D01*
G01X485234Y681842D02*
X484693Y681301D01*
X485502Y681034D02*
G03X484693Y681301I-670J-670D01*
G01X465630Y409449D02*
Y413465D01*
X469291Y417126*
X465630Y409449D02*
X473110Y401969D01*
X532480*
X562205Y431693*
Y434843*
X469291Y417126D02*
X472244Y420079D01*
X483661*
X488386Y424803*
X435630Y409449D02*
X445079Y400000D01*
X533465*
X574409Y440945*
X449803Y433071D02*
X453346D01*
X469291Y417126*
X462598Y476693D02*
X488386Y450906D01*
Y424803*
X462598Y476693D02*
X468110Y482205D01*
Y514567*
X473425Y519882*
Y594488*
X556299Y515945D02*
Y507283D01*
X562205Y501378*
Y434843*
X576378Y476575D02*
Y526772D01*
X574409Y440945D02*
X576378Y442913D01*
Y476575*
X484843Y544882D02*
Y584055D01*
X489567Y588780*
X484843Y544882D02*
X535827Y493898D01*
Y482205*
X541339Y476693*
X551181Y568898D02*
X564764D01*
X573622Y577756*
X525000Y589370D02*
X545472Y568898D01*
X551181*
X429528Y651693D02*
Y669685D01*
X441732Y681890*
X484646*
X470472Y597441D02*
X473425Y594488D01*
X525000Y607480D02*
X545472Y627953D01*
X551181*
X573622Y605512*
Y605315*
X484646Y681890D02*
X489567Y676969D01*
Y588780*
X515152Y656884D02*
X514038Y655770D01*
X515152Y650203D02*
X514038Y651316D01*
X508470Y656884D02*
X509584Y655770D01*
X508470Y650203D02*
X509584Y651316D01*
X515152Y546648D02*
X514038Y545534D01*
X515152Y539966D02*
X514038Y541080D01*
X508470Y546648D02*
X509584Y545534D01*
X508470Y539966D02*
X509584Y541080D01*
X602183Y500451D02*
X601070Y499338D01*
X602183Y492935D02*
X601070Y494048D01*
X594667Y500451D02*
X595781Y499338D01*
X594667Y492935D02*
X595781Y494048D01*
X602183Y470451D02*
X601070Y469338D01*
X602183Y462935D02*
X601070Y464048D01*
X594667Y470451D02*
X595781Y469338D01*
X594667Y462935D02*
X595781Y464048D01*
X602183Y660451D02*
X601070Y659338D01*
X602183Y652935D02*
X601070Y654048D01*
X594667Y660451D02*
X595781Y659338D01*
X594667Y652935D02*
X595781Y654048D01*
X505727Y490451D02*
X504613Y489338D01*
X505727Y482935D02*
X504613Y484048D01*
X498210Y490451D02*
X499324Y489338D01*
X498210Y482935D02*
X499324Y484048D01*
X545097Y490451D02*
X543983Y489338D01*
X545097Y482935D02*
X543983Y484048D01*
X458840Y490451D02*
X459954Y489338D01*
X458840Y482935D02*
X459954Y484048D01*
G54D21*
X418504Y433071D02*
X428937Y422638D01*
X443701*
X447244*
X401575Y462008D02*
Y450000D01*
X418504Y433071*
X401575Y462008D02*
X405118Y465551D01*
Y480354*
X428346Y433071D03*
X418504D03*
X505630Y414764D03*
X495630Y414803D03*
X475591Y417126D03*
X481890Y429114D03*
Y432933D03*
X469291Y417126D03*
X437402Y433071D03*
X443701Y422638D03*
Y428937D03*
X447244Y422638D03*
X449803Y433071D03*
X453346D03*
X405118Y471693D03*
X399409Y466024D03*
X405118Y451693D03*
Y460354D03*
Y480354D03*
X480709Y442933D03*
X470866D03*
Y439114D03*
X443701Y437205D03*
X435630Y456024D03*
X481102Y510630D03*
X453937Y486024D03*
X486614Y506693D03*
X482677D03*
X445276Y474803D03*
X443701Y443504D03*
X488189Y512205D03*
X557874Y446457D03*
X556299Y507283D03*
X585039Y470276D03*
X576378Y476575D03*
X585039Y451575D03*
X562205Y434843D03*
X568504Y468307D03*
X574409Y440945D03*
X568504D03*
X470472Y563386D03*
X492126Y529331D03*
X479528Y525000D03*
X477953Y517913D03*
X457087Y559055D03*
X513189Y577953D03*
X470472Y575000D03*
Y570472D03*
X485039Y592323D03*
X453937Y576378D03*
X455512Y555039D03*
X481496Y592913D03*
X455512Y573228D03*
X485433Y588780D03*
X490157Y577559D03*
X515157Y574803D03*
X517126Y577953D03*
X546850Y584843D03*
X524016Y574409D03*
X521063Y589370D03*
X556299Y515945D03*
X527953Y574409D03*
X551181Y568898D03*
X525000Y589370D03*
X573425Y519291D03*
X576378Y526772D03*
X541535Y584843D03*
X537992D03*
X519094Y592520D03*
X534449Y584843D03*
X525984Y571260D03*
X523031Y592520D03*
X429528Y651693D03*
X399409Y666024D03*
X429528Y660354D03*
X461417Y614764D03*
X511614Y613583D03*
X509646Y616732D03*
X503543Y593701D03*
X506693D03*
Y596850D03*
X503543D03*
Y603150D03*
X500394Y596850D03*
X476772Y608268D03*
X500394Y600000D03*
X497244Y596850D03*
Y593701D03*
X506693Y600000D03*
Y603150D03*
X503543Y600000D03*
X500394Y603150D03*
X497244Y600000D03*
Y603150D03*
X513583Y616732D03*
X435630Y625787D03*
X458268Y639173D03*
X437402Y636024D03*
X435236Y633071D03*
X450000Y616929D03*
Y611417D03*
X476772Y612205D03*
X441732Y613386D03*
X485433Y607087D03*
X500394Y593701D03*
X485433Y600787D03*
X470472Y603740D03*
X486614Y632677D03*
X458268Y653740D03*
X470472Y597441D03*
X483071Y653543D03*
X458661Y611811D03*
X442520Y605906D03*
X446457Y606890D03*
X447244Y614173D03*
X455709Y621654D03*
X435630Y666024D03*
X480315Y614764D03*
X484252D03*
X476772Y653543D03*
X525000Y607480D03*
X527362Y598425D03*
X546850Y612008D03*
X534449D03*
X525984Y625591D03*
X519094Y604331D03*
X551181Y627953D03*
X524016Y622441D03*
X523031Y604331D03*
X537992Y612008D03*
X570079Y666339D03*
X527953Y622441D03*
X534449Y598425D03*
X537992D03*
X541535Y612008D03*
X530906Y598425D03*
X521063Y607480D03*
X491339Y709843D03*
X484646Y696850D03*
X491339Y681890D03*
X512795Y712992D03*
Y696457D03*
X487008Y705512D03*
X502362Y686811D03*
X498425D03*
X506299D03*
X484646Y681890D03*
X526575Y712992D03*
X519685Y718307D03*
X526575Y696457D03*
X519685Y691142D03*
G54D35*
X531496Y653543D03*
X511811D03*
X531496Y543307D03*
X511811D03*
G54D42*
G54D43*
X409449Y409449D03*
X594488D03*
Y712598D03*
X409449D03*
G54D44*
X598425Y526693D03*
Y516693D03*
Y506693D03*
Y496693D03*
Y476693D03*
Y466693D03*
Y456693D03*
Y446693D03*
Y436693D03*
Y666693D03*
Y656693D03*
X501969Y476693D03*
Y486693D03*
X541339Y476693D03*
Y486693D03*
X462598Y476693D03*
Y486693D03*
G54D48*
X564961Y688976D03*
X545276D03*
X573622Y577756D03*
Y591535D03*
Y605315D03*
Y619094D03*
X459646Y693307D03*
X445866D03*
G74*
X0Y0D02*
M02*
