*
*
G04 PADS VX.2.7 Build Number: 15549477 generated Gerber (RS-274-X) file*
G04 PC Version=2.1*
*
%IN "TMC5240-SA-DEV_V10.pcb"*%
*
%MOIN*%
*
%FSLAX35Y35*%
*
*
*
*
G04 PC Standard Apertures*
*
*
G04 Thermal Relief Aperture macro.*
%AMTER*
1,1,$1,0,0*
1,0,$1-$2,0,0*
21,0,$3,$4,0,0,45*
21,0,$3,$4,0,0,135*
%
*
*
G04 Annular Aperture macro.*
%AMANN*
1,1,$1,0,0*
1,0,$2,0,0*
%
*
*
G04 Odd Aperture macro.*
%AMODD*
1,1,$1,0,0*
1,0,$1-0.005,0,0*
%
*
*
G04 PC Custom Aperture Macros*
*
*
*
*
*
*
G04 PC Aperture Table*
*
%ADD011C,0.00787*%
%ADD017C,0.00394*%
%ADD033C,0.00984*%
%ADD042C,0.001*%
*
*
*
*
G04 PC Circuitry*
G04 Layer Name TMC5240-SA-DEV_V10.pcb - circuitry*
%LPD*%
*
*
G04 PC Custom Flashes*
G04 Layer Name TMC5240-SA-DEV_V10.pcb - flashes*
%LPD*%
*
*
G04 PC Circuitry*
G04 Layer Name TMC5240-SA-DEV_V10.pcb - circuitry*
%LPD*%
*
G54D11*
G01X393701Y409449D02*
G75*
G03X409449Y393701I15748J-0D01*
G01X594488*
G03X610236Y409449I0J15748*
G01Y712598*
G03X594488Y728346I-15748J0*
G01X409449*
G03X393701Y712598I-0J-15748*
G01Y409449*
G54D17*
X529528Y653543D02*
X533465D01*
X531496Y651575D02*
Y655512D01*
X533196Y657111D02*
X532480Y654528D01*
X533196Y657111D02*
X533912Y654528D01*
X532749Y655389D02*
X533644D01*
X509843Y653543D02*
X513780D01*
X511811Y651575D02*
Y655512D01*
X513511Y657111D02*
X512795Y654528D01*
X513511Y657111D02*
X514227Y654528D01*
X513064Y655389D02*
X513958D01*
X529528Y543307D02*
X533465D01*
X531496Y541339D02*
Y545276D01*
X533196Y546875D02*
X532480Y544291D01*
X533196Y546875D02*
X533912Y544291D01*
X532749Y545153D02*
X533644D01*
X509843Y543307D02*
X513780D01*
X511811Y541339D02*
Y545276D01*
X513511Y546875D02*
X512795Y544291D01*
X513511Y546875D02*
X514227Y544291D01*
X513064Y545153D02*
X513958D01*
X562992Y688976D02*
X566929D01*
X564961Y687008D02*
Y690945D01*
X567287Y691929D02*
X567198Y692175D01*
X567019Y692421*
X566840Y692544*
X566482*
X566303Y692421*
X566124Y692175*
X566034Y691929*
X565945Y691560*
Y690945*
X566034Y690576*
X566124Y690330*
X566303Y690084*
X566482Y689961*
X566840*
X567019Y690084*
X567198Y690330*
X567287Y690576*
X543307Y688976D02*
X547244D01*
X545276Y687008D02*
Y690945D01*
X547602Y691929D02*
X547513Y692175D01*
X547334Y692421*
X547155Y692544*
X546797*
X546618Y692421*
X546439Y692175*
X546349Y691929*
X546260Y691560*
Y690945*
X546349Y690576*
X546439Y690330*
X546618Y690084*
X546797Y689961*
X547155*
X547334Y690084*
X547513Y690330*
X547602Y690576*
X571654Y577756D02*
X575591D01*
X573622Y575787D02*
Y579724D01*
X575948Y580709D02*
X575859Y580955D01*
X575680Y581201*
X575501Y581324*
X575143*
X574964Y581201*
X574785Y580955*
X574696Y580709*
X574606Y580340*
Y579724*
X574696Y579355*
X574785Y579109*
X574964Y578863*
X575143Y578740*
X575501*
X575680Y578863*
X575859Y579109*
X575948Y579355*
X571654Y591535D02*
X575591D01*
X573622Y589567D02*
Y593504D01*
X575948Y594488D02*
X575859Y594734D01*
X575680Y594980*
X575501Y595103*
X575143*
X574964Y594980*
X574785Y594734*
X574696Y594488*
X574606Y594119*
Y593504*
X574696Y593135*
X574785Y592889*
X574964Y592643*
X575143Y592520*
X575501*
X575680Y592643*
X575859Y592889*
X575948Y593135*
X571654Y605315D02*
X575591D01*
X573622Y603346D02*
Y607283D01*
X575948Y608268D02*
X575859Y608514D01*
X575680Y608760*
X575501Y608883*
X575143*
X574964Y608760*
X574785Y608514*
X574696Y608268*
X574606Y607899*
Y607283*
X574696Y606914*
X574785Y606668*
X574964Y606422*
X575143Y606299*
X575501*
X575680Y606422*
X575859Y606668*
X575948Y606914*
X571654Y619094D02*
X575591D01*
X573622Y617126D02*
Y621063D01*
X575948Y622047D02*
X575859Y622293D01*
X575680Y622539*
X575501Y622662*
X575143*
X574964Y622539*
X574785Y622293*
X574696Y622047*
X574606Y621678*
Y621063*
X574696Y620694*
X574785Y620448*
X574964Y620202*
X575143Y620079*
X575501*
X575680Y620202*
X575859Y620448*
X575948Y620694*
X407480Y407480D02*
X411417Y411417D01*
Y407480*
X407480Y411417*
Y407480*
X592520D02*
X596457Y411417D01*
Y407480*
X592520Y411417*
Y407480*
Y710630D02*
X596457Y714567D01*
Y710630*
X592520Y714567*
Y710630*
X407480D02*
X411417Y714567D01*
Y710630*
X407480Y714567*
Y710630*
X412323Y454055D02*
X414291Y456024D01*
X412323Y457992*
X410354Y456024*
X412323Y454055*
Y456024D02*
Y457992D01*
X422323Y454055D02*
X424291Y456024D01*
X422323Y457992*
X420354Y456024*
X422323Y454055*
Y456024D02*
Y457992D01*
X412323Y464055D02*
X414291Y466024D01*
X412323Y467992*
X410354Y466024*
X412323Y464055*
Y466024D02*
Y467992D01*
X422323Y464055D02*
X424291Y466024D01*
X422323Y467992*
X420354Y466024*
X422323Y464055*
Y466024D02*
Y467992D01*
X412323Y474055D02*
X414291Y476024D01*
X412323Y477992*
X410354Y476024*
X412323Y474055*
Y476024D02*
Y477992D01*
X422323Y474055D02*
X424291Y476024D01*
X422323Y477992*
X420354Y476024*
X422323Y474055*
Y476024D02*
Y477992D01*
X412323Y484055D02*
X414291Y486024D01*
X412323Y487992*
X410354Y486024*
X412323Y484055*
Y486024D02*
Y487992D01*
X422323Y484055D02*
X424291Y486024D01*
X422323Y487992*
X420354Y486024*
X422323Y484055*
Y486024D02*
Y487992D01*
X412323Y494055D02*
X414291Y496024D01*
X412323Y497992*
X410354Y496024*
X412323Y494055*
Y496024D02*
Y497992D01*
X422323Y494055D02*
X424291Y496024D01*
X422323Y497992*
X420354Y496024*
X422323Y494055*
Y496024D02*
Y497992D01*
X412323Y504055D02*
X414291Y506024D01*
X412323Y507992*
X410354Y506024*
X412323Y504055*
Y506024D02*
Y507992D01*
X422323Y504055D02*
X424291Y506024D01*
X422323Y507992*
X420354Y506024*
X422323Y504055*
Y506024D02*
Y507992D01*
X412323Y514055D02*
X414291Y516024D01*
X412323Y517992*
X410354Y516024*
X412323Y514055*
Y516024D02*
Y517992D01*
X422323Y514055D02*
X424291Y516024D01*
X422323Y517992*
X420354Y516024*
X422323Y514055*
Y516024D02*
Y517992D01*
X412323Y524055D02*
X414291Y526024D01*
X412323Y527992*
X410354Y526024*
X412323Y524055*
Y526024D02*
Y527992D01*
X422323Y524055D02*
X424291Y526024D01*
X422323Y527992*
X420354Y526024*
X422323Y524055*
Y526024D02*
Y527992D01*
X412323Y534055D02*
X414291Y536024D01*
X412323Y537992*
X410354Y536024*
X412323Y534055*
Y536024D02*
Y537992D01*
X422323Y534055D02*
X424291Y536024D01*
X422323Y537992*
X420354Y536024*
X422323Y534055*
Y536024D02*
Y537992D01*
X412323Y544055D02*
X414291Y546024D01*
X412323Y547992*
X410354Y546024*
X412323Y544055*
Y546024D02*
Y547992D01*
X422323Y544055D02*
X424291Y546024D01*
X422323Y547992*
X420354Y546024*
X422323Y544055*
Y546024D02*
Y547992D01*
X412323Y554055D02*
X414291Y556024D01*
X412323Y557992*
X410354Y556024*
X412323Y554055*
Y556024D02*
Y557992D01*
X422323Y554055D02*
X424291Y556024D01*
X422323Y557992*
X420354Y556024*
X422323Y554055*
Y556024D02*
Y557992D01*
X412323Y564055D02*
X414291Y566024D01*
X412323Y567992*
X410354Y566024*
X412323Y564055*
Y566024D02*
Y567992D01*
X422323Y564055D02*
X424291Y566024D01*
X422323Y567992*
X420354Y566024*
X422323Y564055*
Y566024D02*
Y567992D01*
X412323Y574055D02*
X414291Y576024D01*
X412323Y577992*
X410354Y576024*
X412323Y574055*
Y576024D02*
Y577992D01*
X422323Y574055D02*
X424291Y576024D01*
X422323Y577992*
X420354Y576024*
X422323Y574055*
Y576024D02*
Y577992D01*
X412323Y584055D02*
X414291Y586024D01*
X412323Y587992*
X410354Y586024*
X412323Y584055*
Y586024D02*
Y587992D01*
X422323Y584055D02*
X424291Y586024D01*
X422323Y587992*
X420354Y586024*
X422323Y584055*
Y586024D02*
Y587992D01*
X412323Y594055D02*
X414291Y596024D01*
X412323Y597992*
X410354Y596024*
X412323Y594055*
Y596024D02*
Y597992D01*
X422323Y594055D02*
X424291Y596024D01*
X422323Y597992*
X420354Y596024*
X422323Y594055*
Y596024D02*
Y597992D01*
X412323Y604055D02*
X414291Y606024D01*
X412323Y607992*
X410354Y606024*
X412323Y604055*
Y606024D02*
Y607992D01*
X422323Y604055D02*
X424291Y606024D01*
X422323Y607992*
X420354Y606024*
X422323Y604055*
Y606024D02*
Y607992D01*
X412323Y614055D02*
X414291Y616024D01*
X412323Y617992*
X410354Y616024*
X412323Y614055*
Y616024D02*
Y617992D01*
X422323Y614055D02*
X424291Y616024D01*
X422323Y617992*
X420354Y616024*
X422323Y614055*
Y616024D02*
Y617992D01*
X412323Y624055D02*
X414291Y626024D01*
X412323Y627992*
X410354Y626024*
X412323Y624055*
Y626024D02*
Y627992D01*
X422323Y624055D02*
X424291Y626024D01*
X422323Y627992*
X420354Y626024*
X422323Y624055*
Y626024D02*
Y627992D01*
X412323Y634055D02*
X414291Y636024D01*
X412323Y637992*
X410354Y636024*
X412323Y634055*
Y636024D02*
Y637992D01*
X422323Y634055D02*
X424291Y636024D01*
X422323Y637992*
X420354Y636024*
X422323Y634055*
Y636024D02*
Y637992D01*
X412323Y644055D02*
X414291Y646024D01*
X412323Y647992*
X410354Y646024*
X412323Y644055*
Y646024D02*
Y647992D01*
X422323Y644055D02*
X424291Y646024D01*
X422323Y647992*
X420354Y646024*
X422323Y644055*
Y646024D02*
Y647992D01*
X412323Y654055D02*
X414291Y656024D01*
X412323Y657992*
X410354Y656024*
X412323Y654055*
Y656024D02*
Y657992D01*
X422323Y654055D02*
X424291Y656024D01*
X422323Y657992*
X420354Y656024*
X422323Y654055*
Y656024D02*
Y657992D01*
X412323Y664055D02*
X414291Y666024D01*
X412323Y667992*
X410354Y666024*
X412323Y664055*
Y666024D02*
Y667992D01*
X422323Y664055D02*
X424291Y666024D01*
X422323Y667992*
X420354Y666024*
X422323Y664055*
Y666024D02*
Y667992D01*
X415354Y459055D02*
X419291D01*
Y462992*
X415354*
Y459055*
X417323Y461024D02*
Y462992D01*
X415354Y659055D02*
X419291D01*
Y662992*
X415354*
Y659055*
X417323Y661024D02*
Y662992D01*
X596457Y526693D02*
X600394D01*
X598425Y524724D02*
Y528661D01*
X599409Y530261D02*
Y527677D01*
Y530261D02*
X600215D01*
X600483Y530138*
X600573Y530015*
X600662Y529769*
Y529523*
X600573Y529277*
X600483Y529154*
X600215Y529031*
X599409D02*
X600215D01*
X600483Y528907*
X600573Y528784*
X600662Y528538*
Y528169*
X600573Y527923*
X600483Y527800*
X600215Y527677*
X599409*
X596457Y516693D02*
X600394D01*
X598425Y514724D02*
Y518661D01*
X599409Y520261D02*
Y517677D01*
Y520261D02*
X600215D01*
X600483Y520138*
X600573Y520015*
X600662Y519769*
Y519523*
X600573Y519277*
X600483Y519154*
X600215Y519031*
X599409D02*
X600215D01*
X600483Y518907*
X600573Y518784*
X600662Y518538*
Y518169*
X600573Y517923*
X600483Y517800*
X600215Y517677*
X599409*
X596457Y506693D02*
X600394D01*
X598425Y504724D02*
Y508661D01*
X599409Y510261D02*
Y507677D01*
Y510261D02*
X600215D01*
X600483Y510138*
X600573Y510015*
X600662Y509769*
Y509523*
X600573Y509277*
X600483Y509154*
X600215Y509031*
X599409D02*
X600215D01*
X600483Y508907*
X600573Y508784*
X600662Y508538*
Y508169*
X600573Y507923*
X600483Y507800*
X600215Y507677*
X599409*
X596457Y496693D02*
X600394D01*
X598425Y494724D02*
Y498661D01*
X599409Y500261D02*
Y497677D01*
Y500261D02*
X600215D01*
X600483Y500138*
X600573Y500015*
X600662Y499769*
Y499523*
X600573Y499277*
X600483Y499154*
X600215Y499031*
X599409D02*
X600215D01*
X600483Y498907*
X600573Y498784*
X600662Y498538*
Y498169*
X600573Y497923*
X600483Y497800*
X600215Y497677*
X599409*
X596457Y476693D02*
X600394D01*
X598425Y474724D02*
Y478661D01*
X599409Y480261D02*
Y477677D01*
Y480261D02*
X600215D01*
X600483Y480138*
X600573Y480015*
X600662Y479769*
Y479523*
X600573Y479277*
X600483Y479154*
X600215Y479031*
X599409D02*
X600215D01*
X600483Y478907*
X600573Y478784*
X600662Y478538*
Y478169*
X600573Y477923*
X600483Y477800*
X600215Y477677*
X599409*
X596457Y466693D02*
X600394D01*
X598425Y464724D02*
Y468661D01*
X599409Y470261D02*
Y467677D01*
Y470261D02*
X600215D01*
X600483Y470138*
X600573Y470015*
X600662Y469769*
Y469523*
X600573Y469277*
X600483Y469154*
X600215Y469031*
X599409D02*
X600215D01*
X600483Y468907*
X600573Y468784*
X600662Y468538*
Y468169*
X600573Y467923*
X600483Y467800*
X600215Y467677*
X599409*
X596457Y456693D02*
X600394D01*
X598425Y454724D02*
Y458661D01*
X599409Y460261D02*
Y457677D01*
Y460261D02*
X600215D01*
X600483Y460138*
X600573Y460015*
X600662Y459769*
Y459523*
X600573Y459277*
X600483Y459154*
X600215Y459031*
X599409D02*
X600215D01*
X600483Y458907*
X600573Y458784*
X600662Y458538*
Y458169*
X600573Y457923*
X600483Y457800*
X600215Y457677*
X599409*
X596457Y446693D02*
X600394D01*
X598425Y444724D02*
Y448661D01*
X599409Y450261D02*
Y447677D01*
Y450261D02*
X600215D01*
X600483Y450138*
X600573Y450015*
X600662Y449769*
Y449523*
X600573Y449277*
X600483Y449154*
X600215Y449031*
X599409D02*
X600215D01*
X600483Y448907*
X600573Y448784*
X600662Y448538*
Y448169*
X600573Y447923*
X600483Y447800*
X600215Y447677*
X599409*
X596457Y436693D02*
X600394D01*
X598425Y434724D02*
Y438661D01*
X599409Y440261D02*
Y437677D01*
Y440261D02*
X600215D01*
X600483Y440138*
X600573Y440015*
X600662Y439769*
Y439523*
X600573Y439277*
X600483Y439154*
X600215Y439031*
X599409D02*
X600215D01*
X600483Y438907*
X600573Y438784*
X600662Y438538*
Y438169*
X600573Y437923*
X600483Y437800*
X600215Y437677*
X599409*
X596457Y666693D02*
X600394D01*
X598425Y664724D02*
Y668661D01*
X599409Y670261D02*
Y667677D01*
Y670261D02*
X600215D01*
X600483Y670138*
X600573Y670015*
X600662Y669769*
Y669523*
X600573Y669277*
X600483Y669154*
X600215Y669031*
X599409D02*
X600215D01*
X600483Y668907*
X600573Y668784*
X600662Y668538*
Y668169*
X600573Y667923*
X600483Y667800*
X600215Y667677*
X599409*
X596457Y656693D02*
X600394D01*
X598425Y654724D02*
Y658661D01*
X599409Y660261D02*
Y657677D01*
Y660261D02*
X600215D01*
X600483Y660138*
X600573Y660015*
X600662Y659769*
Y659523*
X600573Y659277*
X600483Y659154*
X600215Y659031*
X599409D02*
X600215D01*
X600483Y658907*
X600573Y658784*
X600662Y658538*
Y658169*
X600573Y657923*
X600483Y657800*
X600215Y657677*
X599409*
X457677Y693307D02*
X461614D01*
X459646Y691339D02*
Y695276D01*
X461972Y696260D02*
X461883Y696506D01*
X461704Y696752*
X461525Y696875*
X461167*
X460988Y696752*
X460809Y696506*
X460719Y696260*
X460630Y695891*
Y695276*
X460719Y694906*
X460809Y694660*
X460988Y694414*
X461167Y694291*
X461525*
X461704Y694414*
X461883Y694660*
X461972Y694906*
X443898Y693307D02*
X447835D01*
X445866Y691339D02*
Y695276D01*
X448193Y696260D02*
X448103Y696506D01*
X447924Y696752*
X447745Y696875*
X447387*
X447208Y696752*
X447029Y696506*
X446940Y696260*
X446850Y695891*
Y695276*
X446940Y694906*
X447029Y694660*
X447208Y694414*
X447387Y694291*
X447745*
X447924Y694414*
X448103Y694660*
X448193Y694906*
X500000Y476693D02*
X503937D01*
X501969Y474724D02*
Y478661D01*
X502953Y480261D02*
Y477677D01*
Y480261D02*
X503758D01*
X504026Y480138*
X504116Y480015*
X504205Y479769*
Y479523*
X504116Y479277*
X504026Y479154*
X503758Y479031*
X502953D02*
X503758D01*
X504026Y478907*
X504116Y478784*
X504205Y478538*
Y478169*
X504116Y477923*
X504026Y477800*
X503758Y477677*
X502953*
X500000Y486693D02*
X503937D01*
X501969Y484724D02*
Y488661D01*
X502953Y490261D02*
Y487677D01*
Y490261D02*
X503758D01*
X504026Y490138*
X504116Y490015*
X504205Y489769*
Y489523*
X504116Y489277*
X504026Y489154*
X503758Y489031*
X502953D02*
X503758D01*
X504026Y488907*
X504116Y488784*
X504205Y488538*
Y488169*
X504116Y487923*
X504026Y487800*
X503758Y487677*
X502953*
X539370Y476693D02*
X543307D01*
X541339Y474724D02*
Y478661D01*
X542323Y480261D02*
Y477677D01*
Y480261D02*
X543128D01*
X543397Y480138*
X543486Y480015*
X543576Y479769*
Y479523*
X543486Y479277*
X543397Y479154*
X543128Y479031*
X542323D02*
X543128D01*
X543397Y478907*
X543486Y478784*
X543576Y478538*
Y478169*
X543486Y477923*
X543397Y477800*
X543128Y477677*
X542323*
X539370Y486693D02*
X543307D01*
X541339Y484724D02*
Y488661D01*
X542323Y490261D02*
Y487677D01*
Y490261D02*
X543128D01*
X543397Y490138*
X543486Y490015*
X543576Y489769*
Y489523*
X543486Y489277*
X543397Y489154*
X543128Y489031*
X542323D02*
X543128D01*
X543397Y488907*
X543486Y488784*
X543576Y488538*
Y488169*
X543486Y487923*
X543397Y487800*
X543128Y487677*
X542323*
X460630Y476693D02*
X464567D01*
X462598Y474724D02*
Y478661D01*
X463583Y480261D02*
Y477677D01*
Y480261D02*
X464388D01*
X464656Y480138*
X464746Y480015*
X464835Y479769*
Y479523*
X464746Y479277*
X464656Y479154*
X464388Y479031*
X463583D02*
X464388D01*
X464656Y478907*
X464746Y478784*
X464835Y478538*
Y478169*
X464746Y477923*
X464656Y477800*
X464388Y477677*
X463583*
X460630Y486693D02*
X464567D01*
X462598Y484724D02*
Y488661D01*
X463583Y490261D02*
Y487677D01*
Y490261D02*
X464388D01*
X464656Y490138*
X464746Y490015*
X464835Y489769*
Y489523*
X464746Y489277*
X464656Y489154*
X464388Y489031*
X463583D02*
X464388D01*
X464656Y488907*
X464746Y488784*
X464835Y488538*
Y488169*
X464746Y487923*
X464656Y487800*
X464388Y487677*
X463583*
X426378Y431102D02*
X430315Y435039D01*
X426378D02*
X430315Y431102D01*
X416535D02*
X420472Y435039D01*
X416535D02*
X420472Y431102D01*
X503661Y412795D02*
X507598Y416732D01*
X503661D02*
X507598Y412795D01*
X493661Y412835D02*
X497598Y416772D01*
X493661D02*
X497598Y412835D01*
X473622Y415157D02*
X477559Y419094D01*
X473622D02*
X477559Y415157D01*
X479921Y427146D02*
X483858Y431083D01*
X479921D02*
X483858Y427146D01*
X479921Y430965D02*
X483858Y434902D01*
X479921D02*
X483858Y430965D01*
X467323Y415157D02*
X471260Y419094D01*
X467323D02*
X471260Y415157D01*
X435433Y431102D02*
X439370Y435039D01*
X435433D02*
X439370Y431102D01*
X441732Y420669D02*
X445669Y424606D01*
X441732D02*
X445669Y420669D01*
X441732Y426969D02*
X445669Y430906D01*
X441732D02*
X445669Y426969D01*
X445276Y420669D02*
X449213Y424606D01*
X445276D02*
X449213Y420669D01*
X447835Y431102D02*
X451772Y435039D01*
X447835D02*
X451772Y431102D01*
X451378D02*
X455315Y435039D01*
X451378D02*
X455315Y431102D01*
X403150Y469724D02*
X407087Y473661D01*
X403150D02*
X407087Y469724D01*
X397441Y464055D02*
X401378Y467992D01*
X397441D02*
X401378Y464055D01*
X403150Y449724D02*
X407087Y453661D01*
X403150D02*
X407087Y449724D01*
X403150Y458386D02*
X407087Y462323D01*
X403150D02*
X407087Y458386D01*
X403150Y478386D02*
X407087Y482323D01*
X403150D02*
X407087Y478386D01*
X478740Y440965D02*
X482677Y444902D01*
X478740D02*
X482677Y440965D01*
X468898D02*
X472835Y444902D01*
X468898D02*
X472835Y440965D01*
X468898Y437146D02*
X472835Y441083D01*
X468898D02*
X472835Y437146D01*
X441732Y435236D02*
X445669Y439173D01*
X441732D02*
X445669Y435236D01*
X433661Y454055D02*
X437598Y457992D01*
X433661D02*
X437598Y454055D01*
X479134Y508661D02*
X483071Y512598D01*
X479134D02*
X483071Y508661D01*
X451969Y484055D02*
X455906Y487992D01*
X451969D02*
X455906Y484055D01*
X484646Y504724D02*
X488583Y508661D01*
X484646D02*
X488583Y504724D01*
X480709D02*
X484646Y508661D01*
X480709D02*
X484646Y504724D01*
X443307Y472835D02*
X447244Y476772D01*
X443307D02*
X447244Y472835D01*
X441732Y441535D02*
X445669Y445472D01*
X441732D02*
X445669Y441535D01*
X486220Y510236D02*
X490157Y514173D01*
X486220D02*
X490157Y510236D01*
X555906Y444488D02*
X559843Y448425D01*
X555906D02*
X559843Y444488D01*
X554331Y505315D02*
X558268Y509252D01*
X554331D02*
X558268Y505315D01*
X583071Y468307D02*
X587008Y472244D01*
X583071D02*
X587008Y468307D01*
X574409Y474606D02*
X578346Y478543D01*
X574409D02*
X578346Y474606D01*
X583071Y449606D02*
X587008Y453543D01*
X583071D02*
X587008Y449606D01*
X560236Y432874D02*
X564173Y436811D01*
X560236D02*
X564173Y432874D01*
X566535Y466339D02*
X570472Y470276D01*
X566535D02*
X570472Y466339D01*
X572441Y438976D02*
X576378Y442913D01*
X572441D02*
X576378Y438976D01*
X566535D02*
X570472Y442913D01*
X566535D02*
X570472Y438976D01*
X468504Y561417D02*
X472441Y565354D01*
X468504D02*
X472441Y561417D01*
X490157Y527362D02*
X494094Y531299D01*
X490157D02*
X494094Y527362D01*
X477559Y523031D02*
X481496Y526969D01*
X477559D02*
X481496Y523031D01*
X475984Y515945D02*
X479921Y519882D01*
X475984D02*
X479921Y515945D01*
X455118Y557087D02*
X459055Y561024D01*
X455118D02*
X459055Y557087D01*
X511220Y575984D02*
X515157Y579921D01*
X511220D02*
X515157Y575984D01*
X468504Y573031D02*
X472441Y576969D01*
X468504D02*
X472441Y573031D01*
X468504Y568504D02*
X472441Y572441D01*
X468504D02*
X472441Y568504D01*
X483071Y590354D02*
X487008Y594291D01*
X483071D02*
X487008Y590354D01*
X451969Y574409D02*
X455906Y578346D01*
X451969D02*
X455906Y574409D01*
X453543Y553071D02*
X457480Y557008D01*
X453543D02*
X457480Y553071D01*
X479528Y590945D02*
X483465Y594882D01*
X479528D02*
X483465Y590945D01*
X453543Y571260D02*
X457480Y575197D01*
X453543D02*
X457480Y571260D01*
X483465Y586811D02*
X487402Y590748D01*
X483465D02*
X487402Y586811D01*
X488189Y575591D02*
X492126Y579528D01*
X488189D02*
X492126Y575591D01*
X513189Y572835D02*
X517126Y576772D01*
X513189D02*
X517126Y572835D01*
X515157Y575984D02*
X519094Y579921D01*
X515157D02*
X519094Y575984D01*
X544882Y582874D02*
X548819Y586811D01*
X544882D02*
X548819Y582874D01*
X522047Y572441D02*
X525984Y576378D01*
X522047D02*
X525984Y572441D01*
X519094Y587402D02*
X523031Y591339D01*
X519094D02*
X523031Y587402D01*
X554331Y513976D02*
X558268Y517913D01*
X554331D02*
X558268Y513976D01*
X525984Y572441D02*
X529921Y576378D01*
X525984D02*
X529921Y572441D01*
X549213Y566929D02*
X553150Y570866D01*
X549213D02*
X553150Y566929D01*
X523031Y587402D02*
X526969Y591339D01*
X523031D02*
X526969Y587402D01*
X571457Y517323D02*
X575394Y521260D01*
X571457D02*
X575394Y517323D01*
X574409Y524803D02*
X578346Y528740D01*
X574409D02*
X578346Y524803D01*
X539567Y582874D02*
X543504Y586811D01*
X539567D02*
X543504Y582874D01*
X536024D02*
X539961Y586811D01*
X536024D02*
X539961Y582874D01*
X517126Y590551D02*
X521063Y594488D01*
X517126D02*
X521063Y590551D01*
X532480Y582874D02*
X536417Y586811D01*
X532480D02*
X536417Y582874D01*
X524016Y569291D02*
X527953Y573228D01*
X524016D02*
X527953Y569291D01*
X521063Y590551D02*
X525000Y594488D01*
X521063D02*
X525000Y590551D01*
X427559Y649724D02*
X431496Y653661D01*
X427559D02*
X431496Y649724D01*
X397441Y664055D02*
X401378Y667992D01*
X397441D02*
X401378Y664055D01*
X427559Y658386D02*
X431496Y662323D01*
X427559D02*
X431496Y658386D01*
X459449Y612795D02*
X463386Y616732D01*
X459449D02*
X463386Y612795D01*
X509646Y611614D02*
X513583Y615551D01*
X509646D02*
X513583Y611614D01*
X507677Y614764D02*
X511614Y618701D01*
X507677D02*
X511614Y614764D01*
X501575Y591732D02*
X505512Y595669D01*
X501575D02*
X505512Y591732D01*
X504724D02*
X508661Y595669D01*
X504724D02*
X508661Y591732D01*
X504724Y594882D02*
X508661Y598819D01*
X504724D02*
X508661Y594882D01*
X501575D02*
X505512Y598819D01*
X501575D02*
X505512Y594882D01*
X501575Y601181D02*
X505512Y605118D01*
X501575D02*
X505512Y601181D01*
X498425Y594882D02*
X502362Y598819D01*
X498425D02*
X502362Y594882D01*
X474803Y606299D02*
X478740Y610236D01*
X474803D02*
X478740Y606299D01*
X498425Y598031D02*
X502362Y601969D01*
X498425D02*
X502362Y598031D01*
X495276Y594882D02*
X499213Y598819D01*
X495276D02*
X499213Y594882D01*
X495276Y591732D02*
X499213Y595669D01*
X495276D02*
X499213Y591732D01*
X504724Y598031D02*
X508661Y601969D01*
X504724D02*
X508661Y598031D01*
X504724Y601181D02*
X508661Y605118D01*
X504724D02*
X508661Y601181D01*
X501575Y598031D02*
X505512Y601969D01*
X501575D02*
X505512Y598031D01*
X498425Y601181D02*
X502362Y605118D01*
X498425D02*
X502362Y601181D01*
X495276Y598031D02*
X499213Y601969D01*
X495276D02*
X499213Y598031D01*
X495276Y601181D02*
X499213Y605118D01*
X495276D02*
X499213Y601181D01*
X511614Y614764D02*
X515551Y618701D01*
X511614D02*
X515551Y614764D01*
X433661Y623819D02*
X437598Y627756D01*
X433661D02*
X437598Y623819D01*
X456299Y637205D02*
X460236Y641142D01*
X456299D02*
X460236Y637205D01*
X435433Y634055D02*
X439370Y637992D01*
X435433D02*
X439370Y634055D01*
X433268Y631102D02*
X437205Y635039D01*
X433268D02*
X437205Y631102D01*
X448031Y614961D02*
X451969Y618898D01*
X448031D02*
X451969Y614961D01*
X448031Y609449D02*
X451969Y613386D01*
X448031D02*
X451969Y609449D01*
X474803Y610236D02*
X478740Y614173D01*
X474803D02*
X478740Y610236D01*
X439764Y611417D02*
X443701Y615354D01*
X439764D02*
X443701Y611417D01*
X483465Y605118D02*
X487402Y609055D01*
X483465D02*
X487402Y605118D01*
X498425Y591732D02*
X502362Y595669D01*
X498425D02*
X502362Y591732D01*
X483465Y598819D02*
X487402Y602756D01*
X483465D02*
X487402Y598819D01*
X468504Y601772D02*
X472441Y605709D01*
X468504D02*
X472441Y601772D01*
X484646Y630709D02*
X488583Y634646D01*
X484646D02*
X488583Y630709D01*
X456299Y651772D02*
X460236Y655709D01*
X456299D02*
X460236Y651772D01*
X468504Y595472D02*
X472441Y599409D01*
X468504D02*
X472441Y595472D01*
X481102Y651575D02*
X485039Y655512D01*
X481102D02*
X485039Y651575D01*
X456693Y609843D02*
X460630Y613780D01*
X456693D02*
X460630Y609843D01*
X440551Y603937D02*
X444488Y607874D01*
X440551D02*
X444488Y603937D01*
Y604921D02*
X448425Y608858D01*
X444488D02*
X448425Y604921D01*
X445276Y612205D02*
X449213Y616142D01*
X445276D02*
X449213Y612205D01*
X453740Y619685D02*
X457677Y623622D01*
X453740D02*
X457677Y619685D01*
X433661Y664055D02*
X437598Y667992D01*
X433661D02*
X437598Y664055D01*
X478346Y612795D02*
X482283Y616732D01*
X478346D02*
X482283Y612795D01*
X486220Y616732*
X482283D02*
X486220Y612795D01*
X474803Y651575D02*
X478740Y655512D01*
X474803D02*
X478740Y651575D01*
X523031Y605512D02*
X526969Y609449D01*
X523031D02*
X526969Y605512D01*
X525394Y596457D02*
X529331Y600394D01*
X525394D02*
X529331Y596457D01*
X544882Y610039D02*
X548819Y613976D01*
X544882D02*
X548819Y610039D01*
X532480D02*
X536417Y613976D01*
X532480D02*
X536417Y610039D01*
X524016Y623622D02*
X527953Y627559D01*
X524016D02*
X527953Y623622D01*
X517126Y602362D02*
X521063Y606299D01*
X517126D02*
X521063Y602362D01*
X549213Y625984D02*
X553150Y629921D01*
X549213D02*
X553150Y625984D01*
X522047Y620472D02*
X525984Y624409D01*
X522047D02*
X525984Y620472D01*
X521063Y602362D02*
X525000Y606299D01*
X521063D02*
X525000Y602362D01*
X536024Y610039D02*
X539961Y613976D01*
X536024D02*
X539961Y610039D01*
X568110Y664370D02*
X572047Y668307D01*
X568110D02*
X572047Y664370D01*
X525984Y620472D02*
X529921Y624409D01*
X525984D02*
X529921Y620472D01*
X532480Y596457D02*
X536417Y600394D01*
X532480D02*
X536417Y596457D01*
X536024D02*
X539961Y600394D01*
X536024D02*
X539961Y596457D01*
X539567Y610039D02*
X543504Y613976D01*
X539567D02*
X543504Y610039D01*
X528937Y596457D02*
X532874Y600394D01*
X528937D02*
X532874Y596457D01*
X519094Y605512D02*
X523031Y609449D01*
X519094D02*
X523031Y605512D01*
X489370Y707874D02*
X493307Y711811D01*
X489370D02*
X493307Y707874D01*
X482677Y694882D02*
X486614Y698819D01*
X482677D02*
X486614Y694882D01*
X489370Y679921D02*
X493307Y683858D01*
X489370D02*
X493307Y679921D01*
X510827Y711024D02*
X514764Y714961D01*
X510827D02*
X514764Y711024D01*
X510827Y694488D02*
X514764Y698425D01*
X510827D02*
X514764Y694488D01*
X485039Y703543D02*
X488976Y707480D01*
X485039D02*
X488976Y703543D01*
X500394Y684843D02*
X504331Y688780D01*
X500394D02*
X504331Y684843D01*
X496457D02*
X500394Y688780D01*
X496457D02*
X500394Y684843D01*
X504331D02*
X508268Y688780D01*
X504331D02*
X508268Y684843D01*
X482677Y679921D02*
X486614Y683858D01*
X482677D02*
X486614Y679921D01*
X524606Y711024D02*
X528543Y714961D01*
X524606D02*
X528543Y711024D01*
X517717Y716339D02*
X521654Y720276D01*
X517717D02*
X521654Y716339D01*
X524606Y694488D02*
X528543Y698425D01*
X524606D02*
X528543Y694488D01*
X517717Y689173D02*
X521654Y693110D01*
X517717D02*
X521654Y689173D01*
X743898Y571604D02*
X743361Y572343D01*
X742555Y572712*
X741482*
X740676Y572343*
X740140Y571604*
Y570866*
X740408Y570128*
X740676Y569759*
X741213Y569390*
X742824Y568652*
X743361Y568282*
X743629Y567913*
X743898Y567175*
Y566068*
X743361Y565330*
X742555Y564961*
X741482*
X740676Y565330*
X740140Y566068*
X746314Y572712D02*
Y564961D01*
X752487Y572712D02*
X748729Y564961D01*
Y572712D02*
X752487D01*
X748729Y564961D02*
X752487D01*
X754903Y572712D02*
Y564961D01*
Y572712D02*
X758393D01*
X754903Y569021D02*
X757051D01*
X754903Y564961D02*
X758393D01*
X801342Y572712D02*
X800805Y572343D01*
X800268Y571604*
X800000Y570866*
X799732Y569759*
Y567913*
X800000Y566806*
X800268Y566068*
X800805Y565330*
X801342Y564961*
X802416*
X802953Y565330*
X803490Y566068*
X803758Y566806*
X804026Y567913*
Y569759*
X803758Y570866*
X803490Y571604*
X802953Y572343*
X802416Y572712*
X801342*
X802147Y566437D02*
X803758Y564222D01*
X808321Y572712D02*
Y564961D01*
X806442Y572712D02*
X810200D01*
X812616D02*
X814764Y569021D01*
Y564961*
X816911Y572712D02*
X814764Y569021D01*
X838923Y571604D02*
X838386Y572343D01*
X837581Y572712*
X836507*
X835702Y572343*
X835165Y571604*
Y570866*
X835433Y570128*
X835702Y569759*
X836238Y569390*
X837849Y568652*
X838386Y568282*
X838654Y567913*
X838923Y567175*
Y566068*
X838386Y565330*
X837581Y564961*
X836507*
X835702Y565330*
X835165Y566068*
X841339Y572712D02*
X843486Y569021D01*
Y564961*
X845634Y572712D02*
X843486Y569021D01*
X848049Y572712D02*
Y564961D01*
Y572712D02*
X850197Y564961D01*
X852344Y572712D02*
X850197Y564961D01*
X852344Y572712D02*
Y564961D01*
X873819Y572712D02*
Y564961D01*
Y572712D02*
X876235D01*
X877040Y572343*
X877309Y571973*
X877577Y571235*
Y570128*
X877309Y569390*
X877040Y569021*
X876235Y568652*
X873819*
X879993Y572712D02*
Y564961D01*
X883214*
X887777Y572712D02*
X885630Y564961D01*
X887777Y572712D02*
X889925Y564961D01*
X886435Y567544D02*
X889120D01*
X894220Y572712D02*
Y564961D01*
X892341Y572712D02*
X896099D01*
X898515D02*
Y564961D01*
Y572712D02*
X902004D01*
X898515Y569021D02*
X900662D01*
X898515Y564961D02*
X902004D01*
X904420Y572712D02*
Y564961D01*
Y572712D02*
X906299D01*
X907105Y572343*
X907641Y571604*
X907910Y570866*
X908178Y569759*
Y567913*
X907910Y566806*
X907641Y566068*
X907105Y565330*
X906299Y564961*
X904420*
X932069Y572712D02*
Y564961D01*
X930190Y572712D02*
X933948D01*
X937974D02*
X937437Y572343D01*
X936901Y571604*
X936901D02*
X936632Y570866D01*
X936364Y569759*
Y567913*
X936632Y566806*
X936901Y566068*
X936901D02*
X937437Y565330D01*
X937974Y564961*
X939048*
X939585Y565330*
X940122Y566068*
X940390Y566806*
X940659Y567913*
Y569759*
X940390Y570866*
X940122Y571604*
X939585Y572343*
X939048Y572712*
X937974*
X943074D02*
Y564961D01*
X946296*
X716178Y549090D02*
X715372Y548720D01*
X714835Y547613*
X714567Y545768*
Y544660*
X714835Y542815*
X715372Y541708*
X716178Y541339*
X716714*
X717520Y541708*
X718057Y542815*
X718325Y544660*
Y545768*
X718057Y547613*
X717520Y548720*
X716714Y549090*
X716178*
X721009Y542077D02*
X720741Y541708D01*
X721009Y541339*
X721278Y541708*
X721009Y542077*
X724230Y549090D02*
X727183D01*
X725573Y546137*
X726378*
X726915Y545768*
X727183Y545399*
X727452Y544291*
Y543553*
X727183Y542446*
X726646Y541708*
X725841Y541339*
X725036*
X724230Y541708*
X723962Y542077*
X723694Y542815*
X802550Y547613D02*
X803087Y547982D01*
X803892Y549090*
Y541339*
X809798Y549090D02*
X807113D01*
X806845Y545768*
X807113Y546137*
X807919Y546506*
X808724*
X809529Y546137*
X810066Y545399*
X810335Y544291*
X810066Y543553*
X809798Y542446*
X809261Y541708*
X808456Y541339*
X807650*
X806845Y541708*
X806577Y542077*
X806308Y542815*
X812751Y547613D02*
X813287Y547982D01*
X814093Y549090*
Y541339*
X838583D02*
X850394Y553150D01*
X838583D02*
X850394Y541339D01*
X871000Y549090D02*
X873148Y545399D01*
Y541339*
X875295Y549090D02*
X873148Y545399D01*
X877711Y549090D02*
Y541339D01*
Y549090D02*
X881201D01*
X877711Y545399D02*
X879859D01*
X877711Y541339D02*
X881201D01*
X887375Y547982D02*
X886838Y548720D01*
X886033Y549090*
X884959*
X884154Y548720*
X883617Y547982*
Y547244*
X883885Y546506*
X884154Y546137*
X884690Y545768*
X886301Y545030*
X886838Y544660*
X887106Y544291*
X887375Y543553*
Y542446*
X886838Y541708*
X886033Y541339*
X884959*
X884154Y541708*
X883617Y542446*
X930995Y547982D02*
Y541339D01*
X928579Y544660D02*
X933411D01*
X940659Y550566D02*
X935827Y538755D01*
X943074Y544660D02*
X947906D01*
X716178Y525468D02*
X715372Y525098D01*
X714835Y523991*
X714567Y522146*
Y521038*
X714835Y519193*
X715372Y518086*
X716178Y517717*
X716714*
X717520Y518086*
X718057Y519193*
X718325Y521038*
Y522146*
X718057Y523991*
X717520Y525098*
X716714Y525468*
X716178*
X721009Y518455D02*
X720741Y518086D01*
X721009Y517717*
X721278Y518086*
X721009Y518455*
X727183Y522884D02*
X726915Y521777D01*
X726378Y521038*
X725573Y520669*
X725304*
X724499Y521038*
X723962Y521777*
X723694Y522884*
Y523253*
X723962Y524360*
X724499Y525098*
X725304Y525468*
X725573*
X726378Y525098*
X726915Y524360*
X727183Y522884*
Y521038*
X726915Y519193*
X726378Y518086*
X725573Y517717*
X725036*
X724230Y518086*
X723962Y518824*
X808992Y525468D02*
X806308Y520300D01*
X810335*
X808992Y525468D02*
Y517717D01*
X838583Y523622D02*
X850394D01*
X844488Y517717D02*
Y529528D01*
X849159Y532776D02*
X847441Y526575D01*
X849159Y532776D02*
X850877Y526575D01*
X848085Y528642D02*
X850233D01*
X871000Y525468D02*
X873148Y521777D01*
Y517717*
X875295Y525468D02*
X873148Y521777D01*
X877711Y525468D02*
Y517717D01*
Y525468D02*
X881201D01*
X877711Y521777D02*
X879859D01*
X877711Y517717D02*
X881201D01*
X887375Y524360D02*
X886838Y525098D01*
X886033Y525468*
X884959*
X884154Y525098*
X883617Y524360*
Y523622*
X883885Y522884*
X884154Y522515*
X884690Y522146*
X886301Y521407*
X886838Y521038*
X887106Y520669*
X887375Y519931*
Y518824*
X886838Y518086*
X886033Y517717*
X884959*
X884154Y518086*
X883617Y518824*
X924553Y524360D02*
Y517717D01*
X922137Y521038D02*
X926969D01*
X934216Y526944D02*
X929384Y515133D01*
X936632Y521038D02*
X941464D01*
X945490Y525468D02*
X944685Y525098D01*
X944148Y523991*
X943880Y522146*
Y521038*
X944148Y519193*
X944685Y518086*
X945490Y517717*
X946027*
X946832Y518086*
X946832D02*
X947369Y519193D01*
X947638Y521038*
Y522146*
X947369Y523991*
X946832Y525098*
X946832D02*
X946027Y525468D01*
X945490*
X950322Y518455D02*
X950054Y518086D01*
X950322Y517717*
X950591Y518086*
X950322Y518455*
X953006Y523991D02*
X953543Y524360D01*
X954349Y525468*
Y517717*
X714567Y500369D02*
X715104Y500738D01*
X715909Y501845*
Y494094*
X718593Y494833D02*
X718325Y494464D01*
X718593Y494094*
X718862Y494464*
X718593Y494833*
X721278Y500369D02*
X721815Y500738D01*
X722620Y501845*
Y494094*
X805771Y501845D02*
X803087Y496678D01*
X807113*
X805771Y501845D02*
Y494094D01*
X812214Y501845D02*
X809529Y496678D01*
X813556*
X812214Y501845D02*
Y494094D01*
X844488D02*
X850394Y500000D01*
X844488Y505906*
X838583Y500000*
X844488Y494094*
Y500000D02*
Y505906D01*
X873953Y501845D02*
Y494094D01*
Y501845D02*
X877711Y494094D01*
Y501845D02*
Y494094D01*
X881738Y501845D02*
X881201Y501476D01*
X880664Y500738*
X880395Y500000*
X880127Y498893*
Y497047*
X880395Y495940*
X880664Y495202*
X881201Y494464*
X881738Y494094*
X882811*
X883348Y494464*
X883885Y495202*
X884154Y495940*
X884422Y497047*
Y498893*
X884154Y500000*
X883885Y500738*
X883348Y501476*
X882811Y501845*
X881738*
X924553Y500738D02*
Y494094D01*
X922137Y497416D02*
X926969D01*
X934216Y503322D02*
X929384Y491511D01*
X936632Y497416D02*
X941464D01*
X945490Y501845D02*
X944685Y501476D01*
X944148Y500369*
X943880Y498524*
Y497416*
X944148Y495571*
X944685Y494464*
X945490Y494094*
X946027*
X946832Y494464*
X946832D02*
X947369Y495571D01*
X947638Y497416*
Y498524*
X947369Y500369*
X946832Y501476*
X946832D02*
X946027Y501845D01*
X945490*
X950322Y494833D02*
X950054Y494464D01*
X950322Y494094*
X950591Y494464*
X950322Y494833*
X953006Y500369D02*
X953543Y500738D01*
X954349Y501845*
Y494094*
X714567Y476747D02*
X715104Y477116D01*
X715909Y478223*
Y470472*
X718593Y471211D02*
X718325Y470842D01*
X718593Y470472*
X718862Y470842*
X718593Y471211*
X721278Y476747D02*
X721815Y477116D01*
X722620Y478223*
Y470472*
X804563Y476747D02*
X805100Y477116D01*
X805906Y478223*
Y470472*
X812079Y478223D02*
X809395Y470472D01*
X808321Y478223D02*
X812079D01*
X838583Y476378D02*
X850394D01*
X844488Y470472D02*
Y482283D01*
X847441Y485531D02*
Y479331D01*
Y485531D02*
X849374D01*
X850018Y485236*
X850233Y484941*
X850447Y484350*
Y483760*
X850233Y483169*
X850018Y482874*
X849374Y482579*
X847441D02*
X849374D01*
X850018Y482283*
X850233Y481988*
X850447Y481398*
Y480512*
X850233Y479921*
X850018Y479626*
X849374Y479331*
X847441*
X871000Y478223D02*
X873148Y474532D01*
Y470472*
X875295Y478223D02*
X873148Y474532D01*
X877711Y478223D02*
Y470472D01*
Y478223D02*
X881201D01*
X877711Y474532D02*
X879859D01*
X877711Y470472D02*
X881201D01*
X887375Y477116D02*
X886838Y477854D01*
X886033Y478223*
X884959*
X884154Y477854*
X883617Y477116*
Y476378*
X883885Y475640*
X884154Y475271*
X884690Y474902*
X886301Y474163*
X886838Y473794*
X887106Y473425*
X887375Y472687*
Y471580*
X886838Y470842*
X886033Y470472*
X884959*
X884154Y470842*
X883617Y471580*
X924553Y477116D02*
Y470472D01*
X922137Y473794D02*
X926969D01*
X934216Y479700D02*
X929384Y467889D01*
X936632Y473794D02*
X941464D01*
X945490Y478223D02*
X944685Y477854D01*
X944148Y476747*
X943880Y474902*
Y473794*
X944148Y471949*
X944685Y470842*
X945490Y470472*
X946027*
X946832Y470842*
X946832D02*
X947369Y471949D01*
X947638Y473794*
Y474902*
X947369Y476747*
X946832Y477854*
X946832D02*
X946027Y478223D01*
X945490*
X950322Y471211D02*
X950054Y470842D01*
X950322Y470472*
X950591Y470842*
X950322Y471211*
X953006Y476747D02*
X953543Y477116D01*
X954349Y478223*
Y470472*
X714567Y453125D02*
X715104Y453494D01*
X715909Y454601*
Y446850*
X718593Y447589D02*
X718325Y447219D01*
X718593Y446850*
X718862Y447219*
X718593Y447589*
X724767Y454601D02*
X722083D01*
X721815Y451280*
X722083Y451649*
X722888Y452018*
X723694*
X724499Y451649*
X725036Y450910*
X725304Y449803*
X725036Y449065*
X724767Y447958*
X724230Y447219*
X723425Y446850*
X722620*
X721815Y447219*
X721546Y447589*
X721278Y448327*
X807785Y454601D02*
X806979Y454232D01*
X806711Y453494*
Y452756*
X806979Y452018*
X807516Y451649*
X808590Y451280*
X809395Y450910*
X809932Y450172*
X810200Y449434*
Y448327*
X809932Y447589*
X809664Y447219*
X808858Y446850*
X807785*
X806979Y447219*
X806711Y447589*
X806442Y448327*
Y449434*
X806711Y450172*
X807248Y450910*
X808053Y451280*
X809127Y451649*
X809664Y452018*
X809932Y452756*
Y453494*
X809664Y454232*
X808858Y454601*
X807785*
X838583Y452756D02*
X850394D01*
X844488Y446850D02*
Y458661D01*
X850662Y460433D02*
X850447Y461024D01*
X850018Y461614*
X849588Y461909*
X848729*
X848300Y461614*
X847870Y461024*
X847656Y460433*
X847441Y459547*
Y458071*
X847656Y457185*
X847870Y456594*
X848300Y456004*
X848729Y455709*
X849588*
X850018Y456004*
X850447Y456594*
X850662Y457185*
X871000Y454601D02*
X873148Y450910D01*
Y446850*
X875295Y454601D02*
X873148Y450910D01*
X877711Y454601D02*
Y446850D01*
Y454601D02*
X881201D01*
X877711Y450910D02*
X879859D01*
X877711Y446850D02*
X881201D01*
X887375Y453494D02*
X886838Y454232D01*
X886033Y454601*
X884959*
X884154Y454232*
X883617Y453494*
Y452756*
X883885Y452018*
X884154Y451649*
X884690Y451280*
X886301Y450541*
X886838Y450172*
X887106Y449803*
X887375Y449065*
Y447958*
X886838Y447219*
X886033Y446850*
X884959*
X884154Y447219*
X883617Y447958*
X924553Y453494D02*
Y446850D01*
X922137Y450172D02*
X926969D01*
X934216Y456078D02*
X929384Y444267D01*
X936632Y450172D02*
X941464D01*
X945490Y454601D02*
X944685Y454232D01*
X944148Y453125*
X943880Y451280*
Y450172*
X944148Y448327*
X944685Y447219*
X945490Y446850*
X946027*
X946832Y447219*
X946832D02*
X947369Y448327D01*
X947638Y450172*
Y451280*
X947369Y453125*
X946832Y454232*
X946832D02*
X946027Y454601D01*
X945490*
X950322Y447589D02*
X950054Y447219D01*
X950322Y446850*
X950591Y447219*
X950322Y447589*
X953006Y453125D02*
X953543Y453494D01*
X954349Y454601*
Y446850*
X714567Y429503D02*
X715104Y429872D01*
X715909Y430979*
Y423228*
X718593Y423967D02*
X718325Y423597D01*
X718593Y423228*
X718862Y423597*
X718593Y423967*
X722620Y430979D02*
X721815Y430610D01*
X721546Y429872*
Y429134*
X721815Y428396*
X722351Y428027*
X723425Y427657*
X724230Y427288*
X724767Y426550*
X725036Y425812*
Y424705*
X724767Y423967*
X724499Y423597*
X723694Y423228*
X722620*
X721815Y423597*
X721546Y423967*
X721278Y424705*
Y425812*
X721546Y426550*
X722083Y427288*
X722888Y427657*
X723962Y428027*
X724499Y428396*
X724767Y429134*
Y429872*
X724499Y430610*
X723694Y430979*
X722620*
X806711Y429134D02*
Y429503D01*
X806979Y430241*
X807248Y430610*
X807785Y430979*
X808858*
X809395Y430610*
X809664Y430241*
X809932Y429503*
Y428765*
X809664Y428027*
X809127Y426919*
X806442Y423228*
X810200*
X838583D02*
X850394D01*
Y435039*
X838583*
Y423228*
X844488Y429134D02*
Y435039D01*
X873953Y430979D02*
Y423228D01*
Y430979D02*
X877711Y423228D01*
Y430979D02*
Y423228D01*
X881738Y430979D02*
X881201Y430610D01*
X880664Y429872*
X880395Y429134*
X880127Y428027*
Y426181*
X880395Y425074*
X880664Y424336*
X881201Y423597*
X881738Y423228*
X882811*
X883348Y423597*
X883885Y424336*
X884154Y425074*
X884422Y426181*
Y428027*
X884154Y429134*
X883885Y429872*
X883348Y430610*
X882811Y430979*
X881738*
X924553Y429872D02*
Y423228D01*
X922137Y426550D02*
X926969D01*
X934216Y432456D02*
X929384Y420645D01*
X936632Y426550D02*
X941464D01*
X945490Y430979D02*
X944685Y430610D01*
X944148Y429503*
X943880Y427657*
Y426550*
X944148Y424705*
X944685Y423597*
X945490Y423228*
X946027*
X946832Y423597*
X946832D02*
X947369Y424705D01*
X947638Y426550*
Y427657*
X947369Y429503*
X946832Y430610*
X946832D02*
X946027Y430979D01*
X945490*
X950322Y423967D02*
X950054Y423597D01*
X950322Y423228*
X950591Y423597*
X950322Y423967*
X953006Y429503D02*
X953543Y429872D01*
X954349Y430979*
Y423228*
X715104Y407357D02*
X718057D01*
X716446Y404405*
X717251*
X717788Y404035*
X718057Y403666*
X718325Y402559*
Y401821*
X718057Y400714*
X717520Y399975*
X716714Y399606*
X715909*
X715104Y399975*
X714835Y400344*
X714567Y401083*
X721009Y400344D02*
X720741Y399975D01*
X721009Y399606*
X721278Y399975*
X721009Y400344*
X723962Y405512D02*
Y405881D01*
X724230Y406619*
X724499Y406988*
X725036Y407357*
X726110*
X726646Y406988*
X726915Y406619*
X727183Y405881*
Y405143*
X726915Y404405*
X726378Y403297*
X723694Y399606*
X727452*
X808992Y407357D02*
X806308Y402190D01*
X810335*
X808992Y407357D02*
Y399606D01*
X838583D02*
X850394Y411417D01*
Y399606*
X838583Y411417*
Y399606*
X871000Y407357D02*
X873148Y403666D01*
Y399606*
X875295Y407357D02*
X873148Y403666D01*
X877711Y407357D02*
Y399606D01*
Y407357D02*
X881201D01*
X877711Y403666D02*
X879859D01*
X877711Y399606D02*
X881201D01*
X887375Y406250D02*
X886838Y406988D01*
X886033Y407357*
X884959*
X884154Y406988*
X883617Y406250*
Y405512*
X883885Y404774*
X884154Y404405*
X884690Y404035*
X886301Y403297*
X886838Y402928*
X887106Y402559*
X887375Y401821*
Y400714*
X886838Y399975*
X886033Y399606*
X884959*
X884154Y399975*
X883617Y400714*
X924553Y406250D02*
Y399606D01*
X922137Y402928D02*
X926969D01*
X934216Y408834D02*
X929384Y397023D01*
X936632Y402928D02*
X941464D01*
X945490Y407357D02*
X944685Y406988D01*
X944148Y405881*
X943880Y404035*
Y402928*
X944148Y401083*
X944685Y399975*
X945490Y399606*
X946027*
X946832Y399975*
X946832D02*
X947369Y401083D01*
X947638Y402928*
Y404035*
X947369Y405881*
X946832Y406988*
X946832D02*
X946027Y407357D01*
X945490*
X950322Y400344D02*
X950054Y399975D01*
X950322Y399606*
X950591Y399975*
X950322Y400344*
X953006Y405881D02*
X953543Y406250D01*
X954349Y407357*
Y399606*
G54D33*
X708661Y582677D02*
X962598D01*
X708661Y559055D02*
X962598D01*
X708661Y535433D02*
X962598D01*
X708661Y511811D02*
X962598D01*
X708661Y488189D02*
X962598D01*
X708661Y464567D02*
X962598D01*
X708661Y440945D02*
X962598D01*
X708661Y417323D02*
X962598D01*
X708661Y393701D02*
X962598D01*
X708661Y582677D02*
Y393701D01*
X791339Y582677D02*
Y393701D01*
X826772Y582677D02*
Y393701D01*
X862205Y582677D02*
Y393701D01*
X915354Y582677D02*
Y393701D01*
X962598Y582677D02*
Y393701D01*
G54D42*
G74*
X0Y0D02*
M02*
