*
*
G04 PADS VX.2.7 Build Number: 15549477 generated Gerber (RS-274-X) file*
G04 PC Version=2.1*
*
%IN "TMC5240-SA-DEV_V10.pcb"*%
*
%MOIN*%
*
%FSLAX35Y35*%
*
*
*
*
G04 PC Standard Apertures*
*
*
G04 Thermal Relief Aperture macro.*
%AMTER*
1,1,$1,0,0*
1,0,$1-$2,0,0*
21,0,$3,$4,0,0,45*
21,0,$3,$4,0,0,135*
%
*
*
G04 Annular Aperture macro.*
%AMANN*
1,1,$1,0,0*
1,0,$2,0,0*
%
*
*
G04 Odd Aperture macro.*
%AMODD*
1,1,$1,0,0*
1,0,$1-0.005,0,0*
%
*
*
G04 PC Custom Aperture Macros*
*
*
*
*
*
*
G04 PC Aperture Table*
*
%ADD020C,0.01181*%
%ADD036C,0.11024*%
%ADD042C,0.001*%
%ADD045C,0.25394*%
%ADD049C,0.06693*%
%ADD050C,0.09449*%
%ADD051C,0.07874*%
%ADD052C,0.05118*%
*
*
*
*
G04 PC Circuitry*
G04 Layer Name TMC5240-SA-DEV_V10.pcb - circuitry*
%LPD*%
*
*
G04 PC Custom Flashes*
G04 Layer Name TMC5240-SA-DEV_V10.pcb - flashes*
%LPD*%
*
*
G04 PC Circuitry*
G04 Layer Name TMC5240-SA-DEV_V10.pcb - circuitry*
%LPD*%
*
G54D20*
G01X521260Y616929D02*
Y619685D01*
X524409*
Y616929*
X521260*
X524409*
X521260Y618110D02*
X524409D01*
X521260Y619291D02*
X524409D01*
X521260Y616929D02*
Y619685D01*
X522441Y616929D02*
Y619685D01*
X523622Y616929D02*
Y619685D01*
X521260Y610630D02*
Y613386D01*
X524409*
Y610630*
X521260*
Y611024D02*
X524409D01*
X521260Y612205D02*
X524409D01*
X521260Y613386D02*
X524409D01*
X521260Y610630D02*
Y613386D01*
X522441Y610630D02*
Y613386D01*
X523622Y610630D02*
Y613386D01*
X524409Y579921D02*
Y577165D01*
X521260*
Y579921*
X524409*
X521260Y577953D02*
X524409D01*
X521260Y579134D02*
X524409D01*
X521260Y577165D02*
Y579921D01*
X522441Y577165D02*
Y579921D01*
X523622Y577165D02*
Y579921D01*
X524409Y586220D02*
Y583465D01*
X521260*
Y586220*
X524409*
X521260Y583858D02*
X524409D01*
X521260Y585039D02*
X524409D01*
X521260Y586220D02*
X524409D01*
X521260Y583465D02*
Y586220D01*
X522441Y583465D02*
Y586220D01*
X523622Y583465D02*
Y586220D01*
X489764Y428819D02*
Y427047D01*
X484646*
Y428819*
X489764*
X484646Y427953D02*
X489764D01*
X484646Y427047D02*
Y428819D01*
X485827Y427047D02*
Y428819D01*
X487008Y427047D02*
Y428819D01*
X488189Y427047D02*
Y428819D01*
X489370Y427047D02*
Y428819D01*
X489764Y433819D02*
Y432047D01*
X484646*
Y433819*
X489764*
X484646Y432677D02*
X489764D01*
X484646Y432047D02*
Y433819D01*
X485827Y432047D02*
Y433819D01*
X487008Y432047D02*
Y433819D01*
X488189Y432047D02*
Y433819D01*
X489370Y432047D02*
Y433819D01*
X489764Y438819D02*
Y437047D01*
X484646*
Y438819*
X489764*
X484646Y437402D02*
X489764D01*
X484646Y438583D02*
X489764D01*
X484646Y437047D02*
Y438819D01*
X485827Y437047D02*
Y438819D01*
X487008Y437047D02*
Y438819D01*
X488189Y437047D02*
Y438819D01*
X489370Y437047D02*
Y438819D01*
X489764Y443819D02*
Y442047D01*
X484646*
Y443819*
X489764*
X484646Y442126D02*
X489764D01*
X484646Y443307D02*
X489764D01*
X484646Y442047D02*
Y443819D01*
X485827Y442047D02*
Y443819D01*
X487008Y442047D02*
Y443819D01*
X488189Y442047D02*
Y443819D01*
X489370Y442047D02*
Y443819D01*
X468110D02*
Y442047D01*
X462992*
Y443819*
X468110*
X462992Y442126D02*
X468110D01*
X462992Y443307D02*
X468110D01*
X463386Y442047D02*
Y443819D01*
X464567Y442047D02*
Y443819D01*
X465748Y442047D02*
Y443819D01*
X466929Y442047D02*
Y443819D01*
X468110Y442047D02*
Y443819D01*
Y438819D02*
Y437047D01*
X462992*
Y438819*
X468110*
X462992Y437402D02*
X468110D01*
X462992Y438583D02*
X468110D01*
X463386Y437047D02*
Y438819D01*
X464567Y437047D02*
Y438819D01*
X465748Y437047D02*
Y438819D01*
X466929Y437047D02*
Y438819D01*
X468110Y437047D02*
Y438819D01*
Y433819D02*
Y432047D01*
X462992*
Y433819*
X468110*
X462992Y432677D02*
X468110D01*
X463386Y432047D02*
Y433819D01*
X464567Y432047D02*
Y433819D01*
X465748Y432047D02*
Y433819D01*
X466929Y432047D02*
Y433819D01*
X468110Y432047D02*
Y433819D01*
Y428819D02*
Y427047D01*
X462992*
Y428819*
X468110*
X462992Y427953D02*
X468110D01*
X463386Y427047D02*
Y428819D01*
X464567Y427047D02*
Y428819D01*
X465748Y427047D02*
Y428819D01*
X466929Y427047D02*
Y428819D01*
X468110Y427047D02*
Y428819D01*
X408465Y457598D02*
Y454449D01*
X401772*
Y457598*
X408465*
X401772Y455118D02*
X408465D01*
X401772Y456299D02*
X408465D01*
X401772Y457480D02*
X408465D01*
X401969Y454449D02*
Y457598D01*
X403150Y454449D02*
Y457598D01*
X404331Y454449D02*
Y457598D01*
X405512Y454449D02*
Y457598D01*
X406693Y454449D02*
Y457598D01*
X407874Y454449D02*
Y457598D01*
X432874D02*
Y454449D01*
X426181*
Y457598*
X432874*
X426181Y455118D02*
X432874D01*
X426181Y456299D02*
X432874D01*
X426181Y457480D02*
X432874D01*
X426772Y454449D02*
Y457598D01*
X427953Y454449D02*
Y457598D01*
X429134Y454449D02*
Y457598D01*
X430315Y454449D02*
Y457598D01*
X431496Y454449D02*
Y457598D01*
X432677Y454449D02*
Y457598D01*
X408465Y467598D02*
Y464449D01*
X401772*
Y467598*
X408465*
X401772Y464567D02*
X408465D01*
X401772Y465748D02*
X408465D01*
X401772Y466929D02*
X408465D01*
X401969Y464449D02*
Y467598D01*
X403150Y464449D02*
Y467598D01*
X404331Y464449D02*
Y467598D01*
X405512Y464449D02*
Y467598D01*
X406693Y464449D02*
Y467598D01*
X407874Y464449D02*
Y467598D01*
X432874D02*
Y464449D01*
X426181*
Y467598*
X432874*
X426181Y464567D02*
X432874D01*
X426181Y465748D02*
X432874D01*
X426181Y466929D02*
X432874D01*
X426772Y464449D02*
Y467598D01*
X427953Y464449D02*
Y467598D01*
X429134Y464449D02*
Y467598D01*
X430315Y464449D02*
Y467598D01*
X431496Y464449D02*
Y467598D01*
X432677Y464449D02*
Y467598D01*
X408465Y477598D02*
Y474449D01*
X401772*
Y477598*
X408465*
X401772Y475197D02*
X408465D01*
X401772Y476378D02*
X408465D01*
X401772Y477559D02*
X408465D01*
X401969Y474449D02*
Y477598D01*
X403150Y474449D02*
Y477598D01*
X404331Y474449D02*
Y477598D01*
X405512Y474449D02*
Y477598D01*
X406693Y474449D02*
Y477598D01*
X407874Y474449D02*
Y477598D01*
X432874D02*
Y474449D01*
X426181*
Y477598*
X432874*
X426181Y475197D02*
X432874D01*
X426181Y476378D02*
X432874D01*
X426181Y477559D02*
X432874D01*
X426772Y474449D02*
Y477598D01*
X427953Y474449D02*
Y477598D01*
X429134Y474449D02*
Y477598D01*
X430315Y474449D02*
Y477598D01*
X431496Y474449D02*
Y477598D01*
X432677Y474449D02*
Y477598D01*
X408465Y487598D02*
Y484449D01*
X401772*
Y487598*
X408465*
X401772Y484646D02*
X408465D01*
X401772Y485827D02*
X408465D01*
X401772Y487008D02*
X408465D01*
X401969Y484449D02*
Y487598D01*
X403150Y484449D02*
Y487598D01*
X404331Y484449D02*
Y487598D01*
X405512Y484449D02*
Y487598D01*
X406693Y484449D02*
Y487598D01*
X407874Y484449D02*
Y487598D01*
X432874D02*
Y484449D01*
X426181*
Y487598*
X432874*
X426181Y484646D02*
X432874D01*
X426181Y485827D02*
X432874D01*
X426181Y487008D02*
X432874D01*
X426772Y484449D02*
Y487598D01*
X427953Y484449D02*
Y487598D01*
X429134Y484449D02*
Y487598D01*
X430315Y484449D02*
Y487598D01*
X431496Y484449D02*
Y487598D01*
X432677Y484449D02*
Y487598D01*
X408465Y497598D02*
Y494449D01*
X401772*
Y497598*
X408465*
X401772Y495276D02*
X408465D01*
X401772Y496457D02*
X408465D01*
X401969Y494449D02*
Y497598D01*
X403150Y494449D02*
Y497598D01*
X404331Y494449D02*
Y497598D01*
X405512Y494449D02*
Y497598D01*
X406693Y494449D02*
Y497598D01*
X407874Y494449D02*
Y497598D01*
X432874D02*
Y494449D01*
X426181*
Y497598*
X432874*
X426181Y495276D02*
X432874D01*
X426181Y496457D02*
X432874D01*
X426772Y494449D02*
Y497598D01*
X427953Y494449D02*
Y497598D01*
X429134Y494449D02*
Y497598D01*
X430315Y494449D02*
Y497598D01*
X431496Y494449D02*
Y497598D01*
X432677Y494449D02*
Y497598D01*
X408465Y507598D02*
Y504449D01*
X401772*
Y507598*
X408465*
X401772Y504724D02*
X408465D01*
X401772Y505906D02*
X408465D01*
X401772Y507087D02*
X408465D01*
X401969Y504449D02*
Y507598D01*
X403150Y504449D02*
Y507598D01*
X404331Y504449D02*
Y507598D01*
X405512Y504449D02*
Y507598D01*
X406693Y504449D02*
Y507598D01*
X407874Y504449D02*
Y507598D01*
X432874D02*
Y504449D01*
X426181*
Y507598*
X432874*
X426181Y504724D02*
X432874D01*
X426181Y505906D02*
X432874D01*
X426181Y507087D02*
X432874D01*
X426772Y504449D02*
Y507598D01*
X427953Y504449D02*
Y507598D01*
X429134Y504449D02*
Y507598D01*
X430315Y504449D02*
Y507598D01*
X431496Y504449D02*
Y507598D01*
X432677Y504449D02*
Y507598D01*
X408465Y517598D02*
Y514449D01*
X401772*
Y517598*
X408465*
X401772Y515354D02*
X408465D01*
X401772Y516535D02*
X408465D01*
X401969Y514449D02*
Y517598D01*
X403150Y514449D02*
Y517598D01*
X404331Y514449D02*
Y517598D01*
X405512Y514449D02*
Y517598D01*
X406693Y514449D02*
Y517598D01*
X407874Y514449D02*
Y517598D01*
X432874D02*
Y514449D01*
X426181*
Y517598*
X432874*
X426181Y515354D02*
X432874D01*
X426181Y516535D02*
X432874D01*
X426772Y514449D02*
Y517598D01*
X427953Y514449D02*
Y517598D01*
X429134Y514449D02*
Y517598D01*
X430315Y514449D02*
Y517598D01*
X431496Y514449D02*
Y517598D01*
X432677Y514449D02*
Y517598D01*
X408465Y527598D02*
Y524449D01*
X401772*
Y527598*
X408465*
X401772Y524803D02*
X408465D01*
X401772Y525984D02*
X408465D01*
X401772Y527165D02*
X408465D01*
X401969Y524449D02*
Y527598D01*
X403150Y524449D02*
Y527598D01*
X404331Y524449D02*
Y527598D01*
X405512Y524449D02*
Y527598D01*
X406693Y524449D02*
Y527598D01*
X407874Y524449D02*
Y527598D01*
X432874D02*
Y524449D01*
X426181*
Y527598*
X432874*
X426181Y524803D02*
X432874D01*
X426181Y525984D02*
X432874D01*
X426181Y527165D02*
X432874D01*
X426772Y524449D02*
Y527598D01*
X427953Y524449D02*
Y527598D01*
X429134Y524449D02*
Y527598D01*
X430315Y524449D02*
Y527598D01*
X431496Y524449D02*
Y527598D01*
X432677Y524449D02*
Y527598D01*
X408465Y537598D02*
Y534449D01*
X401772*
Y537598*
X408465*
X401772Y535433D02*
X408465D01*
X401772Y536614D02*
X408465D01*
X401969Y534449D02*
Y537598D01*
X403150Y534449D02*
Y537598D01*
X404331Y534449D02*
Y537598D01*
X405512Y534449D02*
Y537598D01*
X406693Y534449D02*
Y537598D01*
X407874Y534449D02*
Y537598D01*
X432874D02*
Y534449D01*
X426181*
Y537598*
X432874*
X426181Y535433D02*
X432874D01*
X426181Y536614D02*
X432874D01*
X426772Y534449D02*
Y537598D01*
X427953Y534449D02*
Y537598D01*
X429134Y534449D02*
Y537598D01*
X430315Y534449D02*
Y537598D01*
X431496Y534449D02*
Y537598D01*
X432677Y534449D02*
Y537598D01*
X408465Y547598D02*
Y544449D01*
X401772*
Y547598*
X408465*
X401772Y544882D02*
X408465D01*
X401772Y546063D02*
X408465D01*
X401772Y547244D02*
X408465D01*
X401969Y544449D02*
Y547598D01*
X403150Y544449D02*
Y547598D01*
X404331Y544449D02*
Y547598D01*
X405512Y544449D02*
Y547598D01*
X406693Y544449D02*
Y547598D01*
X407874Y544449D02*
Y547598D01*
X432874D02*
Y544449D01*
X426181*
Y547598*
X432874*
X426181Y544882D02*
X432874D01*
X426181Y546063D02*
X432874D01*
X426181Y547244D02*
X432874D01*
X426772Y544449D02*
Y547598D01*
X427953Y544449D02*
Y547598D01*
X429134Y544449D02*
Y547598D01*
X430315Y544449D02*
Y547598D01*
X431496Y544449D02*
Y547598D01*
X432677Y544449D02*
Y547598D01*
X408465Y557598D02*
Y554449D01*
X401772*
Y557598*
X408465*
X401772Y555512D02*
X408465D01*
X401772Y556693D02*
X408465D01*
X401969Y554449D02*
Y557598D01*
X403150Y554449D02*
Y557598D01*
X404331Y554449D02*
Y557598D01*
X405512Y554449D02*
Y557598D01*
X406693Y554449D02*
Y557598D01*
X407874Y554449D02*
Y557598D01*
X432874D02*
Y554449D01*
X426181*
Y557598*
X432874*
X426181Y555512D02*
X432874D01*
X426181Y556693D02*
X432874D01*
X426772Y554449D02*
Y557598D01*
X427953Y554449D02*
Y557598D01*
X429134Y554449D02*
Y557598D01*
X430315Y554449D02*
Y557598D01*
X431496Y554449D02*
Y557598D01*
X432677Y554449D02*
Y557598D01*
X408465Y567598D02*
Y564449D01*
X401772*
Y567598*
X408465*
X401772Y564961D02*
X408465D01*
X401772Y566142D02*
X408465D01*
X401772Y567323D02*
X408465D01*
X401969Y564449D02*
Y567598D01*
X403150Y564449D02*
Y567598D01*
X404331Y564449D02*
Y567598D01*
X405512Y564449D02*
Y567598D01*
X406693Y564449D02*
Y567598D01*
X407874Y564449D02*
Y567598D01*
X432874D02*
Y564449D01*
X426181*
Y567598*
X432874*
X426181Y564961D02*
X432874D01*
X426181Y566142D02*
X432874D01*
X426181Y567323D02*
X432874D01*
X426772Y564449D02*
Y567598D01*
X427953Y564449D02*
Y567598D01*
X429134Y564449D02*
Y567598D01*
X430315Y564449D02*
Y567598D01*
X431496Y564449D02*
Y567598D01*
X432677Y564449D02*
Y567598D01*
X408465Y577598D02*
Y574449D01*
X401772*
Y577598*
X408465*
X401772Y575591D02*
X408465D01*
X401772Y576772D02*
X408465D01*
X401969Y574449D02*
Y577598D01*
X403150Y574449D02*
Y577598D01*
X404331Y574449D02*
Y577598D01*
X405512Y574449D02*
Y577598D01*
X406693Y574449D02*
Y577598D01*
X407874Y574449D02*
Y577598D01*
X432874D02*
Y574449D01*
X426181*
Y577598*
X432874*
X426181Y575591D02*
X432874D01*
X426181Y576772D02*
X432874D01*
X426772Y574449D02*
Y577598D01*
X427953Y574449D02*
Y577598D01*
X429134Y574449D02*
Y577598D01*
X430315Y574449D02*
Y577598D01*
X431496Y574449D02*
Y577598D01*
X432677Y574449D02*
Y577598D01*
X408465Y587598D02*
Y584449D01*
X401772*
Y587598*
X408465*
X401772Y585039D02*
X408465D01*
X401772Y586220D02*
X408465D01*
X401772Y587402D02*
X408465D01*
X401969Y584449D02*
Y587598D01*
X403150Y584449D02*
Y587598D01*
X404331Y584449D02*
Y587598D01*
X405512Y584449D02*
Y587598D01*
X406693Y584449D02*
Y587598D01*
X407874Y584449D02*
Y587598D01*
X432874D02*
Y584449D01*
X426181*
Y587598*
X432874*
X426181Y585039D02*
X432874D01*
X426181Y586220D02*
X432874D01*
X426181Y587402D02*
X432874D01*
X426772Y584449D02*
Y587598D01*
X427953Y584449D02*
Y587598D01*
X429134Y584449D02*
Y587598D01*
X430315Y584449D02*
Y587598D01*
X431496Y584449D02*
Y587598D01*
X432677Y584449D02*
Y587598D01*
X408465Y597598D02*
Y594449D01*
X401772*
Y597598*
X408465*
X401772Y594488D02*
X408465D01*
X401772Y595669D02*
X408465D01*
X401772Y596850D02*
X408465D01*
X401969Y594449D02*
Y597598D01*
X403150Y594449D02*
Y597598D01*
X404331Y594449D02*
Y597598D01*
X405512Y594449D02*
Y597598D01*
X406693Y594449D02*
Y597598D01*
X407874Y594449D02*
Y597598D01*
X432874D02*
Y594449D01*
X426181*
Y597598*
X432874*
X426181Y594488D02*
X432874D01*
X426181Y595669D02*
X432874D01*
X426181Y596850D02*
X432874D01*
X426772Y594449D02*
Y597598D01*
X427953Y594449D02*
Y597598D01*
X429134Y594449D02*
Y597598D01*
X430315Y594449D02*
Y597598D01*
X431496Y594449D02*
Y597598D01*
X432677Y594449D02*
Y597598D01*
X408465Y607598D02*
Y604449D01*
X401772*
Y607598*
X408465*
X401772Y605118D02*
X408465D01*
X401772Y606299D02*
X408465D01*
X401772Y607480D02*
X408465D01*
X401969Y604449D02*
Y607598D01*
X403150Y604449D02*
Y607598D01*
X404331Y604449D02*
Y607598D01*
X405512Y604449D02*
Y607598D01*
X406693Y604449D02*
Y607598D01*
X407874Y604449D02*
Y607598D01*
X432874D02*
Y604449D01*
X426181*
Y607598*
X432874*
X426181Y605118D02*
X432874D01*
X426181Y606299D02*
X432874D01*
X426181Y607480D02*
X432874D01*
X426772Y604449D02*
Y607598D01*
X427953Y604449D02*
Y607598D01*
X429134Y604449D02*
Y607598D01*
X430315Y604449D02*
Y607598D01*
X431496Y604449D02*
Y607598D01*
X432677Y604449D02*
Y607598D01*
X408465Y617598D02*
Y614449D01*
X401772*
Y617598*
X408465*
X401772Y614567D02*
X408465D01*
X401772Y615748D02*
X408465D01*
X401772Y616929D02*
X408465D01*
X401969Y614449D02*
Y617598D01*
X403150Y614449D02*
Y617598D01*
X404331Y614449D02*
Y617598D01*
X405512Y614449D02*
Y617598D01*
X406693Y614449D02*
Y617598D01*
X407874Y614449D02*
Y617598D01*
X432874D02*
Y614449D01*
X426181*
Y617598*
X432874*
X426181Y614567D02*
X432874D01*
X426181Y615748D02*
X432874D01*
X426181Y616929D02*
X432874D01*
X426772Y614449D02*
Y617598D01*
X427953Y614449D02*
Y617598D01*
X429134Y614449D02*
Y617598D01*
X430315Y614449D02*
Y617598D01*
X431496Y614449D02*
Y617598D01*
X432677Y614449D02*
Y617598D01*
X408465Y627598D02*
Y624449D01*
X401772*
Y627598*
X408465*
X401772Y625197D02*
X408465D01*
X401772Y626378D02*
X408465D01*
X401772Y627559D02*
X408465D01*
X401969Y624449D02*
Y627598D01*
X403150Y624449D02*
Y627598D01*
X404331Y624449D02*
Y627598D01*
X405512Y624449D02*
Y627598D01*
X406693Y624449D02*
Y627598D01*
X407874Y624449D02*
Y627598D01*
X432874D02*
Y624449D01*
X426181*
Y627598*
X432874*
X426181Y625197D02*
X432874D01*
X426181Y626378D02*
X432874D01*
X426181Y627559D02*
X432874D01*
X426772Y624449D02*
Y627598D01*
X427953Y624449D02*
Y627598D01*
X429134Y624449D02*
Y627598D01*
X430315Y624449D02*
Y627598D01*
X431496Y624449D02*
Y627598D01*
X432677Y624449D02*
Y627598D01*
X408465Y637598D02*
Y634449D01*
X401772*
Y637598*
X408465*
X401772Y634646D02*
X408465D01*
X401772Y635827D02*
X408465D01*
X401772Y637008D02*
X408465D01*
X401969Y634449D02*
Y637598D01*
X403150Y634449D02*
Y637598D01*
X404331Y634449D02*
Y637598D01*
X405512Y634449D02*
Y637598D01*
X406693Y634449D02*
Y637598D01*
X407874Y634449D02*
Y637598D01*
X432874D02*
Y634449D01*
X426181*
Y637598*
X432874*
X426181Y634646D02*
X432874D01*
X426181Y635827D02*
X432874D01*
X426181Y637008D02*
X432874D01*
X426772Y634449D02*
Y637598D01*
X427953Y634449D02*
Y637598D01*
X429134Y634449D02*
Y637598D01*
X430315Y634449D02*
Y637598D01*
X431496Y634449D02*
Y637598D01*
X432677Y634449D02*
Y637598D01*
X408465Y647598D02*
Y644449D01*
X401772*
Y647598*
X408465*
X401772Y645276D02*
X408465D01*
X401772Y646457D02*
X408465D01*
X401969Y644449D02*
Y647598D01*
X403150Y644449D02*
Y647598D01*
X404331Y644449D02*
Y647598D01*
X405512Y644449D02*
Y647598D01*
X406693Y644449D02*
Y647598D01*
X407874Y644449D02*
Y647598D01*
X432874D02*
Y644449D01*
X426181*
Y647598*
X432874*
X426181Y645276D02*
X432874D01*
X426181Y646457D02*
X432874D01*
X426772Y644449D02*
Y647598D01*
X427953Y644449D02*
Y647598D01*
X429134Y644449D02*
Y647598D01*
X430315Y644449D02*
Y647598D01*
X431496Y644449D02*
Y647598D01*
X432677Y644449D02*
Y647598D01*
X408465Y657598D02*
Y654449D01*
X401772*
Y657598*
X408465*
X401772Y654724D02*
X408465D01*
X401772Y655906D02*
X408465D01*
X401772Y657087D02*
X408465D01*
X401969Y654449D02*
Y657598D01*
X403150Y654449D02*
Y657598D01*
X404331Y654449D02*
Y657598D01*
X405512Y654449D02*
Y657598D01*
X406693Y654449D02*
Y657598D01*
X407874Y654449D02*
Y657598D01*
X432874D02*
Y654449D01*
X426181*
Y657598*
X432874*
X426181Y654724D02*
X432874D01*
X426181Y655906D02*
X432874D01*
X426181Y657087D02*
X432874D01*
X426772Y654449D02*
Y657598D01*
X427953Y654449D02*
Y657598D01*
X429134Y654449D02*
Y657598D01*
X430315Y654449D02*
Y657598D01*
X431496Y654449D02*
Y657598D01*
X432677Y654449D02*
Y657598D01*
X408465Y667598D02*
Y664449D01*
X401772*
Y667598*
X408465*
X401772Y665354D02*
X408465D01*
X401772Y666535D02*
X408465D01*
X401969Y664449D02*
Y667598D01*
X403150Y664449D02*
Y667598D01*
X404331Y664449D02*
Y667598D01*
X405512Y664449D02*
Y667598D01*
X406693Y664449D02*
Y667598D01*
X407874Y664449D02*
Y667598D01*
X432874D02*
Y664449D01*
X426181*
Y667598*
X432874*
X426181Y665354D02*
X432874D01*
X426181Y666535D02*
X432874D01*
X426772Y664449D02*
Y667598D01*
X427953Y664449D02*
Y667598D01*
X429134Y664449D02*
Y667598D01*
X430315Y664449D02*
Y667598D01*
X431496Y664449D02*
Y667598D01*
X432677Y664449D02*
Y667598D01*
X549606Y577953D02*
Y580709D01*
X552756*
Y577953*
X549606*
X552756*
X549606Y579134D02*
X552756D01*
X549606Y580315D02*
X552756D01*
X549606Y577953D02*
Y580709D01*
X550787Y577953D02*
Y580709D01*
X551969Y577953D02*
Y580709D01*
X549606Y571654D02*
Y574409D01*
X552756*
Y571654*
X549606*
Y572047D02*
X552756D01*
X549606Y573228D02*
X552756D01*
X549606Y574409D02*
X552756D01*
X549606Y571654D02*
Y574409D01*
X550787Y571654D02*
Y574409D01*
X551969Y571654D02*
Y574409D01*
X552756Y586220D02*
Y583465D01*
X549606*
Y586220*
X552756*
X549606Y583858D02*
X552756D01*
X549606Y585039D02*
X552756D01*
X549606Y586220D02*
X552756D01*
X549606Y583465D02*
Y586220D01*
X550787Y583465D02*
Y586220D01*
X551969Y583465D02*
Y586220D01*
X552756Y592520D02*
Y589764D01*
X549606*
Y592520*
X552756*
X549606Y589764D02*
X552756D01*
X549606Y590945D02*
X552756D01*
X549606Y592126D02*
X552756D01*
X549606Y589764D02*
Y592520D01*
X550787Y589764D02*
Y592520D01*
X551969Y589764D02*
Y592520D01*
X552756Y618898D02*
Y616142D01*
X549606*
Y618898*
X552756*
X549606Y616929D02*
X552756D01*
X549606Y618110D02*
X552756D01*
X549606Y616142D02*
Y618898D01*
X550787Y616142D02*
Y618898D01*
X551969Y616142D02*
Y618898D01*
X552756Y625197D02*
Y622441D01*
X549606*
Y625197*
X552756*
X549606Y622835D02*
X552756D01*
X549606Y624016D02*
X552756D01*
X549606Y625197D02*
X552756D01*
X549606Y622441D02*
Y625197D01*
X550787Y622441D02*
Y625197D01*
X551969Y622441D02*
Y625197D01*
X549606Y610630D02*
Y613386D01*
X552756*
Y610630*
X549606*
Y611024D02*
X552756D01*
X549606Y612205D02*
X552756D01*
X549606Y613386D02*
X552756D01*
X549606Y610630D02*
Y613386D01*
X550787Y610630D02*
Y613386D01*
X551969Y610630D02*
Y613386D01*
X549606Y604331D02*
Y607087D01*
X552756*
Y604331*
X549606*
Y605118D02*
X552756D01*
X549606Y606299D02*
X552756D01*
X549606Y604331D02*
Y607087D01*
X550787Y604331D02*
Y607087D01*
X551969Y604331D02*
Y607087D01*
X434646Y430118D02*
Y428543D01*
X431102*
Y430118*
X434646*
X431102Y429134D02*
X434646D01*
X431496Y428543D02*
Y430118D01*
X432677Y428543D02*
Y430118D01*
X433858Y428543D02*
Y430118D01*
X434646Y433858D02*
Y432283D01*
X431102*
Y433858*
X434646*
X431102Y432677D02*
X434646D01*
X431102Y433858D02*
X434646D01*
X431496Y432283D02*
Y433858D01*
X432677Y432283D02*
Y433858D01*
X433858Y432283D02*
Y433858D01*
X434646Y437598D02*
Y436024D01*
X431102*
Y437598*
X434646*
X431102Y436220D02*
X434646D01*
X431102Y437402D02*
X434646D01*
X431496Y436024D02*
Y437598D01*
X432677Y436024D02*
Y437598D01*
X433858Y436024D02*
Y437598D01*
X424803D02*
Y436024D01*
X421260*
Y437598*
X424803*
X421260Y436220D02*
X424803D01*
X421260Y437402D02*
X424803D01*
X422047Y436024D02*
Y437598D01*
X423228Y436024D02*
Y437598D01*
X424409Y436024D02*
Y437598D01*
X424803Y433858D02*
Y432283D01*
X421260*
Y433858*
X424803*
X421260Y432677D02*
X424803D01*
X421260Y433858D02*
X424803D01*
X422047Y432283D02*
Y433858D01*
X423228Y432283D02*
Y433858D01*
X424409Y432283D02*
Y433858D01*
X424803Y430118D02*
Y428543D01*
X421260*
Y430118*
X424803*
X421260Y429134D02*
X424803D01*
X422047Y428543D02*
Y430118D01*
X423228Y428543D02*
Y430118D01*
X424409Y428543D02*
Y430118D01*
X440945Y438583D02*
Y435827D01*
X437795*
Y438583*
X440945*
X437795Y436220D02*
X440945D01*
X437795Y437402D02*
X440945D01*
X437795Y438583D02*
X440945D01*
X438583Y435827D02*
Y438583D01*
X439764Y435827D02*
Y438583D01*
X440945Y435827D02*
Y438583D01*
Y444882D02*
Y442126D01*
X437795*
Y444882*
X440945*
X437795Y442126D02*
X440945D01*
X437795Y443307D02*
X440945D01*
X437795Y444488D02*
X440945D01*
X438583Y442126D02*
Y444882D01*
X439764Y442126D02*
Y444882D01*
X440945Y442126D02*
Y444882D01*
X450000Y428150D02*
Y430512D01*
X453150*
Y428150*
X450000*
Y429134D02*
X453150D01*
X450000Y430315D02*
X453150D01*
X450394Y428150D02*
Y430512D01*
X451575Y428150D02*
Y430512D01*
X452756Y428150D02*
Y430512D01*
X450000Y421457D02*
Y423819D01*
X453150*
Y421457*
X450000*
Y422047D02*
X453150D01*
X450000Y423228D02*
X453150D01*
X450394Y421457D02*
Y423819D01*
X451575Y421457D02*
Y423819D01*
X452756Y421457D02*
Y423819D01*
X450000Y442323D02*
Y444685D01*
X453150*
Y442323*
X450000*
Y443307D02*
X453150D01*
X450000Y444488D02*
X453150D01*
X450394Y442323D02*
Y444685D01*
X451575Y442323D02*
Y444685D01*
X452756Y442323D02*
Y444685D01*
X450000Y435630D02*
Y437992D01*
X453150*
Y435630*
X450000*
Y436220D02*
X453150D01*
X450000Y437402D02*
X453150D01*
X450394Y435630D02*
Y437992D01*
X451575Y435630D02*
Y437992D01*
X452756Y435630D02*
Y437992D01*
X565354Y513189D02*
Y516339D01*
X568504*
Y513189*
X565354*
Y514173D02*
X568504D01*
X565354Y515354D02*
X568504D01*
X566142Y513189D02*
Y516339D01*
X567323Y513189D02*
Y516339D01*
X568504Y513189D02*
Y516339D01*
X572835Y513189D02*
Y516339D01*
X575984*
Y513189*
X572835*
Y514173D02*
X575984D01*
X572835Y515354D02*
X575984D01*
X573228Y513189D02*
Y516339D01*
X574409Y513189D02*
Y516339D01*
X575591Y513189D02*
Y516339D01*
X569094Y522244D02*
Y525394D01*
X572244*
Y522244*
X569094*
Y522441D02*
X572244D01*
X569094Y523622D02*
X572244D01*
X569094Y524803D02*
X572244D01*
X569685Y522244D02*
Y525394D01*
X570866Y522244D02*
Y525394D01*
X572047Y522244D02*
Y525394D01*
X572835Y506890D02*
Y510039D01*
X575984*
Y506890*
X572835*
Y507087D02*
X575984D01*
X572835Y508268D02*
X575984D01*
X572835Y509449D02*
X575984D01*
X573228Y506890D02*
Y510039D01*
X574409Y506890D02*
Y510039D01*
X575591Y506890D02*
Y510039D01*
X565354Y506890D02*
Y510039D01*
X568504*
Y506890*
X565354*
Y507087D02*
X568504D01*
X565354Y508268D02*
X568504D01*
X565354Y509449D02*
X568504D01*
X566142Y506890D02*
Y510039D01*
X567323Y506890D02*
Y510039D01*
X568504Y506890D02*
Y510039D01*
X569094Y497835D02*
Y500984D01*
X572244*
Y497835*
X569094*
Y498819D02*
X572244D01*
X569094Y500000D02*
X572244D01*
X569685Y497835D02*
Y500984D01*
X570866Y497835D02*
Y500984D01*
X572047Y497835D02*
Y500984D01*
X556496Y455512D02*
X556890D01*
Y453150*
X556496*
Y455512*
Y453937D02*
X556890D01*
X556496Y455118D02*
X556890D01*
X556693Y453150D02*
Y455512D01*
X554528D02*
X554921D01*
Y453150*
X554528*
Y455512*
Y453937D02*
X554921D01*
X554528Y455118D02*
X554921D01*
X552559Y455512D02*
X552953D01*
Y453150*
X552559*
Y455512*
Y453937D02*
X552953D01*
X552559Y455118D02*
X552953D01*
X550591Y455512D02*
X550984D01*
Y453150*
X550591*
Y455512*
Y453937D02*
X550984D01*
X550591Y455118D02*
X550984D01*
X550787Y453150D02*
Y455512D01*
X550591Y443307D02*
X550984D01*
Y440945*
X550591*
Y443307*
Y440945D02*
X550984D01*
X550591Y442126D02*
X550984D01*
X550591Y443307D02*
X550984D01*
X550787Y440945D02*
Y443307D01*
X552559D02*
X552953D01*
Y440945*
X552559*
Y443307*
Y440945D02*
X552953D01*
X552559Y442126D02*
X552953D01*
X552559Y443307D02*
X552953D01*
X554528D02*
X554921D01*
Y440945*
X554528*
Y443307*
Y440945D02*
X554921D01*
X554528Y442126D02*
X554921D01*
X554528Y443307D02*
X554921D01*
X556496D02*
X556890D01*
Y440945*
X556496*
Y443307*
Y440945D02*
X556890D01*
X556496Y442126D02*
X556890D01*
X556496Y443307D02*
X556890D01*
X556693Y440945D02*
Y443307D01*
X579921Y465748D02*
X582283D01*
Y462598*
X579921*
Y465748*
Y463386D02*
X582283D01*
X579921Y464567D02*
X582283D01*
X579921Y465748D02*
X582283D01*
X580315Y462598D02*
Y465748D01*
X581496Y462598D02*
Y465748D01*
X573228D02*
X575591D01*
Y462598*
X573228*
Y465748*
Y463386D02*
X575591D01*
X573228Y464567D02*
X575591D01*
X573228Y465748D02*
X575591D01*
X573228Y462598D02*
Y465748D01*
X574409Y462598D02*
Y465748D01*
X575591Y462598D02*
Y465748D01*
X579921Y446850D02*
X582283D01*
Y443701*
X579921*
Y446850*
Y444488D02*
X582283D01*
X579921Y445669D02*
X582283D01*
X579921Y446850D02*
X582283D01*
X580315Y443701D02*
Y446850D01*
X581496Y443701D02*
Y446850D01*
X573228D02*
X575591D01*
Y443701*
X573228*
Y446850*
Y444488D02*
X575591D01*
X573228Y445669D02*
X575591D01*
X573228Y446850D02*
X575591D01*
X573228Y443701D02*
Y446850D01*
X574409Y443701D02*
Y446850D01*
X575591Y443701D02*
Y446850D01*
X579921Y438189D02*
X582283D01*
Y435039*
X579921*
Y438189*
Y435039D02*
X582283D01*
X579921Y436220D02*
X582283D01*
X579921Y437402D02*
X582283D01*
X580315Y435039D02*
Y438189D01*
X581496Y435039D02*
Y438189D01*
X573228D02*
X575591D01*
Y435039*
X573228*
Y438189*
Y435039D02*
X575591D01*
X573228Y436220D02*
X575591D01*
X573228Y437402D02*
X575591D01*
X573228Y435039D02*
Y438189D01*
X574409Y435039D02*
Y438189D01*
X575591Y435039D02*
Y438189D01*
X559055Y522638D02*
Y525000D01*
X562205*
Y522638*
X559055*
Y523622D02*
X562205D01*
X559055Y524803D02*
X562205D01*
X559055Y522638D02*
Y525000D01*
X560236Y522638D02*
Y525000D01*
X561417Y522638D02*
Y525000D01*
X559055Y515945D02*
Y518307D01*
X562205*
Y515945*
X559055*
Y516535D02*
X562205D01*
X559055Y517717D02*
X562205D01*
X559055Y515945D02*
Y518307D01*
X560236Y515945D02*
Y518307D01*
X561417Y515945D02*
Y518307D01*
X562205Y500591D02*
Y498228D01*
X559055*
Y500591*
X562205*
X559055Y498819D02*
X562205D01*
X559055Y500000D02*
X562205D01*
X559055Y498228D02*
Y500591D01*
X560236Y498228D02*
Y500591D01*
X561417Y498228D02*
Y500591D01*
X562205Y507283D02*
Y504921D01*
X559055*
Y507283*
X562205*
X559055Y505906D02*
X562205D01*
X559055Y507087D02*
X562205D01*
X559055Y504921D02*
Y507283D01*
X560236Y504921D02*
Y507283D01*
X561417Y504921D02*
Y507283D01*
X566929Y462795D02*
Y465551D01*
X570079*
Y462795*
X566929*
Y463386D02*
X570079D01*
X566929Y464567D02*
X570079D01*
X567323Y462795D02*
Y465551D01*
X568504Y462795D02*
Y465551D01*
X569685Y462795D02*
Y465551D01*
X566929Y456496D02*
Y459252D01*
X570079*
Y456496*
X566929*
Y457480D02*
X570079D01*
X566929Y458661D02*
X570079D01*
X567323Y456496D02*
Y459252D01*
X568504Y456496D02*
Y459252D01*
X569685Y456496D02*
Y459252D01*
X570079Y446654D02*
Y443898D01*
X566929*
Y446654*
X570079*
X566929Y444488D02*
X570079D01*
X566929Y445669D02*
X570079D01*
X567323Y443898D02*
Y446654D01*
X568504Y443898D02*
Y446654D01*
X569685Y443898D02*
Y446654D01*
X570079Y452953D02*
Y450197D01*
X566929*
Y452953*
X570079*
X566929Y450394D02*
X570079D01*
X566929Y451575D02*
X570079D01*
X566929Y452756D02*
X570079D01*
X567323Y450197D02*
Y452953D01*
X568504Y450197D02*
Y452953D01*
X569685Y450197D02*
Y452953D01*
X566929Y435236D02*
Y437992D01*
X570079*
Y435236*
X566929*
Y436220D02*
X570079D01*
X566929Y437402D02*
X570079D01*
X567323Y435236D02*
Y437992D01*
X568504Y435236D02*
Y437992D01*
X569685Y435236D02*
Y437992D01*
X566929Y428937D02*
Y431693D01*
X570079*
Y428937*
X566929*
Y429134D02*
X570079D01*
X566929Y430315D02*
X570079D01*
X566929Y431496D02*
X570079D01*
X567323Y428937D02*
Y431693D01*
X568504Y428937D02*
Y431693D01*
X569685Y428937D02*
Y431693D01*
X575591Y456299D02*
X573228D01*
Y459449*
X575591*
Y456299*
X573228D02*
X575591D01*
X573228Y457480D02*
X575591D01*
X573228Y458661D02*
X575591D01*
X573228Y456299D02*
Y459449D01*
X574409Y456299D02*
Y459449D01*
X575591Y456299D02*
Y459449D01*
X582283Y456299D02*
X579921D01*
Y459449*
X582283*
Y456299*
X579921D02*
X582283D01*
X579921Y457480D02*
X582283D01*
X579921Y458661D02*
X582283D01*
X580315Y456299D02*
Y459449D01*
X581496Y456299D02*
Y459449D01*
X575591Y450000D02*
X573228D01*
Y453150*
X575591*
Y450000*
X573228Y450394D02*
X575591D01*
X573228Y451575D02*
X575591D01*
X573228Y452756D02*
X575591D01*
X573228Y450000D02*
Y453150D01*
X574409Y450000D02*
Y453150D01*
X575591Y450000D02*
Y453150D01*
X582283Y450000D02*
X579921D01*
Y453150*
X582283*
Y450000*
X579921Y450394D02*
X582283D01*
X579921Y451575D02*
X582283D01*
X579921Y452756D02*
X582283D01*
X580315Y450000D02*
Y453150D01*
X581496Y450000D02*
Y453150D01*
X575591Y428740D02*
X573228D01*
Y431890*
X575591*
Y428740*
X573228Y429134D02*
X575591D01*
X573228Y430315D02*
X575591D01*
X573228Y431496D02*
X575591D01*
X573228Y428740D02*
Y431890D01*
X574409Y428740D02*
Y431890D01*
X575591Y428740D02*
Y431890D01*
X582283Y428740D02*
X579921D01*
Y431890*
X582283*
Y428740*
X579921Y429134D02*
X582283D01*
X579921Y430315D02*
X582283D01*
X579921Y431496D02*
X582283D01*
X580315Y428740D02*
Y431890D01*
X581496Y428740D02*
Y431890D01*
X527559Y616929D02*
Y619685D01*
X530709*
Y616929*
X527559*
X530709*
X527559Y618110D02*
X530709D01*
X527559Y619291D02*
X530709D01*
X528346Y616929D02*
Y619685D01*
X529528Y616929D02*
Y619685D01*
X530709Y616929D02*
Y619685D01*
X527559Y610630D02*
Y613386D01*
X530709*
Y610630*
X527559*
Y611024D02*
X530709D01*
X527559Y612205D02*
X530709D01*
X527559Y613386D02*
X530709D01*
X528346Y610630D02*
Y613386D01*
X529528Y610630D02*
Y613386D01*
X530709Y610630D02*
Y613386D01*
Y579921D02*
Y577165D01*
X527559*
Y579921*
X530709*
X527559Y577953D02*
X530709D01*
X527559Y579134D02*
X530709D01*
X528346Y577165D02*
Y579921D01*
X529528Y577165D02*
Y579921D01*
X530709Y577165D02*
Y579921D01*
Y586220D02*
Y583465D01*
X527559*
Y586220*
X530709*
X527559Y583858D02*
X530709D01*
X527559Y585039D02*
X530709D01*
X527559Y586220D02*
X530709D01*
X528346Y583465D02*
Y586220D01*
X529528Y583465D02*
Y586220D01*
X530709Y583465D02*
Y586220D01*
X477362Y691929D02*
X474213D01*
Y697441*
X477362*
Y691929*
X474213Y692520D02*
X477362D01*
X474213Y693701D02*
X477362D01*
X474213Y694882D02*
X477362D01*
X474213Y696063D02*
X477362D01*
X474213Y697244D02*
X477362D01*
X475197Y691929D02*
Y697441D01*
X476378Y691929D02*
Y697441D01*
X474606Y700197D02*
Y702559D01*
X476969*
Y700197*
X474606*
Y700787D02*
X476969D01*
X474606Y701969D02*
X476969D01*
X475197Y700197D02*
Y702559D01*
X476378Y700197D02*
Y702559D01*
X483858Y711417D02*
Y709843D01*
X480709*
Y711417*
X483858*
X480709Y710236D02*
X483858D01*
X480709Y711417D02*
X483858D01*
X481102Y709843D02*
Y711417D01*
X482283Y709843D02*
Y711417D01*
X483465Y709843D02*
Y711417D01*
X483858Y717323D02*
Y715748D01*
X480709*
Y717323*
X483858*
X480709Y716142D02*
X483858D01*
X480709Y717323D02*
X483858D01*
X481102Y715748D02*
Y717323D01*
X482283Y715748D02*
Y717323D01*
X483465Y715748D02*
Y717323D01*
X579134Y665551D02*
Y667913D01*
X582283*
Y665551*
X579134*
Y666535D02*
X582283D01*
X579134Y667717D02*
X582283D01*
X579134Y665551D02*
Y667913D01*
X580315Y665551D02*
Y667913D01*
X581496Y665551D02*
Y667913D01*
X579134Y658858D02*
Y661220D01*
X582283*
Y658858*
X579134*
Y659449D02*
X582283D01*
X579134Y660630D02*
X582283D01*
X579134Y658858D02*
Y661220D01*
X580315Y658858D02*
Y661220D01*
X581496Y658858D02*
Y661220D01*
X476378Y572835D02*
Y570472D01*
X473228*
Y572835*
X476378*
X473228Y570866D02*
X476378D01*
X473228Y572047D02*
X476378D01*
X474016Y570472D02*
Y572835D01*
X475197Y570472D02*
Y572835D01*
X476378Y570472D02*
Y572835D01*
Y579528D02*
Y577165D01*
X473228*
Y579528*
X476378*
X473228Y577953D02*
X476378D01*
X473228Y579134D02*
X476378D01*
X474016Y577165D02*
Y579528D01*
X475197Y577165D02*
Y579528D01*
X476378Y577165D02*
Y579528D01*
Y586220D02*
Y583858D01*
X473228*
Y586220*
X476378*
X473228Y583858D02*
X476378D01*
X473228Y585039D02*
X476378D01*
X473228Y586220D02*
X476378D01*
X474016Y583858D02*
Y586220D01*
X475197Y583858D02*
Y586220D01*
X476378Y583858D02*
Y586220D01*
Y592913D02*
Y590551D01*
X473228*
Y592913*
X476378*
X473228Y590945D02*
X476378D01*
X473228Y592126D02*
X476378D01*
X474016Y590551D02*
Y592913D01*
X475197Y590551D02*
Y592913D01*
X476378Y590551D02*
Y592913D01*
X482677Y582874D02*
Y580512D01*
X479528*
Y582874*
X482677*
X479528Y581496D02*
X482677D01*
X479528Y582677D02*
X482677D01*
X479921Y580512D02*
Y582874D01*
X481102Y580512D02*
Y582874D01*
X482283Y580512D02*
Y582874D01*
X482677Y589567D02*
Y587205D01*
X479528*
Y589567*
X482677*
X479528Y587402D02*
X482677D01*
X479528Y588583D02*
X482677D01*
X479921Y587205D02*
Y589567D01*
X481102Y587205D02*
Y589567D01*
X482283Y587205D02*
Y589567D01*
X489764Y696457D02*
Y699606D01*
X492913*
Y696457*
X489764*
Y697244D02*
X492913D01*
X489764Y698425D02*
X492913D01*
X489764Y699606D02*
X492913D01*
X490551Y696457D02*
Y699606D01*
X491732Y696457D02*
Y699606D01*
X492913Y696457D02*
Y699606D01*
X489764Y703937D02*
Y707087D01*
X492913*
Y703937*
X489764*
Y704331D02*
X492913D01*
X489764Y705512D02*
X492913D01*
X489764Y706693D02*
X492913D01*
X490551Y703937D02*
Y707087D01*
X491732Y703937D02*
Y707087D01*
X492913Y703937D02*
Y707087D01*
X480709Y700197D02*
Y703346D01*
X483858*
Y700197*
X480709*
Y700787D02*
X483858D01*
X480709Y701969D02*
X483858D01*
X480709Y703150D02*
X483858D01*
X481102Y700197D02*
Y703346D01*
X482283Y700197D02*
Y703346D01*
X483465Y700197D02*
Y703346D01*
X485827Y690551D02*
X483465D01*
Y693701*
X485827*
Y690551*
X483465Y691339D02*
X485827D01*
X483465Y692520D02*
X485827D01*
X483465Y693701D02*
X485827D01*
X483465Y690551D02*
Y693701D01*
X484646Y690551D02*
Y693701D01*
X485827Y690551D02*
Y693701D01*
X492520Y690551D02*
X490157D01*
Y693701*
X492520*
Y690551*
X490157Y691339D02*
X492520D01*
X490157Y692520D02*
X492520D01*
X490157Y693701D02*
X492520D01*
X490551Y690551D02*
Y693701D01*
X491732Y690551D02*
Y693701D01*
X496063Y714764D02*
Y718307D01*
X508661*
Y714764*
X496063*
Y714961D02*
X508661D01*
X496063Y716142D02*
X508661D01*
X496063Y717323D02*
X508661D01*
X496457Y714764D02*
Y718307D01*
X497638Y714764D02*
Y718307D01*
X498819Y714764D02*
Y718307D01*
X500000Y714764D02*
Y718307D01*
X501181Y714764D02*
Y718307D01*
X502362Y714764D02*
Y718307D01*
X503543Y714764D02*
Y718307D01*
X504724Y714764D02*
Y718307D01*
X505906Y714764D02*
Y718307D01*
X507087Y714764D02*
Y718307D01*
X508268Y714764D02*
Y718307D01*
X496063Y689567D02*
Y693110D01*
X508661*
Y689567*
X496063*
Y690157D02*
X508661D01*
X496063Y691339D02*
X508661D01*
X496063Y692520D02*
X508661D01*
X496457Y689567D02*
Y693110D01*
X497638Y689567D02*
Y693110D01*
X498819Y689567D02*
Y693110D01*
X500000Y689567D02*
Y693110D01*
X501181Y689567D02*
Y693110D01*
X502362Y689567D02*
Y693110D01*
X503543Y689567D02*
Y693110D01*
X504724Y689567D02*
Y693110D01*
X505906Y689567D02*
Y693110D01*
X507087Y689567D02*
Y693110D01*
X508268Y689567D02*
Y693110D01*
X478346Y644094D02*
Y641732D01*
X475197*
Y644094*
X478346*
X475197Y641732D02*
X478346D01*
X475197Y642913D02*
X478346D01*
X475197Y644094D02*
X478346D01*
X475197Y641732D02*
Y644094D01*
X476378Y641732D02*
Y644094D01*
X477559Y641732D02*
Y644094D01*
X478346Y650787D02*
Y648425D01*
X475197*
Y650787*
X478346*
X475197Y648819D02*
X478346D01*
X475197Y650000D02*
X478346D01*
X475197Y648425D02*
Y650787D01*
X476378Y648425D02*
Y650787D01*
X477559Y648425D02*
Y650787D01*
X481496Y648425D02*
Y650787D01*
X484646*
Y648425*
X481496*
Y648819D02*
X484646D01*
X481496Y650000D02*
X484646D01*
X482283Y648425D02*
Y650787D01*
X483465Y648425D02*
Y650787D01*
X484646Y648425D02*
Y650787D01*
X481496Y641732D02*
Y644094D01*
X484646*
Y641732*
X481496*
X484646*
X481496Y642913D02*
X484646D01*
X481496Y644094D02*
X484646D01*
X482283Y641732D02*
Y644094D01*
X483465Y641732D02*
Y644094D01*
X484646Y641732D02*
Y644094D01*
X474016Y662992D02*
Y665354D01*
X477165*
Y662992*
X474016*
X477165*
X474016Y664173D02*
X477165D01*
X474016Y665354D02*
X477165D01*
X474016Y662992D02*
Y665354D01*
X475197Y662992D02*
Y665354D01*
X476378Y662992D02*
Y665354D01*
X474016Y656299D02*
Y658661D01*
X477165*
Y656299*
X474016*
Y657087D02*
X477165D01*
X474016Y658268D02*
X477165D01*
X474016Y656299D02*
Y658661D01*
X475197Y656299D02*
Y658661D01*
X476378Y656299D02*
Y658661D01*
X470866D02*
Y656299D01*
X467717*
Y658661*
X470866*
X467717Y657087D02*
X470866D01*
X467717Y658268D02*
X470866D01*
X468110Y656299D02*
Y658661D01*
X469291Y656299D02*
Y658661D01*
X470472Y656299D02*
Y658661D01*
X470866Y665354D02*
Y662992D01*
X467717*
Y665354*
X470866*
X467717Y662992D02*
X470866D01*
X467717Y664173D02*
X470866D01*
X467717Y665354D02*
X470866D01*
X468110Y662992D02*
Y665354D01*
X469291Y662992D02*
Y665354D01*
X470472Y662992D02*
Y665354D01*
X470866Y644094D02*
Y641732D01*
X467717*
Y644094*
X470866*
X467717Y641732D02*
X470866D01*
X467717Y642913D02*
X470866D01*
X467717Y644094D02*
X470866D01*
X468110Y641732D02*
Y644094D01*
X469291Y641732D02*
Y644094D01*
X470472Y641732D02*
Y644094D01*
X470866Y650787D02*
Y648425D01*
X467717*
Y650787*
X470866*
X467717Y648819D02*
X470866D01*
X467717Y650000D02*
X470866D01*
X468110Y648425D02*
Y650787D01*
X469291Y648425D02*
Y650787D01*
X470472Y648425D02*
Y650787D01*
X490157Y687795D02*
X492520D01*
Y684646*
X490157*
Y687795*
Y685433D02*
X492520D01*
X490157Y686614D02*
X492520D01*
X490157Y687795D02*
X492520D01*
X490551Y684646D02*
Y687795D01*
X491732Y684646D02*
Y687795D01*
X483465D02*
X485827D01*
Y684646*
X483465*
Y687795*
Y685433D02*
X485827D01*
X483465Y686614D02*
X485827D01*
X483465Y687795D02*
X485827D01*
X483465Y684646D02*
Y687795D01*
X484646Y684646D02*
Y687795D01*
X485827Y684646D02*
Y687795D01*
X475394Y423031D02*
X478150D01*
Y419882*
X475394*
Y423031*
Y420866D02*
X478150D01*
X475394Y422047D02*
X478150D01*
X476378Y419882D02*
Y423031D01*
X477559Y419882D02*
Y423031D01*
X469094D02*
X471850D01*
Y419882*
X469094*
Y423031*
Y420866D02*
X471850D01*
X469094Y422047D02*
X471850D01*
X469291Y419882D02*
Y423031D01*
X470472Y419882D02*
Y423031D01*
X471654Y419882D02*
Y423031D01*
X560630Y443898D02*
Y446654D01*
X563780*
Y443898*
X560630*
Y444488D02*
X563780D01*
X560630Y445669D02*
X563780D01*
X561417Y443898D02*
Y446654D01*
X562598Y443898D02*
Y446654D01*
X563780Y443898D02*
Y446654D01*
X560630Y437598D02*
Y440354D01*
X563780*
Y437598*
X560630*
Y438583D02*
X563780D01*
X560630Y439764D02*
X563780D01*
X561417Y437598D02*
Y440354D01*
X562598Y437598D02*
Y440354D01*
X563780Y437598D02*
Y440354D01*
X473228Y602362D02*
Y605118D01*
X476378*
Y602362*
X473228*
Y602756D02*
X476378D01*
X473228Y603937D02*
X476378D01*
X473228Y605118D02*
X476378D01*
X474016Y602362D02*
Y605118D01*
X475197Y602362D02*
Y605118D01*
X476378Y602362D02*
Y605118D01*
X473228Y596063D02*
Y598819D01*
X476378*
Y596063*
X473228*
Y596850D02*
X476378D01*
X473228Y598031D02*
X476378D01*
X474016Y596063D02*
Y598819D01*
X475197Y596063D02*
Y598819D01*
X476378Y596063D02*
Y598819D01*
X572835Y664961D02*
Y667717D01*
X575984*
Y664961*
X572835*
Y665354D02*
X575984D01*
X572835Y666535D02*
X575984D01*
X572835Y667717D02*
X575984D01*
X573228Y664961D02*
Y667717D01*
X574409Y664961D02*
Y667717D01*
X575591Y664961D02*
Y667717D01*
X572835Y658661D02*
Y661417D01*
X575984*
Y658661*
X572835*
Y659449D02*
X575984D01*
X572835Y660630D02*
X575984D01*
X573228Y658661D02*
Y661417D01*
X574409Y658661D02*
Y661417D01*
X575591Y658661D02*
Y661417D01*
X437795Y427559D02*
Y430315D01*
X440945*
Y427559*
X437795*
Y427953D02*
X440945D01*
X437795Y429134D02*
X440945D01*
X437795Y430315D02*
X440945D01*
X438583Y427559D02*
Y430315D01*
X439764Y427559D02*
Y430315D01*
X440945Y427559D02*
Y430315D01*
X437795Y421260D02*
Y424016D01*
X440945*
Y421260*
X437795*
Y422047D02*
X440945D01*
X437795Y423228D02*
X440945D01*
X438583Y421260D02*
Y424016D01*
X439764Y421260D02*
Y424016D01*
X440945Y421260D02*
Y424016D01*
X582283Y471654D02*
Y468898D01*
X579134*
Y471654*
X582283*
X579134Y469291D02*
X582283D01*
X579134Y470472D02*
X582283D01*
X579134Y471654D02*
X582283D01*
X579134Y468898D02*
Y471654D01*
X580315Y468898D02*
Y471654D01*
X581496Y468898D02*
Y471654D01*
X582283Y477953D02*
Y475197D01*
X579134*
Y477953*
X582283*
X579134Y475197D02*
X582283D01*
X579134Y476378D02*
X582283D01*
X579134Y477559D02*
X582283D01*
X579134Y475197D02*
Y477953D01*
X580315Y475197D02*
Y477953D01*
X581496Y475197D02*
Y477953D01*
X582283Y521850D02*
Y519094D01*
X579134*
Y521850*
X582283*
X579134Y520079D02*
X582283D01*
X579134Y521260D02*
X582283D01*
X579134Y519094D02*
Y521850D01*
X580315Y519094D02*
Y521850D01*
X581496Y519094D02*
Y521850D01*
X582283Y528150D02*
Y525394D01*
X579134*
Y528150*
X582283*
X579134Y525984D02*
X582283D01*
X579134Y527165D02*
X582283D01*
X579134Y525394D02*
Y528150D01*
X580315Y525394D02*
Y528150D01*
X581496Y525394D02*
Y528150D01*
X482677Y602165D02*
Y599409D01*
X479528*
Y602165*
X482677*
X479528Y600394D02*
X482677D01*
X479528Y601575D02*
X482677D01*
X479921Y599409D02*
Y602165D01*
X481102Y599409D02*
Y602165D01*
X482283Y599409D02*
Y602165D01*
X482677Y608465D02*
Y605709D01*
X479528*
Y608465*
X482677*
X479528Y606299D02*
X482677D01*
X479528Y607480D02*
X482677D01*
X479921Y605709D02*
Y608465D01*
X481102Y605709D02*
Y608465D01*
X482283Y605709D02*
Y608465D01*
X515354Y584252D02*
X518110D01*
Y581102*
X515354*
Y584252*
Y581496D02*
X518110D01*
X515354Y582677D02*
X518110D01*
X515354Y583858D02*
X518110D01*
X515354Y581102D02*
Y584252D01*
X516535Y581102D02*
Y584252D01*
X517717Y581102D02*
Y584252D01*
X509055D02*
X511811D01*
Y581102*
X509055*
Y584252*
Y581496D02*
X511811D01*
X509055Y582677D02*
X511811D01*
X509055Y583858D02*
X511811D01*
X509449Y581102D02*
Y584252D01*
X510630Y581102D02*
Y584252D01*
X511811Y581102D02*
Y584252D01*
X523819Y699016D02*
Y693898D01*
X515551*
Y699016*
X523819*
X515551Y694882D02*
X523819D01*
X515551Y696063D02*
X523819D01*
X515551Y697244D02*
X523819D01*
X515551Y698425D02*
X523819D01*
X516535Y693898D02*
Y699016D01*
X517717Y693898D02*
Y699016D01*
X518898Y693898D02*
Y699016D01*
X520079Y693898D02*
Y699016D01*
X521260Y693898D02*
Y699016D01*
X522441Y693898D02*
Y699016D01*
X523622Y693898D02*
Y699016D01*
X523819Y715551D02*
Y710433D01*
X515551*
Y715551*
X523819*
X515551Y711417D02*
X523819D01*
X515551Y712598D02*
X523819D01*
X515551Y713780D02*
X523819D01*
X515551Y714961D02*
X523819D01*
X516535Y710433D02*
Y715551D01*
X517717Y710433D02*
Y715551D01*
X518898Y710433D02*
Y715551D01*
X520079Y710433D02*
Y715551D01*
X521260Y710433D02*
Y715551D01*
X522441Y710433D02*
Y715551D01*
X523622Y710433D02*
Y715551D01*
X452362Y659646D02*
Y662795D01*
X455512*
Y659646*
X452362*
Y660630D02*
X455512D01*
X452362Y661811D02*
X455512D01*
X452756Y659646D02*
Y662795D01*
X453937Y659646D02*
Y662795D01*
X455118Y659646D02*
Y662795D01*
X452362Y652165D02*
Y655315D01*
X455512*
Y652165*
X452362*
Y652362D02*
X455512D01*
X452362Y653543D02*
X455512D01*
X452362Y654724D02*
X455512D01*
X452756Y652165D02*
Y655315D01*
X453937Y652165D02*
Y655315D01*
X455118Y652165D02*
Y655315D01*
X461417Y655906D02*
Y659055D01*
X464567*
Y655906*
X461417*
X464567*
X461417Y657087D02*
X464567D01*
X461417Y658268D02*
X464567D01*
X462205Y655906D02*
Y659055D01*
X463386Y655906D02*
Y659055D01*
X464567Y655906D02*
Y659055D01*
X452362Y645079D02*
Y648228D01*
X455512*
Y645079*
X452362*
Y645276D02*
X455512D01*
X452362Y646457D02*
X455512D01*
X452362Y647638D02*
X455512D01*
X452756Y645079D02*
Y648228D01*
X453937Y645079D02*
Y648228D01*
X455118Y645079D02*
Y648228D01*
X452362Y637598D02*
Y640748D01*
X455512*
Y637598*
X452362*
Y638189D02*
X455512D01*
X452362Y639370D02*
X455512D01*
X452362Y640551D02*
X455512D01*
X452756Y637598D02*
Y640748D01*
X453937Y637598D02*
Y640748D01*
X455118Y637598D02*
Y640748D01*
X461417Y641339D02*
Y644488D01*
X464567*
Y641339*
X461417*
Y641732D02*
X464567D01*
X461417Y642913D02*
X464567D01*
X461417Y644094D02*
X464567D01*
X462205Y641339D02*
Y644488D01*
X463386Y641339D02*
Y644488D01*
X464567Y641339D02*
Y644488D01*
X505512Y577559D02*
X508268D01*
Y574409*
X505512*
Y577559*
Y574409D02*
X508268D01*
X505512Y575591D02*
X508268D01*
X505512Y576772D02*
X508268D01*
X505906Y574409D02*
Y577559D01*
X507087Y574409D02*
Y577559D01*
X508268Y574409D02*
Y577559D01*
X499213D02*
X501969D01*
Y574409*
X499213*
Y577559*
Y574409D02*
X501969D01*
X499213Y575591D02*
X501969D01*
X499213Y576772D02*
X501969D01*
X500000Y574409D02*
Y577559D01*
X501181Y574409D02*
Y577559D01*
X490945Y605118D02*
Y605512D01*
X493307*
Y605118*
X490945*
X493307*
X491732D02*
Y605512D01*
X492913Y605118D02*
Y605512D01*
X490945Y603150D02*
Y603543D01*
X493307*
Y603150*
X490945*
X491732D02*
Y603543D01*
X492913Y603150D02*
Y603543D01*
X490945Y601181D02*
Y601575D01*
X493307*
Y601181*
X490945*
Y601575D02*
X493307D01*
X491732Y601181D02*
Y601575D01*
X492913Y601181D02*
Y601575D01*
X490945Y599213D02*
Y599606D01*
X493307*
Y599213*
X490945*
X493307*
X491732D02*
Y599606D01*
X492913Y599213D02*
Y599606D01*
X490945Y597244D02*
Y597638D01*
X493307*
Y597244*
X490945*
X491732D02*
Y597638D01*
X492913Y597244D02*
Y597638D01*
X490945Y595276D02*
Y595669D01*
X493307*
Y595276*
X490945*
Y595669D02*
X493307D01*
X491732Y595276D02*
Y595669D01*
X492913Y595276D02*
Y595669D01*
X490945Y593307D02*
Y593701D01*
X493307*
Y593307*
X490945*
X493307*
X491732D02*
Y593701D01*
X492913Y593307D02*
Y593701D01*
X490945Y591339D02*
Y591732D01*
X493307*
Y591339*
X490945*
X491732D02*
Y591732D01*
X492913Y591339D02*
Y591732D01*
X494882Y589764D02*
X495276D01*
Y587402*
X494882*
Y589764*
Y587402D02*
X495276D01*
X494882Y588583D02*
X495276D01*
X494882Y589764D02*
X495276D01*
Y587402D02*
Y589764D01*
X496850D02*
X497244D01*
Y587402*
X496850*
Y589764*
Y587402D02*
X497244D01*
X496850Y588583D02*
X497244D01*
X496850Y589764D02*
X497244D01*
X498819D02*
X499213D01*
Y587402*
X498819*
Y589764*
Y587402D02*
X499213D01*
X498819Y588583D02*
X499213D01*
X498819Y589764D02*
X499213D01*
X498819Y587402D02*
Y589764D01*
X500787D02*
X501181D01*
Y587402*
X500787*
Y589764*
Y587402D02*
X501181D01*
X500787Y588583D02*
X501181D01*
X500787Y589764D02*
X501181D01*
Y587402D02*
Y589764D01*
X502756D02*
X503150D01*
Y587402*
X502756*
Y589764*
Y587402D02*
X503150D01*
X502756Y588583D02*
X503150D01*
X502756Y589764D02*
X503150D01*
X504724D02*
X505118D01*
Y587402*
X504724*
Y589764*
Y587402D02*
X505118D01*
X504724Y588583D02*
X505118D01*
X504724Y589764D02*
X505118D01*
X504724Y587402D02*
Y589764D01*
X506693D02*
X507087D01*
Y587402*
X506693*
Y589764*
Y587402D02*
X507087D01*
X506693Y588583D02*
X507087D01*
X506693Y589764D02*
X507087D01*
Y587402D02*
Y589764D01*
X508661D02*
X509055D01*
Y587402*
X508661*
Y589764*
Y587402D02*
X509055D01*
X508661Y588583D02*
X509055D01*
X508661Y589764D02*
X509055D01*
X510630Y591339D02*
Y591732D01*
X512992*
Y591339*
X510630*
Y591732*
X511811Y591339D02*
Y591732D01*
X512992Y591339D02*
Y591732D01*
X510630Y593307D02*
Y593701D01*
X512992*
Y593307*
X510630*
X512992*
X510630D02*
Y593701D01*
X511811Y593307D02*
Y593701D01*
X512992Y593307D02*
Y593701D01*
X510630Y595276D02*
Y595669D01*
X512992*
Y595276*
X510630*
Y595669D02*
X512992D01*
X510630Y595276D02*
Y595669D01*
X511811Y595276D02*
Y595669D01*
X512992Y595276D02*
Y595669D01*
X510630Y597244D02*
Y597638D01*
X512992*
Y597244*
X510630*
Y597638*
X511811Y597244D02*
Y597638D01*
X512992Y597244D02*
Y597638D01*
X510630Y599213D02*
Y599606D01*
X512992*
Y599213*
X510630*
X512992*
X510630D02*
Y599606D01*
X511811Y599213D02*
Y599606D01*
X512992Y599213D02*
Y599606D01*
X510630Y601181D02*
Y601575D01*
X512992*
Y601181*
X510630*
Y601575D02*
X512992D01*
X510630Y601181D02*
Y601575D01*
X511811Y601181D02*
Y601575D01*
X512992Y601181D02*
Y601575D01*
X510630Y603150D02*
Y603543D01*
X512992*
Y603150*
X510630*
Y603543*
X511811Y603150D02*
Y603543D01*
X512992Y603150D02*
Y603543D01*
X510630Y605118D02*
Y605512D01*
X512992*
Y605118*
X510630*
X512992*
X510630D02*
Y605512D01*
X511811Y605118D02*
Y605512D01*
X512992Y605118D02*
Y605512D01*
X508661Y609449D02*
X509055D01*
Y607087*
X508661*
Y609449*
Y607480D02*
X509055D01*
X508661Y608661D02*
X509055D01*
X506693Y609449D02*
X507087D01*
Y607087*
X506693*
Y609449*
Y607480D02*
X507087D01*
X506693Y608661D02*
X507087D01*
Y607087D02*
Y609449D01*
X504724D02*
X505118D01*
Y607087*
X504724*
Y609449*
Y607480D02*
X505118D01*
X504724Y608661D02*
X505118D01*
X504724Y607087D02*
Y609449D01*
X502756D02*
X503150D01*
Y607087*
X502756*
Y609449*
Y607480D02*
X503150D01*
X502756Y608661D02*
X503150D01*
X500787Y609449D02*
X501181D01*
Y607087*
X500787*
Y609449*
Y607480D02*
X501181D01*
X500787Y608661D02*
X501181D01*
Y607087D02*
Y609449D01*
X498819D02*
X499213D01*
Y607087*
X498819*
Y609449*
Y607480D02*
X499213D01*
X498819Y608661D02*
X499213D01*
X498819Y607087D02*
Y609449D01*
X496850D02*
X497244D01*
Y607087*
X496850*
Y609449*
Y607480D02*
X497244D01*
X496850Y608661D02*
X497244D01*
X494882Y609449D02*
X495276D01*
Y607087*
X494882*
Y609449*
Y607480D02*
X495276D01*
X494882Y608661D02*
X495276D01*
Y607087D02*
Y609449D01*
X496260Y592717D02*
Y604134D01*
X507677*
Y592717*
X496260*
Y593307D02*
X507677D01*
X496260Y594488D02*
X507677D01*
X496260Y595669D02*
X507677D01*
X496260Y596850D02*
X507677D01*
X496260Y598031D02*
X507677D01*
X496260Y599213D02*
X507677D01*
X496260Y600394D02*
X507677D01*
X496260Y601575D02*
X507677D01*
X496260Y602756D02*
X507677D01*
X496260Y603937D02*
X507677D01*
X496457Y592717D02*
Y604134D01*
X497638Y592717D02*
Y604134D01*
X498819Y592717D02*
Y604134D01*
X500000Y592717D02*
Y604134D01*
X501181Y592717D02*
Y604134D01*
X502362Y592717D02*
Y604134D01*
X503543Y592717D02*
Y604134D01*
X504724Y592717D02*
Y604134D01*
X505906Y592717D02*
Y604134D01*
X507087Y592717D02*
Y604134D01*
X428346Y433071D03*
X418504D03*
X505630Y414764D03*
X495630Y414803D03*
X475591Y417126D03*
X481890Y429114D03*
Y432933D03*
X469291Y417126D03*
X437402Y433071D03*
X443701Y422638D03*
Y428937D03*
X447244Y422638D03*
X449803Y433071D03*
X453346D03*
X405118Y471693D03*
X399409Y466024D03*
X405118Y451693D03*
Y460354D03*
Y480354D03*
X480709Y442933D03*
X470866D03*
Y439114D03*
X443701Y437205D03*
X435630Y456024D03*
X481102Y510630D03*
X453937Y486024D03*
X486614Y506693D03*
X482677D03*
X445276Y474803D03*
X443701Y443504D03*
X488189Y512205D03*
X557874Y446457D03*
X556299Y507283D03*
X585039Y470276D03*
X576378Y476575D03*
X585039Y451575D03*
X562205Y434843D03*
X568504Y468307D03*
X574409Y440945D03*
X568504D03*
X470472Y563386D03*
X492126Y529331D03*
X479528Y525000D03*
X477953Y517913D03*
X457087Y559055D03*
X513189Y577953D03*
X470472Y575000D03*
Y570472D03*
X485039Y592323D03*
X453937Y576378D03*
X455512Y555039D03*
X481496Y592913D03*
X455512Y573228D03*
X485433Y588780D03*
X490157Y577559D03*
X515157Y574803D03*
X517126Y577953D03*
X546850Y584843D03*
X524016Y574409D03*
X521063Y589370D03*
X556299Y515945D03*
X527953Y574409D03*
X551181Y568898D03*
X525000Y589370D03*
X573425Y519291D03*
X576378Y526772D03*
X541535Y584843D03*
X537992D03*
X519094Y592520D03*
X534449Y584843D03*
X525984Y571260D03*
X523031Y592520D03*
X429528Y651693D03*
X399409Y666024D03*
X429528Y660354D03*
X461417Y614764D03*
X511614Y613583D03*
X509646Y616732D03*
X503543Y593701D03*
X506693D03*
Y596850D03*
X503543D03*
Y603150D03*
X500394Y596850D03*
X476772Y608268D03*
X500394Y600000D03*
X497244Y596850D03*
Y593701D03*
X506693Y600000D03*
Y603150D03*
X503543Y600000D03*
X500394Y603150D03*
X497244Y600000D03*
Y603150D03*
X513583Y616732D03*
X435630Y625787D03*
X458268Y639173D03*
X437402Y636024D03*
X435236Y633071D03*
X450000Y616929D03*
Y611417D03*
X476772Y612205D03*
X441732Y613386D03*
X485433Y607087D03*
X500394Y593701D03*
X485433Y600787D03*
X470472Y603740D03*
X486614Y632677D03*
X458268Y653740D03*
X470472Y597441D03*
X483071Y653543D03*
X458661Y611811D03*
X442520Y605906D03*
X446457Y606890D03*
X447244Y614173D03*
X455709Y621654D03*
X435630Y666024D03*
X480315Y614764D03*
X484252D03*
X476772Y653543D03*
X525000Y607480D03*
X527362Y598425D03*
X546850Y612008D03*
X534449D03*
X525984Y625591D03*
X519094Y604331D03*
X551181Y627953D03*
X524016Y622441D03*
X523031Y604331D03*
X537992Y612008D03*
X570079Y666339D03*
X527953Y622441D03*
X534449Y598425D03*
X537992D03*
X541535Y612008D03*
X530906Y598425D03*
X521063Y607480D03*
X491339Y709843D03*
X484646Y696850D03*
X491339Y681890D03*
X512795Y712992D03*
Y696457D03*
X487008Y705512D03*
X502362Y686811D03*
X498425D03*
X506299D03*
X484646Y681890D03*
X526575Y712992D03*
X519685Y718307D03*
X526575Y696457D03*
X519685Y691142D03*
G54D36*
X598425Y688976D03*
X405512D03*
Y433071D03*
G54D42*
G54D45*
X409449Y409449D03*
X594488D03*
Y712598D03*
X409449D03*
G54D49*
X531496Y653543D03*
X511811D03*
X531496Y543307D03*
X511811D03*
G54D50*
X564961Y688976D03*
X545276D03*
X573622Y577756D03*
Y591535D03*
Y605315D03*
Y619094D03*
X459646Y693307D03*
X445866D03*
G54D51*
X417323Y461024D03*
Y661024D03*
X598425Y526693D03*
Y516693D03*
Y506693D03*
Y496693D03*
Y476693D03*
Y466693D03*
Y456693D03*
Y446693D03*
Y436693D03*
Y666693D03*
Y656693D03*
X501969Y476693D03*
Y486693D03*
X541339Y476693D03*
Y486693D03*
X462598Y476693D03*
Y486693D03*
G54D52*
X412323Y456024D03*
X422323D03*
X412323Y466024D03*
X422323D03*
X412323Y476024D03*
X422323D03*
X412323Y486024D03*
X422323D03*
X412323Y496024D03*
X422323D03*
X412323Y506024D03*
X422323D03*
X412323Y516024D03*
X422323D03*
X412323Y526024D03*
X422323D03*
X412323Y536024D03*
X422323D03*
X412323Y546024D03*
X422323D03*
X412323Y556024D03*
X422323D03*
X412323Y566024D03*
X422323D03*
X412323Y576024D03*
X422323D03*
X412323Y586024D03*
X422323D03*
X412323Y596024D03*
X422323D03*
X412323Y606024D03*
X422323D03*
X412323Y616024D03*
X422323D03*
X412323Y626024D03*
X422323D03*
X412323Y636024D03*
X422323D03*
X412323Y646024D03*
X422323D03*
X412323Y656024D03*
X422323D03*
X412323Y666024D03*
X422323D03*
X0Y0D02*
M02*
