*
*
G04 PADS VX.2.7 Build Number: 15549477 generated Gerber (RS-274-X) file*
G04 PC Version=2.1*
*
%IN "TMC5240-SA-DEV_V10.pcb"*%
*
%MOIN*%
*
%FSLAX35Y35*%
*
*
*
*
G04 PC Standard Apertures*
*
*
G04 Thermal Relief Aperture macro.*
%AMTER*
1,1,$1,0,0*
1,0,$1-$2,0,0*
21,0,$3,$4,0,0,45*
21,0,$3,$4,0,0,135*
%
*
*
G04 Annular Aperture macro.*
%AMANN*
1,1,$1,0,0*
1,0,$2,0,0*
%
*
*
G04 Odd Aperture macro.*
%AMODD*
1,1,$1,0,0*
1,0,$1-0.005,0,0*
%
*
*
G04 PC Custom Aperture Macros*
*
*
*
*
*
*
G04 PC Aperture Table*
*
%ADD011C,0.00787*%
%ADD017C,0.00394*%
%ADD042C,0.001*%
%ADD056C,0.00157*%
*
*
*
*
G04 PC Circuitry*
G04 Layer Name TMC5240-SA-DEV_V10.pcb - circuitry*
%LPD*%
*
*
G04 PC Custom Flashes*
G04 Layer Name TMC5240-SA-DEV_V10.pcb - flashes*
%LPD*%
*
*
G04 PC Circuitry*
G04 Layer Name TMC5240-SA-DEV_V10.pcb - circuitry*
%LPD*%
*
G54D11*
G01X393701Y409449D02*
G75*
G03X409449Y393701I15748J-0D01*
G01X594488*
G03X610236Y409449I0J15748*
G01Y712598*
G03X594488Y728346I-15748J0*
G01X409449*
G03X393701Y712598I-0J-15748*
G01Y409449*
G54D17*
X448583D02*
G03X448583I-2953J0D01*
G01X488583D02*
G03X488583I-2953J0D01*
G01X478583D02*
G03X478583I-2953J0D01*
G01X438583D02*
G03X438583I-2953J0D01*
G01X508583D02*
G03X508583I-2953J0D01*
G01X498583D02*
G03X498583I-2953J0D01*
G01X458583D02*
G03X458583I-2953J0D01*
G01X468583D02*
G03X468583I-2953J0D01*
G54D42*
G54D56*
G01X443833Y409867D02*
Y408834D01*
X443583Y409867D02*
X444084D01*
X444406D02*
Y408834D01*
Y409867D02*
X444728D01*
X444835Y409818*
X444871Y409769*
X444907Y409670*
Y409523*
X444871Y409424*
X444835Y409375*
X444728Y409326*
X444406*
X445265Y409621D02*
Y409670D01*
X445301Y409769*
X445336Y409818*
X445408Y409867*
X445551*
X445623Y409818*
X445659Y409769*
X445694Y409670*
Y409572*
X445659Y409473*
X445587Y409326*
X445229Y408834*
X445730*
X446267Y409867D02*
X446160Y409818D01*
X446088Y409670*
X446052Y409424*
Y409277*
X446088Y409031*
X446160Y408883*
X446267Y408834*
X446339*
X446446Y408883*
X446518Y409031*
X446553Y409277*
Y409424*
X446518Y409670*
X446446Y409818*
X446339Y409867*
X446267*
X446911Y409621D02*
Y409670D01*
X446947Y409769*
X446983Y409818*
X447054Y409867*
X447198*
X447269Y409818*
X447305Y409769*
X447341Y409670*
Y409572*
X447305Y409473*
X447233Y409326*
X446875Y408834*
X447377*
X483851Y409867D02*
Y408834D01*
X483601Y409867D02*
X484102D01*
X484424D02*
Y408834D01*
Y409867D02*
X484746D01*
X484853Y409818*
X484889Y409769*
X484925Y409670*
Y409523*
X484889Y409424*
X484853Y409375*
X484746Y409326*
X484424*
X485283Y409621D02*
Y409670D01*
X485319Y409769*
X485354Y409818*
X485426Y409867*
X485569*
X485641Y409818*
X485676Y409769*
X485712Y409670*
Y409572*
X485676Y409473*
X485605Y409326*
X485247Y408834*
X485748*
X486285Y409867D02*
X486178Y409818D01*
X486106Y409670*
X486070Y409424*
Y409277*
X486106Y409031*
X486178Y408883*
X486285Y408834*
X486356*
X486464Y408883*
X486535Y409031*
X486571Y409277*
Y409424*
X486535Y409670*
X486464Y409818*
X486356Y409867*
X486285*
X487323Y409719D02*
X487287Y409818D01*
X487180Y409867*
X487108*
X487001Y409818*
X486929Y409670*
X486893Y409424*
Y409178*
X486929Y408981*
X487001Y408883*
X487108Y408834*
X487144*
X487251Y408883*
X487323Y408981*
X487359Y409129*
Y409178*
X487323Y409326*
X487251Y409424*
X487144Y409473*
X487108*
X487001Y409424*
X486929Y409326*
X486893Y409178*
X473815Y409867D02*
Y408834D01*
X473565Y409867D02*
X474066D01*
X474388D02*
Y408834D01*
Y409867D02*
X474710D01*
X474817Y409818*
X474853Y409769*
X474889Y409670*
Y409523*
X474853Y409424*
X474817Y409375*
X474710Y409326*
X474388*
X475247Y409621D02*
Y409670D01*
X475283Y409769*
X475319Y409818*
X475390Y409867*
X475533*
X475605Y409818*
X475641Y409769*
X475676Y409670*
Y409572*
X475641Y409473*
X475569Y409326*
X475211Y408834*
X475712*
X476249Y409867D02*
X476142Y409818D01*
X476070Y409670*
X476034Y409424*
Y409277*
X476070Y409031*
X476142Y408883*
X476249Y408834*
X476321*
X476428Y408883*
X476500Y409031*
X476535Y409277*
Y409424*
X476500Y409670*
X476428Y409818*
X476321Y409867*
X476249*
X477323D02*
X476965D01*
X476929Y409424*
X476965Y409473*
X477072Y409523*
X477180*
X477287Y409473*
X477359Y409375*
X477394Y409227*
X477359Y409129*
X477323Y408981*
X477251Y408883*
X477144Y408834*
X477037*
X476929Y408883*
X476893Y408932*
X476858Y409031*
X433994Y409867D02*
Y408834D01*
X433744Y409867D02*
X434245D01*
X434567D02*
Y408834D01*
Y409867D02*
X434889D01*
X434996Y409818*
X435032Y409769*
X435068Y409670*
Y409523*
X435032Y409424*
X434996Y409375*
X434889Y409326*
X434567*
X435426Y409621D02*
Y409670D01*
X435462Y409769*
X435497Y409818*
X435569Y409867*
X435712*
X435784Y409818*
X435820Y409769*
X435855Y409670*
Y409572*
X435820Y409473*
X435748Y409326*
X435390Y408834*
X435891*
X436428Y409867D02*
X436321Y409818D01*
X436249Y409670*
X436213Y409424*
Y409277*
X436249Y409031*
X436321Y408883*
X436428Y408834*
X436500*
X436607Y408883*
X436679Y409031*
X436714Y409277*
Y409424*
X436679Y409670*
X436607Y409818*
X436500Y409867*
X436428*
X437037Y409670D02*
X437108Y409719D01*
X437215Y409867*
Y408834*
X503833Y409867D02*
Y408834D01*
X503583Y409867D02*
X504084D01*
X504406D02*
Y408834D01*
Y409867D02*
X504728D01*
X504835Y409818*
X504871Y409769*
X504907Y409670*
Y409523*
X504871Y409424*
X504835Y409375*
X504728Y409326*
X504406*
X505265Y409621D02*
Y409670D01*
X505301Y409769*
X505336Y409818*
X505408Y409867*
X505551*
X505623Y409818*
X505659Y409769*
X505694Y409670*
Y409572*
X505659Y409473*
X505587Y409326*
X505229Y408834*
X505730*
X506267Y409867D02*
X506160Y409818D01*
X506088Y409670*
X506052Y409424*
Y409277*
X506088Y409031*
X506160Y408883*
X506267Y408834*
X506339*
X506446Y408883*
X506518Y409031*
X506553Y409277*
Y409424*
X506518Y409670*
X506446Y409818*
X506339Y409867*
X506267*
X507054D02*
X506947Y409818D01*
X506911Y409719*
Y409621*
X506947Y409523*
X507019Y409473*
X507162Y409424*
X507269Y409375*
X507341Y409277*
X507377Y409178*
Y409031*
X507341Y408932*
X507305Y408883*
X507198Y408834*
X507054*
X506947Y408883*
X506911Y408932*
X506875Y409031*
Y409178*
X506911Y409277*
X506983Y409375*
X507090Y409424*
X507233Y409473*
X507305Y409523*
X507341Y409621*
Y409719*
X507305Y409818*
X507198Y409867*
X507054*
X493833D02*
Y408834D01*
X493583Y409867D02*
X494084D01*
X494406D02*
Y408834D01*
Y409867D02*
X494728D01*
X494835Y409818*
X494871Y409769*
X494907Y409670*
Y409523*
X494871Y409424*
X494835Y409375*
X494728Y409326*
X494406*
X495265Y409621D02*
Y409670D01*
X495301Y409769*
X495336Y409818*
X495408Y409867*
X495551*
X495623Y409818*
X495659Y409769*
X495694Y409670*
Y409572*
X495659Y409473*
X495587Y409326*
X495229Y408834*
X495730*
X496267Y409867D02*
X496160Y409818D01*
X496088Y409670*
X496052Y409424*
Y409277*
X496088Y409031*
X496160Y408883*
X496267Y408834*
X496339*
X496446Y408883*
X496518Y409031*
X496553Y409277*
Y409424*
X496518Y409670*
X496446Y409818*
X496339Y409867*
X496267*
X497377D02*
X497019Y408834D01*
X496875Y409867D02*
X497377D01*
X453833D02*
Y408834D01*
X453583Y409867D02*
X454084D01*
X454406D02*
Y408834D01*
Y409867D02*
X454728D01*
X454835Y409818*
X454871Y409769*
X454907Y409670*
Y409523*
X454871Y409424*
X454835Y409375*
X454728Y409326*
X454406*
X455265Y409621D02*
Y409670D01*
X455301Y409769*
X455336Y409818*
X455408Y409867*
X455551*
X455623Y409818*
X455659Y409769*
X455694Y409670*
Y409572*
X455659Y409473*
X455587Y409326*
X455229Y408834*
X455730*
X456267Y409867D02*
X456160Y409818D01*
X456088Y409670*
X456052Y409424*
Y409277*
X456088Y409031*
X456160Y408883*
X456267Y408834*
X456339*
X456446Y408883*
X456518Y409031*
X456553Y409277*
Y409424*
X456518Y409670*
X456446Y409818*
X456339Y409867*
X456267*
X456947D02*
X457341D01*
X457126Y409473*
X457233*
X457305Y409424*
X457341Y409375*
X457377Y409227*
Y409129*
X457341Y408981*
X457269Y408883*
X457162Y408834*
X457054*
X456947Y408883*
X456911Y408932*
X456875Y409031*
X463815Y409867D02*
Y408834D01*
X463565Y409867D02*
X464066D01*
X464388D02*
Y408834D01*
Y409867D02*
X464710D01*
X464817Y409818*
X464853Y409769*
X464889Y409670*
Y409523*
X464853Y409424*
X464817Y409375*
X464710Y409326*
X464388*
X465247Y409621D02*
Y409670D01*
X465283Y409769*
X465319Y409818*
X465390Y409867*
X465533*
X465605Y409818*
X465641Y409769*
X465676Y409670*
Y409572*
X465641Y409473*
X465569Y409326*
X465211Y408834*
X465712*
X466249Y409867D02*
X466142Y409818D01*
X466070Y409670*
X466034Y409424*
Y409277*
X466070Y409031*
X466142Y408883*
X466249Y408834*
X466321*
X466428Y408883*
X466500Y409031*
X466535Y409277*
Y409424*
X466500Y409670*
X466428Y409818*
X466321Y409867*
X466249*
X467215D02*
X466858Y409178D01*
X467394*
X467215Y409867D02*
Y408834D01*
G74*
X0Y0D02*
M02*
